# Generated by tools/models/generate_all.gd - DO NOT EDIT BY HAND.
# Change the generator and re-run:
#   godot --headless -s tools/models/generate_all.gd
mtllib env_puno_saging.mtl
o PunoSaging
v 0.00000 0.00000 0.00000
v 0.22000 0.00000 0.00000
v 0.13717 0.00000 0.17200
v 0.19000 1.32000 0.00000
v 0.11846 1.32000 0.14855
v 0.13000 2.40000 0.00000
v 0.08105 2.40000 0.10164
v 0.00000 2.40000 0.00000
v -0.04895 0.00000 0.21448
v -0.04228 1.32000 0.18524
v -0.02893 2.40000 0.12674
v -0.19821 0.00000 0.09545
v -0.17118 1.32000 0.08244
v -0.11713 2.40000 0.05640
v -0.19821 0.00000 -0.09545
v -0.17118 1.32000 -0.08244
v -0.11713 2.40000 -0.05640
v -0.04895 0.00000 -0.21448
v -0.04228 1.32000 -0.18524
v -0.02893 2.40000 -0.12674
v 0.13717 0.00000 -0.17200
v 0.11846 1.32000 -0.14855
v 0.08105 2.40000 -0.10164
v 0.10000 2.30000 0.36000
v 1.27500 1.61500 0.41400
v 1.27500 1.61500 -0.41400
v 0.10000 2.30000 -0.36000
v 2.45000 1.25000 0.02160
v 2.45000 1.25000 -0.02160
v -0.26177 2.30000 0.26660
v 0.27897 1.47500 1.31118
v 0.99603 1.47500 0.89718
v 0.36177 2.30000 -0.09340
v 1.20629 1.25000 2.13256
v 1.24371 1.25000 2.11096
v -0.36177 2.30000 -0.09340
v -0.99603 1.61500 0.89718
v -0.27897 1.61500 1.31118
v 0.26177 2.30000 0.26660
v -1.24371 1.25000 2.11096
v -1.20629 1.25000 2.13256
v -0.10000 2.30000 -0.36000
v -1.27500 1.47500 -0.41400
v -1.27500 1.47500 0.41400
v -0.10000 2.30000 0.36000
v -2.45000 1.25000 -0.02160
v -2.45000 1.25000 0.02160
v 0.26177 2.30000 -0.26660
v -0.27897 1.61500 -1.31118
v -0.99603 1.61500 -0.89718
v -0.36177 2.30000 0.09340
v -1.20629 1.25000 -2.13256
v -1.24371 1.25000 -2.11096
v 0.36177 2.30000 0.09340
v 0.99603 1.47500 -0.89718
v 0.27897 1.47500 -1.31118
v -0.26177 2.30000 -0.26660
v 1.24371 1.25000 -2.11096
v 1.20629 1.25000 -2.13256
v 0.19000 0.85250 0.00000
v 0.11846 0.85250 0.14855
v 0.13000 1.55000 0.00000
v 0.08105 1.55000 0.10164
v 0.00000 1.55000 0.00000
v -0.04228 0.85250 0.18524
v -0.02893 1.55000 0.12674
v -0.17118 0.85250 0.08244
v -0.11713 1.55000 0.05640
v -0.17118 0.85250 -0.08244
v -0.11713 1.55000 -0.05640
v -0.04228 0.85250 -0.18524
v -0.02893 1.55000 -0.12674
v 0.11846 0.85250 -0.14855
v 0.08105 1.55000 -0.10164
v 0.41352 1.45000 0.59367
v 1.13933 0.91500 1.03804
v 1.44808 0.91500 0.47287
v 0.68200 1.45000 0.10222
v 2.03159 0.70000 1.17771
v 2.04770 0.70000 1.14822
v 0.16634 1.45000 0.34654
v -0.03199 0.77500 1.17415
v 0.60092 0.77500 1.29314
v 0.71670 1.45000 0.45001
v 0.11090 0.70000 2.06590
v 0.14392 0.70000 2.07211
v 0.32499 1.45000 0.03510
v -0.52339 0.91500 0.10222
v -0.44098 0.91500 0.74092
v 0.39665 1.45000 0.59049
v -1.32735 0.70000 0.51368
v -1.32305 0.70000 0.54700
v 0.67022 1.45000 0.08974
v 0.34422 0.77500 -0.69638
v -0.23776 0.77500 -0.42063
v 0.16415 1.45000 0.32952
v -0.29554 0.70000 -1.33384
v -0.32591 0.70000 -1.31945
v 0.72493 1.45000 0.43495
v 1.37184 0.91500 -0.11801
v 0.92974 0.91500 -0.58630
v 0.34050 1.45000 0.02775
v 1.78040 0.70000 -0.92345
v 1.75733 0.70000 -0.94788
vn 0.00000 -1.00000 0.00000
vn 0.90078 0.02047 0.43379
vn 0.89984 0.04999 0.43334
vn 0.00000 1.00000 0.00000
vn 0.22247 0.02047 0.97472
vn 0.22224 0.04999 0.97371
vn -0.62336 0.02047 0.78167
vn -0.62271 0.04999 0.78085
vn -0.99979 0.02047 0.00000
vn -0.99875 0.04999 0.00000
vn -0.62336 0.02047 -0.78167
vn -0.62271 0.04999 -0.78085
vn 0.22247 0.02047 -0.97472
vn 0.22224 0.04999 -0.97371
vn 0.90078 0.02047 -0.43379
vn 0.89984 0.04999 -0.43334
vn 0.50364 0.86391 0.00000
vn -0.50364 -0.86391 0.00000
vn 0.29665 0.95498 0.00000
vn 0.29666 0.95498 0.00000
vn -0.29665 -0.95498 0.00000
vn -0.29666 -0.95498 0.00000
vn 0.28732 0.81841 0.49764
vn -0.28732 -0.81841 -0.49764
vn 0.09404 0.98216 0.16288
vn -0.09404 -0.98216 -0.16288
vn -0.25182 0.86391 0.43617
vn 0.25182 -0.86391 -0.43617
vn -0.14833 0.95498 0.25691
vn 0.14833 -0.95498 -0.25691
vn -0.57463 0.81841 0.00000
vn 0.57463 -0.81841 0.00000
vn -0.18807 0.98216 0.00000
vn 0.18807 -0.98216 0.00000
vn -0.25182 0.86391 -0.43617
vn 0.25182 -0.86391 0.43617
vn -0.14833 0.95498 -0.25691
vn 0.14833 -0.95498 0.25691
vn 0.28732 0.81841 -0.49764
vn -0.28732 -0.81841 0.49764
vn 0.09404 0.98216 -0.16288
vn -0.09404 -0.98216 0.16288
vn 0.90052 0.03169 0.43367
vn 0.89828 0.07727 0.43259
vn 0.22241 0.03169 0.97444
vn 0.22186 0.07727 0.97201
vn -0.62318 0.03169 0.78144
vn -0.62163 0.07727 0.77949
vn -0.99950 0.03169 0.00000
vn -0.99701 0.07727 0.00000
vn -0.62318 0.03169 -0.78144
vn -0.62163 0.07727 -0.77949
vn 0.22241 0.03169 -0.97444
vn 0.22186 0.07727 -0.97201
vn 0.90052 0.03169 -0.43367
vn 0.89828 0.07727 -0.43259
vn 0.46747 0.84632 0.25538
vn -0.46747 -0.84632 -0.25538
vn 0.21520 0.96947 0.11756
vn -0.21520 -0.96947 -0.11756
vn -0.11491 0.78311 0.61117
vn 0.11491 -0.78311 -0.61117
vn -0.01624 0.99613 0.08638
vn 0.01624 -0.99613 -0.08638
vn -0.52830 0.84632 0.06817
vn 0.52830 -0.84632 -0.06817
vn -0.24320 0.96947 0.03138
vn 0.24320 -0.96947 -0.03138
vn -0.26628 0.78311 -0.56199
vn 0.26628 -0.78311 0.56199
vn -0.03763 0.99613 -0.07943
vn 0.03763 -0.99613 0.07943
vn 0.38734 0.84632 -0.36568
vn -0.38734 -0.84632 0.36568
vn 0.17831 0.96947 -0.16834
vn -0.17831 -0.96947 0.16834
usemtl stem
f 1//1 2//1 3//1
f 2//2 4//2 5//2
f 2//2 5//2 3//2
f 4//3 6//3 7//3
f 4//3 7//3 5//3
f 6//4 8//4 7//4
f 1//1 3//1 9//1
f 3//5 5//5 10//5
f 3//5 10//5 9//5
f 5//6 7//6 11//6
f 5//6 11//6 10//6
f 7//4 8//4 11//4
f 1//1 9//1 12//1
f 9//7 10//7 13//7
f 9//7 13//7 12//7
f 10//8 11//8 14//8
f 10//8 14//8 13//8
f 11//4 8//4 14//4
f 1//1 12//1 15//1
f 12//9 13//9 16//9
f 12//9 16//9 15//9
f 13//10 14//10 17//10
f 13//10 17//10 16//10
f 14//4 8//4 17//4
f 1//1 15//1 18//1
f 15//11 16//11 19//11
f 15//11 19//11 18//11
f 16//12 17//12 20//12
f 16//12 20//12 19//12
f 17//4 8//4 20//4
f 1//1 18//1 21//1
f 18//13 19//13 22//13
f 18//13 22//13 21//13
f 19//14 20//14 23//14
f 19//14 23//14 22//14
f 20//4 8//4 23//4
f 1//1 21//1 2//1
f 21//15 22//15 4//15
f 21//15 4//15 2//15
f 22//16 23//16 6//16
f 22//16 6//16 4//16
f 23//4 8//4 6//4
f 1//1 2//1 3//1
f 2//43 60//43 61//43
f 2//43 61//43 3//43
f 60//44 62//44 63//44
f 60//44 63//44 61//44
f 62//4 64//4 63//4
f 1//1 3//1 9//1
f 3//45 61//45 65//45
f 3//45 65//45 9//45
f 61//46 63//46 66//46
f 61//46 66//46 65//46
f 63//4 64//4 66//4
f 1//1 9//1 12//1
f 9//47 65//47 67//47
f 9//47 67//47 12//47
f 65//48 66//48 68//48
f 65//48 68//48 67//48
f 66//4 64//4 68//4
f 1//1 12//1 15//1
f 12//49 67//49 69//49
f 12//49 69//49 15//49
f 67//50 68//50 70//50
f 67//50 70//50 69//50
f 68//4 64//4 70//4
f 1//1 15//1 18//1
f 15//51 69//51 71//51
f 15//51 71//51 18//51
f 69//52 70//52 72//52
f 69//52 72//52 71//52
f 70//4 64//4 72//4
f 1//1 18//1 21//1
f 18//53 71//53 73//53
f 18//53 73//53 21//53
f 71//54 72//54 74//54
f 71//54 74//54 73//54
f 72//4 64//4 74//4
f 1//1 21//1 2//1
f 21//55 73//55 60//55
f 21//55 60//55 2//55
f 73//56 74//56 62//56
f 73//56 62//56 60//56
f 74//4 64//4 62//4
usemtl leaf
f 30//23 31//23 32//23
f 30//23 32//23 33//23
f 33//24 32//24 31//24
f 33//24 31//24 30//24
f 31//25 34//25 35//25
f 31//25 35//25 32//25
f 32//26 35//26 34//26
f 32//26 34//26 31//26
f 42//31 43//31 44//31
f 42//31 44//31 45//31
f 45//32 44//32 43//32
f 45//32 43//32 42//32
f 43//33 46//33 47//33
f 43//33 47//33 44//33
f 44//34 47//34 46//34
f 44//34 46//34 43//34
f 54//39 55//39 56//39
f 54//39 56//39 57//39
f 57//40 56//40 55//40
f 57//40 55//40 54//40
f 55//41 58//41 59//41
f 55//41 59//41 56//41
f 56//42 59//42 58//42
f 56//42 58//42 55//42
f 81//61 82//61 83//61
f 81//61 83//61 84//61
f 84//62 83//62 82//62
f 84//62 82//62 81//62
f 82//63 85//63 86//63
f 82//63 86//63 83//63
f 83//64 86//64 85//64
f 83//64 85//64 82//64
f 93//69 94//69 95//69
f 93//69 95//69 96//69
f 96//70 95//70 94//70
f 96//70 94//70 93//70
f 94//71 97//71 98//71
f 94//71 98//71 95//71
f 95//72 98//72 97//72
f 95//72 97//72 94//72
usemtl leaf_old
f 24//17 25//17 26//17
f 24//17 26//17 27//17
f 27//18 26//18 25//18
f 27//18 25//18 24//18
f 25//19 28//20 29//19
f 25//19 29//19 26//19
f 26//21 29//22 28//21
f 26//21 28//21 25//21
f 36//27 37//27 38//27
f 36//27 38//27 39//27
f 39//28 38//28 37//28
f 39//28 37//28 36//28
f 37//29 40//29 41//29
f 37//29 41//29 38//29
f 38//30 41//30 40//30
f 38//30 40//30 37//30
f 48//35 49//35 50//35
f 48//35 50//35 51//35
f 51//36 50//36 49//36
f 51//36 49//36 48//36
f 49//37 52//37 53//37
f 49//37 53//37 50//37
f 50//38 53//38 52//38
f 50//38 52//38 49//38
f 75//57 76//57 77//57
f 75//57 77//57 78//57
f 78//58 77//58 76//58
f 78//58 76//58 75//58
f 76//59 79//59 80//59
f 76//59 80//59 77//59
f 77//60 80//60 79//60
f 77//60 79//60 76//60
f 87//65 88//65 89//65
f 87//65 89//65 90//65
f 90//66 89//66 88//66
f 90//66 88//66 87//66
f 88//67 91//67 92//67
f 88//67 92//67 89//67
f 89//68 92//68 91//68
f 89//68 91//68 88//68
f 99//73 100//73 101//73
f 99//73 101//73 102//73
f 102//74 101//74 100//74
f 102//74 100//74 99//74
f 100//75 103//75 104//75
f 100//75 104//75 101//75
f 101//76 104//76 103//76
f 101//76 103//76 100//76
