# Generated by tools/models/generate_all.gd - DO NOT EDIT BY HAND.
# Change the generator and re-run:
#   godot --headless -s tools/models/generate_all.gd
mtllib env_puno_mangga.mtl
o PunoMangga
v 0.00000 0.00000 0.00000
v 0.46000 0.00000 0.00000
v 0.32527 0.00000 0.32527
v 0.30000 0.90000 0.00000
v 0.21213 0.90000 0.21213
v 0.26000 1.55000 0.00000
v 0.18385 1.55000 0.18385
v 0.00000 0.00000 0.46000
v 0.00000 0.90000 0.30000
v 0.00000 1.55000 0.26000
v -0.32527 0.00000 0.32527
v -0.21213 0.90000 0.21213
v -0.18385 1.55000 0.18385
v -0.46000 0.00000 0.00000
v -0.30000 0.90000 0.00000
v -0.26000 1.55000 0.00000
v -0.32527 0.00000 -0.32527
v -0.21213 0.90000 -0.21213
v -0.18385 1.55000 -0.18385
v 0.00000 0.00000 -0.46000
v 0.00000 0.90000 -0.30000
v 0.00000 1.55000 -0.26000
v 0.32527 0.00000 -0.32527
v 0.21213 0.90000 -0.21213
v 0.18385 1.55000 -0.18385
v 0.48189 1.20000 0.43083
v 0.48189 2.35000 0.43083
v 0.38515 2.35000 0.56398
v 0.38515 1.20000 0.56398
v 0.22862 2.35000 0.51312
v 0.22862 1.20000 0.51312
v 0.22862 2.35000 0.34854
v 0.22862 1.20000 0.34854
v 0.38515 2.35000 0.29768
v 0.38515 1.20000 0.29768
v -0.20189 1.20000 -0.43083
v -0.20189 2.35000 -0.43083
v -0.29862 2.35000 -0.29768
v -0.29862 1.20000 -0.29768
v -0.45515 2.35000 -0.34854
v -0.45515 1.20000 -0.34854
v -0.45515 2.35000 -0.51312
v -0.45515 1.20000 -0.51312
v -0.29862 2.35000 -0.56398
v -0.29862 1.20000 -0.56398
v 0.00000 2.05000 0.00000
v 1.20900 1.95000 0.00000
v 0.97810 1.95000 0.71063
v 1.95000 3.12500 0.00000
v 1.57758 3.12500 1.14618
v 1.40400 3.95000 0.00000
v 1.13586 3.95000 0.82525
v 0.00000 4.30000 0.00000
v 0.37360 1.95000 1.14983
v 0.60258 3.12500 1.85456
v 0.43386 3.95000 1.33528
v -0.37360 1.95000 1.14983
v -0.60258 3.12500 1.85456
v -0.43386 3.95000 1.33528
v -0.97810 1.95000 0.71063
v -1.57758 3.12500 1.14618
v -1.13586 3.95000 0.82525
v -1.20900 1.95000 0.00000
v -1.95000 3.12500 0.00000
v -1.40400 3.95000 0.00000
v -0.97810 1.95000 -0.71063
v -1.57758 3.12500 -1.14618
v -1.13586 3.95000 -0.82525
v -0.37360 1.95000 -1.14983
v -0.60258 3.12500 -1.85456
v -0.43386 3.95000 -1.33528
v 0.37360 1.95000 -1.14983
v 0.60258 3.12500 -1.85456
v 0.43386 3.95000 -1.33528
v 0.97810 1.95000 -0.71063
v 1.57758 3.12500 -1.14618
v 1.13586 3.95000 -0.82525
v -0.95000 1.80000 0.55000
v -0.11300 1.70000 0.55000
v -0.27285 1.70000 1.04198
v 0.40000 2.62500 0.55000
v 0.14217 2.62500 1.34351
v 0.02200 3.20000 0.55000
v -0.16364 3.20000 1.12133
v -0.95000 3.55000 0.55000
v -0.69135 1.70000 1.34603
v -0.53283 2.62500 1.83393
v -0.64964 3.20000 1.47443
v -1.20865 1.70000 1.34603
v -1.36717 2.62500 1.83393
v -1.25036 3.20000 1.47443
v -1.62715 1.70000 1.04198
v -2.04217 2.62500 1.34351
v -1.73636 3.20000 1.12133
v -1.78700 1.70000 0.55000
v -2.30000 2.62500 0.55000
v -1.92200 3.20000 0.55000
v -1.62715 1.70000 0.05802
v -2.04217 2.62500 -0.24351
v -1.73636 3.20000 -0.02133
v -1.20865 1.70000 -0.24603
v -1.36717 2.62500 -0.73393
v -1.25036 3.20000 -0.37443
v -0.69135 1.70000 -0.24603
v -0.53283 2.62500 -0.73393
v -0.64964 3.20000 -0.37443
v -0.27285 1.70000 0.05802
v 0.14217 2.62500 -0.24351
v -0.16364 3.20000 -0.02133
v 0.85000 1.90000 -0.60000
v 1.74900 1.80000 -0.60000
v 1.57731 1.80000 -0.07158
v 2.30000 2.80000 -0.60000
v 2.02307 2.80000 0.25229
v 1.89400 3.45000 -0.60000
v 1.69461 3.45000 0.01365
v 0.85000 3.80000 -0.60000
v 1.12781 1.80000 0.25500
v 1.29807 2.80000 0.77903
v 1.17261 3.45000 0.39290
v 0.57219 1.80000 0.25500
v 0.40193 2.80000 0.77903
v 0.52739 3.45000 0.39290
v 0.12269 1.80000 -0.07158
v -0.32307 2.80000 0.25229
v 0.00539 3.45000 0.01365
v -0.04900 1.80000 -0.60000
v -0.60000 2.80000 -0.60000
v -0.19400 3.45000 -0.60000
v 0.12269 1.80000 -1.12842
v -0.32307 2.80000 -1.45229
v 0.00539 3.45000 -1.21365
v 0.57219 1.80000 -1.45500
v 0.40193 2.80000 -1.97903
v 0.52739 3.45000 -1.59290
v 1.12781 1.80000 -1.45500
v 1.29807 2.80000 -1.97903
v 1.17261 3.45000 -1.59290
v 1.57731 1.80000 -1.12842
v 2.02307 2.80000 -1.45229
v 1.69461 3.45000 -1.21365
vn 0.00000 -1.00000 0.00000
vn 0.91166 0.16207 0.37762
vn 0.91996 0.09198 0.38106
vn 0.91638 0.12713 0.37958
vn 0.92239 0.05676 0.38207
vn 0.37762 0.16207 0.91166
vn 0.38106 0.09198 0.91996
vn 0.37958 0.12713 0.91638
vn 0.38207 0.05676 0.92239
vn -0.37762 0.16207 0.91166
vn -0.38106 0.09198 0.91996
vn -0.37958 0.12713 0.91638
vn -0.38207 0.05676 0.92239
vn -0.91166 0.16207 0.37762
vn -0.91996 0.09198 0.38106
vn -0.91638 0.12713 0.37958
vn -0.92239 0.05676 0.38207
vn -0.91166 0.16207 -0.37762
vn -0.91996 0.09198 -0.38106
vn -0.91638 0.12713 -0.37958
vn -0.92239 0.05676 -0.38207
vn -0.37762 0.16207 -0.91166
vn -0.38106 0.09198 -0.91996
vn -0.37958 0.12713 -0.91638
vn -0.38207 0.05676 -0.92239
vn 0.37762 0.16207 -0.91166
vn 0.38106 0.09198 -0.91996
vn 0.37958 0.12713 -0.91638
vn 0.38207 0.05676 -0.92239
vn 0.91166 0.16207 -0.37762
vn 0.91996 0.09198 -0.38106
vn 0.91638 0.12713 -0.37958
vn 0.92239 0.05676 -0.38207
vn 0.80902 0.00000 0.58779
vn -0.30902 0.00000 0.95106
vn -1.00000 0.00000 0.00000
vn -0.30902 0.00000 -0.95106
vn 0.80902 0.00000 -0.58779
vn 0.00000 1.00000 0.00000
vn -0.08243 -0.99660 0.00000
vn -0.06669 -0.99660 -0.04845
vn 0.84232 -0.53120 0.09123
vn 0.84232 -0.53120 -0.09123
vn 0.73507 -0.53120 0.42130
vn 0.62783 -0.53120 0.56891
vn 0.83053 0.54966 0.08995
vn 0.83053 0.54966 -0.08995
vn 0.72479 0.54966 0.41540
vn 0.61904 0.54966 0.56095
vn 0.24189 0.97030 0.00000
vn 0.19569 0.97030 0.14218
vn -0.02547 -0.99660 -0.07840
vn 0.34706 -0.53120 0.77290
vn 0.17353 -0.53120 0.82929
vn 0.34220 0.54966 0.76209
vn 0.17110 0.54966 0.81768
vn 0.07475 0.97030 0.23005
vn 0.02547 -0.99660 -0.07840
vn -0.17353 -0.53120 0.82929
vn -0.34706 -0.53120 0.77290
vn -0.17110 0.54966 0.81768
vn -0.34220 0.54966 0.76209
vn -0.07475 0.97030 0.23005
vn 0.06669 -0.99660 -0.04845
vn -0.62783 -0.53120 0.56891
vn -0.73507 -0.53120 0.42130
vn -0.61904 0.54966 0.56095
vn -0.72479 0.54966 0.41540
vn -0.19569 0.97030 0.14218
vn 0.08243 -0.99660 0.00000
vn -0.84232 -0.53120 0.09123
vn -0.84232 -0.53120 -0.09123
vn -0.83053 0.54966 0.08995
vn -0.83053 0.54966 -0.08995
vn -0.24189 0.97030 0.00000
vn 0.06669 -0.99660 0.04845
vn -0.73507 -0.53120 -0.42130
vn -0.62783 -0.53120 -0.56891
vn -0.72479 0.54966 -0.41540
vn -0.61904 0.54966 -0.56095
vn -0.19569 0.97030 -0.14218
vn 0.02547 -0.99660 0.07840
vn -0.34706 -0.53120 -0.77290
vn -0.17353 -0.53120 -0.82929
vn -0.34220 0.54966 -0.76209
vn -0.17110 0.54966 -0.81768
vn -0.07475 0.97030 -0.23005
vn -0.02547 -0.99660 0.07840
vn 0.17353 -0.53120 -0.82929
vn 0.34706 -0.53120 -0.77290
vn 0.17110 0.54966 -0.81768
vn 0.34220 0.54966 -0.76209
vn 0.07475 0.97030 -0.23005
vn -0.06669 -0.99660 0.04845
vn 0.62783 -0.53120 -0.56891
vn 0.73507 -0.53120 -0.42130
vn 0.61904 0.54966 -0.56095
vn 0.72479 0.54966 -0.41540
vn 0.19569 0.97030 -0.14218
vn -0.11863 -0.99294 0.00000
vn -0.09597 -0.99294 -0.06973
vn 0.87062 -0.48284 0.09429
vn 0.87062 -0.48284 -0.09429
vn 0.75977 -0.48284 0.43545
vn 0.64892 -0.48284 0.58802
vn 0.83221 0.54709 0.09013
vn 0.73664 0.67506 -0.04079
vn 0.65164 0.67231 0.35123
vn 0.62029 0.54709 0.56208
vn 0.52253 0.84759 0.09251
vn 0.03997 0.99912 0.01299
vn 0.57481 0.78073 0.24506
vn -0.03666 -0.99294 -0.11282
vn 0.35871 -0.48284 0.79887
vn 0.17936 -0.48284 0.85714
vn 0.61993 0.67506 0.39999
vn 0.32074 0.67231 0.66718
vn 0.17144 0.54709 0.81933
vn 0.36836 0.84759 0.38198
vn 0.02471 0.99912 0.03400
vn 0.32099 0.78073 0.53613
vn 0.03666 -0.99294 -0.11282
vn -0.17936 -0.48284 0.85714
vn -0.35871 -0.48284 0.79887
vn 0.26643 0.67506 0.68798
vn -0.13267 0.67231 0.72829
vn -0.34289 0.54709 0.76362
vn 0.07348 0.84759 0.52554
vn 0.00000 0.99912 0.04203
vn -0.05544 0.78073 0.62241
vn 0.09597 -0.99294 -0.06973
vn -0.64892 -0.48284 0.58802
vn -0.75977 -0.48284 0.43545
vn -0.18884 0.67506 0.71319
vn -0.53541 0.67231 0.51121
vn -0.72625 0.54709 0.41624
vn -0.24946 0.84759 0.46837
vn -0.02471 0.99912 0.03400
vn -0.41070 0.78073 0.47095
vn 0.11863 -0.99294 0.00000
vn -0.87062 -0.48284 0.09429
vn -0.87062 -0.48284 -0.09429
vn -0.57198 0.67506 0.46598
vn -0.73364 0.67231 0.09888
vn -0.83221 0.54709 -0.09013
vn -0.47711 0.84759 0.23229
vn -0.03997 0.99912 0.01299
vn -0.60908 0.78073 0.13960
vn 0.09597 -0.99294 0.06973
vn -0.75977 -0.48284 -0.43545
vn -0.64892 -0.48284 -0.58802
vn -0.73664 0.67506 0.04079
vn -0.65164 0.67231 -0.35123
vn -0.62029 0.54709 -0.56208
vn -0.52253 0.84759 -0.09251
vn -0.03997 0.99912 -0.01299
vn -0.57481 0.78073 -0.24506
vn 0.03666 -0.99294 0.11282
vn -0.35871 -0.48284 -0.79887
vn -0.17936 -0.48284 -0.85714
vn -0.61993 0.67506 -0.39999
vn -0.32074 0.67231 -0.66718
vn -0.17144 0.54709 -0.81933
vn -0.36836 0.84759 -0.38198
vn -0.02471 0.99912 -0.03400
vn -0.32099 0.78073 -0.53613
vn -0.03666 -0.99294 0.11282
vn 0.17936 -0.48284 -0.85714
vn 0.35871 -0.48284 -0.79887
vn -0.26643 0.67506 -0.68798
vn 0.13267 0.67231 -0.72829
vn 0.34289 0.54709 -0.76362
vn -0.07348 0.84759 -0.52554
vn 0.00000 0.99912 -0.04203
vn 0.05544 0.78073 -0.62241
vn -0.09597 -0.99294 0.06973
vn 0.64892 -0.48284 -0.58802
vn 0.75977 -0.48284 -0.43545
vn 0.18884 0.67506 -0.71319
vn 0.53541 0.67231 -0.51121
vn 0.72625 0.54709 -0.41624
vn 0.24946 0.84759 -0.46837
vn 0.02471 0.99912 -0.03400
vn 0.41070 0.78073 -0.47095
vn 0.57198 0.67506 -0.46598
vn 0.73364 0.67231 -0.09888
vn 0.47711 0.84759 -0.23229
vn 0.03997 0.99912 -0.01299
vn 0.60908 0.78073 -0.13960
vn -0.11055 -0.99387 0.00000
vn -0.08944 -0.99387 -0.06498
vn 0.87193 -0.48043 0.09444
vn 0.87193 -0.48043 -0.09444
vn 0.76092 -0.48043 0.43611
vn 0.64990 -0.48043 0.58891
vn 0.84459 0.52754 0.09147
vn 0.74484 0.66580 -0.04383
vn 0.65824 0.66318 0.35624
vn 0.62952 0.52754 0.57044
vn 0.51529 0.85180 0.09441
vn 0.57628 0.78048 0.24239
vn -0.03416 -0.99387 -0.10514
vn 0.35926 -0.48043 0.80007
vn 0.17963 -0.48043 0.85844
vn 0.62835 0.66580 0.40235
vn 0.32314 0.66318 0.67511
vn 0.17399 0.52754 0.83152
vn 0.36138 0.85180 0.37926
vn 0.32374 0.78048 0.53483
vn 0.03416 -0.99387 -0.10514
vn -0.17963 -0.48043 0.85844
vn -0.35926 -0.48043 0.80007
vn 0.27185 0.66580 0.69485
vn -0.13539 0.66318 0.73611
vn -0.34799 0.52754 0.77498
vn 0.06944 0.85180 0.51924
vn -0.05245 0.78048 0.62297
vn 0.08944 -0.99387 -0.06498
vn -0.64990 -0.48043 0.58891
vn -0.76092 -0.48043 0.43611
vn -0.18849 0.66580 0.72193
vn -0.54221 0.66318 0.51594
vn -0.73705 0.52754 0.42243
vn -0.24902 0.85180 0.46089
vn -0.40861 0.78048 0.47317
vn 0.11055 -0.99387 0.00000
vn -0.87193 -0.48043 0.09444
vn -0.87193 -0.48043 -0.09444
vn -0.57683 0.66580 0.47327
vn -0.74192 0.66318 0.09870
vn -0.84459 0.52754 -0.09147
vn -0.47237 0.85180 0.22650
vn -0.60869 0.78048 0.14262
vn 0.08944 -0.99387 0.06498
vn -0.76092 -0.48043 -0.43611
vn -0.64990 -0.48043 -0.58891
vn -0.74484 0.66580 0.04383
vn -0.65824 0.66318 -0.35624
vn -0.62952 0.52754 -0.57044
vn -0.51529 0.85180 -0.09441
vn -0.57628 0.78048 -0.24239
vn 0.03416 -0.99387 0.10514
vn -0.35926 -0.48043 -0.80007
vn -0.17963 -0.48043 -0.85844
vn -0.62835 0.66580 -0.40235
vn -0.32314 0.66318 -0.67511
vn -0.17399 0.52754 -0.83152
vn -0.36138 0.85180 -0.37926
vn -0.32374 0.78048 -0.53483
vn -0.03416 -0.99387 0.10514
vn 0.17963 -0.48043 -0.85844
vn 0.35926 -0.48043 -0.80007
vn -0.27185 0.66580 -0.69485
vn 0.13539 0.66318 -0.73611
vn 0.34799 0.52754 -0.77498
vn -0.06944 0.85180 -0.51924
vn 0.05245 0.78048 -0.62297
vn -0.08944 -0.99387 0.06498
vn 0.64990 -0.48043 -0.58891
vn 0.76092 -0.48043 -0.43611
vn 0.18849 0.66580 -0.72193
vn 0.54221 0.66318 -0.51594
vn 0.73705 0.52754 -0.42243
vn 0.24902 0.85180 -0.46089
vn 0.40861 0.78048 -0.47317
vn 0.57683 0.66580 -0.47327
vn 0.74192 0.66318 -0.09870
vn 0.47237 0.85180 -0.22650
vn 0.60869 0.78048 -0.14263
usemtl trunk
f 1//1 2//1 3//1
f 2//2 4//3 5//4
f 2//2 5//4 3//2
f 4//3 6//5 7//5
f 4//3 7//5 5//4
f 1//1 3//1 8//1
f 3//6 5//7 9//8
f 3//6 9//8 8//6
f 5//7 7//9 10//9
f 5//7 10//9 9//8
f 1//1 8//1 11//1
f 8//10 9//11 12//12
f 8//10 12//12 11//10
f 9//11 10//13 13//13
f 9//11 13//13 12//12
f 1//1 11//1 14//1
f 11//14 12//15 15//16
f 11//14 15//16 14//14
f 12//15 13//17 16//17
f 12//15 16//17 15//16
f 1//1 14//1 17//1
f 14//18 15//19 18//20
f 14//18 18//20 17//18
f 15//19 16//21 19//21
f 15//19 19//21 18//20
f 1//1 17//1 20//1
f 17//22 18//23 21//24
f 17//22 21//24 20//22
f 18//23 19//25 22//25
f 18//23 22//25 21//24
f 1//1 20//1 23//1
f 20//26 21//27 24//28
f 20//26 24//28 23//26
f 21//27 22//29 25//29
f 21//27 25//29 24//28
f 1//1 23//1 2//1
f 23//30 24//31 4//32
f 23//30 4//32 2//30
f 24//31 25//33 6//33
f 24//31 6//33 4//32
f 26//34 27//34 28//34
f 26//34 28//34 29//34
f 29//35 28//35 30//35
f 29//35 30//35 31//35
f 31//36 30//36 32//36
f 31//36 32//36 33//36
f 33//37 32//37 34//37
f 33//37 34//37 35//37
f 35//38 34//38 27//38
f 35//38 27//38 26//38
f 34//39 28//39 27//39
f 35//1 26//1 29//1
f 28//39 32//39 30//39
f 29//1 31//1 33//1
f 32//39 28//39 34//39
f 33//1 35//1 29//1
f 36//34 37//34 38//34
f 36//34 38//34 39//34
f 39//35 38//35 40//35
f 39//35 40//35 41//35
f 41//36 40//36 42//36
f 41//36 42//36 43//36
f 43//37 42//37 44//37
f 43//37 44//37 45//37
f 45//38 44//38 37//38
f 45//38 37//38 36//38
f 44//39 38//39 37//39
f 45//1 36//1 39//1
f 38//39 42//39 40//39
f 39//1 41//1 43//1
f 42//39 38//39 44//39
f 43//1 45//1 39//1
usemtl canopy
f 46//1 47//40 48//41
f 47//42 49//43 50//44
f 47//42 50//44 48//45
f 49//46 51//47 52//48
f 49//46 52//48 50//49
f 51//50 53//39 52//51
f 46//1 48//41 54//52
f 48//45 50//44 55//53
f 48//45 55//53 54//54
f 50//49 52//48 56//55
f 50//49 56//55 55//56
f 52//51 53//39 56//57
f 46//1 54//52 57//58
f 54//54 55//53 58//59
f 54//54 58//59 57//60
f 55//56 56//55 59//61
f 55//56 59//61 58//62
f 56//57 53//39 59//63
f 46//1 57//58 60//64
f 57//60 58//59 61//65
f 57//60 61//65 60//66
f 58//62 59//61 62//67
f 58//62 62//67 61//68
f 59//63 53//39 62//69
f 46//1 60//64 63//70
f 60//66 61//65 64//71
f 60//66 64//71 63//72
f 61//68 62//67 65//73
f 61//68 65//73 64//74
f 62//69 53//39 65//75
f 46//1 63//70 66//76
f 63//72 64//71 67//77
f 63//72 67//77 66//78
f 64//74 65//73 68//79
f 64//74 68//79 67//80
f 65//75 53//39 68//81
f 46//1 66//76 69//82
f 66//78 67//77 70//83
f 66//78 70//83 69//84
f 67//80 68//79 71//85
f 67//80 71//85 70//86
f 68//81 53//39 71//87
f 46//1 69//82 72//88
f 69//84 70//83 73//89
f 69//84 73//89 72//90
f 70//86 71//85 74//91
f 70//86 74//91 73//92
f 71//87 53//39 74//93
f 46//1 72//88 75//94
f 72//90 73//89 76//95
f 72//90 76//95 75//96
f 73//92 74//91 77//97
f 73//92 77//97 76//98
f 74//93 53//39 77//99
f 46//1 75//94 47//40
f 75//96 76//95 49//43
f 75//96 49//43 47//42
f 76//98 77//97 51//47
f 76//98 51//47 49//46
f 77//99 53//39 51//50
f 110//1 111//190 112//191
f 111//192 113//193 114//194
f 111//192 114//194 112//195
f 113//196 115//197 116//198
f 113//196 116//198 114//199
f 115//200 117//39 116//201
f 110//1 112//191 118//202
f 112//195 114//194 119//203
f 112//195 119//203 118//204
f 114//199 116//205 120//206
f 114//199 120//206 119//207
f 116//208 117//39 120//209
f 110//1 118//202 121//210
f 118//204 119//203 122//211
f 118//204 122//211 121//212
f 119//207 120//213 123//214
f 119//207 123//214 122//215
f 120//216 117//39 123//217
f 110//1 121//210 124//218
f 121//212 122//211 125//219
f 121//212 125//219 124//220
f 122//215 123//221 126//222
f 122//215 126//222 125//223
f 123//224 117//39 126//225
f 110//1 124//218 127//226
f 124//220 125//219 128//227
f 124//220 128//227 127//228
f 125//223 126//229 129//230
f 125//223 129//230 128//231
f 126//232 117//39 129//233
f 110//1 127//226 130//234
f 127//228 128//227 131//235
f 127//228 131//235 130//236
f 128//231 129//237 132//238
f 128//231 132//238 131//239
f 129//240 117//39 132//241
f 110//1 130//234 133//242
f 130//236 131//235 134//243
f 130//236 134//243 133//244
f 131//239 132//245 135//246
f 131//239 135//246 134//247
f 132//248 117//39 135//249
f 110//1 133//242 136//250
f 133//244 134//243 137//251
f 133//244 137//251 136//252
f 134//247 135//253 138//254
f 134//247 138//254 137//255
f 135//256 117//39 138//257
f 110//1 136//250 139//258
f 136//252 137//251 140//259
f 136//252 140//259 139//260
f 137//255 138//261 141//262
f 137//255 141//262 140//263
f 138//264 117//39 141//265
f 110//1 139//258 111//190
f 139//260 140//259 113//193
f 139//260 113//193 111//192
f 140//263 141//266 115//267
f 140//263 115//267 113//196
f 141//268 117//39 115//269
usemtl canopy_dark
f 78//1 79//100 80//101
f 79//102 81//103 82//104
f 79//102 82//104 80//105
f 81//106 83//107 84//108
f 81//106 84//108 82//109
f 83//110 85//111 84//112
f 78//1 80//101 86//113
f 80//105 82//104 87//114
f 80//105 87//114 86//115
f 82//109 84//116 88//117
f 82//109 88//117 87//118
f 84//119 85//120 88//121
f 78//1 86//113 89//122
f 86//115 87//114 90//123
f 86//115 90//123 89//124
f 87//118 88//125 91//126
f 87//118 91//126 90//127
f 88//128 85//129 91//130
f 78//1 89//122 92//131
f 89//124 90//123 93//132
f 89//124 93//132 92//133
f 90//127 91//134 94//135
f 90//127 94//135 93//136
f 91//137 85//138 94//139
f 78//1 92//131 95//140
f 92//133 93//132 96//141
f 92//133 96//141 95//142
f 93//136 94//143 97//144
f 93//136 97//144 96//145
f 94//146 85//147 97//148
f 78//1 95//140 98//149
f 95//142 96//141 99//150
f 95//142 99//150 98//151
f 96//145 97//152 100//153
f 96//145 100//153 99//154
f 97//155 85//156 100//157
f 78//1 98//149 101//158
f 98//151 99//150 102//159
f 98//151 102//159 101//160
f 99//154 100//161 103//162
f 99//154 103//162 102//163
f 100//164 85//165 103//166
f 78//1 101//158 104//167
f 101//160 102//159 105//168
f 101//160 105//168 104//169
f 102//163 103//170 106//171
f 102//163 106//171 105//172
f 103//173 85//174 106//175
f 78//1 104//167 107//176
f 104//169 105//168 108//177
f 104//169 108//177 107//178
f 105//172 106//179 109//180
f 105//172 109//180 108//181
f 106//182 85//183 109//184
f 78//1 107//176 79//100
f 107//178 108//177 81//103
f 107//178 81//103 79//102
f 108//181 109//185 83//186
f 108//181 83//186 81//106
f 109//187 85//188 83//189
