# Generated by tools/models/generate_all.gd - DO NOT EDIT BY HAND.
# Change the generator and re-run:
#   godot --headless -s tools/models/generate_all.gd
mtllib env_puno_niyog.mtl
o PunoNiyog
v 0.27000 0.00000 0.00000
v 0.27000 0.89143 0.00000
v 0.16834 0.89143 0.21109
v 0.16834 0.00000 0.21109
v -0.06008 0.89143 0.26323
v -0.06008 0.00000 0.26323
v -0.24326 0.89143 0.11715
v -0.24326 0.00000 0.11715
v -0.24326 0.89143 -0.11715
v -0.24326 0.00000 -0.11715
v -0.06008 0.89143 -0.26323
v -0.06008 0.00000 -0.26323
v 0.16834 0.89143 -0.21109
v 0.16834 0.00000 -0.21109
v 0.33786 0.87143 0.00000
v 0.33786 1.76286 0.00000
v 0.24265 1.76286 0.19769
v 0.24265 0.87143 0.19769
v 0.02873 1.76286 0.24652
v 0.02873 0.87143 0.24652
v -0.14282 1.76286 0.10971
v -0.14282 0.87143 0.10971
v -0.14282 1.76286 -0.10971
v -0.14282 0.87143 -0.10971
v 0.02873 1.76286 -0.24652
v 0.02873 0.87143 -0.24652
v 0.24265 1.76286 -0.19769
v 0.24265 0.87143 -0.19769
v 0.42101 1.74286 0.00000
v 0.42101 2.63429 0.00000
v 0.33227 2.63429 0.18429
v 0.33227 1.74286 0.18429
v 0.13285 2.63429 0.22980
v 0.13285 1.74286 0.22980
v -0.02707 2.63429 0.10227
v -0.02707 1.74286 0.10227
v -0.02707 2.63429 -0.10227
v -0.02707 1.74286 -0.10227
v 0.13285 2.63429 -0.22980
v 0.13285 1.74286 -0.22980
v 0.33227 2.63429 -0.18429
v 0.33227 1.74286 -0.18429
v 0.51947 2.61429 0.00000
v 0.51947 3.50571 0.00000
v 0.43718 3.50571 0.17089
v 0.43718 2.61429 0.17089
v 0.25226 3.50571 0.21309
v 0.25226 2.61429 0.21309
v 0.10397 3.50571 0.09483
v 0.10397 2.61429 0.09483
v 0.10397 3.50571 -0.09483
v 0.10397 2.61429 -0.09483
v 0.25226 3.50571 -0.21309
v 0.25226 2.61429 -0.21309
v 0.43718 3.50571 -0.17089
v 0.43718 2.61429 -0.17089
v 0.63323 3.48571 0.00000
v 0.63323 4.37714 0.00000
v 0.55739 4.37714 0.15748
v 0.55739 3.48571 0.15748
v 0.38698 4.37714 0.19638
v 0.38698 3.48571 0.19638
v 0.25032 4.37714 0.08740
v 0.25032 3.48571 0.08740
v 0.25032 4.37714 -0.08740
v 0.25032 3.48571 -0.08740
v 0.38698 4.37714 -0.19638
v 0.38698 3.48571 -0.19638
v 0.55739 4.37714 -0.15748
v 0.55739 3.48571 -0.15748
v 0.76229 4.35714 0.00000
v 0.76229 5.24857 0.00000
v 0.69290 5.24857 0.14408
v 0.69290 4.35714 0.14408
v 0.53699 5.24857 0.17967
v 0.53699 4.35714 0.17967
v 0.41196 5.24857 0.07996
v 0.41196 4.35714 0.07996
v 0.41196 5.24857 -0.07996
v 0.41196 4.35714 -0.07996
v 0.53699 5.24857 -0.17967
v 0.53699 4.35714 -0.17967
v 0.69290 5.24857 -0.14408
v 0.69290 4.35714 -0.14408
v 0.90664 5.22857 0.00000
v 0.90664 6.12000 0.00000
v 0.84371 6.12000 0.13068
v 0.84371 5.22857 0.13068
v 0.70231 6.12000 0.16295
v 0.70231 5.22857 0.16295
v 0.58891 6.12000 0.07252
v 0.58891 5.22857 0.07252
v 0.58891 6.12000 -0.07252
v 0.58891 5.22857 -0.07252
v 0.70231 6.12000 -0.16295
v 0.70231 5.22857 -0.16295
v 0.84371 6.12000 -0.13068
v 0.84371 5.22857 -0.13068
v 1.04630 5.98000 0.04840
v 2.07130 4.90500 0.25300
v 2.07130 4.90500 -0.25300
v 1.04630 5.98000 -0.04840
v 3.09630 6.13000 0.01320
v 3.09630 6.13000 -0.01320
v 0.98477 5.98000 0.12064
v 1.63846 5.05500 0.93623
v 1.96371 5.05500 0.54861
v 1.04700 5.98000 0.04649
v 2.57779 6.43000 1.41139
v 2.59476 6.43000 1.39117
v 0.89121 5.98000 0.13643
v 0.86771 4.90500 1.18139
v 1.36602 4.90500 1.09352
v 0.98654 5.98000 0.11962
v 1.28185 6.13000 2.14917
v 1.30785 6.13000 2.14459
v 0.80938 5.98000 0.08838
v 0.11970 5.05500 0.87376
v 0.55790 5.05500 1.12676
v 0.89322 5.98000 0.13678
v -0.18513 6.43000 1.88134
v -0.16227 6.43000 1.89454
v 0.77759 5.98000 -0.00102
v -0.25558 4.90500 0.15729
v -0.08251 4.90500 0.63278
v 0.81069 5.98000 0.08994
v -1.13674 6.13000 0.73320
v -1.12772 6.13000 0.75801
v 0.81069 5.98000 -0.08994
v -0.08251 5.05500 -0.63278
v -0.25558 5.05500 -0.15729
v 0.77759 5.98000 0.00102
v -1.12772 6.43000 -0.75801
v -1.13674 6.43000 -0.73320
v 0.89322 5.98000 -0.13678
v 0.55790 4.90500 -1.12676
v 0.11970 4.90500 -0.87376
v 0.80938 5.98000 -0.08838
v -0.16227 6.13000 -1.89454
v -0.18513 6.13000 -1.88134
v 0.98654 5.98000 -0.11962
v 1.36602 5.05500 -1.09352
v 0.86771 5.05500 -1.18139
v 0.89121 5.98000 -0.13643
v 1.30785 6.43000 -2.14459
v 1.28185 6.43000 -2.14917
v 1.04700 5.98000 -0.04649
v 1.96371 4.90500 -0.54861
v 1.63846 4.90500 -0.93623
v 0.98477 5.98000 -0.12064
v 2.59476 6.13000 -1.39117
v 2.57779 6.13000 -1.41139
v 1.13089 5.68000 0.14681
v 1.28089 5.80000 0.14681
v 1.20589 5.80000 0.27671
v 1.13089 5.96000 0.14681
v 1.05589 5.80000 0.27671
v 0.98089 5.80000 0.14681
v 1.05589 5.80000 0.01690
v 1.20589 5.80000 0.01690
v 0.68187 5.68000 0.11243
v 0.83187 5.80000 0.11243
v 0.75687 5.80000 0.24234
v 0.68187 5.96000 0.11243
v 0.60687 5.80000 0.24234
v 0.53187 5.80000 0.11243
v 0.60687 5.80000 -0.01747
v 0.75687 5.80000 -0.01747
v 0.93615 5.68000 -0.25924
v 1.08615 5.80000 -0.25924
v 1.01114 5.80000 -0.12934
v 0.93615 5.96000 -0.25924
v 0.86115 5.80000 -0.12934
v 0.78614 5.80000 -0.25924
v 0.86115 5.80000 -0.38915
v 1.01114 5.80000 -0.38915
vn 0.90097 0.00000 0.43388
vn 0.22252 0.00000 0.97493
vn -0.62349 0.00000 0.78183
vn -1.00000 0.00000 0.00000
vn -0.62349 0.00000 -0.78183
vn 0.22252 0.00000 -0.97493
vn 0.90097 0.00000 -0.43388
vn 0.00000 1.00000 0.00000
vn 0.00000 -1.00000 0.00000
vn 0.72374 0.69008 0.00000
vn -0.72374 -0.69008 0.00000
vn -0.76694 0.64172 0.00000
vn 0.76694 -0.64172 0.00000
vn 0.51322 0.74239 0.43064
vn 0.51322 0.74239 0.43065
vn -0.51322 -0.74239 -0.43064
vn -0.61417 0.59767 -0.51535
vn 0.61417 -0.59767 0.51535
vn 0.12568 0.69008 0.71274
vn -0.12568 -0.69008 -0.71274
vn -0.13318 0.64172 -0.75529
vn 0.13318 -0.64172 0.75529
vn -0.33498 0.74239 0.58021
vn 0.33498 -0.74239 -0.58021
vn 0.40087 0.59767 -0.69433
vn -0.40087 -0.59767 0.69433
vn -0.68009 0.69008 0.24753
vn 0.68009 -0.69008 -0.24753
vn 0.72069 0.64172 -0.26231
vn -0.72068 -0.64172 0.26231
vn -0.62956 0.74239 -0.22914
vn 0.62956 -0.74239 0.22914
vn 0.75339 0.59767 0.27421
vn -0.75339 -0.59766 -0.27421
vn -0.75339 -0.59767 -0.27421
vn -0.36187 0.69008 -0.62678
vn 0.36187 -0.69008 0.62678
vn 0.38347 0.64172 0.66419
vn -0.38347 -0.64172 -0.66419
vn 0.11634 0.74239 -0.65979
vn -0.11634 -0.74239 0.65979
vn -0.13922 0.59767 0.78957
vn 0.13922 -0.59767 -0.78957
vn 0.13922 -0.59766 -0.78957
vn 0.55442 0.69008 -0.46521
vn -0.55442 -0.69008 0.46521
vn -0.58751 0.64172 0.49298
vn 0.58751 -0.64172 -0.49298
vn 0.45413 -0.85148 0.26219
vn 0.62470 -0.78087 0.00000
vn 0.31235 -0.78087 0.54100
vn 0.67233 0.63031 0.38817
vn 0.00000 -0.85148 0.52438
vn -0.31235 -0.78087 0.54100
vn 0.00000 0.63031 0.77634
vn -0.45413 -0.85148 0.26219
vn -0.62470 -0.78087 0.00000
vn -0.67233 0.63031 0.38817
vn -0.45413 -0.85148 -0.26219
vn -0.31235 -0.78087 -0.54100
vn -0.67233 0.63031 -0.38817
vn 0.00000 -0.85148 -0.52438
vn 0.31235 -0.78087 -0.54100
vn 0.00000 0.63031 -0.77634
vn 0.45413 -0.85148 -0.26219
vn 0.67233 0.63031 -0.38817
usemtl trunk
f 1//1 2//1 3//1
f 1//1 3//1 4//1
f 4//2 3//2 5//2
f 4//2 5//2 6//2
f 6//3 5//3 7//3
f 6//3 7//3 8//3
f 8//4 7//4 9//4
f 8//4 9//4 10//4
f 10//5 9//5 11//5
f 10//5 11//5 12//5
f 12//6 11//6 13//6
f 12//6 13//6 14//6
f 14//7 13//7 2//7
f 14//7 2//7 1//7
f 13//8 3//8 2//8
f 14//9 1//9 4//9
f 3//8 7//8 5//8
f 4//9 6//9 8//9
f 7//8 11//8 9//8
f 8//9 10//9 12//9
f 11//8 3//8 13//8
f 12//9 14//9 4//9
f 3//8 11//8 7//8
f 4//9 8//9 12//9
f 15//1 16//1 17//1
f 15//1 17//1 18//1
f 18//2 17//2 19//2
f 18//2 19//2 20//2
f 20//3 19//3 21//3
f 20//3 21//3 22//3
f 22//4 21//4 23//4
f 22//4 23//4 24//4
f 24//5 23//5 25//5
f 24//5 25//5 26//5
f 26//6 25//6 27//6
f 26//6 27//6 28//6
f 28//7 27//7 16//7
f 28//7 16//7 15//7
f 27//8 17//8 16//8
f 28//9 15//9 18//9
f 17//8 21//8 19//8
f 18//9 20//9 22//9
f 21//8 25//8 23//8
f 22//9 24//9 26//9
f 25//8 17//8 27//8
f 26//9 28//9 18//9
f 17//8 25//8 21//8
f 18//9 22//9 26//9
f 29//1 30//1 31//1
f 29//1 31//1 32//1
f 32//2 31//2 33//2
f 32//2 33//2 34//2
f 34//3 33//3 35//3
f 34//3 35//3 36//3
f 36//4 35//4 37//4
f 36//4 37//4 38//4
f 38//5 37//5 39//5
f 38//5 39//5 40//5
f 40//6 39//6 41//6
f 40//6 41//6 42//6
f 42//7 41//7 30//7
f 42//7 30//7 29//7
f 41//8 31//8 30//8
f 42//9 29//9 32//9
f 31//8 35//8 33//8
f 32//9 34//9 36//9
f 35//8 39//8 37//8
f 36//9 38//9 40//9
f 39//8 31//8 41//8
f 40//9 42//9 32//9
f 31//8 39//8 35//8
f 32//9 36//9 40//9
f 43//1 44//1 45//1
f 43//1 45//1 46//1
f 46//2 45//2 47//2
f 46//2 47//2 48//2
f 48//3 47//3 49//3
f 48//3 49//3 50//3
f 50//4 49//4 51//4
f 50//4 51//4 52//4
f 52//5 51//5 53//5
f 52//5 53//5 54//5
f 54//6 53//6 55//6
f 54//6 55//6 56//6
f 56//7 55//7 44//7
f 56//7 44//7 43//7
f 55//8 45//8 44//8
f 56//9 43//9 46//9
f 45//8 49//8 47//8
f 46//9 48//9 50//9
f 49//8 53//8 51//8
f 50//9 52//9 54//9
f 53//8 45//8 55//8
f 54//9 56//9 46//9
f 45//8 53//8 49//8
f 46//9 50//9 54//9
f 57//1 58//1 59//1
f 57//1 59//1 60//1
f 60//2 59//2 61//2
f 60//2 61//2 62//2
f 62//3 61//3 63//3
f 62//3 63//3 64//3
f 64//4 63//4 65//4
f 64//4 65//4 66//4
f 66//5 65//5 67//5
f 66//5 67//5 68//5
f 68//6 67//6 69//6
f 68//6 69//6 70//6
f 70//7 69//7 58//7
f 70//7 58//7 57//7
f 69//8 59//8 58//8
f 70//9 57//9 60//9
f 59//8 63//8 61//8
f 60//9 62//9 64//9
f 63//8 67//8 65//8
f 64//9 66//9 68//9
f 67//8 59//8 69//8
f 68//9 70//9 60//9
f 59//8 67//8 63//8
f 60//9 64//9 68//9
f 71//1 72//1 73//1
f 71//1 73//1 74//1
f 74//2 73//2 75//2
f 74//2 75//2 76//2
f 76//3 75//3 77//3
f 76//3 77//3 78//3
f 78//4 77//4 79//4
f 78//4 79//4 80//4
f 80//5 79//5 81//5
f 80//5 81//5 82//5
f 82//6 81//6 83//6
f 82//6 83//6 84//6
f 84//7 83//7 72//7
f 84//7 72//7 71//7
f 83//8 73//8 72//8
f 84//9 71//9 74//9
f 73//8 77//8 75//8
f 74//9 76//9 78//9
f 77//8 81//8 79//8
f 78//9 80//9 82//9
f 81//8 73//8 83//8
f 82//9 84//9 74//9
f 73//8 81//8 77//8
f 74//9 78//9 82//9
f 85//1 86//1 87//1
f 85//1 87//1 88//1
f 88//2 87//2 89//2
f 88//2 89//2 90//2
f 90//3 89//3 91//3
f 90//3 91//3 92//3
f 92//4 91//4 93//4
f 92//4 93//4 94//4
f 94//5 93//5 95//5
f 94//5 95//5 96//5
f 96//6 95//6 97//6
f 96//6 97//6 98//6
f 98//7 97//7 86//7
f 98//7 86//7 85//7
f 97//8 87//8 86//8
f 98//9 85//9 88//9
f 87//8 91//8 89//8
f 88//9 90//9 92//9
f 91//8 95//8 93//8
f 92//9 94//9 96//9
f 95//8 87//8 97//8
f 96//9 98//9 88//9
f 87//8 95//8 91//8
f 88//9 92//9 96//9
usemtl frond
f 105//14 106//15 107//14
f 105//14 107//14 108//14
f 108//16 107//16 106//16
f 108//16 106//16 105//16
f 106//17 109//17 110//17
f 106//17 110//17 107//17
f 107//18 110//18 109//18
f 107//18 109//18 106//18
f 117//23 118//23 119//23
f 117//23 119//23 120//23
f 120//24 119//24 118//24
f 120//24 118//24 117//24
f 118//25 121//25 122//25
f 118//25 122//25 119//25
f 119//26 122//26 121//26
f 119//26 121//26 118//26
f 129//31 130//31 131//31
f 129//31 131//31 132//31
f 132//32 131//32 130//32
f 132//32 130//32 129//32
f 130//33 133//33 134//33
f 130//33 134//33 131//33
f 131//34 134//34 133//34
f 131//34 133//34 130//35
f 141//40 142//40 143//40
f 141//40 143//40 144//40
f 144//41 143//41 142//41
f 144//41 142//41 141//41
f 142//42 145//42 146//42
f 142//42 146//42 143//42
f 143//43 146//44 145//43
f 143//43 145//43 142//43
usemtl frond_dark
f 99//10 100//10 101//10
f 99//10 101//10 102//10
f 102//11 101//11 100//11
f 102//11 100//11 99//11
f 100//12 103//12 104//12
f 100//12 104//12 101//12
f 101//13 104//13 103//13
f 101//13 103//13 100//13
f 111//19 112//19 113//19
f 111//19 113//19 114//19
f 114//20 113//20 112//20
f 114//20 112//20 111//20
f 112//21 115//21 116//21
f 112//21 116//21 113//21
f 113//22 116//22 115//22
f 113//22 115//22 112//22
f 123//27 124//27 125//27
f 123//27 125//27 126//27
f 126//28 125//28 124//28
f 126//28 124//28 123//28
f 124//29 127//29 128//29
f 124//29 128//29 125//29
f 125//30 128//30 127//30
f 125//30 127//30 124//30
f 135//36 136//36 137//36
f 135//36 137//36 138//36
f 138//37 137//37 136//37
f 138//37 136//37 135//37
f 136//38 139//38 140//38
f 136//38 140//38 137//38
f 137//39 140//39 139//39
f 137//39 139//39 136//39
f 147//45 148//45 149//45
f 147//45 149//45 150//45
f 150//46 149//46 148//46
f 150//46 148//46 147//46
f 148//47 151//47 152//47
f 148//47 152//47 149//47
f 149//48 152//48 151//48
f 149//48 151//48 148//48
usemtl nut
f 153//49 154//50 155//51
f 154//52 156//52 155//52
f 153//53 155//51 157//54
f 155//55 156//55 157//55
f 153//56 157//54 158//57
f 157//58 156//58 158//58
f 153//59 158//57 159//60
f 158//61 156//61 159//61
f 153//62 159//60 160//63
f 159//64 156//64 160//64
f 153//65 160//63 154//50
f 160//66 156//66 154//66
f 161//49 162//50 163//51
f 162//52 164//52 163//52
f 161//53 163//51 165//54
f 163//55 164//55 165//55
f 161//56 165//54 166//57
f 165//58 164//58 166//58
f 161//59 166//57 167//60
f 166//61 164//61 167//61
f 161//62 167//60 168//63
f 167//64 164//64 168//64
f 161//65 168//63 162//50
f 168//66 164//66 162//66
f 169//49 170//50 171//51
f 170//52 172//52 171//52
f 169//53 171//51 173//54
f 171//55 172//55 173//55
f 169//56 173//54 174//57
f 173//58 172//58 174//58
f 169//59 174//57 175//60
f 174//61 172//61 175//61
f 169//62 175//60 176//63
f 175//64 172//64 176//64
f 169//65 176//63 170//50
f 176//66 172//66 170//66
