# Generated by tools/models/generate_all.gd - DO NOT EDIT BY HAND.
# Change the generator and re-run:
#   godot --headless -s tools/models/generate_all.gd
mtllib env_basketball_ring.mtl
o BasketballRing
v 0.12000 0.00000 0.62000
v 0.12000 3.05000 0.62000
v 0.08485 3.05000 0.70485
v 0.08485 0.00000 0.70485
v 0.00000 3.05000 0.74000
v 0.00000 0.00000 0.74000
v -0.08485 3.05000 0.70485
v -0.08485 0.00000 0.70485
v -0.12000 3.05000 0.62000
v -0.12000 0.00000 0.62000
v -0.08485 3.05000 0.53515
v -0.08485 0.00000 0.53515
v 0.00000 3.05000 0.50000
v 0.00000 0.00000 0.50000
v 0.08485 3.05000 0.53515
v 0.08485 0.00000 0.53515
v 0.60000 2.95000 0.49000
v 0.60000 3.85000 0.49000
v 0.60000 3.85000 0.55000
v 0.60000 2.95000 0.55000
v -0.60000 3.85000 0.55000
v -0.60000 2.95000 0.55000
v -0.60000 3.85000 0.49000
v -0.60000 2.95000 0.49000
v 0.31000 3.02000 0.48000
v 0.31000 3.48000 0.48000
v 0.31000 3.48000 0.50000
v 0.31000 3.02000 0.50000
v -0.31000 3.48000 0.50000
v -0.31000 3.02000 0.50000
v -0.31000 3.48000 0.48000
v -0.31000 3.02000 0.48000
v 0.21000 3.05000 0.32000
v 0.25000 3.07000 0.32000
v 0.21651 3.07000 0.44500
v 0.18187 3.05000 0.42500
v 0.21000 3.09000 0.32000
v 0.18187 3.09000 0.42500
v 0.17000 3.07000 0.32000
v 0.14722 3.07000 0.40500
v 0.12500 3.07000 0.53651
v 0.10500 3.05000 0.50187
v 0.10500 3.09000 0.50187
v 0.08500 3.07000 0.46722
v 0.00000 3.07000 0.57000
v 0.00000 3.05000 0.53000
v 0.00000 3.09000 0.53000
v 0.00000 3.07000 0.49000
v -0.12500 3.07000 0.53651
v -0.10500 3.05000 0.50187
v -0.10500 3.09000 0.50187
v -0.08500 3.07000 0.46722
v -0.21651 3.07000 0.44500
v -0.18187 3.05000 0.42500
v -0.18187 3.09000 0.42500
v -0.14722 3.07000 0.40500
v -0.25000 3.07000 0.32000
v -0.21000 3.05000 0.32000
v -0.21000 3.09000 0.32000
v -0.17000 3.07000 0.32000
v -0.21651 3.07000 0.19500
v -0.18187 3.05000 0.21500
v -0.18187 3.09000 0.21500
v -0.14722 3.07000 0.23500
v -0.12500 3.07000 0.10349
v -0.10500 3.05000 0.13813
v -0.10500 3.09000 0.13813
v -0.08500 3.07000 0.17278
v 0.00000 3.07000 0.07000
v 0.00000 3.05000 0.11000
v 0.00000 3.09000 0.11000
v 0.00000 3.07000 0.15000
v 0.12500 3.07000 0.10349
v 0.10500 3.05000 0.13813
v 0.10500 3.09000 0.13813
v 0.08500 3.07000 0.17278
v 0.21651 3.07000 0.19500
v 0.18187 3.05000 0.21500
v 0.18187 3.09000 0.21500
v 0.14722 3.07000 0.23500
v 0.11000 3.02000 0.15000
v 0.11000 3.11000 0.15000
v 0.11000 3.11000 0.49000
v 0.11000 3.02000 0.49000
v -0.11000 3.11000 0.49000
v -0.11000 3.02000 0.49000
v -0.11000 3.11000 0.15000
v -0.11000 3.02000 0.15000
v 0.20000 3.03000 0.32000
v 0.15000 2.86000 0.32000
v 0.12990 2.86000 0.39500
v 0.17321 3.03000 0.42000
v 0.09500 2.68000 0.32000
v 0.08227 2.68000 0.36750
v 0.07500 2.86000 0.44990
v 0.10000 3.03000 0.49321
v 0.04750 2.68000 0.40227
v 0.00000 2.86000 0.47000
v 0.00000 3.03000 0.52000
v 0.00000 2.68000 0.41500
v -0.07500 2.86000 0.44990
v -0.10000 3.03000 0.49321
v -0.04750 2.68000 0.40227
v -0.12990 2.86000 0.39500
v -0.17321 3.03000 0.42000
v -0.08227 2.68000 0.36750
v -0.15000 2.86000 0.32000
v -0.20000 3.03000 0.32000
v -0.09500 2.68000 0.32000
v -0.12990 2.86000 0.24500
v -0.17321 3.03000 0.22000
v -0.08227 2.68000 0.27250
v -0.07500 2.86000 0.19010
v -0.10000 3.03000 0.14679
v -0.04750 2.68000 0.23773
v 0.00000 2.86000 0.17000
v 0.00000 3.03000 0.12000
v 0.00000 2.68000 0.22500
v 0.07500 2.86000 0.19010
v 0.10000 3.03000 0.14679
v 0.04750 2.68000 0.23773
v 0.12990 2.86000 0.24500
v 0.17321 3.03000 0.22000
v 0.08227 2.68000 0.27250
vn 0.92388 0.00000 0.38268
vn 0.38268 0.00000 0.92388
vn -0.38268 0.00000 0.92388
vn -0.92388 0.00000 0.38268
vn -0.92388 0.00000 -0.38268
vn -0.38268 0.00000 -0.92388
vn 0.38268 0.00000 -0.92388
vn 0.92388 0.00000 -0.38268
vn 0.00000 1.00000 0.00000
vn 0.00000 -1.00000 0.00000
vn 1.00000 0.00000 0.00000
vn 0.00000 0.00000 1.00000
vn -1.00000 0.00000 0.00000
vn 0.00000 0.00000 -1.00000
vn 0.44686 -0.89371 0.03991
vn 0.44686 -0.89371 -0.03991
vn 0.40695 -0.89371 0.18886
vn 0.36703 -0.89371 0.25799
vn 0.44686 0.89371 0.03991
vn 0.44686 0.89371 -0.03991
vn 0.40695 0.89371 0.18886
vn 0.36703 0.89371 0.25799
vn -0.44686 0.89371 -0.03991
vn -0.44686 0.89371 0.03991
vn -0.40695 0.89371 -0.18886
vn -0.36703 0.89371 -0.25799
vn -0.44686 -0.89371 -0.03991
vn -0.44686 -0.89371 0.03991
vn -0.40695 -0.89371 -0.18886
vn -0.36703 -0.89371 -0.25799
vn 0.25799 -0.89371 0.36703
vn 0.18886 -0.89371 0.40695
vn 0.25799 0.89371 0.36703
vn 0.18886 0.89371 0.40695
vn -0.25799 0.89371 -0.36703
vn -0.18886 0.89371 -0.40695
vn -0.25799 -0.89371 -0.36703
vn -0.18886 -0.89371 -0.40695
vn 0.03991 -0.89371 0.44686
vn -0.03991 -0.89371 0.44686
vn 0.03991 0.89371 0.44686
vn -0.03991 0.89371 0.44686
vn -0.03991 0.89371 -0.44686
vn 0.03991 0.89371 -0.44686
vn -0.03991 -0.89371 -0.44686
vn 0.03991 -0.89371 -0.44686
vn -0.18886 -0.89371 0.40695
vn -0.25799 -0.89371 0.36703
vn -0.18886 0.89371 0.40695
vn -0.25799 0.89371 0.36703
vn 0.18886 0.89371 -0.40695
vn 0.25799 0.89371 -0.36703
vn 0.18886 -0.89371 -0.40695
vn 0.25799 -0.89371 -0.36703
vn -0.36703 -0.89371 0.25799
vn -0.40695 -0.89371 0.18886
vn -0.36703 0.89371 0.25799
vn -0.40695 0.89371 0.18886
vn 0.36703 0.89371 -0.25799
vn 0.40695 0.89371 -0.18886
vn 0.36703 -0.89371 -0.25799
vn 0.40695 -0.89371 -0.18886
vn -0.95586 0.28114 -0.08537
vn -0.95787 0.28720 0.00013
vn -0.82960 0.28720 -0.47883
vn -0.78511 0.28114 -0.55187
vn -0.95288 0.29116 0.08511
vn -0.86777 0.29116 -0.40274
vn -0.47905 0.28720 -0.82948
vn -0.40400 0.28114 -0.87049
vn -0.55015 0.29116 -0.78267
vn -0.00013 0.28720 -0.95787
vn 0.08537 0.28114 -0.95586
vn -0.08511 0.29116 -0.95288
vn 0.47883 0.28720 -0.82960
vn 0.55187 0.28114 -0.78511
vn 0.40274 0.29116 -0.86777
vn 0.82948 0.28720 -0.47905
vn 0.87049 0.28114 -0.40400
vn 0.78267 0.29116 -0.55015
vn 0.95787 0.28720 -0.00013
vn 0.95586 0.28114 0.08537
vn 0.95288 0.29116 -0.08511
vn 0.82960 0.28720 0.47883
vn 0.78511 0.28114 0.55187
vn 0.86777 0.29116 0.40274
vn 0.47905 0.28720 0.82948
vn 0.40400 0.28114 0.87049
vn 0.55015 0.29116 0.78267
vn 0.00013 0.28720 0.95787
vn -0.08537 0.28114 0.95586
vn 0.08511 0.29116 0.95288
vn -0.47883 0.28720 0.82960
vn -0.55187 0.28114 0.78511
vn -0.40274 0.29116 0.86777
vn -0.82948 0.28720 0.47905
vn -0.87049 0.28114 0.40400
vn -0.78267 0.29116 0.55015
usemtl board
f 17//11 18//11 19//11
f 17//11 19//11 20//11
f 20//12 19//12 21//12
f 20//12 21//12 22//12
f 22//13 21//13 23//13
f 22//13 23//13 24//13
f 24//14 23//14 18//14
f 24//14 18//14 17//14
f 23//9 19//9 18//9
f 24//10 17//10 20//10
f 19//9 23//9 21//9
f 20//10 22//10 24//10
usemtl edge
f 25//11 26//11 27//11
f 25//11 27//11 28//11
f 28//12 27//12 29//12
f 28//12 29//12 30//12
f 30//13 29//13 31//13
f 30//13 31//13 32//13
f 32//14 31//14 26//14
f 32//14 26//14 25//14
f 31//9 27//9 26//9
f 32//10 25//10 28//10
f 27//9 31//9 29//9
f 28//10 30//10 32//10
usemtl post
f 1//1 2//1 3//1
f 1//1 3//1 4//1
f 4//2 3//2 5//2
f 4//2 5//2 6//2
f 6//3 5//3 7//3
f 6//3 7//3 8//3
f 8//4 7//4 9//4
f 8//4 9//4 10//4
f 10//5 9//5 11//5
f 10//5 11//5 12//5
f 12//6 11//6 13//6
f 12//6 13//6 14//6
f 14//7 13//7 15//7
f 14//7 15//7 16//7
f 16//8 15//8 2//8
f 16//8 2//8 1//8
f 15//9 3//9 2//9
f 16//10 1//10 4//10
f 3//9 7//9 5//9
f 4//10 6//10 8//10
f 7//9 11//9 9//9
f 8//10 10//10 12//10
f 11//9 15//9 13//9
f 12//10 14//10 16//10
f 15//9 7//9 3//9
f 16//10 4//10 8//10
f 7//9 15//9 11//9
f 8//10 12//10 16//10
f 81//11 82//11 83//11
f 81//11 83//11 84//11
f 84//12 83//12 85//12
f 84//12 85//12 86//12
f 86//13 85//13 87//13
f 86//13 87//13 88//13
f 88//14 87//14 82//14
f 88//14 82//14 81//14
f 87//9 83//9 82//9
f 88//10 81//10 84//10
f 83//9 87//9 85//9
f 84//10 86//10 88//10
usemtl ring
f 33//15 34//16 35//17
f 33//15 35//17 36//18
f 34//19 37//20 38//21
f 34//19 38//21 35//22
f 37//23 39//24 40//25
f 37//23 40//25 38//26
f 39//27 33//28 36//29
f 39//27 36//29 40//30
f 36//18 35//17 41//31
f 36//18 41//31 42//32
f 35//22 38//21 43//33
f 35//22 43//33 41//34
f 38//26 40//25 44//35
f 38//26 44//35 43//36
f 40//30 36//29 42//37
f 40//30 42//37 44//38
f 42//32 41//31 45//39
f 42//32 45//39 46//40
f 41//34 43//33 47//41
f 41//34 47//41 45//42
f 43//36 44//35 48//43
f 43//36 48//43 47//44
f 44//38 42//37 46//45
f 44//38 46//45 48//46
f 46//40 45//39 49//47
f 46//40 49//47 50//48
f 45//42 47//41 51//49
f 45//42 51//49 49//50
f 47//44 48//43 52//51
f 47//44 52//51 51//52
f 48//46 46//45 50//53
f 48//46 50//53 52//54
f 50//48 49//47 53//55
f 50//48 53//55 54//56
f 49//50 51//49 55//57
f 49//50 55//57 53//58
f 51//52 52//51 56//59
f 51//52 56//59 55//60
f 52//54 50//53 54//61
f 52//54 54//61 56//62
f 54//56 53//55 57//28
f 54//56 57//28 58//27
f 53//58 55//57 59//24
f 53//58 59//24 57//23
f 55//60 56//59 60//20
f 55//60 60//20 59//19
f 56//62 54//61 58//16
f 56//62 58//16 60//15
f 58//27 57//28 61//29
f 58//27 61//29 62//30
f 57//23 59//24 63//25
f 57//23 63//25 61//26
f 59//19 60//20 64//21
f 59//19 64//21 63//22
f 60//15 58//16 62//17
f 60//15 62//17 64//18
f 62//30 61//29 65//37
f 62//30 65//37 66//38
f 61//26 63//25 67//35
f 61//26 67//35 65//36
f 63//22 64//21 68//33
f 63//22 68//33 67//34
f 64//18 62//17 66//31
f 64//18 66//31 68//32
f 66//38 65//37 69//45
f 66//38 69//45 70//46
f 65//36 67//35 71//43
f 65//36 71//43 69//44
f 67//34 68//33 72//41
f 67//34 72//41 71//42
f 68//32 66//31 70//39
f 68//32 70//39 72//40
f 70//46 69//45 73//53
f 70//46 73//53 74//54
f 69//44 71//43 75//51
f 69//44 75//51 73//52
f 71//42 72//41 76//49
f 71//42 76//49 75//50
f 72//40 70//39 74//47
f 72//40 74//47 76//48
f 74//54 73//53 77//61
f 74//54 77//61 78//62
f 73//52 75//51 79//59
f 73//52 79//59 77//60
f 75//50 76//49 80//57
f 75//50 80//57 79//58
f 76//48 74//47 78//55
f 76//48 78//55 80//56
f 78//62 77//61 34//16
f 78//62 34//16 33//15
f 77//60 79//59 37//20
f 77//60 37//20 34//19
f 79//58 80//57 39//24
f 79//58 39//24 37//23
f 80//56 78//55 33//28
f 80//56 33//28 39//27
usemtl net
f 89//63 90//64 91//65
f 89//63 91//65 92//66
f 90//64 93//67 94//68
f 90//64 94//68 91//65
f 92//66 91//65 95//69
f 92//66 95//69 96//70
f 91//65 94//68 97//71
f 91//65 97//71 95//69
f 96//70 95//69 98//72
f 96//70 98//72 99//73
f 95//69 97//71 100//74
f 95//69 100//74 98//72
f 99//73 98//72 101//75
f 99//73 101//75 102//76
f 98//72 100//74 103//77
f 98//72 103//77 101//75
f 102//76 101//75 104//78
f 102//76 104//78 105//79
f 101//75 103//77 106//80
f 101//75 106//80 104//78
f 105//79 104//78 107//81
f 105//79 107//81 108//82
f 104//78 106//80 109//83
f 104//78 109//83 107//81
f 108//82 107//81 110//84
f 108//82 110//84 111//85
f 107//81 109//83 112//86
f 107//81 112//86 110//84
f 111//85 110//84 113//87
f 111//85 113//87 114//88
f 110//84 112//86 115//89
f 110//84 115//89 113//87
f 114//88 113//87 116//90
f 114//88 116//90 117//91
f 113//87 115//89 118//92
f 113//87 118//92 116//90
f 117//91 116//90 119//93
f 117//91 119//93 120//94
f 116//90 118//92 121//95
f 116//90 121//95 119//93
f 120//94 119//93 122//96
f 120//94 122//96 123//97
f 119//93 121//95 124//98
f 119//93 124//98 122//96
f 123//97 122//96 90//64
f 123//97 90//64 89//63
f 122//96 124//98 93//67
f 122//96 93//67 90//64
