# Generated by tools/models/generate_all.gd - DO NOT EDIT BY HAND.
# Change the generator and re-run:
#   godot --headless -s tools/models/generate_all.gd
mtllib env_laundry_line.mtl
o LaundryLine
v -8.00000 2.62000 0.02500
v -6.66667 2.51130 0.02500
v -6.66667 2.51130 -0.02500
v -8.00000 2.62000 -0.02500
v -5.33333 2.41000 0.02500
v -5.33333 2.41000 -0.02500
v -4.00000 2.32301 0.02500
v -4.00000 2.32301 -0.02500
v -2.66667 2.25627 0.02500
v -2.66667 2.25627 -0.02500
v -1.33333 2.21431 0.02500
v -1.33333 2.21431 -0.02500
v 0.00000 2.20000 0.02500
v 0.00000 2.20000 -0.02500
v 1.33333 2.21431 0.02500
v 1.33333 2.21431 -0.02500
v 2.66667 2.25627 0.02500
v 2.66667 2.25627 -0.02500
v 4.00000 2.32301 0.02500
v 4.00000 2.32301 -0.02500
v 5.33333 2.41000 0.02500
v 5.33333 2.41000 -0.02500
v 6.66667 2.51130 0.02500
v 6.66667 2.51130 -0.02500
v 8.00000 2.62000 0.02500
v 8.00000 2.62000 -0.02500
v -6.98706 2.52654 -0.01831
v -6.72723 2.52654 0.01831
v -6.72441 2.43454 0.03960
v -6.99565 2.43454 0.00138
v -6.72049 2.34254 0.05307
v -7.00314 2.34254 0.01323
v -6.71479 2.25054 0.05387
v -7.00884 2.25054 0.01243
v -6.70730 2.15854 0.04201
v -7.01276 2.15854 -0.00104
v -6.69871 2.06654 0.02233
v -7.01558 2.06654 -0.02233
v -4.67569 2.35813 0.02222
v -4.46717 2.35813 -0.02222
v -4.45909 2.28213 -0.00676
v -4.67676 2.28213 0.03964
v -4.45235 2.20613 0.00243
v -4.67917 2.20613 0.05078
v -4.44777 2.13013 0.00145
v -4.68375 2.13013 0.05175
v -4.44536 2.05413 -0.00968
v -4.69049 2.05413 0.04257
v -4.44428 1.97813 -0.02710
v -4.69857 1.97813 0.02710
v -2.42494 2.24159 -0.00697
v -2.14649 2.24159 0.00697
v -2.14147 2.13759 0.02923
v -2.43215 2.13759 0.01468
v -2.13604 2.03359 0.04310
v -2.43894 2.03359 0.02795
v -2.12993 1.92959 0.04341
v -2.44505 1.92959 0.02764
v -2.12314 1.82559 0.03015
v -2.45049 1.82559 0.01377
v -2.11593 1.72159 0.00850
v -2.45550 1.72159 -0.00850
v -0.11434 2.20000 0.01032
v 0.11434 2.20000 -0.01032
v 0.12098 2.11600 0.00726
v -0.11773 2.11600 0.02880
v 0.12701 2.03200 0.01795
v -0.12174 2.03200 0.04040
v 0.13203 1.94800 0.01750
v -0.12676 1.94800 0.04085
v 0.13604 1.86400 0.00590
v -0.13279 1.86400 0.03016
v 0.13943 1.78000 -0.01258
v -0.13943 1.78000 0.01258
v 2.15663 2.24159 -0.02349
v 2.41479 2.24159 0.02349
v 2.41676 2.14359 0.04488
v 2.14726 2.14359 -0.00416
v 2.42014 2.04559 0.05849
v 2.13931 2.04559 0.00739
v 2.42580 1.94759 0.05952
v 2.13364 1.94759 0.00635
v 2.43376 1.84959 0.04797
v 2.13026 1.84959 -0.00726
v 2.44313 1.75159 0.02864
v 2.12830 1.75159 -0.02864
v 4.47307 2.35813 0.00295
v 4.66978 2.35813 -0.00295
v 4.67457 2.28613 0.01243
v 4.46922 2.28613 0.01859
v 4.67917 2.21413 0.02189
v 4.46519 2.21413 0.02831
v 4.68349 2.14213 0.02176
v 4.46087 2.14213 0.02844
v 4.68752 2.07013 0.01204
v 4.45627 2.07013 0.01898
v 4.69137 1.99813 -0.00360
v 4.45148 1.99813 0.00360
v 6.73535 2.52654 -0.01716
v 6.97894 2.52654 0.01716
v 6.98158 2.43854 0.03712
v 6.72729 2.43854 0.00129
v 6.98525 2.35054 0.04975
v 6.72027 2.35054 0.01241
v 6.99060 2.26254 0.05050
v 6.71493 2.26254 0.01165
v 6.99762 2.17454 0.03939
v 6.71125 2.17454 -0.00097
v 7.00568 2.08654 0.02093
v 6.70861 2.08654 -0.02093
vn 0.08126 0.99669 0.00000
vn -0.08126 -0.99669 0.00000
vn 0.07575 0.99713 0.00000
vn -0.07575 -0.99713 0.00000
vn 0.06510 0.99788 0.00000
vn -0.06510 -0.99788 0.00000
vn 0.05000 0.99875 0.00000
vn -0.05000 -0.99875 0.00000
vn 0.03145 0.99951 0.00000
vn -0.03145 -0.99951 0.00000
vn 0.01073 0.99994 0.00000
vn -0.01073 -0.99994 0.00000
vn -0.01073 0.99994 0.00000
vn 0.01073 -0.99994 0.00000
vn -0.03145 0.99951 0.00000
vn 0.03145 -0.99951 0.00000
vn -0.05000 0.99875 0.00000
vn 0.05000 -0.99875 0.00000
vn -0.06510 0.99788 0.00000
vn 0.06510 -0.99788 0.00000
vn -0.07575 0.99713 0.00000
vn 0.07575 -0.99713 0.00000
vn -0.08126 0.99669 0.00000
vn 0.08126 -0.99669 0.00000
vn 0.13614 -0.21941 -0.96609
vn -0.13614 0.21941 0.96609
vn 0.13821 -0.13767 -0.98079
vn -0.13821 0.13767 0.98079
vn 0.13954 0.00000 -0.99022
vn -0.13954 0.00000 0.99022
vn 0.13821 0.13767 -0.98079
vn -0.13821 -0.13767 0.98079
vn 0.13614 0.21941 -0.96609
vn -0.13614 -0.21941 0.96609
vn -0.20354 -0.21597 -0.95495
vn 0.20354 0.21597 0.95495
vn -0.20654 -0.13544 -0.96902
vn -0.20654 -0.13545 -0.96902
vn 0.20654 0.13544 0.96902
vn 0.20654 0.13545 0.96902
vn -0.20846 0.00000 -0.97803
vn 0.20846 0.00000 0.97803
vn -0.20654 0.13545 -0.96902
vn -0.20654 0.13544 -0.96902
vn 0.20654 -0.13544 0.96902
vn 0.20654 -0.13545 0.96902
vn -0.20354 0.21597 -0.95495
vn 0.20354 -0.21597 0.95495
vn 0.04890 -0.20681 -0.97716
vn -0.04890 0.20681 0.97716
vn 0.04956 -0.12954 -0.99034
vn -0.04956 0.12954 0.99034
vn 0.04998 0.00000 -0.99875
vn -0.04998 0.00000 0.99875
vn 0.04956 0.12954 -0.99034
vn -0.04956 -0.12954 0.99034
vn 0.04890 0.20681 -0.97716
vn -0.04890 -0.20681 0.97716
vn -0.08786 -0.21068 -0.97360
vn 0.08786 0.21068 0.97360
vn -0.08909 -0.13203 -0.98723
vn 0.08909 0.13203 0.98723
vn -0.08988 0.00000 -0.99595
vn 0.08988 0.00000 0.99595
vn -0.08909 0.13203 -0.98723
vn 0.08909 -0.13203 0.98723
vn -0.08786 0.21068 -0.97360
vn 0.08786 -0.21068 0.97360
vn 0.17517 -0.20657 -0.96262
vn -0.17517 0.20657 0.96262
vn 0.17752 -0.12938 -0.97557
vn -0.17752 0.12938 0.97557
vn 0.17903 0.00000 -0.98384
vn -0.17903 0.00000 0.98384
vn 0.17752 0.12938 -0.97557
vn -0.17752 -0.12938 0.97557
vn 0.17517 0.20657 -0.96262
vn -0.17517 -0.20657 0.96262
vn -0.02932 -0.21068 -0.97711
vn 0.02932 0.21068 0.97711
vn -0.02973 -0.13203 -0.99080
vn 0.02973 0.13203 0.99080
vn -0.03000 0.00000 -0.99955
vn 0.03000 0.00000 0.99955
vn -0.02973 0.13203 -0.99080
vn 0.02973 -0.13203 0.99080
vn -0.02932 0.21068 -0.97711
vn 0.02932 -0.21068 0.97711
vn 0.13627 -0.21525 -0.96700
vn -0.13627 0.21525 0.96700
vn 0.13827 -0.13498 -0.98115
vn -0.13827 0.13498 0.98115
vn 0.13827 0.13498 -0.98115
vn -0.13827 -0.13498 0.98115
vn 0.13627 0.21525 -0.96700
vn -0.13627 -0.21525 0.96700
usemtl cloth
f 1//1 2//1 3//1
f 1//1 3//1 4//1
f 4//2 3//2 2//2
f 4//2 2//2 1//2
f 2//3 5//3 6//3
f 2//3 6//3 3//3
f 3//4 6//4 5//4
f 3//4 5//4 2//4
f 5//5 7//5 8//5
f 5//5 8//5 6//5
f 6//6 8//6 7//6
f 6//6 7//6 5//6
f 7//7 9//7 10//7
f 7//7 10//7 8//7
f 8//8 10//8 9//8
f 8//8 9//8 7//8
f 9//9 11//9 12//9
f 9//9 12//9 10//9
f 10//10 12//10 11//10
f 10//10 11//10 9//10
f 11//11 13//11 14//11
f 11//11 14//11 12//11
f 12//12 14//12 13//12
f 12//12 13//12 11//12
f 13//13 15//13 16//13
f 13//13 16//13 14//13
f 14//14 16//14 15//14
f 14//14 15//14 13//14
f 15//15 17//15 18//15
f 15//15 18//15 16//15
f 16//16 18//16 17//16
f 16//16 17//16 15//16
f 17//17 19//17 20//17
f 17//17 20//17 18//17
f 18//18 20//18 19//18
f 18//18 19//18 17//18
f 19//19 21//19 22//19
f 19//19 22//19 20//19
f 20//20 22//20 21//20
f 20//20 21//20 19//20
f 21//21 23//21 24//21
f 21//21 24//21 22//21
f 22//22 24//22 23//22
f 22//22 23//22 21//22
f 23//23 25//23 26//23
f 23//23 26//23 24//23
f 24//24 26//24 25//24
f 24//24 25//24 23//24
f 27//25 28//25 29//25
f 27//25 29//25 30//25
f 30//26 29//26 28//26
f 30//26 28//26 27//26
f 30//27 29//27 31//27
f 30//27 31//27 32//27
f 32//28 31//28 29//28
f 32//28 29//28 30//28
f 32//29 31//29 33//29
f 32//29 33//29 34//29
f 34//30 33//30 31//30
f 34//30 31//30 32//30
f 34//31 33//31 35//31
f 34//31 35//31 36//31
f 36//32 35//32 33//32
f 36//32 33//32 34//32
f 36//33 35//33 37//33
f 36//33 37//33 38//33
f 38//34 37//34 35//34
f 38//34 35//34 36//34
f 63//59 64//59 65//59
f 63//59 65//59 66//59
f 66//60 65//60 64//60
f 66//60 64//60 63//60
f 66//61 65//61 67//61
f 66//61 67//61 68//61
f 68//62 67//62 65//62
f 68//62 65//62 66//62
f 68//63 67//63 69//63
f 68//63 69//63 70//63
f 70//64 69//64 67//64
f 70//64 67//64 68//64
f 70//65 69//65 71//65
f 70//65 71//65 72//65
f 72//66 71//66 69//66
f 72//66 69//66 70//66
f 72//67 71//67 73//67
f 72//67 73//67 74//67
f 74//68 73//68 71//68
f 74//68 71//68 72//68
usemtl cloth_pale
f 39//35 40//35 41//35
f 39//35 41//35 42//35
f 42//36 41//36 40//36
f 42//36 40//36 39//36
f 42//37 41//37 43//37
f 42//37 43//37 44//38
f 44//39 43//39 41//39
f 44//39 41//39 42//40
f 44//41 43//41 45//41
f 44//41 45//41 46//41
f 46//42 45//42 43//42
f 46//42 43//42 44//42
f 46//43 45//43 47//43
f 46//44 47//44 48//44
f 48//45 47//46 45//45
f 48//45 45//45 46//45
f 48//47 47//47 49//47
f 48//47 49//47 50//47
f 50//48 49//48 47//48
f 50//48 47//48 48//48
f 87//79 88//79 89//79
f 87//79 89//79 90//79
f 90//80 89//80 88//80
f 90//80 88//80 87//80
f 90//81 89//81 91//81
f 90//81 91//81 92//81
f 92//82 91//82 89//82
f 92//82 89//82 90//82
f 92//83 91//83 93//83
f 92//83 93//83 94//83
f 94//84 93//84 91//84
f 94//84 91//84 92//84
f 94//85 93//85 95//85
f 94//85 95//85 96//85
f 96//86 95//86 93//86
f 96//86 93//86 94//86
f 96//87 95//87 97//87
f 96//87 97//87 98//87
f 98//88 97//88 95//88
f 98//88 95//88 96//88
usemtl cloth_mint
f 51//49 52//49 53//49
f 51//49 53//49 54//49
f 54//50 53//50 52//50
f 54//50 52//50 51//50
f 54//51 53//51 55//51
f 54//51 55//51 56//51
f 56//52 55//52 53//52
f 56//52 53//52 54//52
f 56//53 55//53 57//53
f 56//53 57//53 58//53
f 58//54 57//54 55//54
f 58//54 55//54 56//54
f 58//55 57//55 59//55
f 58//55 59//55 60//55
f 60//56 59//56 57//56
f 60//56 57//56 58//56
f 60//57 59//57 61//57
f 60//57 61//57 62//57
f 62//58 61//58 59//58
f 62//58 59//58 60//58
f 99//89 100//89 101//89
f 99//89 101//89 102//89
f 102//90 101//90 100//90
f 102//90 100//90 99//90
f 102//91 101//91 103//91
f 102//91 103//91 104//91
f 104//92 103//92 101//92
f 104//92 101//92 102//92
f 104//29 103//29 105//29
f 104//29 105//29 106//29
f 106//30 105//30 103//30
f 106//30 103//30 104//30
f 106//93 105//93 107//93
f 106//93 107//93 108//93
f 108//94 107//94 105//94
f 108//94 105//94 106//94
f 108//95 107//95 109//95
f 108//95 109//95 110//95
f 110//96 109//96 107//96
f 110//96 107//96 108//96
usemtl cloth_grey
f 75//69 76//69 77//69
f 75//69 77//69 78//69
f 78//70 77//70 76//70
f 78//70 76//70 75//70
f 78//71 77//71 79//71
f 78//71 79//71 80//71
f 80//72 79//72 77//72
f 80//72 77//72 78//72
f 80//73 79//73 81//73
f 80//73 81//73 82//73
f 82//74 81//74 79//74
f 82//74 79//74 80//74
f 82//75 81//75 83//75
f 82//75 83//75 84//75
f 84//76 83//76 81//76
f 84//76 81//76 82//76
f 84//77 83//77 85//77
f 84//77 85//77 86//77
f 86//78 85//78 83//78
f 86//78 83//78 84//78
