# Generated by tools/models/generate_all.gd - DO NOT EDIT BY HAND.
# Change the generator and re-run:
#   godot --headless -s tools/models/generate_all.gd
mtllib env_base_circle_decal.mtl
o BaseCircleDecal
v 1.44000 0.00000 0.00000
v 1.44000 0.02000 0.00000
v 1.39093 0.02000 0.37270
v 1.39093 0.00000 0.37270
v 1.50000 0.02000 0.00000
v 1.44889 0.02000 0.38823
v 1.50000 0.00000 0.00000
v 1.44889 0.00000 0.38823
v 1.24708 0.02000 0.72000
v 1.24708 0.00000 0.72000
v 1.29904 0.02000 0.75000
v 1.29904 0.00000 0.75000
v 1.01823 0.02000 1.01823
v 1.01823 0.00000 1.01823
v 1.06066 0.02000 1.06066
v 1.06066 0.00000 1.06066
v 0.72000 0.02000 1.24708
v 0.72000 0.00000 1.24708
v 0.75000 0.02000 1.29904
v 0.75000 0.00000 1.29904
v 0.37270 0.02000 1.39093
v 0.37270 0.00000 1.39093
v 0.38823 0.02000 1.44889
v 0.38823 0.00000 1.44889
v 0.00000 0.02000 1.44000
v 0.00000 0.00000 1.44000
v 0.00000 0.02000 1.50000
v 0.00000 0.00000 1.50000
v -0.37270 0.02000 1.39093
v -0.37270 0.00000 1.39093
v -0.38823 0.02000 1.44889
v -0.38823 0.00000 1.44889
v -0.72000 0.02000 1.24708
v -0.72000 0.00000 1.24708
v -0.75000 0.02000 1.29904
v -0.75000 0.00000 1.29904
v -1.01823 0.02000 1.01823
v -1.01823 0.00000 1.01823
v -1.06066 0.02000 1.06066
v -1.06066 0.00000 1.06066
v -1.24708 0.02000 0.72000
v -1.24708 0.00000 0.72000
v -1.29904 0.02000 0.75000
v -1.29904 0.00000 0.75000
v -1.39093 0.02000 0.37270
v -1.39093 0.00000 0.37270
v -1.44889 0.02000 0.38823
v -1.44889 0.00000 0.38823
v -1.44000 0.02000 0.00000
v -1.44000 0.00000 0.00000
v -1.50000 0.02000 0.00000
v -1.50000 0.00000 0.00000
v -1.39093 0.02000 -0.37270
v -1.39093 0.00000 -0.37270
v -1.44889 0.02000 -0.38823
v -1.44889 0.00000 -0.38823
v -1.24708 0.02000 -0.72000
v -1.24708 0.00000 -0.72000
v -1.29904 0.02000 -0.75000
v -1.29904 0.00000 -0.75000
v -1.01823 0.02000 -1.01823
v -1.01823 0.00000 -1.01823
v -1.06066 0.02000 -1.06066
v -1.06066 0.00000 -1.06066
v -0.72000 0.02000 -1.24708
v -0.72000 0.00000 -1.24708
v -0.75000 0.02000 -1.29904
v -0.75000 0.00000 -1.29904
v -0.37270 0.02000 -1.39093
v -0.37270 0.00000 -1.39093
v -0.38823 0.02000 -1.44889
v -0.38823 0.00000 -1.44889
v 0.00000 0.02000 -1.44000
v 0.00000 0.00000 -1.44000
v 0.00000 0.02000 -1.50000
v 0.00000 0.00000 -1.50000
v 0.37270 0.02000 -1.39093
v 0.37270 0.00000 -1.39093
v 0.38823 0.02000 -1.44889
v 0.38823 0.00000 -1.44889
v 0.72000 0.02000 -1.24708
v 0.72000 0.00000 -1.24708
v 0.75000 0.02000 -1.29904
v 0.75000 0.00000 -1.29904
v 1.01823 0.02000 -1.01823
v 1.01823 0.00000 -1.01823
v 1.06066 0.02000 -1.06066
v 1.06066 0.00000 -1.06066
v 1.24708 0.02000 -0.72000
v 1.24708 0.00000 -0.72000
v 1.29904 0.02000 -0.75000
v 1.29904 0.00000 -0.75000
v 1.39093 0.02000 -0.37270
v 1.39093 0.00000 -0.37270
v 1.44889 0.02000 -0.38823
v 1.44889 0.00000 -0.38823
vn 0.99904 0.00000 0.04384
vn 0.99904 0.00000 -0.04384
vn 0.97634 0.00000 0.21622
vn 0.95365 0.00000 0.30092
vn 0.00000 -1.00000 0.00000
vn -0.99904 0.00000 -0.04384
vn -0.99904 0.00000 0.04384
vn -0.97634 0.00000 -0.21622
vn -0.95365 0.00000 -0.30092
vn 0.88711 0.00000 0.46155
vn 0.84327 0.00000 0.53749
vn -0.88711 0.00000 -0.46155
vn -0.84327 0.00000 -0.53749
vn 0.73743 0.00000 0.67543
vn 0.67543 0.00000 0.73743
vn -0.73743 0.00000 -0.67543
vn -0.67543 0.00000 -0.73743
vn 0.53749 0.00000 0.84327
vn 0.46155 0.00000 0.88711
vn -0.53749 0.00000 -0.84327
vn -0.46155 0.00000 -0.88711
vn 0.30092 0.00000 0.95365
vn 0.21622 0.00000 0.97634
vn -0.30092 0.00000 -0.95365
vn -0.21622 0.00000 -0.97634
vn 0.04384 0.00000 0.99904
vn -0.04384 0.00000 0.99904
vn -0.04384 0.00000 -0.99904
vn 0.04384 0.00000 -0.99904
vn -0.21622 0.00000 0.97634
vn -0.30092 0.00000 0.95365
vn 0.21622 0.00000 -0.97634
vn 0.30092 0.00000 -0.95365
vn -0.46155 0.00000 0.88711
vn -0.53749 0.00000 0.84327
vn 0.46155 0.00000 -0.88711
vn 0.53749 0.00000 -0.84327
vn -0.67543 0.00000 0.73743
vn -0.73743 0.00000 0.67543
vn 0.67543 0.00000 -0.73743
vn 0.73743 0.00000 -0.67543
vn -0.84327 0.00000 0.53749
vn -0.88711 0.00000 0.46155
vn 0.84327 0.00000 -0.53749
vn 0.88711 0.00000 -0.46155
vn -0.95365 0.00000 0.30092
vn -0.97634 0.00000 0.21622
vn 0.95365 0.00000 -0.30092
vn 0.97634 0.00000 -0.21622
usemtl mark
f 1//1 2//2 3//3
f 1//1 3//3 4//4
f 2//5 5//5 6//5
f 2//5 6//5 3//5
f 5//6 7//7 8//8
f 5//6 8//8 6//9
f 4//4 3//3 9//10
f 4//4 9//10 10//11
f 3//5 6//5 11//5
f 3//5 11//5 9//5
f 6//9 8//8 12//12
f 6//9 12//12 11//13
f 10//11 9//10 13//14
f 10//11 13//14 14//15
f 9//5 11//5 15//5
f 9//5 15//5 13//5
f 11//13 12//12 16//16
f 11//13 16//16 15//17
f 14//15 13//14 17//18
f 14//15 17//18 18//19
f 13//5 15//5 19//5
f 13//5 19//5 17//5
f 15//17 16//16 20//20
f 15//17 20//20 19//21
f 18//19 17//18 21//22
f 18//19 21//22 22//23
f 17//5 19//5 23//5
f 17//5 23//5 21//5
f 19//21 20//20 24//24
f 19//21 24//24 23//25
f 22//23 21//22 25//26
f 22//23 25//26 26//27
f 21//5 23//5 27//5
f 21//5 27//5 25//5
f 23//25 24//24 28//28
f 23//25 28//28 27//29
f 26//27 25//26 29//30
f 26//27 29//30 30//31
f 25//5 27//5 31//5
f 25//5 31//5 29//5
f 27//29 28//28 32//32
f 27//29 32//32 31//33
f 30//31 29//30 33//34
f 30//31 33//34 34//35
f 29//5 31//5 35//5
f 29//5 35//5 33//5
f 31//33 32//32 36//36
f 31//33 36//36 35//37
f 34//35 33//34 37//38
f 34//35 37//38 38//39
f 33//5 35//5 39//5
f 33//5 39//5 37//5
f 35//37 36//36 40//40
f 35//37 40//40 39//41
f 38//39 37//38 41//42
f 38//39 41//42 42//43
f 37//5 39//5 43//5
f 37//5 43//5 41//5
f 39//41 40//40 44//44
f 39//41 44//44 43//45
f 42//43 41//42 45//46
f 42//43 45//46 46//47
f 41//5 43//5 47//5
f 41//5 47//5 45//5
f 43//45 44//44 48//48
f 43//45 48//48 47//49
f 46//47 45//46 49//7
f 46//47 49//7 50//6
f 45//5 47//5 51//5
f 45//5 51//5 49//5
f 47//49 48//48 52//2
f 47//49 52//2 51//1
f 50//6 49//7 53//8
f 50//6 53//8 54//9
f 49//5 51//5 55//5
f 49//5 55//5 53//5
f 51//1 52//2 56//3
f 51//1 56//3 55//4
f 54//9 53//8 57//12
f 54//9 57//12 58//13
f 53//5 55//5 59//5
f 53//5 59//5 57//5
f 55//4 56//3 60//10
f 55//4 60//10 59//11
f 58//13 57//12 61//16
f 58//13 61//16 62//17
f 57//5 59//5 63//5
f 57//5 63//5 61//5
f 59//11 60//10 64//14
f 59//11 64//14 63//15
f 62//17 61//16 65//20
f 62//17 65//20 66//21
f 61//5 63//5 67//5
f 61//5 67//5 65//5
f 63//15 64//14 68//18
f 63//15 68//18 67//19
f 66//21 65//20 69//24
f 66//21 69//24 70//25
f 65//5 67//5 71//5
f 65//5 71//5 69//5
f 67//19 68//18 72//22
f 67//19 72//22 71//23
f 70//25 69//24 73//28
f 70//25 73//28 74//29
f 69//5 71//5 75//5
f 69//5 75//5 73//5
f 71//23 72//22 76//26
f 71//23 76//26 75//27
f 74//29 73//28 77//32
f 74//29 77//32 78//33
f 73//5 75//5 79//5
f 73//5 79//5 77//5
f 75//27 76//26 80//30
f 75//27 80//30 79//31
f 78//33 77//32 81//36
f 78//33 81//36 82//37
f 77//5 79//5 83//5
f 77//5 83//5 81//5
f 79//31 80//30 84//34
f 79//31 84//34 83//35
f 82//37 81//36 85//40
f 82//37 85//40 86//41
f 81//5 83//5 87//5
f 81//5 87//5 85//5
f 83//35 84//34 88//38
f 83//35 88//38 87//39
f 86//41 85//40 89//44
f 86//41 89//44 90//45
f 85//5 87//5 91//5
f 85//5 91//5 89//5
f 87//39 88//38 92//42
f 87//39 92//42 91//43
f 90//45 89//44 93//48
f 90//45 93//48 94//49
f 89//5 91//5 95//5
f 89//5 95//5 93//5
f 91//43 92//42 96//46
f 91//43 96//46 95//47
f 94//49 93//48 2//2
f 94//49 2//2 1//1
f 93//5 95//5 5//5
f 93//5 5//5 2//5
f 95//47 96//46 7//7
f 95//47 7//7 5//6
