# Generated by tools/models/generate_all.gd - DO NOT EDIT BY HAND.
# Change the generator and re-run:
#   godot --headless -s tools/models/generate_all.gd
mtllib env_building_block_b.mtl
o BuildingBlock
v 2.00000 0.00000 -1.50000
v 2.00000 8.00000 -1.50000
v 2.00000 8.00000 1.50000
v 2.00000 0.00000 1.50000
v -2.00000 8.00000 1.50000
v -2.00000 0.00000 1.50000
v -2.00000 8.00000 -1.50000
v -2.00000 0.00000 -1.50000
v 2.03000 7.55000 -1.53000
v 2.03000 7.75000 -1.53000
v 2.03000 7.75000 1.53000
v 2.03000 7.55000 1.53000
v -2.03000 7.75000 1.53000
v -2.03000 7.55000 1.53000
v -2.03000 7.75000 -1.53000
v -2.03000 7.55000 -1.53000
v -1.51000 0.90000 -1.51000
v -1.51000 1.70000 -1.51000
v -0.89000 1.70000 -1.51000
v -0.89000 0.90000 -1.51000
v -0.31000 0.90000 -1.51000
v -0.31000 1.70000 -1.51000
v 0.31000 1.70000 -1.51000
v 0.31000 0.90000 -1.51000
v 0.89000 0.90000 -1.51000
v 0.89000 1.70000 -1.51000
v 1.51000 1.70000 -1.51000
v 1.51000 0.90000 -1.51000
v -1.51000 2.75000 -1.51000
v -1.51000 3.55000 -1.51000
v -0.89000 3.55000 -1.51000
v -0.89000 2.75000 -1.51000
v -0.31000 2.75000 -1.51000
v -0.31000 3.55000 -1.51000
v 0.31000 3.55000 -1.51000
v 0.31000 2.75000 -1.51000
v 0.89000 2.75000 -1.51000
v 0.89000 3.55000 -1.51000
v 1.51000 3.55000 -1.51000
v 1.51000 2.75000 -1.51000
v -1.51000 4.60000 -1.51000
v -1.51000 5.40000 -1.51000
v -0.89000 5.40000 -1.51000
v -0.89000 4.60000 -1.51000
v -0.31000 4.60000 -1.51000
v -0.31000 5.40000 -1.51000
v 0.31000 5.40000 -1.51000
v 0.31000 4.60000 -1.51000
v 0.89000 4.60000 -1.51000
v 0.89000 5.40000 -1.51000
v 1.51000 5.40000 -1.51000
v 1.51000 4.60000 -1.51000
v -1.51000 6.45000 -1.51000
v -1.51000 7.25000 -1.51000
v -0.89000 7.25000 -1.51000
v -0.89000 6.45000 -1.51000
v -0.31000 6.45000 -1.51000
v -0.31000 7.25000 -1.51000
v 0.31000 7.25000 -1.51000
v 0.31000 6.45000 -1.51000
v 0.89000 6.45000 -1.51000
v 0.89000 7.25000 -1.51000
v 1.51000 7.25000 -1.51000
v 1.51000 6.45000 -1.51000
vn 1.00000 0.00000 0.00000
vn 0.00000 0.00000 1.00000
vn -1.00000 0.00000 0.00000
vn 0.00000 0.00000 -1.00000
vn 0.00000 1.00000 0.00000
vn 0.00000 -1.00000 0.00000
usemtl body
f 1//1 2//1 3//1
f 1//1 3//1 4//1
f 4//2 3//2 5//2
f 4//2 5//2 6//2
f 6//3 5//3 7//3
f 6//3 7//3 8//3
f 8//4 7//4 2//4
f 8//4 2//4 1//4
f 7//5 3//5 2//5
f 8//6 1//6 4//6
f 3//5 7//5 5//5
f 4//6 6//6 8//6
usemtl band
f 9//1 10//1 11//1
f 9//1 11//1 12//1
f 12//2 11//2 13//2
f 12//2 13//2 14//2
f 14//3 13//3 15//3
f 14//3 15//3 16//3
f 16//4 15//4 10//4
f 16//4 10//4 9//4
f 15//5 11//5 10//5
f 16//6 9//6 12//6
f 11//5 15//5 13//5
f 12//6 14//6 16//6
usemtl window
f 17//4 18//4 19//4
f 17//4 19//4 20//4
f 21//4 22//4 23//4
f 21//4 23//4 24//4
f 25//4 26//4 27//4
f 25//4 27//4 28//4
f 29//4 30//4 31//4
f 29//4 31//4 32//4
f 33//4 34//4 35//4
f 33//4 35//4 36//4
f 37//4 38//4 39//4
f 37//4 39//4 40//4
f 41//4 42//4 43//4
f 41//4 43//4 44//4
f 45//4 46//4 47//4
f 45//4 47//4 48//4
f 49//4 50//4 51//4
f 49//4 51//4 52//4
f 53//4 54//4 55//4
f 53//4 55//4 56//4
f 57//4 58//4 59//4
f 57//4 59//4 60//4
f 61//4 62//4 63//4
f 61//4 63//4 64//4
