# Generated by tools/models/generate_all.gd - DO NOT EDIT BY HAND.
# Change the generator and re-run:
#   godot --headless -s tools/models/generate_all.gd
mtllib env_post_electric.mtl
o PostElectric
v 0.11000 0.00000 -0.11000
v 0.11000 4.50000 -0.11000
v 0.11000 4.50000 0.11000
v 0.11000 0.00000 0.11000
v -0.11000 4.50000 0.11000
v -0.11000 0.00000 0.11000
v -0.11000 4.50000 -0.11000
v -0.11000 0.00000 -0.11000
v 0.80000 3.72000 -0.07000
v 0.80000 3.86000 -0.07000
v 0.80000 3.86000 0.07000
v 0.80000 3.72000 0.07000
v -0.80000 3.86000 0.07000
v -0.80000 3.72000 0.07000
v -0.80000 3.86000 -0.07000
v -0.80000 3.72000 -0.07000
v -0.55500 3.86000 -0.04500
v -0.55500 4.00000 -0.04500
v -0.55500 4.00000 0.04500
v -0.55500 3.86000 0.04500
v -0.64500 4.00000 0.04500
v -0.64500 3.86000 0.04500
v -0.64500 4.00000 -0.04500
v -0.64500 3.86000 -0.04500
v -0.60000 3.97000 0.02500
v 0.15000 3.75952 0.02500
v 0.15000 3.75952 -0.02500
v -0.60000 3.97000 -0.02500
v 0.90000 3.58109 0.02500
v 0.90000 3.58109 -0.02500
v 1.65000 3.46187 0.02500
v 1.65000 3.46187 -0.02500
v 2.40000 3.42000 0.02500
v 2.40000 3.42000 -0.02500
v 3.15000 3.46187 0.02500
v 3.15000 3.46187 -0.02500
v 3.90000 3.58109 0.02500
v 3.90000 3.58109 -0.02500
v 4.65000 3.75952 0.02500
v 4.65000 3.75952 -0.02500
v 5.40000 3.97000 0.02500
v 5.40000 3.97000 -0.02500
v 0.04500 3.86000 -0.04500
v 0.04500 4.00000 -0.04500
v 0.04500 4.00000 0.04500
v 0.04500 3.86000 0.04500
v -0.04500 4.00000 0.04500
v -0.04500 3.86000 0.04500
v -0.04500 4.00000 -0.04500
v -0.04500 3.86000 -0.04500
v 0.00000 3.97000 0.02500
v 0.75000 3.75952 0.02500
v 0.75000 3.75952 -0.02500
v 0.00000 3.97000 -0.02500
v 1.50000 3.58109 0.02500
v 1.50000 3.58109 -0.02500
v 2.25000 3.46187 0.02500
v 2.25000 3.46187 -0.02500
v 3.00000 3.42000 0.02500
v 3.00000 3.42000 -0.02500
v 3.75000 3.46187 0.02500
v 3.75000 3.46187 -0.02500
v 4.50000 3.58109 0.02500
v 4.50000 3.58109 -0.02500
v 5.25000 3.75952 0.02500
v 5.25000 3.75952 -0.02500
v 6.00000 3.97000 0.02500
v 6.00000 3.97000 -0.02500
v 0.64500 3.86000 -0.04500
v 0.64500 4.00000 -0.04500
v 0.64500 4.00000 0.04500
v 0.64500 3.86000 0.04500
v 0.55500 4.00000 0.04500
v 0.55500 3.86000 0.04500
v 0.55500 4.00000 -0.04500
v 0.55500 3.86000 -0.04500
v 0.60000 3.97000 0.02500
v 1.35000 3.75952 0.02500
v 1.35000 3.75952 -0.02500
v 0.60000 3.97000 -0.02500
v 2.10000 3.58109 0.02500
v 2.10000 3.58109 -0.02500
v 2.85000 3.46187 0.02500
v 2.85000 3.46187 -0.02500
v 3.60000 3.42000 0.02500
v 3.60000 3.42000 -0.02500
v 4.35000 3.46187 0.02500
v 4.35000 3.46187 -0.02500
v 5.10000 3.58109 0.02500
v 5.10000 3.58109 -0.02500
v 5.85000 3.75952 0.02500
v 5.85000 3.75952 -0.02500
v 6.60000 3.97000 0.02500
v 6.60000 3.97000 -0.02500
vn 1.00000 0.00000 0.00000
vn 0.00000 0.00000 1.00000
vn -1.00000 0.00000 0.00000
vn 0.00000 0.00000 -1.00000
vn 0.00000 1.00000 0.00000
vn 0.00000 -1.00000 0.00000
vn 0.27020 0.96281 0.00000
vn 0.24441 0.96967 0.00000
vn 0.25733 0.96632 0.00000
vn -0.27020 -0.96281 0.00000
vn -0.24441 -0.96967 0.00000
vn -0.25733 -0.96632 0.00000
vn 0.18193 0.98331 0.00000
vn 0.20676 0.97839 0.00000
vn -0.18193 -0.98331 0.00000
vn -0.20676 -0.97839 0.00000
vn 0.08959 0.99598 0.00000
vn 0.12338 0.99236 0.00000
vn -0.08959 -0.99598 0.00000
vn -0.12338 -0.99236 0.00000
vn -0.01860 0.99983 0.00000
vn 0.01860 0.99983 0.00000
vn 0.01860 -0.99983 0.00000
vn -0.01860 -0.99983 0.00000
vn -0.12338 0.99236 0.00000
vn -0.08959 0.99598 0.00000
vn 0.12338 -0.99236 0.00000
vn 0.08959 -0.99598 0.00000
vn -0.20676 0.97839 0.00000
vn -0.18193 0.98331 0.00000
vn 0.20676 -0.97839 0.00000
vn 0.18193 -0.98331 0.00000
vn -0.25733 0.96632 0.00000
vn -0.24441 0.96967 0.00000
vn 0.25733 -0.96632 0.00000
vn 0.24441 -0.96967 0.00000
vn -0.27020 0.96281 0.00000
vn 0.27020 -0.96281 0.00000
usemtl timber
f 1//1 2//1 3//1
f 1//1 3//1 4//1
f 4//2 3//2 5//2
f 4//2 5//2 6//2
f 6//3 5//3 7//3
f 6//3 7//3 8//3
f 8//4 7//4 2//4
f 8//4 2//4 1//4
f 7//5 3//5 2//5
f 8//6 1//6 4//6
f 3//5 7//5 5//5
f 4//6 6//6 8//6
f 9//1 10//1 11//1
f 9//1 11//1 12//1
f 12//2 11//2 13//2
f 12//2 13//2 14//2
f 14//3 13//3 15//3
f 14//3 15//3 16//3
f 16//4 15//4 10//4
f 16//4 10//4 9//4
f 15//5 11//5 10//5
f 16//6 9//6 12//6
f 11//5 15//5 13//5
f 12//6 14//6 16//6
usemtl wire
f 17//1 18//1 19//1
f 17//1 19//1 20//1
f 20//2 19//2 21//2
f 20//2 21//2 22//2
f 22//3 21//3 23//3
f 22//3 23//3 24//3
f 24//4 23//4 18//4
f 24//4 18//4 17//4
f 23//5 19//5 18//5
f 24//6 17//6 20//6
f 19//5 23//5 21//5
f 20//6 22//6 24//6
f 25//7 26//8 27//9
f 25//7 27//9 28//7
f 28//10 27//11 26//12
f 28//10 26//12 25//10
f 26//8 29//13 30//14
f 26//8 30//14 27//9
f 27//11 30//15 29//16
f 27//11 29//16 26//12
f 29//13 31//17 32//18
f 29//13 32//18 30//14
f 30//15 32//19 31//20
f 30//15 31//20 29//16
f 31//17 33//21 34//22
f 31//17 34//22 32//18
f 32//19 34//23 33//24
f 32//19 33//24 31//20
f 33//21 35//25 36//26
f 33//21 36//26 34//22
f 34//23 36//27 35//28
f 34//23 35//28 33//24
f 35//25 37//29 38//30
f 35//25 38//30 36//26
f 36//27 38//31 37//32
f 36//27 37//32 35//28
f 37//29 39//33 40//34
f 37//29 40//34 38//30
f 38//31 40//35 39//36
f 38//31 39//36 37//32
f 39//33 41//37 42//37
f 39//33 42//37 40//34
f 40//35 42//38 41//38
f 40//35 41//38 39//36
f 43//1 44//1 45//1
f 43//1 45//1 46//1
f 46//2 45//2 47//2
f 46//2 47//2 48//2
f 48//3 47//3 49//3
f 48//3 49//3 50//3
f 50//4 49//4 44//4
f 50//4 44//4 43//4
f 49//5 45//5 44//5
f 50//6 43//6 46//6
f 45//5 49//5 47//5
f 46//6 48//6 50//6
f 51//7 52//8 53//9
f 51//7 53//9 54//7
f 54//10 53//11 52//12
f 54//10 52//12 51//10
f 52//8 55//13 56//14
f 52//8 56//14 53//9
f 53//11 56//15 55//16
f 53//11 55//16 52//12
f 55//13 57//17 58//18
f 55//13 58//18 56//14
f 56//15 58//19 57//20
f 56//15 57//20 55//16
f 57//17 59//21 60//22
f 57//17 60//22 58//18
f 58//19 60//23 59//24
f 58//19 59//24 57//20
f 59//21 61//25 62//26
f 59//21 62//26 60//22
f 60//23 62//27 61//28
f 60//23 61//28 59//24
f 61//25 63//29 64//30
f 61//25 64//30 62//26
f 62//27 64//31 63//32
f 62//27 63//32 61//28
f 63//29 65//33 66//34
f 63//29 66//34 64//30
f 64//31 66//35 65//36
f 64//31 65//36 63//32
f 65//33 67//37 68//37
f 65//33 68//37 66//34
f 66//35 68//38 67//38
f 66//35 67//38 65//36
f 69//1 70//1 71//1
f 69//1 71//1 72//1
f 72//2 71//2 73//2
f 72//2 73//2 74//2
f 74//3 73//3 75//3
f 74//3 75//3 76//3
f 76//4 75//4 70//4
f 76//4 70//4 69//4
f 75//5 71//5 70//5
f 76//6 69//6 72//6
f 71//5 75//5 73//5
f 72//6 74//6 76//6
f 77//7 78//8 79//9
f 77//7 79//9 80//7
f 80//10 79//11 78//12
f 80//10 78//12 77//10
f 78//8 81//13 82//14
f 78//8 82//14 79//9
f 79//11 82//15 81//16
f 79//11 81//16 78//12
f 81//13 83//17 84//18
f 81//13 84//18 82//14
f 82//15 84//19 83//20
f 82//15 83//20 81//16
f 83//17 85//21 86//22
f 83//17 86//22 84//18
f 84//19 86//23 85//24
f 84//19 85//24 83//20
f 85//21 87//25 88//26
f 85//21 88//26 86//22
f 86//23 88//27 87//28
f 86//23 87//28 85//24
f 87//25 89//29 90//30
f 87//25 90//30 88//26
f 88//27 90//31 89//32
f 88//27 89//32 87//28
f 89//29 91//33 92//34
f 89//29 92//34 90//30
f 90//31 92//35 91//36
f 90//31 91//36 89//32
f 91//33 93//37 94//37
f 91//33 94//37 92//34
f 92//35 94//38 93//38
f 92//35 93//38 91//36
