# Generated by tools/models/generate_all.gd - DO NOT EDIT BY HAND.
# Change the generator and re-run:
#   godot --headless -s tools/models/generate_all.gd
mtllib env_wall_corrugated.mtl
o WallCorrugated
v -1.00000 0.30000 -0.05000
v -1.00000 2.40000 -0.05000
v -0.83333 2.40000 0.00000
v -0.83333 0.30000 0.00000
v -0.66667 2.40000 -0.05000
v -0.66667 0.30000 -0.05000
v -0.50000 2.40000 0.00000
v -0.50000 0.30000 0.00000
v -0.33333 2.40000 -0.05000
v -0.33333 0.30000 -0.05000
v -0.16667 2.40000 0.00000
v -0.16667 0.30000 0.00000
v 0.00000 2.40000 -0.05000
v 0.00000 0.30000 -0.05000
v 0.16667 2.40000 0.00000
v 0.16667 0.30000 0.00000
v 0.33333 2.40000 -0.05000
v 0.33333 0.30000 -0.05000
v 0.50000 2.40000 0.00000
v 0.50000 0.30000 0.00000
v 0.66667 2.40000 -0.05000
v 0.66667 0.30000 -0.05000
v 0.83333 2.40000 0.00000
v 0.83333 0.30000 0.00000
v 1.00000 2.40000 -0.05000
v 1.00000 0.30000 -0.05000
v 1.00000 2.40000 0.10000
v 1.00000 0.30000 0.10000
v -1.00000 2.40000 0.10000
v -1.00000 0.30000 0.10000
v -1.00000 0.00000 -0.05000
v -0.83333 0.00000 0.00000
v -0.66667 0.00000 -0.05000
v -0.50000 0.00000 0.00000
v -0.33333 0.00000 -0.05000
v -0.16667 0.00000 0.00000
v 0.00000 0.00000 -0.05000
v 0.16667 0.00000 0.00000
v 0.33333 0.00000 -0.05000
v 0.50000 0.00000 0.00000
v 0.66667 0.00000 -0.05000
v 0.83333 0.00000 0.00000
v 1.00000 0.00000 -0.05000
v 1.00000 0.00000 0.10000
v -1.00000 0.00000 0.10000
vn 0.28735 0.00000 -0.95783
vn 0.09950 0.00000 -0.99504
vn 0.00000 0.00000 -1.00000
vn -0.09950 0.00000 -0.99504
vn -0.28735 0.00000 -0.95783
vn 1.00000 0.00000 0.00000
vn 0.00000 0.00000 1.00000
vn -1.00000 0.00000 0.00000
vn 0.00000 1.00000 0.00000
vn 0.00000 -1.00000 0.00000
usemtl sheet
f 1//1 2//1 3//2
f 1//1 3//2 4//3
f 4//3 3//2 5//4
f 4//3 5//4 6//3
f 6//3 5//4 7//2
f 6//3 7//2 8//3
f 8//3 7//2 9//4
f 8//3 9//4 10//3
f 10//3 9//4 11//2
f 10//3 11//2 12//3
f 12//3 11//2 13//4
f 12//3 13//4 14//3
f 14//3 13//4 15//2
f 14//3 15//2 16//3
f 16//3 15//2 17//4
f 16//3 17//4 18//3
f 18//3 17//4 19//2
f 18//3 19//2 20//3
f 20//3 19//2 21//4
f 20//3 21//4 22//3
f 22//3 21//4 23//2
f 22//3 23//2 24//3
f 24//3 23//2 25//5
f 24//3 25//5 26//5
f 26//6 25//6 27//6
f 26//6 27//6 28//6
f 28//7 27//7 29//7
f 28//7 29//7 30//7
f 30//8 29//8 2//8
f 30//8 2//8 1//8
f 29//9 3//9 2//9
f 30//10 1//10 4//10
f 3//9 7//9 5//9
f 4//10 6//10 8//10
f 7//9 11//9 9//9
f 8//10 10//10 12//10
f 11//9 15//9 13//9
f 12//10 14//10 16//10
f 15//9 19//9 17//9
f 16//10 18//10 20//10
f 19//9 23//9 21//9
f 20//10 22//10 24//10
f 23//9 27//9 25//9
f 24//10 26//10 28//10
f 27//9 3//9 29//9
f 28//10 30//10 4//10
f 19//9 27//9 23//9
f 20//10 24//10 28//10
f 27//9 7//9 3//9
f 28//10 4//10 8//10
f 15//9 27//9 19//9
f 16//10 20//10 28//10
f 27//9 11//9 7//9
f 28//10 8//10 12//10
f 11//9 27//9 15//9
f 12//10 16//10 28//10
usemtl rust
f 31//1 1//1 4//3
f 31//1 4//3 32//4
f 32//4 4//3 6//3
f 32//4 6//3 33//2
f 33//2 6//3 8//3
f 33//2 8//3 34//4
f 34//4 8//3 10//3
f 34//4 10//3 35//2
f 35//2 10//3 12//3
f 35//2 12//3 36//4
f 36//4 12//3 14//3
f 36//4 14//3 37//2
f 37//2 14//3 16//3
f 37//2 16//3 38//4
f 38//4 16//3 18//3
f 38//4 18//3 39//2
f 39//2 18//3 20//3
f 39//2 20//3 40//4
f 40//4 20//3 22//3
f 40//4 22//3 41//2
f 41//2 22//3 24//3
f 41//2 24//3 42//4
f 42//4 24//3 26//5
f 42//4 26//5 43//5
f 43//6 26//6 28//6
f 43//6 28//6 44//6
f 44//7 28//7 30//7
f 44//7 30//7 45//7
f 45//8 30//8 1//8
f 45//8 1//8 31//8
f 30//9 4//9 1//9
f 45//10 31//10 32//10
f 4//9 8//9 6//9
f 32//10 33//10 34//10
f 8//9 12//9 10//9
f 34//10 35//10 36//10
f 12//9 16//9 14//9
f 36//10 37//10 38//10
f 16//9 20//9 18//9
f 38//10 39//10 40//10
f 20//9 24//9 22//9
f 40//10 41//10 42//10
f 24//9 28//9 26//9
f 42//10 43//10 44//10
f 28//9 4//9 30//9
f 44//10 45//10 32//10
f 20//9 28//9 24//9
f 40//10 42//10 44//10
f 28//9 8//9 4//9
f 44//10 32//10 34//10
f 16//9 28//9 20//9
f 38//10 40//10 44//10
f 28//9 12//9 8//9
f 44//10 34//10 36//10
f 12//9 28//9 16//9
f 36//10 38//10 44//10
