# Generated by tools/models/generate_all.gd - DO NOT EDIT BY HAND.
# Change the generator and re-run:
#   godot --headless -s tools/models/generate_all.gd
mtllib lata_dent3.mtl
o Lata
v 0.00000 0.01650 0.00000
v 0.05400 0.00750 0.00000
v 0.04989 0.00750 0.02066
v 0.07950 0.00000 0.00000
v 0.07345 0.00000 0.03042
v 0.09450 0.01050 0.00000
v 0.08731 0.01050 0.03616
v 0.03818 0.00750 0.03818
v 0.05621 0.00000 0.05621
v 0.06682 0.01050 0.06682
v 0.02066 0.00750 0.04989
v 0.03042 0.00000 0.07345
v 0.03616 0.01050 0.08731
v 0.00000 0.00750 0.05400
v 0.00000 0.00000 0.07950
v 0.00000 0.01050 0.09450
v -0.02066 0.00750 0.04989
v -0.03042 0.00000 0.07345
v -0.03616 0.01050 0.08731
v -0.03818 0.00750 0.03818
v -0.05621 0.00000 0.05621
v -0.06682 0.01050 0.06682
v -0.04989 0.00750 0.02066
v -0.07345 0.00000 0.03042
v -0.08731 0.01050 0.03616
v -0.05400 0.00750 0.00000
v -0.07950 0.00000 0.00000
v -0.09450 0.01050 0.00000
v -0.04989 0.00750 -0.02066
v -0.07345 0.00000 -0.03042
v -0.08731 0.01050 -0.03616
v -0.03818 0.00750 -0.03818
v -0.05621 0.00000 -0.05621
v -0.06682 0.01050 -0.06682
v -0.02066 0.00750 -0.04989
v -0.03042 0.00000 -0.07345
v -0.03616 0.01050 -0.08731
v 0.00000 0.00750 -0.05400
v 0.00000 0.00000 -0.07950
v 0.00000 0.01050 -0.09450
v 0.02066 0.00750 -0.04989
v 0.03042 0.00000 -0.07345
v 0.03616 0.01050 -0.08731
v 0.03818 0.00750 -0.03818
v 0.05621 0.00000 -0.05621
v 0.06682 0.01050 -0.06682
v 0.04989 0.00750 -0.02066
v 0.07345 0.00000 -0.03042
v 0.08731 0.01050 -0.03616
v 0.10200 0.02250 0.00000
v 0.09424 0.02250 0.03903
v 0.07212 0.02250 0.07212
v 0.03903 0.02250 0.09424
v 0.00000 0.02250 0.10200
v -0.03903 0.02250 0.09424
v -0.07212 0.02250 0.07212
v -0.09424 0.02250 0.03903
v -0.10200 0.02250 0.00000
v -0.09424 0.02250 -0.03903
v -0.07212 0.02250 -0.07212
v -0.03903 0.02250 -0.09424
v 0.00000 0.02250 -0.10200
v 0.03903 0.02250 -0.09424
v 0.07212 0.02250 -0.07212
v 0.09424 0.02250 -0.03903
v 0.10200 0.04500 0.00000
v 0.09424 0.04500 0.03903
v 0.10200 0.07200 0.00000
v 0.09424 0.08220 0.03903
v 0.10192 0.09900 0.00000
v 0.09423 0.09900 0.03903
v 0.07471 0.13947 0.00000
v 0.09212 0.16762 0.03816
v 0.08322 0.18000 0.00000
v 0.09424 0.25350 0.03903
v 0.10200 0.22800 0.00000
v 0.10200 0.25350 0.00000
v 0.10200 0.28500 0.00000
v 0.09424 0.28500 0.03903
v 0.07212 0.04500 0.07212
v 0.07212 0.07200 0.07212
v 0.07212 0.09900 0.07212
v 0.07212 0.19577 0.07212
v 0.07212 0.25350 0.07212
v 0.07212 0.28500 0.07212
v 0.03903 0.04500 0.09424
v 0.03903 0.06180 0.09424
v 0.03903 0.09900 0.09424
v 0.03903 0.22392 0.09424
v 0.03903 0.25350 0.09424
v 0.03903 0.28500 0.09424
v 0.00000 0.04500 0.10200
v 0.00000 0.07200 0.10200
v 0.00000 0.09900 0.10200
v 0.00000 0.23841 0.10200
v 0.00000 0.25350 0.10200
v 0.00000 0.28500 0.10200
v -0.03903 0.04500 0.09424
v -0.03892 0.08220 0.09397
v -0.03873 0.09900 0.09351
v -0.03888 0.14145 0.09386
v -0.03903 0.25350 0.09424
v -0.03903 0.28500 0.09424
v -0.07212 0.04500 0.07212
v -0.07009 0.07200 0.07009
v -0.05381 0.09900 0.05381
v -0.07212 0.25350 0.07212
v -0.07212 0.28500 0.07212
v -0.09424 0.04500 0.03903
v -0.09419 0.06180 0.03901
v -0.09081 0.09900 0.03762
v -0.09424 0.25350 0.03903
v -0.09424 0.28500 0.03903
v -0.10200 0.04500 0.00000
v -0.10200 0.07200 0.00000
v -0.10200 0.09900 0.00000
v -0.10200 0.25350 0.00000
v -0.10200 0.28500 0.00000
v -0.09424 0.04500 -0.03903
v -0.09424 0.08220 -0.03903
v -0.09424 0.09900 -0.03903
v -0.09424 0.25350 -0.03903
v -0.09424 0.28500 -0.03903
v -0.07212 0.04500 -0.07212
v -0.07212 0.07200 -0.07212
v -0.07212 0.09900 -0.07212
v -0.07212 0.25350 -0.07212
v -0.07212 0.28500 -0.07212
v -0.03903 0.04500 -0.09424
v -0.03903 0.06180 -0.09424
v -0.03903 0.09900 -0.09424
v -0.03880 0.25350 -0.09366
v -0.03903 0.28500 -0.09424
v 0.00000 0.04500 -0.10200
v 0.00000 0.07200 -0.10200
v 0.00000 0.09900 -0.10200
v 0.00000 0.25350 -0.10185
v 0.00000 0.28500 -0.10200
v 0.03903 0.04500 -0.09424
v 0.03903 0.08220 -0.09424
v 0.03903 0.09900 -0.09424
v 0.03903 0.25350 -0.09424
v 0.03903 0.28500 -0.09424
v 0.07212 0.04500 -0.07212
v 0.07212 0.07200 -0.07212
v 0.07212 0.09900 -0.07212
v 0.07212 0.25350 -0.07212
v 0.07212 0.28500 -0.07212
v 0.09424 0.04500 -0.03903
v 0.09424 0.06180 -0.03903
v 0.09423 0.09900 -0.03903
v 0.09410 0.11132 -0.03898
v 0.09300 0.18000 -0.03852
v 0.09424 0.22800 -0.03903
v 0.09424 0.25350 -0.03903
v 0.09424 0.28500 -0.03903
v 0.09450 0.30600 0.00000
v 0.08731 0.30600 0.03616
v 0.06682 0.30600 0.06682
v 0.03616 0.30600 0.08731
v 0.00000 0.30600 0.09450
v -0.03616 0.30600 0.08731
v -0.06682 0.30600 0.06682
v -0.08731 0.30600 0.03616
v -0.09450 0.30600 0.00000
v -0.08731 0.30600 -0.03616
v -0.06682 0.30600 -0.06682
v -0.03616 0.30600 -0.08731
v 0.00000 0.30600 -0.09450
v 0.03616 0.30600 -0.08731
v 0.06682 0.30600 -0.06682
v 0.08731 0.30600 -0.03616
v 0.08700 0.32100 0.00000
v 0.08038 0.32100 0.03329
v 0.09150 0.33000 0.00000
v 0.08453 0.33000 0.03502
v 0.08160 0.33540 0.00000
v 0.07539 0.33540 0.03123
v 0.07500 0.32940 0.00000
v 0.06929 0.32940 0.02870
v 0.00000 0.32940 0.00000
v 0.06152 0.32100 0.06152
v 0.06470 0.33000 0.06470
v 0.05770 0.33540 0.05770
v 0.05303 0.32940 0.05303
v 0.03329 0.32100 0.08038
v 0.03502 0.33000 0.08453
v 0.03123 0.33540 0.07539
v 0.02870 0.32940 0.06929
v 0.00000 0.32100 0.08700
v 0.00000 0.33000 0.09150
v 0.00000 0.33540 0.08160
v 0.00000 0.32940 0.07500
v -0.03329 0.32100 0.08038
v -0.03502 0.33000 0.08453
v -0.03123 0.33540 0.07539
v -0.02870 0.32940 0.06929
v -0.06152 0.32100 0.06152
v -0.06470 0.33000 0.06470
v -0.05770 0.33540 0.05770
v -0.05303 0.32940 0.05303
v -0.08038 0.32100 0.03329
v -0.08453 0.33000 0.03502
v -0.07539 0.33540 0.03123
v -0.06929 0.32940 0.02870
v -0.08700 0.32100 0.00000
v -0.09150 0.33000 0.00000
v -0.08160 0.33540 0.00000
v -0.07500 0.32940 0.00000
v -0.08038 0.32100 -0.03329
v -0.08453 0.33000 -0.03502
v -0.07539 0.33540 -0.03123
v -0.06929 0.32940 -0.02870
v -0.06152 0.32100 -0.06152
v -0.06470 0.33000 -0.06470
v -0.05770 0.33540 -0.05770
v -0.05303 0.32940 -0.05303
v -0.03329 0.32100 -0.08038
v -0.03502 0.33000 -0.08453
v -0.03123 0.33540 -0.07539
v -0.02870 0.32940 -0.06929
v 0.00000 0.32100 -0.08700
v 0.00000 0.33000 -0.09150
v 0.00000 0.33540 -0.08160
v 0.00000 0.32940 -0.07500
v 0.03329 0.32100 -0.08038
v 0.03502 0.33000 -0.08453
v 0.03123 0.33540 -0.07539
v 0.02870 0.32940 -0.06929
v 0.06152 0.32100 -0.06152
v 0.06470 0.33000 -0.06470
v 0.05770 0.33540 -0.05770
v 0.05303 0.32940 -0.05303
v 0.08038 0.32100 -0.03329
v 0.08453 0.33000 -0.03502
v 0.07539 0.33540 -0.03123
v 0.06929 0.32940 -0.02870
v 0.05250 0.32940 -0.01440
v 0.05250 0.33360 -0.01440
v 0.06096 0.33360 -0.01165
v 0.06096 0.32940 -0.01165
v 0.06620 0.33360 -0.00445
v 0.06620 0.32940 -0.00445
v 0.06620 0.33360 0.00445
v 0.06620 0.32940 0.00445
v 0.06096 0.33360 0.01165
v 0.06096 0.32940 0.01165
v 0.05250 0.33360 0.01440
v 0.05250 0.32940 0.01440
v 0.01650 0.33360 0.01440
v 0.01650 0.32940 0.01440
v 0.00804 0.33360 0.01165
v 0.00804 0.32940 0.01165
v 0.00280 0.33360 0.00445
v 0.00280 0.32940 0.00445
v 0.00280 0.33360 -0.00445
v 0.00280 0.32940 -0.00445
v 0.00804 0.33360 -0.01165
v 0.00804 0.32940 -0.01165
v 0.01650 0.33360 -0.01440
v 0.01650 0.32940 -0.01440
vn 0.00000 -1.00000 0.00000
vn -0.23543 -0.97183 -0.01124
vn -0.21321 -0.97183 -0.10048
vn -0.28212 -0.95920 0.01871
vn -0.26780 -0.95920 -0.09068
vn 0.57305 -0.81864 0.03800
vn 0.72473 -0.68897 0.00911
vn 0.66608 -0.68897 0.28576
vn 0.51489 -0.81864 0.25440
vn -0.15853 -0.97183 -0.17442
vn -0.21271 -0.95920 -0.18626
vn 0.50603 -0.68897 0.51890
vn 0.37834 -0.81864 0.43207
vn -0.07971 -0.97183 -0.22181
vn -0.12524 -0.95920 -0.25348
vn 0.26893 -0.68897 0.67305
vn 0.18419 -0.81864 0.54397
vn 0.01124 -0.97183 -0.23543
vn -0.01871 -0.95920 -0.28212
vn -0.00911 -0.68897 0.72473
vn -0.03800 -0.81864 0.57305
vn 0.10048 -0.97183 -0.21321
vn 0.09068 -0.95920 -0.26780
vn -0.28576 -0.68897 0.66608
vn -0.25440 -0.81864 0.51489
vn 0.17442 -0.97183 -0.15853
vn 0.18626 -0.95920 -0.21271
vn -0.51890 -0.68897 0.50603
vn -0.43207 -0.81864 0.37834
vn 0.22181 -0.97183 -0.07971
vn 0.25348 -0.95920 -0.12524
vn -0.67305 -0.68897 0.26893
vn -0.54397 -0.81864 0.18419
vn 0.23543 -0.97183 0.01124
vn 0.28212 -0.95920 -0.01871
vn -0.72473 -0.68897 -0.00911
vn -0.57305 -0.81864 -0.03800
vn 0.21321 -0.97183 0.10048
vn 0.26780 -0.95920 0.09068
vn -0.66608 -0.68897 -0.28576
vn -0.51489 -0.81864 -0.25440
vn 0.15853 -0.97183 0.17442
vn 0.21271 -0.95920 0.18626
vn -0.50603 -0.68897 -0.51890
vn -0.37834 -0.81864 -0.43207
vn 0.07971 -0.97183 0.22181
vn 0.12524 -0.95920 0.25348
vn -0.26893 -0.68897 -0.67305
vn -0.18419 -0.81864 -0.54397
vn -0.01124 -0.97183 0.23543
vn 0.01871 -0.95920 0.28212
vn 0.00911 -0.68897 -0.72473
vn 0.03800 -0.81864 -0.57305
vn -0.10048 -0.97183 0.21321
vn -0.09068 -0.95920 0.26780
vn 0.28576 -0.68897 -0.66608
vn 0.25440 -0.81864 -0.51489
vn -0.17442 -0.97183 0.15853
vn -0.18626 -0.95920 0.21271
vn 0.51890 -0.68897 -0.50603
vn 0.43207 -0.81864 -0.37834
vn -0.22181 -0.97183 0.07971
vn -0.25348 -0.95920 0.12524
vn 0.67305 -0.68897 -0.26893
vn 0.54397 -0.81864 -0.18419
vn 0.96102 -0.27642 0.00507
vn 0.88593 -0.27642 0.37245
vn 0.67596 -0.27642 0.68313
vn 0.36308 -0.27642 0.88981
vn -0.00507 -0.27642 0.96102
vn -0.37245 -0.27642 0.88593
vn -0.68313 -0.27642 0.67596
vn -0.88981 -0.27642 0.36308
vn -0.96102 -0.27642 -0.00507
vn -0.88593 -0.27642 -0.37245
vn -0.67596 -0.27642 -0.68313
vn -0.36308 -0.27642 -0.88981
vn 0.00507 -0.27642 -0.96102
vn 0.37245 -0.27642 -0.88593
vn 0.68313 -0.27642 -0.67596
vn 0.88981 -0.27642 -0.36308
vn 1.00000 0.00000 0.00000
vn 0.92388 0.00000 0.38268
vn 1.00000 0.00100 -0.00042
vn 0.92389 0.00011 0.38265
vn 0.99179 0.12317 -0.03428
vn 0.92912 0.01169 0.36959
vn 0.75923 0.51053 -0.40364
vn 0.84137 0.34228 -0.41825
vn 0.81663 0.21876 -0.53410
vn 0.95779 0.00452 0.28745
vn 0.97712 -0.10510 0.18491
vn 0.92630 -0.21545 0.30913
vn 0.95522 -0.07751 0.28557
vn 0.93063 0.21229 -0.29808
vn 0.99802 -0.05773 0.02498
vn 0.93743 0.16639 -0.30584
vn 0.96909 -0.18665 0.16130
vn 0.92311 -0.08310 0.37544
vn 0.98466 -0.15012 0.08891
vn 0.98529 0.17086 -0.00189
vn 0.91102 0.17086 0.37531
vn 0.70711 0.00000 0.70711
vn 0.70714 0.00005 0.70708
vn 0.89745 0.00998 0.44101
vn 0.72305 0.00563 0.69077
vn 0.71374 -0.00444 0.70040
vn 0.69804 0.17086 0.69537
vn 0.38268 0.00000 0.92388
vn 0.37880 0.17086 0.90957
vn -0.00118 0.00128 1.00000
vn -0.00433 0.00499 0.99998
vn -0.00818 -0.00151 0.99997
vn -0.00190 -0.00061 1.00000
vn 0.00000 0.00000 1.00000
vn 0.00189 0.17086 0.98529
vn -0.39262 0.02023 0.91948
vn -0.30628 0.01130 0.95187
vn -0.20768 0.00683 0.97817
vn -0.29683 -0.00405 0.95492
vn -0.38289 -0.00121 0.92379
vn -0.37531 0.17086 0.91102
vn -0.70156 0.03590 0.71171
vn -0.46299 0.01406 0.88625
vn -0.70093 0.07871 0.70888
vn -0.64847 0.27948 0.70808
vn -0.80250 0.01453 0.59648
vn -0.93477 0.00718 0.35518
vn -0.89436 -0.07751 0.44058
vn -0.58557 0.64733 0.48792
vn -0.45713 0.64496 0.61242
vn -0.64985 0.33436 0.68257
vn -0.81257 -0.05860 0.57991
vn -0.54031 -0.03314 0.84082
vn -0.75849 -0.05543 0.64932
vn -0.82710 -0.06803 0.55792
vn -0.69537 0.17086 0.69804
vn -0.92375 0.00103 0.38300
vn -0.69971 0.19998 0.68587
vn -0.91052 0.05153 0.41025
vn -0.50950 0.48171 0.71300
vn -0.46695 0.44948 0.76153
vn -0.37982 0.32117 0.86752
vn -0.87418 0.03231 0.48453
vn -0.88610 -0.03602 0.46210
vn -0.66531 0.07863 0.74242
vn -0.71147 -0.06221 0.69995
vn -0.54539 0.25157 0.79954
vn -0.90957 0.17086 0.37880
vn -1.00000 0.00000 0.00000
vn -1.00000 0.00052 0.00056
vn -0.93806 0.04283 0.34382
vn -0.99939 0.01666 0.03082
vn -0.93790 -0.03792 0.34482
vn -0.99987 -0.00401 0.01535
vn -0.98529 0.17086 0.00189
vn -0.92388 0.00000 -0.38268
vn -0.92387 0.00001 -0.38271
vn -0.92386 -0.00004 -0.38274
vn -0.91102 0.17086 -0.37531
vn -0.70711 0.00000 -0.70711
vn -0.70533 0.00068 -0.70888
vn -0.70350 -0.00335 -0.71069
vn -0.69803 0.17078 -0.69540
vn -0.38268 0.00000 -0.92388
vn -0.38447 0.00149 -0.92313
vn -0.38161 -0.00597 -0.92430
vn -0.37687 0.16429 -0.91158
vn 0.00000 0.00000 -1.00000
vn -0.00061 0.00032 -1.00000
vn -0.00509 -0.00057 -0.99999
vn -0.00385 0.16617 -0.98609
vn 0.38268 0.00000 -0.92388
vn 0.38156 0.00016 -0.92434
vn 0.37479 0.17011 -0.91137
vn 0.70711 0.00000 -0.70711
vn 0.70713 0.00002 -0.70709
vn 0.73002 0.00413 -0.68341
vn 0.74266 -0.00346 -0.66966
vn 0.69537 0.17086 -0.69804
vn 0.92388 0.00000 -0.38268
vn 0.92395 0.00052 -0.38252
vn 0.89852 0.11766 -0.42288
vn 0.83098 0.01418 -0.55612
vn 0.88311 -0.00952 -0.46907
vn 0.93711 -0.01111 -0.34886
vn 0.93836 0.00000 -0.34566
vn 0.90957 0.17086 -0.37880
vn 0.95144 0.10446 -0.28958
vn 0.99142 0.00413 0.13065
vn 0.90925 -0.05130 0.41307
vn 0.92002 -0.12626 0.37098
vn 0.97249 0.18513 -0.14137
vn 0.98710 -0.12721 0.09721
vn 0.96643 -0.06824 -0.24770
vn 0.99507 -0.09875 0.00908
vn 0.91974 0.39253 -0.00152
vn 0.85031 0.39253 0.35056
vn 0.65143 0.39253 0.64928
vn 0.35337 0.39253 0.84914
vn 0.00152 0.39253 0.91974
vn -0.35056 0.39253 0.85031
vn -0.64928 0.39253 0.65143
vn -0.84914 0.39253 0.35337
vn -0.91974 0.39253 0.00152
vn -0.85031 0.39253 -0.35056
vn -0.65143 0.39253 -0.64928
vn -0.35337 0.39253 -0.84914
vn -0.00152 0.39253 -0.91974
vn 0.35056 0.39253 -0.85031
vn 0.64928 0.39253 -0.65143
vn 0.84914 0.39253 -0.35337
vn 0.89286 0.44643 -0.05920
vn 0.84755 0.44643 0.28699
vn 0.89286 -0.44643 0.05920
vn 0.89286 -0.44643 -0.05920
vn 0.84755 -0.44643 0.28699
vn 0.80224 -0.44643 0.39638
vn 0.47861 0.87745 0.03173
vn 0.47861 0.87745 -0.03173
vn 0.45432 0.87745 0.15384
vn 0.43004 0.87745 0.21247
vn -0.67200 0.73921 -0.04456
vn -0.67200 0.73921 0.04456
vn -0.63790 0.73921 -0.21600
vn -0.60380 0.73921 -0.29833
vn 0.00000 1.00000 0.00000
vn 0.67321 0.44643 0.58949
vn 0.67321 -0.44643 0.58948
vn 0.58948 -0.44643 0.67321
vn 0.36087 0.87745 0.31599
vn 0.31599 0.87745 0.36087
vn -0.50668 0.73921 -0.44367
vn -0.44367 0.73921 -0.50668
vn 0.39638 0.44643 0.80224
vn 0.39638 -0.44643 0.80224
vn 0.28699 -0.44643 0.84755
vn 0.21247 0.87745 0.43003
vn 0.15384 0.87745 0.45432
vn -0.29833 0.73921 -0.60380
vn -0.21600 0.73921 -0.63790
vn 0.05920 0.44643 0.89286
vn 0.05920 -0.44643 0.89286
vn -0.05920 -0.44643 0.89286
vn 0.03173 0.87745 0.47861
vn -0.03173 0.87745 0.47861
vn -0.04456 0.73921 -0.67200
vn 0.04456 0.73921 -0.67200
vn -0.28699 0.44643 0.84755
vn -0.28699 -0.44643 0.84755
vn -0.39638 -0.44643 0.80224
vn -0.15384 0.87745 0.45432
vn -0.21247 0.87745 0.43004
vn 0.21600 0.73921 -0.63790
vn 0.29833 0.73921 -0.60380
vn -0.58949 0.44643 0.67321
vn -0.58948 -0.44643 0.67321
vn -0.67321 -0.44643 0.58948
vn -0.31599 0.87745 0.36087
vn -0.36087 0.87745 0.31599
vn 0.44367 0.73921 -0.50668
vn 0.50668 0.73921 -0.44367
vn -0.80224 0.44643 0.39638
vn -0.80224 -0.44643 0.39638
vn -0.84755 -0.44643 0.28699
vn -0.43003 0.87745 0.21247
vn -0.45432 0.87745 0.15384
vn 0.60380 0.73921 -0.29833
vn 0.63790 0.73921 -0.21600
vn -0.89286 0.44643 0.05920
vn -0.89286 -0.44643 0.05920
vn -0.89286 -0.44643 -0.05920
vn -0.47861 0.87745 0.03173
vn -0.47861 0.87745 -0.03173
vn 0.67200 0.73921 -0.04456
vn 0.67200 0.73921 0.04456
vn -0.84755 0.44643 -0.28699
vn -0.84755 -0.44643 -0.28699
vn -0.80224 -0.44643 -0.39638
vn -0.45432 0.87745 -0.15384
vn -0.43004 0.87745 -0.21247
vn 0.63790 0.73921 0.21600
vn 0.60380 0.73921 0.29833
vn -0.67321 0.44643 -0.58949
vn -0.67321 -0.44643 -0.58948
vn -0.58948 -0.44643 -0.67321
vn -0.36087 0.87745 -0.31599
vn -0.31599 0.87745 -0.36087
vn 0.50668 0.73921 0.44367
vn 0.44367 0.73921 0.50668
vn -0.39638 0.44643 -0.80224
vn -0.39638 -0.44643 -0.80224
vn -0.28699 -0.44643 -0.84755
vn -0.21247 0.87745 -0.43003
vn -0.15384 0.87745 -0.45432
vn 0.29833 0.73921 0.60380
vn 0.21600 0.73921 0.63790
vn -0.05920 0.44643 -0.89286
vn -0.05920 -0.44643 -0.89286
vn 0.05920 -0.44643 -0.89286
vn -0.03173 0.87745 -0.47861
vn 0.03173 0.87745 -0.47861
vn 0.04456 0.73921 0.67200
vn -0.04456 0.73921 0.67200
vn 0.28699 0.44643 -0.84755
vn 0.28699 -0.44643 -0.84755
vn 0.39638 -0.44643 -0.80224
vn 0.15384 0.87745 -0.45432
vn 0.21247 0.87745 -0.43004
vn -0.21600 0.73921 0.63790
vn -0.29833 0.73921 0.60380
vn 0.58949 0.44643 -0.67321
vn 0.58948 -0.44643 -0.67321
vn 0.67321 -0.44643 -0.58948
vn 0.31599 0.87745 -0.36087
vn 0.36087 0.87745 -0.31599
vn -0.44367 0.73921 0.50668
vn -0.50668 0.73921 0.44367
vn 0.80224 0.44643 -0.39638
vn 0.80224 -0.44643 -0.39638
vn 0.84755 -0.44643 -0.28699
vn 0.43003 0.87745 -0.21247
vn 0.45432 0.87745 -0.15384
vn -0.60380 0.73921 0.29833
vn -0.63790 0.73921 0.21600
vn 0.20829 0.00000 -0.97807
vn 0.10414 0.00000 -0.99456
vn 0.49726 0.00000 -0.86760
vn 0.67148 0.00000 -0.74102
vn 0.91225 0.00000 -0.40963
vn 0.97880 0.00000 -0.20481
vn 0.97880 0.00000 0.20481
vn 0.91225 0.00000 0.40963
vn 0.67148 0.00000 0.74102
vn 0.49726 0.00000 0.86760
vn 0.20829 0.00000 0.97807
vn 0.10414 0.00000 0.99456
vn -0.10414 0.00000 0.99456
vn -0.20829 0.00000 0.97807
vn -0.49726 0.00000 0.86760
vn -0.67148 0.00000 0.74102
vn -0.91225 0.00000 0.40963
vn -0.97880 0.00000 0.20481
vn -0.97880 0.00000 -0.20481
vn -0.91225 0.00000 -0.40963
vn -0.67148 0.00000 -0.74102
vn -0.49726 0.00000 -0.86760
vn -0.20829 0.00000 -0.97807
vn -0.10414 0.00000 -0.99456
usemtl aluminium
f 157//197 173//213 174//214
f 157//197 174//214 158//198
f 173//215 175//216 176//217
f 173//215 176//217 174//218
f 175//219 177//220 178//221
f 175//219 178//221 176//222
f 177//223 179//224 180//225
f 177//223 180//225 178//226
f 179//227 181//227 180//227
f 158//198 174//214 182//228
f 158//198 182//228 159//199
f 174//218 176//217 183//229
f 174//218 183//229 182//230
f 176//222 178//221 184//231
f 176//222 184//231 183//232
f 178//226 180//225 185//233
f 178//226 185//233 184//234
f 180//227 181//227 185//227
f 159//199 182//228 186//235
f 159//199 186//235 160//200
f 182//230 183//229 187//236
f 182//230 187//236 186//237
f 183//232 184//231 188//238
f 183//232 188//238 187//239
f 184//234 185//233 189//240
f 184//234 189//240 188//241
f 185//227 181//227 189//227
f 160//200 186//235 190//242
f 160//200 190//242 161//201
f 186//237 187//236 191//243
f 186//237 191//243 190//244
f 187//239 188//238 192//245
f 187//239 192//245 191//246
f 188//241 189//240 193//247
f 188//241 193//247 192//248
f 189//227 181//227 193//227
f 161//201 190//242 194//249
f 161//201 194//249 162//202
f 190//244 191//243 195//250
f 190//244 195//250 194//251
f 191//246 192//245 196//252
f 191//246 196//252 195//253
f 192//248 193//247 197//254
f 192//248 197//254 196//255
f 193//227 181//227 197//227
f 162//202 194//249 198//256
f 162//202 198//256 163//203
f 194//251 195//250 199//257
f 194//251 199//257 198//258
f 195//253 196//252 200//259
f 195//253 200//259 199//260
f 196//255 197//254 201//261
f 196//255 201//261 200//262
f 197//227 181//227 201//227
f 163//203 198//256 202//263
f 163//203 202//263 164//204
f 198//258 199//257 203//264
f 198//258 203//264 202//265
f 199//260 200//259 204//266
f 199//260 204//266 203//267
f 200//262 201//261 205//268
f 200//262 205//268 204//269
f 201//227 181//227 205//227
f 164//204 202//263 206//270
f 164//204 206//270 165//205
f 202//265 203//264 207//271
f 202//265 207//271 206//272
f 203//267 204//266 208//273
f 203//267 208//273 207//274
f 204//269 205//268 209//275
f 204//269 209//275 208//276
f 205//227 181//227 209//227
f 165//205 206//270 210//277
f 165//205 210//277 166//206
f 206//272 207//271 211//278
f 206//272 211//278 210//279
f 207//274 208//273 212//280
f 207//274 212//280 211//281
f 208//276 209//275 213//282
f 208//276 213//282 212//283
f 209//227 181//227 213//227
f 166//206 210//277 214//284
f 166//206 214//284 167//207
f 210//279 211//278 215//285
f 210//279 215//285 214//286
f 211//281 212//280 216//287
f 211//281 216//287 215//288
f 212//283 213//282 217//289
f 212//283 217//289 216//290
f 213//227 181//227 217//227
f 167//207 214//284 218//291
f 167//207 218//291 168//208
f 214//286 215//285 219//292
f 214//286 219//292 218//293
f 215//288 216//287 220//294
f 215//288 220//294 219//295
f 216//290 217//289 221//296
f 216//290 221//296 220//297
f 217//227 181//227 221//227
f 168//208 218//291 222//298
f 168//208 222//298 169//209
f 218//293 219//292 223//299
f 218//293 223//299 222//300
f 219//295 220//294 224//301
f 219//295 224//301 223//302
f 220//297 221//296 225//303
f 220//297 225//303 224//304
f 221//227 181//227 225//227
f 169//209 222//298 226//305
f 169//209 226//305 170//210
f 222//300 223//299 227//306
f 222//300 227//306 226//307
f 223//302 224//301 228//308
f 223//302 228//308 227//309
f 224//304 225//303 229//310
f 224//304 229//310 228//311
f 225//227 181//227 229//227
f 170//210 226//305 230//312
f 170//210 230//312 171//211
f 226//307 227//306 231//313
f 226//307 231//313 230//314
f 227//309 228//308 232//315
f 227//309 232//315 231//316
f 228//311 229//310 233//317
f 228//311 233//317 232//318
f 229//227 181//227 233//227
f 171//211 230//312 234//319
f 171//211 234//319 172//212
f 230//314 231//313 235//320
f 230//314 235//320 234//321
f 231//316 232//315 236//322
f 231//316 236//322 235//323
f 232//318 233//317 237//324
f 232//318 237//324 236//325
f 233//227 181//227 237//227
f 172//212 234//319 173//213
f 172//212 173//213 157//197
f 234//321 235//320 175//216
f 234//321 175//216 173//215
f 235//323 236//322 177//220
f 235//323 177//220 175//219
f 236//325 237//324 179//224
f 236//325 179//224 177//223
f 237//227 181//227 179//227
usemtl aluminium_shade
f 1//1 2//2 3//3
f 2//2 4//4 5//5
f 2//2 5//5 3//3
f 4//6 6//7 7//8
f 4//6 7//8 5//9
f 1//1 3//3 8//10
f 3//3 5//5 9//11
f 3//3 9//11 8//10
f 5//9 7//8 10//12
f 5//9 10//12 9//13
f 1//1 8//10 11//14
f 8//10 9//11 12//15
f 8//10 12//15 11//14
f 9//13 10//12 13//16
f 9//13 13//16 12//17
f 1//1 11//14 14//18
f 11//14 12//15 15//19
f 11//14 15//19 14//18
f 12//17 13//16 16//20
f 12//17 16//20 15//21
f 1//1 14//18 17//22
f 14//18 15//19 18//23
f 14//18 18//23 17//22
f 15//21 16//20 19//24
f 15//21 19//24 18//25
f 1//1 17//22 20//26
f 17//22 18//23 21//27
f 17//22 21//27 20//26
f 18//25 19//24 22//28
f 18//25 22//28 21//29
f 1//1 20//26 23//30
f 20//26 21//27 24//31
f 20//26 24//31 23//30
f 21//29 22//28 25//32
f 21//29 25//32 24//33
f 1//1 23//30 26//34
f 23//30 24//31 27//35
f 23//30 27//35 26//34
f 24//33 25//32 28//36
f 24//33 28//36 27//37
f 1//1 26//34 29//38
f 26//34 27//35 30//39
f 26//34 30//39 29//38
f 27//37 28//36 31//40
f 27//37 31//40 30//41
f 1//1 29//38 32//42
f 29//38 30//39 33//43
f 29//38 33//43 32//42
f 30//41 31//40 34//44
f 30//41 34//44 33//45
f 1//1 32//42 35//46
f 32//42 33//43 36//47
f 32//42 36//47 35//46
f 33//45 34//44 37//48
f 33//45 37//48 36//49
f 1//1 35//46 38//50
f 35//46 36//47 39//51
f 35//46 39//51 38//50
f 36//49 37//48 40//52
f 36//49 40//52 39//53
f 1//1 38//50 41//54
f 38//50 39//51 42//55
f 38//50 42//55 41//54
f 39//53 40//52 43//56
f 39//53 43//56 42//57
f 1//1 41//54 44//58
f 41//54 42//55 45//59
f 41//54 45//59 44//58
f 42//57 43//56 46//60
f 42//57 46//60 45//61
f 1//1 44//58 47//62
f 44//58 45//59 48//63
f 44//58 48//63 47//62
f 45//61 46//60 49//64
f 45//61 49//64 48//65
f 1//1 47//62 2//2
f 47//62 48//63 4//4
f 47//62 4//4 2//2
f 48//65 49//64 6//7
f 48//65 6//7 4//6
f 238//326 239//327 240//328
f 238//326 240//328 241//329
f 241//329 240//328 242//330
f 241//329 242//330 243//331
f 243//331 242//330 244//332
f 243//331 244//332 245//333
f 245//333 244//332 246//334
f 245//333 246//334 247//335
f 247//335 246//334 248//336
f 247//335 248//336 249//337
f 249//337 248//336 250//338
f 249//337 250//338 251//339
f 251//339 250//338 252//340
f 251//339 252//340 253//341
f 253//341 252//340 254//342
f 253//341 254//342 255//343
f 255//343 254//342 256//344
f 255//343 256//344 257//345
f 257//345 256//344 258//346
f 257//345 258//346 259//347
f 259//347 258//346 260//348
f 259//347 260//348 261//349
f 261//349 260//348 239//327
f 261//349 239//327 238//326
f 260//227 240//227 239//227
f 261//1 238//1 241//1
f 240//227 244//227 242//227
f 241//1 243//1 245//1
f 244//227 248//227 246//227
f 245//1 247//1 249//1
f 248//227 252//227 250//227
f 249//1 251//1 253//1
f 252//227 256//227 254//227
f 253//1 255//1 257//1
f 256//227 260//227 258//227
f 257//1 259//1 261//1
f 260//227 244//227 240//227
f 261//1 241//1 245//1
f 244//227 252//227 248//227
f 245//1 249//1 253//1
f 252//227 260//227 256//227
f 253//1 257//1 261//1
f 260//227 252//227 244//227
f 261//1 245//1 253//1
usemtl body_deep
f 6//7 50//66 51//67
f 6//7 51//67 7//8
f 7//8 51//67 52//68
f 7//8 52//68 10//12
f 10//12 52//68 53//69
f 10//12 53//69 13//16
f 13//16 53//69 54//70
f 13//16 54//70 16//20
f 16//20 54//70 55//71
f 16//20 55//71 19//24
f 19//24 55//71 56//72
f 19//24 56//72 22//28
f 22//28 56//72 57//73
f 22//28 57//73 25//32
f 25//32 57//73 58//74
f 25//32 58//74 28//36
f 28//36 58//74 59//75
f 28//36 59//75 31//40
f 31//40 59//75 60//76
f 31//40 60//76 34//44
f 34//44 60//76 61//77
f 34//44 61//77 37//48
f 37//48 61//77 62//78
f 37//48 62//78 40//52
f 40//52 62//78 63//79
f 40//52 63//79 43//56
f 43//56 63//79 64//80
f 43//56 64//80 46//60
f 46//60 64//80 65//81
f 46//60 65//81 49//64
f 49//64 65//81 50//66
f 49//64 50//66 6//7
f 77//82 78//101 79//102
f 77//82 79//102 75//94
f 75//99 79//102 85//108
f 75//99 85//108 84//107
f 84//107 85//108 91//110
f 84//107 91//110 90//109
f 90//109 91//110 97//116
f 90//109 97//116 96//115
f 96//115 97//116 103//122
f 96//115 103//122 102//121
f 102//121 103//122 108//137
f 102//121 108//137 107//135
f 107//135 108//137 113//149
f 107//135 113//149 112//145
f 112//154 113//149 118//156
f 112//154 118//156 117//155
f 117//155 118//156 123//160
f 117//155 123//160 122//159
f 122//159 123//160 128//164
f 122//159 128//164 127//163
f 127//163 128//164 133//168
f 127//163 133//168 132//167
f 132//167 133//168 138//172
f 132//167 138//172 137//171
f 137//171 138//172 143//175
f 137//171 143//175 142//174
f 142//174 143//175 148//180
f 142//174 148//180 147//179
f 147//179 148//180 156//188
f 147//179 156//188 155//187
f 155//187 156//188 78//101
f 155//187 78//101 77//82
f 78//101 157//197 158//198
f 78//101 158//198 79//102
f 79//102 158//198 159//199
f 79//102 159//199 85//108
f 85//108 159//199 160//200
f 85//108 160//200 91//110
f 91//110 160//200 161//201
f 91//110 161//201 97//116
f 97//116 161//201 162//202
f 97//116 162//202 103//122
f 103//122 162//202 163//203
f 103//122 163//203 108//137
f 108//137 163//203 164//204
f 108//137 164//204 113//149
f 113//149 164//204 165//205
f 113//149 165//205 118//156
f 118//156 165//205 166//206
f 118//156 166//206 123//160
f 123//160 166//206 167//207
f 123//160 167//207 128//164
f 128//164 167//207 168//208
f 128//164 168//208 133//168
f 133//168 168//208 169//209
f 133//168 169//209 138//172
f 138//172 169//209 170//210
f 138//172 170//210 143//175
f 143//175 170//210 171//211
f 143//175 171//211 148//180
f 148//180 171//211 172//212
f 148//180 172//212 156//188
f 156//188 172//212 157//197
f 156//188 157//197 78//101
usemtl body
f 72//92 74//93 75//94
f 72//95 75//96 73//97
f 76//100 77//82 75//94
f 73//105 75//99 84//107
f 73//105 84//107 83//106
f 83//106 84//107 90//109
f 83//106 90//109 89//109
f 89//109 90//109 96//115
f 89//109 96//115 95//114
f 95//114 96//115 102//121
f 95//114 102//121 101//120
f 101//134 102//121 107//135
f 101//133 107//135 106//136
f 106//136 107//135 112//145
f 106//146 112//147 111//148
f 111//152 112//154 117//155
f 111//152 117//155 116//153
f 116//153 117//155 122//159
f 116//153 122//159 121//158
f 121//158 122//159 127//163
f 121//158 127//163 126//162
f 126//162 127//163 132//167
f 126//162 132//167 131//166
f 131//166 132//167 137//171
f 131//166 137//171 136//170
f 136//170 137//171 142//174
f 136//170 142//174 141//173
f 141//173 142//174 147//179
f 141//173 147//179 146//178
f 146//178 147//179 153//185
f 146//178 153//185 152//184
f 147//179 155//187 154//186
f 152//191 153//194 74//93
f 152//191 74//93 72//192
f 154//186 155//187 77//82
f 154//186 77//82 76//196
usemtl body_bright
f 50//66 66//82 67//83
f 50//66 67//83 51//67
f 68//84 70//86 71//87
f 68//84 71//87 69//85
f 51//67 67//83 80//103
f 51//67 80//103 52//68
f 69//85 71//87 82//104
f 69//85 82//104 81//103
f 52//68 80//103 86//109
f 52//68 86//109 53//69
f 81//103 82//104 88//109
f 81//103 88//109 87//109
f 53//69 86//109 92//111
f 53//69 92//111 54//70
f 87//109 88//109 94//113
f 87//109 94//113 93//112
f 54//70 92//111 98//117
f 54//70 98//117 55//71
f 93//112 94//113 100//119
f 93//112 100//119 99//118
f 55//71 98//117 104//123
f 55//71 104//123 56//72
f 99//127 100//128 106//129
f 99//130 106//131 105//132
f 56//72 104//123 109//138
f 56//72 109//138 57//73
f 105//141 106//142 111//143
f 105//139 111//144 110//140
f 57//73 109//138 114//150
f 57//73 114//150 58//74
f 110//140 111//152 116//153
f 110//140 116//153 115//151
f 58//74 114//150 119//157
f 58//74 119//157 59//75
f 115//151 116//153 121//158
f 115//151 121//158 120//157
f 59//75 119//157 124//161
f 59//75 124//161 60//76
f 120//157 121//158 126//162
f 120//157 126//162 125//161
f 60//76 124//161 129//165
f 60//76 129//165 61//77
f 125//161 126//162 131//166
f 125//161 131//166 130//165
f 61//77 129//165 134//169
f 61//77 134//169 62//78
f 130//165 131//166 136//170
f 130//165 136//170 135//169
f 62//78 134//169 139//173
f 62//78 139//173 63//79
f 135//169 136//170 141//173
f 135//169 141//173 140//173
f 63//79 139//173 144//176
f 63//79 144//176 64//80
f 140//173 141//173 146//178
f 140//173 146//178 145//177
f 64//80 144//176 149//181
f 64//80 149//181 65//81
f 145//177 146//178 151//183
f 145//177 151//183 150//182
f 65//81 149//181 66//82
f 65//81 66//82 50//66
f 150//182 151//189 70//86
f 150//182 70//86 68//84
usemtl wave
f 66//82 68//84 69//85
f 66//82 69//85 67//83
f 67//83 69//85 81//103
f 67//83 81//103 80//103
f 80//103 81//103 87//109
f 80//103 87//109 86//109
f 86//109 87//109 93//112
f 86//109 93//112 92//111
f 92//111 93//112 99//118
f 92//111 99//118 98//117
f 98//117 99//124 105//125
f 98//117 105//126 104//123
f 104//123 105//139 110//140
f 104//123 110//140 109//138
f 109//138 110//140 115//151
f 109//138 115//151 114//150
f 114//150 115//151 120//157
f 114//150 120//157 119//157
f 119//157 120//157 125//161
f 119//157 125//161 124//161
f 124//161 125//161 130//165
f 124//161 130//165 129//165
f 129//165 130//165 135//169
f 129//165 135//169 134//169
f 134//169 135//169 140//173
f 134//169 140//173 139//173
f 139//173 140//173 145//177
f 139//173 145//177 144//176
f 144//176 145//177 150//182
f 144//176 150//182 149//181
f 149//181 150//182 68//84
f 149//181 68//84 66//82
usemtl sail
f 70//88 72//89 73//90
f 70//86 73//91 71//87
f 74//93 76//98 75//99
f 71//87 73//105 83//106
f 71//87 83//106 82//104
f 82//104 83//106 89//109
f 82//104 89//109 88//109
f 88//109 89//109 95//114
f 88//109 95//114 94//113
f 94//113 95//114 101//120
f 94//113 101//120 100//119
f 100//128 101//133 106//129
f 146//178 152//184 151//183
f 147//179 154//186 153//185
f 151//190 152//191 72//192
f 151//183 72//89 70//193
f 153//195 154//186 76//100
f 153//194 76//100 74//93
