# Generated by tools/models/generate_all.gd - DO NOT EDIT BY HAND.
# Change the generator and re-run:
#   godot --headless -s tools/models/generate_all.gd
mtllib lata_dent1.mtl
o Lata
v 0.00000 0.01650 0.00000
v 0.05400 0.00750 0.00000
v 0.04989 0.00750 0.02066
v 0.07950 0.00000 0.00000
v 0.07345 0.00000 0.03042
v 0.09450 0.01050 0.00000
v 0.08731 0.01050 0.03616
v 0.03818 0.00750 0.03818
v 0.05621 0.00000 0.05621
v 0.06682 0.01050 0.06682
v 0.02066 0.00750 0.04989
v 0.03042 0.00000 0.07345
v 0.03616 0.01050 0.08731
v 0.00000 0.00750 0.05400
v 0.00000 0.00000 0.07950
v 0.00000 0.01050 0.09450
v -0.02066 0.00750 0.04989
v -0.03042 0.00000 0.07345
v -0.03616 0.01050 0.08731
v -0.03818 0.00750 0.03818
v -0.05621 0.00000 0.05621
v -0.06682 0.01050 0.06682
v -0.04989 0.00750 0.02066
v -0.07345 0.00000 0.03042
v -0.08731 0.01050 0.03616
v -0.05400 0.00750 0.00000
v -0.07950 0.00000 0.00000
v -0.09450 0.01050 0.00000
v -0.04989 0.00750 -0.02066
v -0.07345 0.00000 -0.03042
v -0.08731 0.01050 -0.03616
v -0.03818 0.00750 -0.03818
v -0.05621 0.00000 -0.05621
v -0.06682 0.01050 -0.06682
v -0.02066 0.00750 -0.04989
v -0.03042 0.00000 -0.07345
v -0.03616 0.01050 -0.08731
v 0.00000 0.00750 -0.05400
v 0.00000 0.00000 -0.07950
v 0.00000 0.01050 -0.09450
v 0.02066 0.00750 -0.04989
v 0.03042 0.00000 -0.07345
v 0.03616 0.01050 -0.08731
v 0.03818 0.00750 -0.03818
v 0.05621 0.00000 -0.05621
v 0.06682 0.01050 -0.06682
v 0.04989 0.00750 -0.02066
v 0.07345 0.00000 -0.03042
v 0.08731 0.01050 -0.03616
v 0.10200 0.02250 0.00000
v 0.09424 0.02250 0.03903
v 0.07212 0.02250 0.07212
v 0.03903 0.02250 0.09424
v 0.00000 0.02250 0.10200
v -0.03903 0.02250 0.09424
v -0.07212 0.02250 0.07212
v -0.09424 0.02250 0.03903
v -0.10200 0.02250 0.00000
v -0.09424 0.02250 -0.03903
v -0.07212 0.02250 -0.07212
v -0.03903 0.02250 -0.09424
v 0.00000 0.02250 -0.10200
v 0.03903 0.02250 -0.09424
v 0.07212 0.02250 -0.07212
v 0.09424 0.02250 -0.03903
v 0.10200 0.04500 0.00000
v 0.09424 0.04500 0.03903
v 0.10200 0.07200 0.00000
v 0.09424 0.08220 0.03903
v 0.10194 0.09900 0.00000
v 0.09423 0.09900 0.03903
v 0.07907 0.13947 0.00000
v 0.09246 0.16762 0.03830
v 0.08622 0.18000 0.00000
v 0.09424 0.25350 0.03903
v 0.10200 0.22800 0.00000
v 0.10200 0.25350 0.00000
v 0.10200 0.28500 0.00000
v 0.09424 0.28500 0.03903
v 0.07212 0.04500 0.07212
v 0.07212 0.07200 0.07212
v 0.07212 0.09900 0.07212
v 0.07212 0.19577 0.07212
v 0.07212 0.25350 0.07212
v 0.07212 0.28500 0.07212
v 0.03903 0.04500 0.09424
v 0.03903 0.06180 0.09424
v 0.03903 0.09900 0.09424
v 0.03903 0.22392 0.09424
v 0.03903 0.25350 0.09424
v 0.03903 0.28500 0.09424
v 0.00000 0.04500 0.10200
v 0.00000 0.07200 0.10200
v 0.00000 0.09900 0.10200
v 0.00000 0.23841 0.10200
v 0.00000 0.25350 0.10200
v 0.00000 0.28500 0.10200
v -0.03903 0.04500 0.09424
v -0.03903 0.08220 0.09424
v -0.03903 0.09900 0.09424
v -0.03903 0.14145 0.09424
v -0.03903 0.25350 0.09424
v -0.03903 0.28500 0.09424
v -0.07212 0.04500 0.07212
v -0.07212 0.07200 0.07212
v -0.07212 0.09900 0.07212
v -0.07212 0.25350 0.07212
v -0.07212 0.28500 0.07212
v -0.09424 0.04500 0.03903
v -0.09424 0.06180 0.03903
v -0.09424 0.09900 0.03903
v -0.09424 0.25350 0.03903
v -0.09424 0.28500 0.03903
v -0.10200 0.04500 0.00000
v -0.10200 0.07200 0.00000
v -0.10200 0.09900 0.00000
v -0.10200 0.25350 0.00000
v -0.10200 0.28500 0.00000
v -0.09424 0.04500 -0.03903
v -0.09424 0.08220 -0.03903
v -0.09424 0.09900 -0.03903
v -0.09424 0.25350 -0.03903
v -0.09424 0.28500 -0.03903
v -0.07212 0.04500 -0.07212
v -0.07212 0.07200 -0.07212
v -0.07212 0.09900 -0.07212
v -0.07212 0.25350 -0.07212
v -0.07212 0.28500 -0.07212
v -0.03903 0.04500 -0.09424
v -0.03903 0.06180 -0.09424
v -0.03903 0.09900 -0.09424
v -0.03903 0.25350 -0.09424
v -0.03903 0.28500 -0.09424
v 0.00000 0.04500 -0.10200
v 0.00000 0.07200 -0.10200
v 0.00000 0.09900 -0.10200
v 0.00000 0.25350 -0.10200
v 0.00000 0.28500 -0.10200
v 0.03903 0.04500 -0.09424
v 0.03903 0.08220 -0.09424
v 0.03903 0.09900 -0.09424
v 0.03903 0.25350 -0.09424
v 0.03903 0.28500 -0.09424
v 0.07212 0.04500 -0.07212
v 0.07212 0.07200 -0.07212
v 0.07212 0.09900 -0.07212
v 0.07212 0.25350 -0.07212
v 0.07212 0.28500 -0.07212
v 0.09424 0.04500 -0.03903
v 0.09424 0.06180 -0.03903
v 0.09423 0.09900 -0.03903
v 0.09412 0.11132 -0.03899
v 0.09320 0.18000 -0.03860
v 0.09424 0.22800 -0.03903
v 0.09424 0.25350 -0.03903
v 0.09424 0.28500 -0.03903
v 0.09450 0.30600 0.00000
v 0.08731 0.30600 0.03616
v 0.06682 0.30600 0.06682
v 0.03616 0.30600 0.08731
v 0.00000 0.30600 0.09450
v -0.03616 0.30600 0.08731
v -0.06682 0.30600 0.06682
v -0.08731 0.30600 0.03616
v -0.09450 0.30600 0.00000
v -0.08731 0.30600 -0.03616
v -0.06682 0.30600 -0.06682
v -0.03616 0.30600 -0.08731
v 0.00000 0.30600 -0.09450
v 0.03616 0.30600 -0.08731
v 0.06682 0.30600 -0.06682
v 0.08731 0.30600 -0.03616
v 0.08700 0.32100 0.00000
v 0.08038 0.32100 0.03329
v 0.09150 0.33000 0.00000
v 0.08453 0.33000 0.03502
v 0.08160 0.33540 0.00000
v 0.07539 0.33540 0.03123
v 0.07500 0.32940 0.00000
v 0.06929 0.32940 0.02870
v 0.00000 0.32940 0.00000
v 0.06152 0.32100 0.06152
v 0.06470 0.33000 0.06470
v 0.05770 0.33540 0.05770
v 0.05303 0.32940 0.05303
v 0.03329 0.32100 0.08038
v 0.03502 0.33000 0.08453
v 0.03123 0.33540 0.07539
v 0.02870 0.32940 0.06929
v 0.00000 0.32100 0.08700
v 0.00000 0.33000 0.09150
v 0.00000 0.33540 0.08160
v 0.00000 0.32940 0.07500
v -0.03329 0.32100 0.08038
v -0.03502 0.33000 0.08453
v -0.03123 0.33540 0.07539
v -0.02870 0.32940 0.06929
v -0.06152 0.32100 0.06152
v -0.06470 0.33000 0.06470
v -0.05770 0.33540 0.05770
v -0.05303 0.32940 0.05303
v -0.08038 0.32100 0.03329
v -0.08453 0.33000 0.03502
v -0.07539 0.33540 0.03123
v -0.06929 0.32940 0.02870
v -0.08700 0.32100 0.00000
v -0.09150 0.33000 0.00000
v -0.08160 0.33540 0.00000
v -0.07500 0.32940 0.00000
v -0.08038 0.32100 -0.03329
v -0.08453 0.33000 -0.03502
v -0.07539 0.33540 -0.03123
v -0.06929 0.32940 -0.02870
v -0.06152 0.32100 -0.06152
v -0.06470 0.33000 -0.06470
v -0.05770 0.33540 -0.05770
v -0.05303 0.32940 -0.05303
v -0.03329 0.32100 -0.08038
v -0.03502 0.33000 -0.08453
v -0.03123 0.33540 -0.07539
v -0.02870 0.32940 -0.06929
v 0.00000 0.32100 -0.08700
v 0.00000 0.33000 -0.09150
v 0.00000 0.33540 -0.08160
v 0.00000 0.32940 -0.07500
v 0.03329 0.32100 -0.08038
v 0.03502 0.33000 -0.08453
v 0.03123 0.33540 -0.07539
v 0.02870 0.32940 -0.06929
v 0.06152 0.32100 -0.06152
v 0.06470 0.33000 -0.06470
v 0.05770 0.33540 -0.05770
v 0.05303 0.32940 -0.05303
v 0.08038 0.32100 -0.03329
v 0.08453 0.33000 -0.03502
v 0.07539 0.33540 -0.03123
v 0.06929 0.32940 -0.02870
v 0.05250 0.32940 -0.01440
v 0.05250 0.33360 -0.01440
v 0.06096 0.33360 -0.01165
v 0.06096 0.32940 -0.01165
v 0.06620 0.33360 -0.00445
v 0.06620 0.32940 -0.00445
v 0.06620 0.33360 0.00445
v 0.06620 0.32940 0.00445
v 0.06096 0.33360 0.01165
v 0.06096 0.32940 0.01165
v 0.05250 0.33360 0.01440
v 0.05250 0.32940 0.01440
v 0.01650 0.33360 0.01440
v 0.01650 0.32940 0.01440
v 0.00804 0.33360 0.01165
v 0.00804 0.32940 0.01165
v 0.00280 0.33360 0.00445
v 0.00280 0.32940 0.00445
v 0.00280 0.33360 -0.00445
v 0.00280 0.32940 -0.00445
v 0.00804 0.33360 -0.01165
v 0.00804 0.32940 -0.01165
v 0.01650 0.33360 -0.01440
v 0.01650 0.32940 -0.01440
vn 0.00000 -1.00000 0.00000
vn -0.23543 -0.97183 -0.01124
vn -0.21321 -0.97183 -0.10048
vn -0.28212 -0.95920 0.01871
vn -0.26780 -0.95920 -0.09068
vn 0.57305 -0.81864 0.03800
vn 0.72473 -0.68897 0.00911
vn 0.66608 -0.68897 0.28576
vn 0.51489 -0.81864 0.25440
vn -0.15853 -0.97183 -0.17442
vn -0.21271 -0.95920 -0.18626
vn 0.50603 -0.68897 0.51890
vn 0.37834 -0.81864 0.43207
vn -0.07971 -0.97183 -0.22181
vn -0.12524 -0.95920 -0.25348
vn 0.26893 -0.68897 0.67305
vn 0.18419 -0.81864 0.54397
vn 0.01124 -0.97183 -0.23543
vn -0.01871 -0.95920 -0.28212
vn -0.00911 -0.68897 0.72473
vn -0.03800 -0.81864 0.57305
vn 0.10048 -0.97183 -0.21321
vn 0.09068 -0.95920 -0.26780
vn -0.28576 -0.68897 0.66608
vn -0.25440 -0.81864 0.51489
vn 0.17442 -0.97183 -0.15853
vn 0.18626 -0.95920 -0.21271
vn -0.51890 -0.68897 0.50603
vn -0.43207 -0.81864 0.37834
vn 0.22181 -0.97183 -0.07971
vn 0.25348 -0.95920 -0.12524
vn -0.67305 -0.68897 0.26893
vn -0.54397 -0.81864 0.18419
vn 0.23543 -0.97183 0.01124
vn 0.28212 -0.95920 -0.01871
vn -0.72473 -0.68897 -0.00911
vn -0.57305 -0.81864 -0.03800
vn 0.21321 -0.97183 0.10048
vn 0.26780 -0.95920 0.09068
vn -0.66608 -0.68897 -0.28576
vn -0.51489 -0.81864 -0.25440
vn 0.15853 -0.97183 0.17442
vn 0.21271 -0.95920 0.18626
vn -0.50603 -0.68897 -0.51890
vn -0.37834 -0.81864 -0.43207
vn 0.07971 -0.97183 0.22181
vn 0.12524 -0.95920 0.25348
vn -0.26893 -0.68897 -0.67305
vn -0.18419 -0.81864 -0.54397
vn -0.01124 -0.97183 0.23543
vn 0.01871 -0.95920 0.28212
vn 0.00911 -0.68897 -0.72473
vn 0.03800 -0.81864 -0.57305
vn -0.10048 -0.97183 0.21321
vn -0.09068 -0.95920 0.26780
vn 0.28576 -0.68897 -0.66608
vn 0.25440 -0.81864 -0.51489
vn -0.17442 -0.97183 0.15853
vn -0.18626 -0.95920 0.21271
vn 0.51890 -0.68897 -0.50603
vn 0.43207 -0.81864 -0.37834
vn -0.22181 -0.97183 0.07971
vn -0.25348 -0.95920 0.12524
vn 0.67305 -0.68897 -0.26893
vn 0.54397 -0.81864 -0.18419
vn 0.96102 -0.27642 0.00507
vn 0.88593 -0.27642 0.37245
vn 0.67596 -0.27642 0.68313
vn 0.36308 -0.27642 0.88981
vn -0.00507 -0.27642 0.96102
vn -0.37245 -0.27642 0.88593
vn -0.68313 -0.27642 0.67596
vn -0.88981 -0.27642 0.36308
vn -0.96102 -0.27642 -0.00507
vn -0.88593 -0.27642 -0.37245
vn -0.67596 -0.27642 -0.68313
vn -0.36308 -0.27642 -0.88981
vn 0.00507 -0.27642 -0.96102
vn 0.37245 -0.27642 -0.88593
vn 0.68313 -0.27642 -0.67596
vn 0.88981 -0.27642 -0.36308
vn 1.00000 0.00000 0.00000
vn 0.92388 0.00000 0.38268
vn 1.00000 0.00084 -0.00036
vn 0.92389 0.00009 0.38266
vn 0.99358 0.10739 -0.03563
vn 0.92829 0.00982 0.37172
vn 0.92746 0.23458 -0.29120
vn 0.88049 0.30523 -0.36273
vn 0.86788 0.20370 -0.45310
vn 0.95187 0.00345 0.30647
vn 0.98299 -0.08865 0.16086
vn 0.94712 -0.18565 0.26171
vn 0.95399 -0.06589 0.29252
vn 0.97976 0.15702 -0.12416
vn 0.99756 -0.04857 0.05012
vn 0.95754 0.15154 -0.24525
vn 0.98912 -0.12903 0.07059
vn 0.92514 -0.07101 0.37293
vn 0.98529 0.17086 -0.00189
vn 0.91102 0.17086 0.37531
vn 0.70711 0.00000 0.70711
vn 0.70713 0.00005 0.70708
vn 0.89495 0.00838 0.44609
vn 0.72051 0.00472 0.69343
vn 0.71268 -0.00373 0.70148
vn 0.69804 0.17086 0.69537
vn 0.38268 0.00000 0.92388
vn 0.37880 0.17086 0.90957
vn 0.00000 0.00000 1.00000
vn 0.00189 0.17086 0.98529
vn -0.38268 0.00000 0.92388
vn -0.34566 0.00000 0.93836
vn -0.37531 0.17086 0.91102
vn -0.70711 0.00000 0.70711
vn -0.68674 0.00000 0.72691
vn -0.69537 0.17086 0.69804
vn -0.92388 0.00000 0.38268
vn -0.90957 0.17086 0.37880
vn -1.00000 0.00000 0.00000
vn -0.98529 0.17086 0.00189
vn -0.92388 0.00000 -0.38268
vn -0.91102 0.17086 -0.37531
vn -0.70711 0.00000 -0.70711
vn -0.69804 0.17086 -0.69537
vn -0.38268 0.00000 -0.92388
vn -0.37880 0.17086 -0.90957
vn 0.00000 0.00000 -1.00000
vn -0.00189 0.17086 -0.98529
vn 0.38268 0.00000 -0.92388
vn 0.37531 0.17086 -0.91102
vn 0.70711 0.00000 -0.70711
vn 0.70712 0.00002 -0.70709
vn 0.72952 0.00347 -0.68395
vn 0.74245 -0.00291 -0.66989
vn 0.69537 0.17086 -0.69804
vn 0.92388 0.00000 -0.38268
vn 0.92394 0.00044 -0.38254
vn 0.90082 0.10279 -0.42186
vn 0.83107 0.01191 -0.55604
vn 0.88285 -0.00800 -0.46959
vn 0.93732 -0.00934 -0.34836
vn 0.93836 0.00000 -0.34566
vn 0.90957 0.17086 -0.37880
vn 0.94915 0.09038 -0.30158
vn 0.97792 0.16449 -0.12888
vn 0.99644 0.00376 0.08422
vn 0.94231 -0.04571 0.33161
vn 0.99268 -0.10898 0.05200
vn 0.94307 -0.10823 0.31450
vn 0.96169 -0.05824 -0.26788
vn 0.91974 0.39253 -0.00152
vn 0.85031 0.39253 0.35056
vn 0.65143 0.39253 0.64928
vn 0.35337 0.39253 0.84914
vn 0.00152 0.39253 0.91974
vn -0.35056 0.39253 0.85031
vn -0.64928 0.39253 0.65143
vn -0.84914 0.39253 0.35337
vn -0.91974 0.39253 0.00152
vn -0.85031 0.39253 -0.35056
vn -0.65143 0.39253 -0.64928
vn -0.35337 0.39253 -0.84914
vn -0.00152 0.39253 -0.91974
vn 0.35056 0.39253 -0.85031
vn 0.64928 0.39253 -0.65143
vn 0.84914 0.39253 -0.35337
vn 0.89286 0.44643 -0.05920
vn 0.84755 0.44643 0.28699
vn 0.89286 -0.44643 0.05920
vn 0.89286 -0.44643 -0.05920
vn 0.84755 -0.44643 0.28699
vn 0.80224 -0.44643 0.39638
vn 0.47861 0.87745 0.03173
vn 0.47861 0.87745 -0.03173
vn 0.45432 0.87745 0.15384
vn 0.43004 0.87745 0.21247
vn -0.67200 0.73921 -0.04456
vn -0.67200 0.73921 0.04456
vn -0.63790 0.73921 -0.21600
vn -0.60380 0.73921 -0.29833
vn 0.00000 1.00000 0.00000
vn 0.67321 0.44643 0.58949
vn 0.67321 -0.44643 0.58948
vn 0.58948 -0.44643 0.67321
vn 0.36087 0.87745 0.31599
vn 0.31599 0.87745 0.36087
vn -0.50668 0.73921 -0.44367
vn -0.44367 0.73921 -0.50668
vn 0.39638 0.44643 0.80224
vn 0.39638 -0.44643 0.80224
vn 0.28699 -0.44643 0.84755
vn 0.21247 0.87745 0.43003
vn 0.15384 0.87745 0.45432
vn -0.29833 0.73921 -0.60380
vn -0.21600 0.73921 -0.63790
vn 0.05920 0.44643 0.89286
vn 0.05920 -0.44643 0.89286
vn -0.05920 -0.44643 0.89286
vn 0.03173 0.87745 0.47861
vn -0.03173 0.87745 0.47861
vn -0.04456 0.73921 -0.67200
vn 0.04456 0.73921 -0.67200
vn -0.28699 0.44643 0.84755
vn -0.28699 -0.44643 0.84755
vn -0.39638 -0.44643 0.80224
vn -0.15384 0.87745 0.45432
vn -0.21247 0.87745 0.43004
vn 0.21600 0.73921 -0.63790
vn 0.29833 0.73921 -0.60380
vn -0.58949 0.44643 0.67321
vn -0.58948 -0.44643 0.67321
vn -0.67321 -0.44643 0.58948
vn -0.31599 0.87745 0.36087
vn -0.36087 0.87745 0.31599
vn 0.44367 0.73921 -0.50668
vn 0.50668 0.73921 -0.44367
vn -0.80224 0.44643 0.39638
vn -0.80224 -0.44643 0.39638
vn -0.84755 -0.44643 0.28699
vn -0.43003 0.87745 0.21247
vn -0.45432 0.87745 0.15384
vn 0.60380 0.73921 -0.29833
vn 0.63790 0.73921 -0.21600
vn -0.89286 0.44643 0.05920
vn -0.89286 -0.44643 0.05920
vn -0.89286 -0.44643 -0.05920
vn -0.47861 0.87745 0.03173
vn -0.47861 0.87745 -0.03173
vn 0.67200 0.73921 -0.04456
vn 0.67200 0.73921 0.04456
vn -0.84755 0.44643 -0.28699
vn -0.84755 -0.44643 -0.28699
vn -0.80224 -0.44643 -0.39638
vn -0.45432 0.87745 -0.15384
vn -0.43004 0.87745 -0.21247
vn 0.63790 0.73921 0.21600
vn 0.60380 0.73921 0.29833
vn -0.67321 0.44643 -0.58949
vn -0.67321 -0.44643 -0.58948
vn -0.58948 -0.44643 -0.67321
vn -0.36087 0.87745 -0.31599
vn -0.31599 0.87745 -0.36087
vn 0.50668 0.73921 0.44367
vn 0.44367 0.73921 0.50668
vn -0.39638 0.44643 -0.80224
vn -0.39638 -0.44643 -0.80224
vn -0.28699 -0.44643 -0.84755
vn -0.21247 0.87745 -0.43003
vn -0.15384 0.87745 -0.45432
vn 0.29833 0.73921 0.60380
vn 0.21600 0.73921 0.63790
vn -0.05920 0.44643 -0.89286
vn -0.05920 -0.44643 -0.89286
vn 0.05920 -0.44643 -0.89286
vn -0.03173 0.87745 -0.47861
vn 0.03173 0.87745 -0.47861
vn 0.04456 0.73921 0.67200
vn -0.04456 0.73921 0.67200
vn 0.28699 0.44643 -0.84755
vn 0.28699 -0.44643 -0.84755
vn 0.39638 -0.44643 -0.80224
vn 0.15384 0.87745 -0.45432
vn 0.21247 0.87745 -0.43004
vn -0.21600 0.73921 0.63790
vn -0.29833 0.73921 0.60380
vn 0.58949 0.44643 -0.67321
vn 0.58948 -0.44643 -0.67321
vn 0.67321 -0.44643 -0.58948
vn 0.31599 0.87745 -0.36087
vn 0.36087 0.87745 -0.31599
vn -0.44367 0.73921 0.50668
vn -0.50668 0.73921 0.44367
vn 0.80224 0.44643 -0.39638
vn 0.80224 -0.44643 -0.39638
vn 0.84755 -0.44643 -0.28699
vn 0.43003 0.87745 -0.21247
vn 0.45432 0.87745 -0.15384
vn -0.60380 0.73921 0.29833
vn -0.63790 0.73921 0.21600
vn 0.20829 0.00000 -0.97807
vn 0.10414 0.00000 -0.99456
vn 0.49726 0.00000 -0.86760
vn 0.67148 0.00000 -0.74102
vn 0.91225 0.00000 -0.40963
vn 0.97880 0.00000 -0.20481
vn 0.97880 0.00000 0.20481
vn 0.91225 0.00000 0.40963
vn 0.67148 0.00000 0.74102
vn 0.49726 0.00000 0.86760
vn 0.20829 0.00000 0.97807
vn 0.10414 0.00000 0.99456
vn -0.10414 0.00000 0.99456
vn -0.20829 0.00000 0.97807
vn -0.49726 0.00000 0.86760
vn -0.67148 0.00000 0.74102
vn -0.91225 0.00000 0.40963
vn -0.97880 0.00000 0.20481
vn -0.97880 0.00000 -0.20481
vn -0.91225 0.00000 -0.40963
vn -0.67148 0.00000 -0.74102
vn -0.49726 0.00000 -0.86760
vn -0.20829 0.00000 -0.97807
vn -0.10414 0.00000 -0.99456
usemtl aluminium
f 157//152 173//168 174//169
f 157//152 174//169 158//153
f 173//170 175//171 176//172
f 173//170 176//172 174//173
f 175//174 177//175 178//176
f 175//174 178//176 176//177
f 177//178 179//179 180//180
f 177//178 180//180 178//181
f 179//182 181//182 180//182
f 158//153 174//169 182//183
f 158//153 182//183 159//154
f 174//173 176//172 183//184
f 174//173 183//184 182//185
f 176//177 178//176 184//186
f 176//177 184//186 183//187
f 178//181 180//180 185//188
f 178//181 185//188 184//189
f 180//182 181//182 185//182
f 159//154 182//183 186//190
f 159//154 186//190 160//155
f 182//185 183//184 187//191
f 182//185 187//191 186//192
f 183//187 184//186 188//193
f 183//187 188//193 187//194
f 184//189 185//188 189//195
f 184//189 189//195 188//196
f 185//182 181//182 189//182
f 160//155 186//190 190//197
f 160//155 190//197 161//156
f 186//192 187//191 191//198
f 186//192 191//198 190//199
f 187//194 188//193 192//200
f 187//194 192//200 191//201
f 188//196 189//195 193//202
f 188//196 193//202 192//203
f 189//182 181//182 193//182
f 161//156 190//197 194//204
f 161//156 194//204 162//157
f 190//199 191//198 195//205
f 190//199 195//205 194//206
f 191//201 192//200 196//207
f 191//201 196//207 195//208
f 192//203 193//202 197//209
f 192//203 197//209 196//210
f 193//182 181//182 197//182
f 162//157 194//204 198//211
f 162//157 198//211 163//158
f 194//206 195//205 199//212
f 194//206 199//212 198//213
f 195//208 196//207 200//214
f 195//208 200//214 199//215
f 196//210 197//209 201//216
f 196//210 201//216 200//217
f 197//182 181//182 201//182
f 163//158 198//211 202//218
f 163//158 202//218 164//159
f 198//213 199//212 203//219
f 198//213 203//219 202//220
f 199//215 200//214 204//221
f 199//215 204//221 203//222
f 200//217 201//216 205//223
f 200//217 205//223 204//224
f 201//182 181//182 205//182
f 164//159 202//218 206//225
f 164//159 206//225 165//160
f 202//220 203//219 207//226
f 202//220 207//226 206//227
f 203//222 204//221 208//228
f 203//222 208//228 207//229
f 204//224 205//223 209//230
f 204//224 209//230 208//231
f 205//182 181//182 209//182
f 165//160 206//225 210//232
f 165//160 210//232 166//161
f 206//227 207//226 211//233
f 206//227 211//233 210//234
f 207//229 208//228 212//235
f 207//229 212//235 211//236
f 208//231 209//230 213//237
f 208//231 213//237 212//238
f 209//182 181//182 213//182
f 166//161 210//232 214//239
f 166//161 214//239 167//162
f 210//234 211//233 215//240
f 210//234 215//240 214//241
f 211//236 212//235 216//242
f 211//236 216//242 215//243
f 212//238 213//237 217//244
f 212//238 217//244 216//245
f 213//182 181//182 217//182
f 167//162 214//239 218//246
f 167//162 218//246 168//163
f 214//241 215//240 219//247
f 214//241 219//247 218//248
f 215//243 216//242 220//249
f 215//243 220//249 219//250
f 216//245 217//244 221//251
f 216//245 221//251 220//252
f 217//182 181//182 221//182
f 168//163 218//246 222//253
f 168//163 222//253 169//164
f 218//248 219//247 223//254
f 218//248 223//254 222//255
f 219//250 220//249 224//256
f 219//250 224//256 223//257
f 220//252 221//251 225//258
f 220//252 225//258 224//259
f 221//182 181//182 225//182
f 169//164 222//253 226//260
f 169//164 226//260 170//165
f 222//255 223//254 227//261
f 222//255 227//261 226//262
f 223//257 224//256 228//263
f 223//257 228//263 227//264
f 224//259 225//258 229//265
f 224//259 229//265 228//266
f 225//182 181//182 229//182
f 170//165 226//260 230//267
f 170//165 230//267 171//166
f 226//262 227//261 231//268
f 226//262 231//268 230//269
f 227//264 228//263 232//270
f 227//264 232//270 231//271
f 228//266 229//265 233//272
f 228//266 233//272 232//273
f 229//182 181//182 233//182
f 171//166 230//267 234//274
f 171//166 234//274 172//167
f 230//269 231//268 235//275
f 230//269 235//275 234//276
f 231//271 232//270 236//277
f 231//271 236//277 235//278
f 232//273 233//272 237//279
f 232//273 237//279 236//280
f 233//182 181//182 237//182
f 172//167 234//274 173//168
f 172//167 173//168 157//152
f 234//276 235//275 175//171
f 234//276 175//171 173//170
f 235//278 236//277 177//175
f 235//278 177//175 175//174
f 236//280 237//279 179//179
f 236//280 179//179 177//178
f 237//182 181//182 179//182
usemtl aluminium_shade
f 1//1 2//2 3//3
f 2//2 4//4 5//5
f 2//2 5//5 3//3
f 4//6 6//7 7//8
f 4//6 7//8 5//9
f 1//1 3//3 8//10
f 3//3 5//5 9//11
f 3//3 9//11 8//10
f 5//9 7//8 10//12
f 5//9 10//12 9//13
f 1//1 8//10 11//14
f 8//10 9//11 12//15
f 8//10 12//15 11//14
f 9//13 10//12 13//16
f 9//13 13//16 12//17
f 1//1 11//14 14//18
f 11//14 12//15 15//19
f 11//14 15//19 14//18
f 12//17 13//16 16//20
f 12//17 16//20 15//21
f 1//1 14//18 17//22
f 14//18 15//19 18//23
f 14//18 18//23 17//22
f 15//21 16//20 19//24
f 15//21 19//24 18//25
f 1//1 17//22 20//26
f 17//22 18//23 21//27
f 17//22 21//27 20//26
f 18//25 19//24 22//28
f 18//25 22//28 21//29
f 1//1 20//26 23//30
f 20//26 21//27 24//31
f 20//26 24//31 23//30
f 21//29 22//28 25//32
f 21//29 25//32 24//33
f 1//1 23//30 26//34
f 23//30 24//31 27//35
f 23//30 27//35 26//34
f 24//33 25//32 28//36
f 24//33 28//36 27//37
f 1//1 26//34 29//38
f 26//34 27//35 30//39
f 26//34 30//39 29//38
f 27//37 28//36 31//40
f 27//37 31//40 30//41
f 1//1 29//38 32//42
f 29//38 30//39 33//43
f 29//38 33//43 32//42
f 30//41 31//40 34//44
f 30//41 34//44 33//45
f 1//1 32//42 35//46
f 32//42 33//43 36//47
f 32//42 36//47 35//46
f 33//45 34//44 37//48
f 33//45 37//48 36//49
f 1//1 35//46 38//50
f 35//46 36//47 39//51
f 35//46 39//51 38//50
f 36//49 37//48 40//52
f 36//49 40//52 39//53
f 1//1 38//50 41//54
f 38//50 39//51 42//55
f 38//50 42//55 41//54
f 39//53 40//52 43//56
f 39//53 43//56 42//57
f 1//1 41//54 44//58
f 41//54 42//55 45//59
f 41//54 45//59 44//58
f 42//57 43//56 46//60
f 42//57 46//60 45//61
f 1//1 44//58 47//62
f 44//58 45//59 48//63
f 44//58 48//63 47//62
f 45//61 46//60 49//64
f 45//61 49//64 48//65
f 1//1 47//62 2//2
f 47//62 48//63 4//4
f 47//62 4//4 2//2
f 48//65 49//64 6//7
f 48//65 6//7 4//6
f 238//281 239//282 240//283
f 238//281 240//283 241//284
f 241//284 240//283 242//285
f 241//284 242//285 243//286
f 243//286 242//285 244//287
f 243//286 244//287 245//288
f 245//288 244//287 246//289
f 245//288 246//289 247//290
f 247//290 246//289 248//291
f 247//290 248//291 249//292
f 249//292 248//291 250//293
f 249//292 250//293 251//294
f 251//294 250//293 252//295
f 251//294 252//295 253//296
f 253//296 252//295 254//297
f 253//296 254//297 255//298
f 255//298 254//297 256//299
f 255//298 256//299 257//300
f 257//300 256//299 258//301
f 257//300 258//301 259//302
f 259//302 258//301 260//303
f 259//302 260//303 261//304
f 261//304 260//303 239//282
f 261//304 239//282 238//281
f 260//182 240//182 239//182
f 261//1 238//1 241//1
f 240//182 244//182 242//182
f 241//1 243//1 245//1
f 244//182 248//182 246//182
f 245//1 247//1 249//1
f 248//182 252//182 250//182
f 249//1 251//1 253//1
f 252//182 256//182 254//182
f 253//1 255//1 257//1
f 256//182 260//182 258//182
f 257//1 259//1 261//1
f 260//182 244//182 240//182
f 261//1 241//1 245//1
f 244//182 252//182 248//182
f 245//1 249//1 253//1
f 252//182 260//182 256//182
f 253//1 257//1 261//1
f 260//182 252//182 244//182
f 261//1 245//1 253//1
usemtl body_deep
f 6//7 50//66 51//67
f 6//7 51//67 7//8
f 7//8 51//67 52//68
f 7//8 52//68 10//12
f 10//12 52//68 53//69
f 10//12 53//69 13//16
f 13//16 53//69 54//70
f 13//16 54//70 16//20
f 16//20 54//70 55//71
f 16//20 55//71 19//24
f 19//24 55//71 56//72
f 19//24 56//72 22//28
f 22//28 56//72 57//73
f 22//28 57//73 25//32
f 25//32 57//73 58//74
f 25//32 58//74 28//36
f 28//36 58//74 59//75
f 28//36 59//75 31//40
f 31//40 59//75 60//76
f 31//40 60//76 34//44
f 34//44 60//76 61//77
f 34//44 61//77 37//48
f 37//48 61//77 62//78
f 37//48 62//78 40//52
f 40//52 62//78 63//79
f 40//52 63//79 43//56
f 43//56 63//79 64//80
f 43//56 64//80 46//60
f 46//60 64//80 65//81
f 46//60 65//81 49//64
f 49//64 65//81 50//66
f 49//64 50//66 6//7
f 77//82 78//100 79//101
f 77//82 79//101 75//94
f 75//99 79//101 85//107
f 75//99 85//107 84//106
f 84//106 85//107 91//109
f 84//106 91//109 90//108
f 90//108 91//109 97//111
f 90//108 97//111 96//110
f 96//110 97//111 103//114
f 96//110 103//114 102//112
f 102//112 103//114 108//117
f 102//112 108//117 107//115
f 107//115 108//117 113//119
f 107//115 113//119 112//118
f 112//118 113//119 118//121
f 112//118 118//121 117//120
f 117//120 118//121 123//123
f 117//120 123//123 122//122
f 122//122 123//123 128//125
f 122//122 128//125 127//124
f 127//124 128//125 133//127
f 127//124 133//127 132//126
f 132//126 133//127 138//129
f 132//126 138//129 137//128
f 137//128 138//129 143//131
f 137//128 143//131 142//130
f 142//130 143//131 148//136
f 142//130 148//136 147//135
f 147//135 148//136 156//144
f 147//135 156//144 155//143
f 155//143 156//144 78//100
f 155//143 78//100 77//82
f 78//100 157//152 158//153
f 78//100 158//153 79//101
f 79//101 158//153 159//154
f 79//101 159//154 85//107
f 85//107 159//154 160//155
f 85//107 160//155 91//109
f 91//109 160//155 161//156
f 91//109 161//156 97//111
f 97//111 161//156 162//157
f 97//111 162//157 103//114
f 103//114 162//157 163//158
f 103//114 163//158 108//117
f 108//117 163//158 164//159
f 108//117 164//159 113//119
f 113//119 164//159 165//160
f 113//119 165//160 118//121
f 118//121 165//160 166//161
f 118//121 166//161 123//123
f 123//123 166//161 167//162
f 123//123 167//162 128//125
f 128//125 167//162 168//163
f 128//125 168//163 133//127
f 133//127 168//163 169//164
f 133//127 169//164 138//129
f 138//129 169//164 170//165
f 138//129 170//165 143//131
f 143//131 170//165 171//166
f 143//131 171//166 148//136
f 148//136 171//166 172//167
f 148//136 172//167 156//144
f 156//144 172//167 157//152
f 156//144 157//152 78//100
usemtl body
f 72//92 74//93 75//94
f 72//95 75//96 73//97
f 76//98 77//82 75//94
f 73//104 75//99 84//106
f 73//104 84//106 83//105
f 83//105 84//106 90//108
f 83//105 90//108 89//108
f 89//108 90//108 96//110
f 89//108 96//110 95//110
f 95//110 96//110 102//112
f 95//110 102//112 101//112
f 101//112 102//112 107//115
f 101//112 107//115 106//116
f 106//116 107//115 112//118
f 106//116 112//118 111//118
f 111//118 112//118 117//120
f 111//118 117//120 116//120
f 116//120 117//120 122//122
f 116//120 122//122 121//122
f 121//122 122//122 127//124
f 121//122 127//124 126//124
f 126//124 127//124 132//126
f 126//124 132//126 131//126
f 131//126 132//126 137//128
f 131//126 137//128 136//128
f 136//128 137//128 142//130
f 136//128 142//130 141//130
f 141//130 142//130 147//135
f 141//130 147//135 146//134
f 146//134 147//135 153//141
f 146//134 153//141 152//140
f 147//135 155//143 154//142
f 152//148 153//149 74//93
f 152//148 74//93 72//150
f 154//142 155//143 77//82
f 154//142 77//82 76//98
usemtl body_bright
f 50//66 66//82 67//83
f 50//66 67//83 51//67
f 68//84 70//86 71//87
f 68//84 71//87 69//85
f 51//67 67//83 80//102
f 51//67 80//102 52//68
f 69//85 71//87 82//103
f 69//85 82//103 81//102
f 52//68 80//102 86//108
f 52//68 86//108 53//69
f 81//102 82//103 88//108
f 81//102 88//108 87//108
f 53//69 86//108 92//110
f 53//69 92//110 54//70
f 87//108 88//108 94//110
f 87//108 94//110 93//110
f 54//70 92//110 98//112
f 54//70 98//112 55//71
f 93//110 94//110 100//113
f 93//110 100//113 99//112
f 55//71 98//112 104//115
f 55//71 104//115 56//72
f 99//112 100//113 106//116
f 99//112 106//116 105//115
f 56//72 104//115 109//118
f 56//72 109//118 57//73
f 105//115 106//116 111//118
f 105//115 111//118 110//118
f 57//73 109//118 114//120
f 57//73 114//120 58//74
f 110//118 111//118 116//120
f 110//118 116//120 115//120
f 58//74 114//120 119//122
f 58//74 119//122 59//75
f 115//120 116//120 121//122
f 115//120 121//122 120//122
f 59//75 119//122 124//124
f 59//75 124//124 60//76
f 120//122 121//122 126//124
f 120//122 126//124 125//124
f 60//76 124//124 129//126
f 60//76 129//126 61//77
f 125//124 126//124 131//126
f 125//124 131//126 130//126
f 61//77 129//126 134//128
f 61//77 134//128 62//78
f 130//126 131//126 136//128
f 130//126 136//128 135//128
f 62//78 134//128 139//130
f 62//78 139//130 63//79
f 135//128 136//128 141//130
f 135//128 141//130 140//130
f 63//79 139//130 144//132
f 63//79 144//132 64//80
f 140//130 141//130 146//134
f 140//130 146//134 145//133
f 64//80 144//132 149//137
f 64//80 149//137 65//81
f 145//133 146//134 151//139
f 145//133 151//139 150//138
f 65//81 149//137 66//82
f 65//81 66//82 50//66
f 150//138 151//145 70//146
f 150//138 70//146 68//84
usemtl wave
f 66//82 68//84 69//85
f 66//82 69//85 67//83
f 67//83 69//85 81//102
f 67//83 81//102 80//102
f 80//102 81//102 87//108
f 80//102 87//108 86//108
f 86//108 87//108 93//110
f 86//108 93//110 92//110
f 92//110 93//110 99//112
f 92//110 99//112 98//112
f 98//112 99//112 105//115
f 98//112 105//115 104//115
f 104//115 105//115 110//118
f 104//115 110//118 109//118
f 109//118 110//118 115//120
f 109//118 115//120 114//120
f 114//120 115//120 120//122
f 114//120 120//122 119//122
f 119//122 120//122 125//124
f 119//122 125//124 124//124
f 124//124 125//124 130//126
f 124//124 130//126 129//126
f 129//126 130//126 135//128
f 129//126 135//128 134//128
f 134//128 135//128 140//130
f 134//128 140//130 139//130
f 139//130 140//130 145//133
f 139//130 145//133 144//132
f 144//132 145//133 150//138
f 144//132 150//138 149//137
f 149//137 150//138 68//84
f 149//137 68//84 66//82
usemtl sail
f 70//88 72//89 73//90
f 70//86 73//91 71//87
f 74//93 76//98 75//99
f 71//87 73//104 83//105
f 71//87 83//105 82//103
f 82//103 83//105 89//108
f 82//103 89//108 88//108
f 88//108 89//108 95//110
f 88//108 95//110 94//110
f 94//110 95//110 101//112
f 94//110 101//112 100//113
f 100//113 101//112 106//116
f 146//134 152//140 151//139
f 147//135 154//142 153//141
f 151//147 152//148 72//92
f 151//139 72//89 70//146
f 153//151 154//142 76//98
f 153//149 76//98 74//93
