# Generated by tools/models/generate_all.gd - DO NOT EDIT BY HAND.
# Change the generator and re-run:
#   godot --headless -s tools/models/generate_all.gd
mtllib lata.mtl
o Lata
v 0.00000 0.01650 0.00000
v 0.05400 0.00750 0.00000
v 0.04989 0.00750 0.02066
v 0.07950 0.00000 0.00000
v 0.07345 0.00000 0.03042
v 0.09450 0.01050 0.00000
v 0.08731 0.01050 0.03616
v 0.03818 0.00750 0.03818
v 0.05621 0.00000 0.05621
v 0.06682 0.01050 0.06682
v 0.02066 0.00750 0.04989
v 0.03042 0.00000 0.07345
v 0.03616 0.01050 0.08731
v 0.00000 0.00750 0.05400
v 0.00000 0.00000 0.07950
v 0.00000 0.01050 0.09450
v -0.02066 0.00750 0.04989
v -0.03042 0.00000 0.07345
v -0.03616 0.01050 0.08731
v -0.03818 0.00750 0.03818
v -0.05621 0.00000 0.05621
v -0.06682 0.01050 0.06682
v -0.04989 0.00750 0.02066
v -0.07345 0.00000 0.03042
v -0.08731 0.01050 0.03616
v -0.05400 0.00750 0.00000
v -0.07950 0.00000 0.00000
v -0.09450 0.01050 0.00000
v -0.04989 0.00750 -0.02066
v -0.07345 0.00000 -0.03042
v -0.08731 0.01050 -0.03616
v -0.03818 0.00750 -0.03818
v -0.05621 0.00000 -0.05621
v -0.06682 0.01050 -0.06682
v -0.02066 0.00750 -0.04989
v -0.03042 0.00000 -0.07345
v -0.03616 0.01050 -0.08731
v 0.00000 0.00750 -0.05400
v 0.00000 0.00000 -0.07950
v 0.00000 0.01050 -0.09450
v 0.02066 0.00750 -0.04989
v 0.03042 0.00000 -0.07345
v 0.03616 0.01050 -0.08731
v 0.03818 0.00750 -0.03818
v 0.05621 0.00000 -0.05621
v 0.06682 0.01050 -0.06682
v 0.04989 0.00750 -0.02066
v 0.07345 0.00000 -0.03042
v 0.08731 0.01050 -0.03616
v 0.10200 0.02250 0.00000
v 0.09424 0.02250 0.03903
v 0.07212 0.02250 0.07212
v 0.03903 0.02250 0.09424
v 0.00000 0.02250 0.10200
v -0.03903 0.02250 0.09424
v -0.07212 0.02250 0.07212
v -0.09424 0.02250 0.03903
v -0.10200 0.02250 0.00000
v -0.09424 0.02250 -0.03903
v -0.07212 0.02250 -0.07212
v -0.03903 0.02250 -0.09424
v 0.00000 0.02250 -0.10200
v 0.03903 0.02250 -0.09424
v 0.07212 0.02250 -0.07212
v 0.09424 0.02250 -0.03903
v 0.10200 0.04500 0.00000
v 0.09424 0.04500 0.03903
v 0.10200 0.07200 0.00000
v 0.09424 0.08220 0.03903
v 0.10200 0.09900 0.00000
v 0.09424 0.09900 0.03903
v 0.10200 0.13947 0.00000
v 0.09424 0.16762 0.03903
v 0.10200 0.18000 0.00000
v 0.09424 0.25350 0.03903
v 0.10200 0.22800 0.00000
v 0.10200 0.25350 0.00000
v 0.10200 0.28500 0.00000
v 0.09424 0.28500 0.03903
v 0.07212 0.04500 0.07212
v 0.07212 0.07200 0.07212
v 0.07212 0.09900 0.07212
v 0.07212 0.19577 0.07212
v 0.07212 0.25350 0.07212
v 0.07212 0.28500 0.07212
v 0.03903 0.04500 0.09424
v 0.03903 0.06180 0.09424
v 0.03903 0.09900 0.09424
v 0.03903 0.22392 0.09424
v 0.03903 0.25350 0.09424
v 0.03903 0.28500 0.09424
v 0.00000 0.04500 0.10200
v 0.00000 0.07200 0.10200
v 0.00000 0.09900 0.10200
v 0.00000 0.23841 0.10200
v 0.00000 0.25350 0.10200
v 0.00000 0.28500 0.10200
v -0.03903 0.04500 0.09424
v -0.03903 0.08220 0.09424
v -0.03903 0.09900 0.09424
v -0.03903 0.14145 0.09424
v -0.03903 0.25350 0.09424
v -0.03903 0.28500 0.09424
v -0.07212 0.04500 0.07212
v -0.07212 0.07200 0.07212
v -0.07212 0.09900 0.07212
v -0.07212 0.25350 0.07212
v -0.07212 0.28500 0.07212
v -0.09424 0.04500 0.03903
v -0.09424 0.06180 0.03903
v -0.09424 0.09900 0.03903
v -0.09424 0.25350 0.03903
v -0.09424 0.28500 0.03903
v -0.10200 0.04500 0.00000
v -0.10200 0.07200 0.00000
v -0.10200 0.09900 0.00000
v -0.10200 0.25350 0.00000
v -0.10200 0.28500 0.00000
v -0.09424 0.04500 -0.03903
v -0.09424 0.08220 -0.03903
v -0.09424 0.09900 -0.03903
v -0.09424 0.25350 -0.03903
v -0.09424 0.28500 -0.03903
v -0.07212 0.04500 -0.07212
v -0.07212 0.07200 -0.07212
v -0.07212 0.09900 -0.07212
v -0.07212 0.25350 -0.07212
v -0.07212 0.28500 -0.07212
v -0.03903 0.04500 -0.09424
v -0.03903 0.06180 -0.09424
v -0.03903 0.09900 -0.09424
v -0.03903 0.25350 -0.09424
v -0.03903 0.28500 -0.09424
v 0.00000 0.04500 -0.10200
v 0.00000 0.07200 -0.10200
v 0.00000 0.09900 -0.10200
v 0.00000 0.25350 -0.10200
v 0.00000 0.28500 -0.10200
v 0.03903 0.04500 -0.09424
v 0.03903 0.08220 -0.09424
v 0.03903 0.09900 -0.09424
v 0.03903 0.25350 -0.09424
v 0.03903 0.28500 -0.09424
v 0.07212 0.04500 -0.07212
v 0.07212 0.07200 -0.07212
v 0.07212 0.09900 -0.07212
v 0.07212 0.25350 -0.07212
v 0.07212 0.28500 -0.07212
v 0.09424 0.04500 -0.03903
v 0.09424 0.06180 -0.03903
v 0.09424 0.09900 -0.03903
v 0.09424 0.11132 -0.03903
v 0.09424 0.18000 -0.03903
v 0.09424 0.22800 -0.03903
v 0.09424 0.25350 -0.03903
v 0.09424 0.28500 -0.03903
v 0.09450 0.30600 0.00000
v 0.08731 0.30600 0.03616
v 0.06682 0.30600 0.06682
v 0.03616 0.30600 0.08731
v 0.00000 0.30600 0.09450
v -0.03616 0.30600 0.08731
v -0.06682 0.30600 0.06682
v -0.08731 0.30600 0.03616
v -0.09450 0.30600 0.00000
v -0.08731 0.30600 -0.03616
v -0.06682 0.30600 -0.06682
v -0.03616 0.30600 -0.08731
v 0.00000 0.30600 -0.09450
v 0.03616 0.30600 -0.08731
v 0.06682 0.30600 -0.06682
v 0.08731 0.30600 -0.03616
v 0.08700 0.32100 0.00000
v 0.08038 0.32100 0.03329
v 0.09150 0.33000 0.00000
v 0.08453 0.33000 0.03502
v 0.08160 0.33540 0.00000
v 0.07539 0.33540 0.03123
v 0.07500 0.32940 0.00000
v 0.06929 0.32940 0.02870
v 0.00000 0.32940 0.00000
v 0.06152 0.32100 0.06152
v 0.06470 0.33000 0.06470
v 0.05770 0.33540 0.05770
v 0.05303 0.32940 0.05303
v 0.03329 0.32100 0.08038
v 0.03502 0.33000 0.08453
v 0.03123 0.33540 0.07539
v 0.02870 0.32940 0.06929
v 0.00000 0.32100 0.08700
v 0.00000 0.33000 0.09150
v 0.00000 0.33540 0.08160
v 0.00000 0.32940 0.07500
v -0.03329 0.32100 0.08038
v -0.03502 0.33000 0.08453
v -0.03123 0.33540 0.07539
v -0.02870 0.32940 0.06929
v -0.06152 0.32100 0.06152
v -0.06470 0.33000 0.06470
v -0.05770 0.33540 0.05770
v -0.05303 0.32940 0.05303
v -0.08038 0.32100 0.03329
v -0.08453 0.33000 0.03502
v -0.07539 0.33540 0.03123
v -0.06929 0.32940 0.02870
v -0.08700 0.32100 0.00000
v -0.09150 0.33000 0.00000
v -0.08160 0.33540 0.00000
v -0.07500 0.32940 0.00000
v -0.08038 0.32100 -0.03329
v -0.08453 0.33000 -0.03502
v -0.07539 0.33540 -0.03123
v -0.06929 0.32940 -0.02870
v -0.06152 0.32100 -0.06152
v -0.06470 0.33000 -0.06470
v -0.05770 0.33540 -0.05770
v -0.05303 0.32940 -0.05303
v -0.03329 0.32100 -0.08038
v -0.03502 0.33000 -0.08453
v -0.03123 0.33540 -0.07539
v -0.02870 0.32940 -0.06929
v 0.00000 0.32100 -0.08700
v 0.00000 0.33000 -0.09150
v 0.00000 0.33540 -0.08160
v 0.00000 0.32940 -0.07500
v 0.03329 0.32100 -0.08038
v 0.03502 0.33000 -0.08453
v 0.03123 0.33540 -0.07539
v 0.02870 0.32940 -0.06929
v 0.06152 0.32100 -0.06152
v 0.06470 0.33000 -0.06470
v 0.05770 0.33540 -0.05770
v 0.05303 0.32940 -0.05303
v 0.08038 0.32100 -0.03329
v 0.08453 0.33000 -0.03502
v 0.07539 0.33540 -0.03123
v 0.06929 0.32940 -0.02870
v 0.05250 0.32940 -0.01440
v 0.05250 0.33360 -0.01440
v 0.06096 0.33360 -0.01165
v 0.06096 0.32940 -0.01165
v 0.06620 0.33360 -0.00445
v 0.06620 0.32940 -0.00445
v 0.06620 0.33360 0.00445
v 0.06620 0.32940 0.00445
v 0.06096 0.33360 0.01165
v 0.06096 0.32940 0.01165
v 0.05250 0.33360 0.01440
v 0.05250 0.32940 0.01440
v 0.01650 0.33360 0.01440
v 0.01650 0.32940 0.01440
v 0.00804 0.33360 0.01165
v 0.00804 0.32940 0.01165
v 0.00280 0.33360 0.00445
v 0.00280 0.32940 0.00445
v 0.00280 0.33360 -0.00445
v 0.00280 0.32940 -0.00445
v 0.00804 0.33360 -0.01165
v 0.00804 0.32940 -0.01165
v 0.01650 0.33360 -0.01440
v 0.01650 0.32940 -0.01440
vn 0.00000 -1.00000 0.00000
vn -0.23543 -0.97183 -0.01124
vn -0.21321 -0.97183 -0.10048
vn -0.28212 -0.95920 0.01871
vn -0.26780 -0.95920 -0.09068
vn 0.57305 -0.81864 0.03800
vn 0.72473 -0.68897 0.00911
vn 0.66608 -0.68897 0.28576
vn 0.51489 -0.81864 0.25440
vn -0.15853 -0.97183 -0.17442
vn -0.21271 -0.95920 -0.18626
vn 0.50603 -0.68897 0.51890
vn 0.37834 -0.81864 0.43207
vn -0.07971 -0.97183 -0.22181
vn -0.12524 -0.95920 -0.25348
vn 0.26893 -0.68897 0.67305
vn 0.18419 -0.81864 0.54397
vn 0.01124 -0.97183 -0.23543
vn -0.01871 -0.95920 -0.28212
vn -0.00911 -0.68897 0.72473
vn -0.03800 -0.81864 0.57305
vn 0.10048 -0.97183 -0.21321
vn 0.09068 -0.95920 -0.26780
vn -0.28576 -0.68897 0.66608
vn -0.25440 -0.81864 0.51489
vn 0.17442 -0.97183 -0.15853
vn 0.18626 -0.95920 -0.21271
vn -0.51890 -0.68897 0.50603
vn -0.43207 -0.81864 0.37834
vn 0.22181 -0.97183 -0.07971
vn 0.25348 -0.95920 -0.12524
vn -0.67305 -0.68897 0.26893
vn -0.54397 -0.81864 0.18419
vn 0.23543 -0.97183 0.01124
vn 0.28212 -0.95920 -0.01871
vn -0.72473 -0.68897 -0.00911
vn -0.57305 -0.81864 -0.03800
vn 0.21321 -0.97183 0.10048
vn 0.26780 -0.95920 0.09068
vn -0.66608 -0.68897 -0.28576
vn -0.51489 -0.81864 -0.25440
vn 0.15853 -0.97183 0.17442
vn 0.21271 -0.95920 0.18626
vn -0.50603 -0.68897 -0.51890
vn -0.37834 -0.81864 -0.43207
vn 0.07971 -0.97183 0.22181
vn 0.12524 -0.95920 0.25348
vn -0.26893 -0.68897 -0.67305
vn -0.18419 -0.81864 -0.54397
vn -0.01124 -0.97183 0.23543
vn 0.01871 -0.95920 0.28212
vn 0.00911 -0.68897 -0.72473
vn 0.03800 -0.81864 -0.57305
vn -0.10048 -0.97183 0.21321
vn -0.09068 -0.95920 0.26780
vn 0.28576 -0.68897 -0.66608
vn 0.25440 -0.81864 -0.51489
vn -0.17442 -0.97183 0.15853
vn -0.18626 -0.95920 0.21271
vn 0.51890 -0.68897 -0.50603
vn 0.43207 -0.81864 -0.37834
vn -0.22181 -0.97183 0.07971
vn -0.25348 -0.95920 0.12524
vn 0.67305 -0.68897 -0.26893
vn 0.54397 -0.81864 -0.18419
vn 0.96102 -0.27642 0.00507
vn 0.88593 -0.27642 0.37245
vn 0.67596 -0.27642 0.68313
vn 0.36308 -0.27642 0.88981
vn -0.00507 -0.27642 0.96102
vn -0.37245 -0.27642 0.88593
vn -0.68313 -0.27642 0.67596
vn -0.88981 -0.27642 0.36308
vn -0.96102 -0.27642 -0.00507
vn -0.88593 -0.27642 -0.37245
vn -0.67596 -0.27642 -0.68313
vn -0.36308 -0.27642 -0.88981
vn 0.00507 -0.27642 -0.96102
vn 0.37245 -0.27642 -0.88593
vn 0.68313 -0.27642 -0.67596
vn 0.88981 -0.27642 -0.36308
vn 1.00000 0.00000 0.00000
vn 0.92388 0.00000 0.38268
vn 0.99921 0.00000 -0.03975
vn 0.94175 0.00000 0.33633
vn 0.98529 0.17086 -0.00189
vn 0.91102 0.17086 0.37531
vn 0.70711 0.00000 0.70711
vn 0.69804 0.17086 0.69537
vn 0.38268 0.00000 0.92388
vn 0.37880 0.17086 0.90957
vn 0.00000 0.00000 1.00000
vn 0.00189 0.17086 0.98529
vn -0.38268 0.00000 0.92388
vn -0.34566 0.00000 0.93836
vn -0.37531 0.17086 0.91102
vn -0.70711 0.00000 0.70711
vn -0.68674 0.00000 0.72691
vn -0.69537 0.17086 0.69804
vn -0.92388 0.00000 0.38268
vn -0.90957 0.17086 0.37880
vn -1.00000 0.00000 0.00000
vn -0.98529 0.17086 0.00189
vn -0.92388 0.00000 -0.38268
vn -0.91102 0.17086 -0.37531
vn -0.70711 0.00000 -0.70711
vn -0.69804 0.17086 -0.69537
vn -0.38268 0.00000 -0.92388
vn -0.37880 0.17086 -0.90957
vn 0.00000 0.00000 -1.00000
vn -0.00189 0.17086 -0.98529
vn 0.38268 0.00000 -0.92388
vn 0.37531 0.17086 -0.91102
vn 0.70711 0.00000 -0.70711
vn 0.72691 0.00000 -0.68674
vn 0.74135 0.00000 -0.67111
vn 0.69537 0.17086 -0.69804
vn 0.92388 0.00000 -0.38268
vn 0.93836 0.00000 -0.34566
vn 0.90957 0.17086 -0.37880
vn 0.91974 0.39253 -0.00152
vn 0.85031 0.39253 0.35056
vn 0.65143 0.39253 0.64928
vn 0.35337 0.39253 0.84914
vn 0.00152 0.39253 0.91974
vn -0.35056 0.39253 0.85031
vn -0.64928 0.39253 0.65143
vn -0.84914 0.39253 0.35337
vn -0.91974 0.39253 0.00152
vn -0.85031 0.39253 -0.35056
vn -0.65143 0.39253 -0.64928
vn -0.35337 0.39253 -0.84914
vn -0.00152 0.39253 -0.91974
vn 0.35056 0.39253 -0.85031
vn 0.64928 0.39253 -0.65143
vn 0.84914 0.39253 -0.35337
vn 0.89286 0.44643 -0.05920
vn 0.84755 0.44643 0.28699
vn 0.89286 -0.44643 0.05920
vn 0.89286 -0.44643 -0.05920
vn 0.84755 -0.44643 0.28699
vn 0.80224 -0.44643 0.39638
vn 0.47861 0.87745 0.03173
vn 0.47861 0.87745 -0.03173
vn 0.45432 0.87745 0.15384
vn 0.43004 0.87745 0.21247
vn -0.67200 0.73921 -0.04456
vn -0.67200 0.73921 0.04456
vn -0.63790 0.73921 -0.21600
vn -0.60380 0.73921 -0.29833
vn 0.00000 1.00000 0.00000
vn 0.67321 0.44643 0.58949
vn 0.67321 -0.44643 0.58948
vn 0.58948 -0.44643 0.67321
vn 0.36087 0.87745 0.31599
vn 0.31599 0.87745 0.36087
vn -0.50668 0.73921 -0.44367
vn -0.44367 0.73921 -0.50668
vn 0.39638 0.44643 0.80224
vn 0.39638 -0.44643 0.80224
vn 0.28699 -0.44643 0.84755
vn 0.21247 0.87745 0.43003
vn 0.15384 0.87745 0.45432
vn -0.29833 0.73921 -0.60380
vn -0.21600 0.73921 -0.63790
vn 0.05920 0.44643 0.89286
vn 0.05920 -0.44643 0.89286
vn -0.05920 -0.44643 0.89286
vn 0.03173 0.87745 0.47861
vn -0.03173 0.87745 0.47861
vn -0.04456 0.73921 -0.67200
vn 0.04456 0.73921 -0.67200
vn -0.28699 0.44643 0.84755
vn -0.28699 -0.44643 0.84755
vn -0.39638 -0.44643 0.80224
vn -0.15384 0.87745 0.45432
vn -0.21247 0.87745 0.43004
vn 0.21600 0.73921 -0.63790
vn 0.29833 0.73921 -0.60380
vn -0.58949 0.44643 0.67321
vn -0.58948 -0.44643 0.67321
vn -0.67321 -0.44643 0.58948
vn -0.31599 0.87745 0.36087
vn -0.36087 0.87745 0.31599
vn 0.44367 0.73921 -0.50668
vn 0.50668 0.73921 -0.44367
vn -0.80224 0.44643 0.39638
vn -0.80224 -0.44643 0.39638
vn -0.84755 -0.44643 0.28699
vn -0.43003 0.87745 0.21247
vn -0.45432 0.87745 0.15384
vn 0.60380 0.73921 -0.29833
vn 0.63790 0.73921 -0.21600
vn -0.89286 0.44643 0.05920
vn -0.89286 -0.44643 0.05920
vn -0.89286 -0.44643 -0.05920
vn -0.47861 0.87745 0.03173
vn -0.47861 0.87745 -0.03173
vn 0.67200 0.73921 -0.04456
vn 0.67200 0.73921 0.04456
vn -0.84755 0.44643 -0.28699
vn -0.84755 -0.44643 -0.28699
vn -0.80224 -0.44643 -0.39638
vn -0.45432 0.87745 -0.15384
vn -0.43004 0.87745 -0.21247
vn 0.63790 0.73921 0.21600
vn 0.60380 0.73921 0.29833
vn -0.67321 0.44643 -0.58949
vn -0.67321 -0.44643 -0.58948
vn -0.58948 -0.44643 -0.67321
vn -0.36087 0.87745 -0.31599
vn -0.31599 0.87745 -0.36087
vn 0.50668 0.73921 0.44367
vn 0.44367 0.73921 0.50668
vn -0.39638 0.44643 -0.80224
vn -0.39638 -0.44643 -0.80224
vn -0.28699 -0.44643 -0.84755
vn -0.21247 0.87745 -0.43003
vn -0.15384 0.87745 -0.45432
vn 0.29833 0.73921 0.60380
vn 0.21600 0.73921 0.63790
vn -0.05920 0.44643 -0.89286
vn -0.05920 -0.44643 -0.89286
vn 0.05920 -0.44643 -0.89286
vn -0.03173 0.87745 -0.47861
vn 0.03173 0.87745 -0.47861
vn 0.04456 0.73921 0.67200
vn -0.04456 0.73921 0.67200
vn 0.28699 0.44643 -0.84755
vn 0.28699 -0.44643 -0.84755
vn 0.39638 -0.44643 -0.80224
vn 0.15384 0.87745 -0.45432
vn 0.21247 0.87745 -0.43004
vn -0.21600 0.73921 0.63790
vn -0.29833 0.73921 0.60380
vn 0.58949 0.44643 -0.67321
vn 0.58948 -0.44643 -0.67321
vn 0.67321 -0.44643 -0.58948
vn 0.31599 0.87745 -0.36087
vn 0.36087 0.87745 -0.31599
vn -0.44367 0.73921 0.50668
vn -0.50668 0.73921 0.44367
vn 0.80224 0.44643 -0.39638
vn 0.80224 -0.44643 -0.39638
vn 0.84755 -0.44643 -0.28699
vn 0.43003 0.87745 -0.21247
vn 0.45432 0.87745 -0.15384
vn -0.60380 0.73921 0.29833
vn -0.63790 0.73921 0.21600
vn 0.20829 0.00000 -0.97807
vn 0.10414 0.00000 -0.99456
vn 0.49726 0.00000 -0.86760
vn 0.67148 0.00000 -0.74102
vn 0.91225 0.00000 -0.40963
vn 0.97880 0.00000 -0.20481
vn 0.97880 0.00000 0.20481
vn 0.91225 0.00000 0.40963
vn 0.67148 0.00000 0.74102
vn 0.49726 0.00000 0.86760
vn 0.20829 0.00000 0.97807
vn 0.10414 0.00000 0.99456
vn -0.10414 0.00000 0.99456
vn -0.20829 0.00000 0.97807
vn -0.49726 0.00000 0.86760
vn -0.67148 0.00000 0.74102
vn -0.91225 0.00000 0.40963
vn -0.97880 0.00000 0.20481
vn -0.97880 0.00000 -0.20481
vn -0.91225 0.00000 -0.40963
vn -0.67148 0.00000 -0.74102
vn -0.49726 0.00000 -0.86760
vn -0.20829 0.00000 -0.97807
vn -0.10414 0.00000 -0.99456
usemtl aluminium
f 157//121 173//137 174//138
f 157//121 174//138 158//122
f 173//139 175//140 176//141
f 173//139 176//141 174//142
f 175//143 177//144 178//145
f 175//143 178//145 176//146
f 177//147 179//148 180//149
f 177//147 180//149 178//150
f 179//151 181//151 180//151
f 158//122 174//138 182//152
f 158//122 182//152 159//123
f 174//142 176//141 183//153
f 174//142 183//153 182//154
f 176//146 178//145 184//155
f 176//146 184//155 183//156
f 178//150 180//149 185//157
f 178//150 185//157 184//158
f 180//151 181//151 185//151
f 159//123 182//152 186//159
f 159//123 186//159 160//124
f 182//154 183//153 187//160
f 182//154 187//160 186//161
f 183//156 184//155 188//162
f 183//156 188//162 187//163
f 184//158 185//157 189//164
f 184//158 189//164 188//165
f 185//151 181//151 189//151
f 160//124 186//159 190//166
f 160//124 190//166 161//125
f 186//161 187//160 191//167
f 186//161 191//167 190//168
f 187//163 188//162 192//169
f 187//163 192//169 191//170
f 188//165 189//164 193//171
f 188//165 193//171 192//172
f 189//151 181//151 193//151
f 161//125 190//166 194//173
f 161//125 194//173 162//126
f 190//168 191//167 195//174
f 190//168 195//174 194//175
f 191//170 192//169 196//176
f 191//170 196//176 195//177
f 192//172 193//171 197//178
f 192//172 197//178 196//179
f 193//151 181//151 197//151
f 162//126 194//173 198//180
f 162//126 198//180 163//127
f 194//175 195//174 199//181
f 194//175 199//181 198//182
f 195//177 196//176 200//183
f 195//177 200//183 199//184
f 196//179 197//178 201//185
f 196//179 201//185 200//186
f 197//151 181//151 201//151
f 163//127 198//180 202//187
f 163//127 202//187 164//128
f 198//182 199//181 203//188
f 198//182 203//188 202//189
f 199//184 200//183 204//190
f 199//184 204//190 203//191
f 200//186 201//185 205//192
f 200//186 205//192 204//193
f 201//151 181//151 205//151
f 164//128 202//187 206//194
f 164//128 206//194 165//129
f 202//189 203//188 207//195
f 202//189 207//195 206//196
f 203//191 204//190 208//197
f 203//191 208//197 207//198
f 204//193 205//192 209//199
f 204//193 209//199 208//200
f 205//151 181//151 209//151
f 165//129 206//194 210//201
f 165//129 210//201 166//130
f 206//196 207//195 211//202
f 206//196 211//202 210//203
f 207//198 208//197 212//204
f 207//198 212//204 211//205
f 208//200 209//199 213//206
f 208//200 213//206 212//207
f 209//151 181//151 213//151
f 166//130 210//201 214//208
f 166//130 214//208 167//131
f 210//203 211//202 215//209
f 210//203 215//209 214//210
f 211//205 212//204 216//211
f 211//205 216//211 215//212
f 212//207 213//206 217//213
f 212//207 217//213 216//214
f 213//151 181//151 217//151
f 167//131 214//208 218//215
f 167//131 218//215 168//132
f 214//210 215//209 219//216
f 214//210 219//216 218//217
f 215//212 216//211 220//218
f 215//212 220//218 219//219
f 216//214 217//213 221//220
f 216//214 221//220 220//221
f 217//151 181//151 221//151
f 168//132 218//215 222//222
f 168//132 222//222 169//133
f 218//217 219//216 223//223
f 218//217 223//223 222//224
f 219//219 220//218 224//225
f 219//219 224//225 223//226
f 220//221 221//220 225//227
f 220//221 225//227 224//228
f 221//151 181//151 225//151
f 169//133 222//222 226//229
f 169//133 226//229 170//134
f 222//224 223//223 227//230
f 222//224 227//230 226//231
f 223//226 224//225 228//232
f 223//226 228//232 227//233
f 224//228 225//227 229//234
f 224//228 229//234 228//235
f 225//151 181//151 229//151
f 170//134 226//229 230//236
f 170//134 230//236 171//135
f 226//231 227//230 231//237
f 226//231 231//237 230//238
f 227//233 228//232 232//239
f 227//233 232//239 231//240
f 228//235 229//234 233//241
f 228//235 233//241 232//242
f 229//151 181//151 233//151
f 171//135 230//236 234//243
f 171//135 234//243 172//136
f 230//238 231//237 235//244
f 230//238 235//244 234//245
f 231//240 232//239 236//246
f 231//240 236//246 235//247
f 232//242 233//241 237//248
f 232//242 237//248 236//249
f 233//151 181//151 237//151
f 172//136 234//243 173//137
f 172//136 173//137 157//121
f 234//245 235//244 175//140
f 234//245 175//140 173//139
f 235//247 236//246 177//144
f 235//247 177//144 175//143
f 236//249 237//248 179//148
f 236//249 179//148 177//147
f 237//151 181//151 179//151
usemtl aluminium_shade
f 1//1 2//2 3//3
f 2//2 4//4 5//5
f 2//2 5//5 3//3
f 4//6 6//7 7//8
f 4//6 7//8 5//9
f 1//1 3//3 8//10
f 3//3 5//5 9//11
f 3//3 9//11 8//10
f 5//9 7//8 10//12
f 5//9 10//12 9//13
f 1//1 8//10 11//14
f 8//10 9//11 12//15
f 8//10 12//15 11//14
f 9//13 10//12 13//16
f 9//13 13//16 12//17
f 1//1 11//14 14//18
f 11//14 12//15 15//19
f 11//14 15//19 14//18
f 12//17 13//16 16//20
f 12//17 16//20 15//21
f 1//1 14//18 17//22
f 14//18 15//19 18//23
f 14//18 18//23 17//22
f 15//21 16//20 19//24
f 15//21 19//24 18//25
f 1//1 17//22 20//26
f 17//22 18//23 21//27
f 17//22 21//27 20//26
f 18//25 19//24 22//28
f 18//25 22//28 21//29
f 1//1 20//26 23//30
f 20//26 21//27 24//31
f 20//26 24//31 23//30
f 21//29 22//28 25//32
f 21//29 25//32 24//33
f 1//1 23//30 26//34
f 23//30 24//31 27//35
f 23//30 27//35 26//34
f 24//33 25//32 28//36
f 24//33 28//36 27//37
f 1//1 26//34 29//38
f 26//34 27//35 30//39
f 26//34 30//39 29//38
f 27//37 28//36 31//40
f 27//37 31//40 30//41
f 1//1 29//38 32//42
f 29//38 30//39 33//43
f 29//38 33//43 32//42
f 30//41 31//40 34//44
f 30//41 34//44 33//45
f 1//1 32//42 35//46
f 32//42 33//43 36//47
f 32//42 36//47 35//46
f 33//45 34//44 37//48
f 33//45 37//48 36//49
f 1//1 35//46 38//50
f 35//46 36//47 39//51
f 35//46 39//51 38//50
f 36//49 37//48 40//52
f 36//49 40//52 39//53
f 1//1 38//50 41//54
f 38//50 39//51 42//55
f 38//50 42//55 41//54
f 39//53 40//52 43//56
f 39//53 43//56 42//57
f 1//1 41//54 44//58
f 41//54 42//55 45//59
f 41//54 45//59 44//58
f 42//57 43//56 46//60
f 42//57 46//60 45//61
f 1//1 44//58 47//62
f 44//58 45//59 48//63
f 44//58 48//63 47//62
f 45//61 46//60 49//64
f 45//61 49//64 48//65
f 1//1 47//62 2//2
f 47//62 48//63 4//4
f 47//62 4//4 2//2
f 48//65 49//64 6//7
f 48//65 6//7 4//6
f 238//250 239//251 240//252
f 238//250 240//252 241//253
f 241//253 240//252 242//254
f 241//253 242//254 243//255
f 243//255 242//254 244//256
f 243//255 244//256 245//257
f 245//257 244//256 246//258
f 245//257 246//258 247//259
f 247//259 246//258 248//260
f 247//259 248//260 249//261
f 249//261 248//260 250//262
f 249//261 250//262 251//263
f 251//263 250//262 252//264
f 251//263 252//264 253//265
f 253//265 252//264 254//266
f 253//265 254//266 255//267
f 255//267 254//266 256//268
f 255//267 256//268 257//269
f 257//269 256//268 258//270
f 257//269 258//270 259//271
f 259//271 258//270 260//272
f 259//271 260//272 261//273
f 261//273 260//272 239//251
f 261//273 239//251 238//250
f 260//151 240//151 239//151
f 261//1 238//1 241//1
f 240//151 244//151 242//151
f 241//1 243//1 245//1
f 244//151 248//151 246//151
f 245//1 247//1 249//1
f 248//151 252//151 250//151
f 249//1 251//1 253//1
f 252//151 256//151 254//151
f 253//1 255//1 257//1
f 256//151 260//151 258//151
f 257//1 259//1 261//1
f 260//151 244//151 240//151
f 261//1 241//1 245//1
f 244//151 252//151 248//151
f 245//1 249//1 253//1
f 252//151 260//151 256//151
f 253//1 257//1 261//1
f 260//151 252//151 244//151
f 261//1 245//1 253//1
usemtl body_deep
f 6//7 50//66 51//67
f 6//7 51//67 7//8
f 7//8 51//67 52//68
f 7//8 52//68 10//12
f 10//12 52//68 53//69
f 10//12 53//69 13//16
f 13//16 53//69 54//70
f 13//16 54//70 16//20
f 16//20 54//70 55//71
f 16//20 55//71 19//24
f 19//24 55//71 56//72
f 19//24 56//72 22//28
f 22//28 56//72 57//73
f 22//28 57//73 25//32
f 25//32 57//73 58//74
f 25//32 58//74 28//36
f 28//36 58//74 59//75
f 28//36 59//75 31//40
f 31//40 59//75 60//76
f 31//40 60//76 34//44
f 34//44 60//76 61//77
f 34//44 61//77 37//48
f 37//48 61//77 62//78
f 37//48 62//78 40//52
f 40//52 62//78 63//79
f 40//52 63//79 43//56
f 43//56 63//79 64//80
f 43//56 64//80 46//60
f 46//60 64//80 65//81
f 46//60 65//81 49//64
f 49//64 65//81 50//66
f 49//64 50//66 6//7
f 77//82 78//86 79//87
f 77//82 79//87 75//85
f 75//85 79//87 85//89
f 75//85 85//89 84//88
f 84//88 85//89 91//91
f 84//88 91//91 90//90
f 90//90 91//91 97//93
f 90//90 97//93 96//92
f 96//92 97//93 103//96
f 96//92 103//96 102//94
f 102//94 103//96 108//99
f 102//94 108//99 107//97
f 107//97 108//99 113//101
f 107//97 113//101 112//100
f 112//100 113//101 118//103
f 112//100 118//103 117//102
f 117//102 118//103 123//105
f 117//102 123//105 122//104
f 122//104 123//105 128//107
f 122//104 128//107 127//106
f 127//106 128//107 133//109
f 127//106 133//109 132//108
f 132//108 133//109 138//111
f 132//108 138//111 137//110
f 137//110 138//111 143//113
f 137//110 143//113 142//112
f 142//112 143//113 148//117
f 142//112 148//117 147//116
f 147//116 148//117 156//120
f 147//116 156//120 155//119
f 155//119 156//120 78//86
f 155//119 78//86 77//82
f 78//86 157//121 158//122
f 78//86 158//122 79//87
f 79//87 158//122 159//123
f 79//87 159//123 85//89
f 85//89 159//123 160//124
f 85//89 160//124 91//91
f 91//91 160//124 161//125
f 91//91 161//125 97//93
f 97//93 161//125 162//126
f 97//93 162//126 103//96
f 103//96 162//126 163//127
f 103//96 163//127 108//99
f 108//99 163//127 164//128
f 108//99 164//128 113//101
f 113//101 164//128 165//129
f 113//101 165//129 118//103
f 118//103 165//129 166//130
f 118//103 166//130 123//105
f 123//105 166//130 167//131
f 123//105 167//131 128//107
f 128//107 167//131 168//132
f 128//107 168//132 133//109
f 133//109 168//132 169//133
f 133//109 169//133 138//111
f 138//111 169//133 170//134
f 138//111 170//134 143//113
f 143//113 170//134 171//135
f 143//113 171//135 148//117
f 148//117 171//135 172//136
f 148//117 172//136 156//120
f 156//120 172//136 157//121
f 156//120 157//121 78//86
usemtl body
f 72//82 74//84 75//85
f 72//82 75//85 73//83
f 76//84 77//82 75//85
f 73//83 75//85 84//88
f 73//83 84//88 83//88
f 83//88 84//88 90//90
f 83//88 90//90 89//90
f 89//90 90//90 96//92
f 89//90 96//92 95//92
f 95//92 96//92 102//94
f 95//92 102//94 101//94
f 101//94 102//94 107//97
f 101//94 107//97 106//98
f 106//98 107//97 112//100
f 106//98 112//100 111//100
f 111//100 112//100 117//102
f 111//100 117//102 116//102
f 116//102 117//102 122//104
f 116//102 122//104 121//104
f 121//104 122//104 127//106
f 121//104 127//106 126//106
f 126//106 127//106 132//108
f 126//106 132//108 131//108
f 131//108 132//108 137//110
f 131//108 137//110 136//110
f 136//110 137//110 142//112
f 136//110 142//112 141//112
f 141//112 142//112 147//116
f 141//112 147//116 146//115
f 146//115 147//116 153//118
f 146//115 153//118 152//119
f 147//116 155//119 154//119
f 152//119 153//118 74//84
f 152//119 74//84 72//82
f 154//119 155//119 77//82
f 154//119 77//82 76//84
usemtl body_bright
f 50//66 66//82 67//83
f 50//66 67//83 51//67
f 68//82 70//82 71//83
f 68//82 71//83 69//83
f 51//67 67//83 80//88
f 51//67 80//88 52//68
f 69//83 71//83 82//88
f 69//83 82//88 81//88
f 52//68 80//88 86//90
f 52//68 86//90 53//69
f 81//88 82//88 88//90
f 81//88 88//90 87//90
f 53//69 86//90 92//92
f 53//69 92//92 54//70
f 87//90 88//90 94//92
f 87//90 94//92 93//92
f 54//70 92//92 98//94
f 54//70 98//94 55//71
f 93//92 94//92 100//95
f 93//92 100//95 99//94
f 55//71 98//94 104//97
f 55//71 104//97 56//72
f 99//94 100//95 106//98
f 99//94 106//98 105//97
f 56//72 104//97 109//100
f 56//72 109//100 57//73
f 105//97 106//98 111//100
f 105//97 111//100 110//100
f 57//73 109//100 114//102
f 57//73 114//102 58//74
f 110//100 111//100 116//102
f 110//100 116//102 115//102
f 58//74 114//102 119//104
f 58//74 119//104 59//75
f 115//102 116//102 121//104
f 115//102 121//104 120//104
f 59//75 119//104 124//106
f 59//75 124//106 60//76
f 120//104 121//104 126//106
f 120//104 126//106 125//106
f 60//76 124//106 129//108
f 60//76 129//108 61//77
f 125//106 126//106 131//108
f 125//106 131//108 130//108
f 61//77 129//108 134//110
f 61//77 134//110 62//78
f 130//108 131//108 136//110
f 130//108 136//110 135//110
f 62//78 134//110 139//112
f 62//78 139//112 63//79
f 135//110 136//110 141//112
f 135//110 141//112 140//112
f 63//79 139//112 144//114
f 63//79 144//114 64//80
f 140//112 141//112 146//115
f 140//112 146//115 145//114
f 64//80 144//114 149//118
f 64//80 149//118 65//81
f 145//114 146//115 151//118
f 145//114 151//118 150//118
f 65//81 149//118 66//82
f 65//81 66//82 50//66
f 150//118 151//118 70//82
f 150//118 70//82 68//82
usemtl wave
f 66//82 68//82 69//83
f 66//82 69//83 67//83
f 67//83 69//83 81//88
f 67//83 81//88 80//88
f 80//88 81//88 87//90
f 80//88 87//90 86//90
f 86//90 87//90 93//92
f 86//90 93//92 92//92
f 92//92 93//92 99//94
f 92//92 99//94 98//94
f 98//94 99//94 105//97
f 98//94 105//97 104//97
f 104//97 105//97 110//100
f 104//97 110//100 109//100
f 109//100 110//100 115//102
f 109//100 115//102 114//102
f 114//102 115//102 120//104
f 114//102 120//104 119//104
f 119//104 120//104 125//106
f 119//104 125//106 124//106
f 124//106 125//106 130//108
f 124//106 130//108 129//108
f 129//108 130//108 135//110
f 129//108 135//110 134//110
f 134//110 135//110 140//112
f 134//110 140//112 139//112
f 139//112 140//112 145//114
f 139//112 145//114 144//114
f 144//114 145//114 150//118
f 144//114 150//118 149//118
f 149//118 150//118 68//82
f 149//118 68//82 66//82
usemtl sail
f 70//82 72//82 73//83
f 70//82 73//83 71//83
f 74//84 76//84 75//85
f 71//83 73//83 83//88
f 71//83 83//88 82//88
f 82//88 83//88 89//90
f 82//88 89//90 88//90
f 88//90 89//90 95//92
f 88//90 95//92 94//92
f 94//92 95//92 101//94
f 94//92 101//94 100//95
f 100//95 101//94 106//98
f 146//115 152//119 151//118
f 147//116 154//119 153//118
f 151//118 152//119 72//82
f 151//118 72//82 70//82
f 153//118 154//119 76//84
f 153//118 76//84 74//84
