# Generated by tools/models/generate_all.gd - DO NOT EDIT BY HAND.
# Change the generator and re-run:
#   godot --headless -s tools/models/generate_all.gd
mtllib lata_dent2.mtl
o Lata
v 0.00000 0.01650 0.00000
v 0.05400 0.00750 0.00000
v 0.04989 0.00750 0.02066
v 0.07950 0.00000 0.00000
v 0.07345 0.00000 0.03042
v 0.09450 0.01050 0.00000
v 0.08731 0.01050 0.03616
v 0.03818 0.00750 0.03818
v 0.05621 0.00000 0.05621
v 0.06682 0.01050 0.06682
v 0.02066 0.00750 0.04989
v 0.03042 0.00000 0.07345
v 0.03616 0.01050 0.08731
v 0.00000 0.00750 0.05400
v 0.00000 0.00000 0.07950
v 0.00000 0.01050 0.09450
v -0.02066 0.00750 0.04989
v -0.03042 0.00000 0.07345
v -0.03616 0.01050 0.08731
v -0.03818 0.00750 0.03818
v -0.05621 0.00000 0.05621
v -0.06682 0.01050 0.06682
v -0.04989 0.00750 0.02066
v -0.07345 0.00000 0.03042
v -0.08731 0.01050 0.03616
v -0.05400 0.00750 0.00000
v -0.07950 0.00000 0.00000
v -0.09450 0.01050 0.00000
v -0.04989 0.00750 -0.02066
v -0.07345 0.00000 -0.03042
v -0.08731 0.01050 -0.03616
v -0.03818 0.00750 -0.03818
v -0.05621 0.00000 -0.05621
v -0.06682 0.01050 -0.06682
v -0.02066 0.00750 -0.04989
v -0.03042 0.00000 -0.07345
v -0.03616 0.01050 -0.08731
v 0.00000 0.00750 -0.05400
v 0.00000 0.00000 -0.07950
v 0.00000 0.01050 -0.09450
v 0.02066 0.00750 -0.04989
v 0.03042 0.00000 -0.07345
v 0.03616 0.01050 -0.08731
v 0.03818 0.00750 -0.03818
v 0.05621 0.00000 -0.05621
v 0.06682 0.01050 -0.06682
v 0.04989 0.00750 -0.02066
v 0.07345 0.00000 -0.03042
v 0.08731 0.01050 -0.03616
v 0.10200 0.02250 0.00000
v 0.09424 0.02250 0.03903
v 0.07212 0.02250 0.07212
v 0.03903 0.02250 0.09424
v 0.00000 0.02250 0.10200
v -0.03903 0.02250 0.09424
v -0.07212 0.02250 0.07212
v -0.09424 0.02250 0.03903
v -0.10200 0.02250 0.00000
v -0.09424 0.02250 -0.03903
v -0.07212 0.02250 -0.07212
v -0.03903 0.02250 -0.09424
v 0.00000 0.02250 -0.10200
v 0.03903 0.02250 -0.09424
v 0.07212 0.02250 -0.07212
v 0.09424 0.02250 -0.03903
v 0.10200 0.04500 0.00000
v 0.09424 0.04500 0.03903
v 0.10200 0.07200 0.00000
v 0.09424 0.08220 0.03903
v 0.10193 0.09900 0.00000
v 0.09423 0.09900 0.03903
v 0.07689 0.13947 0.00000
v 0.09229 0.16762 0.03823
v 0.08472 0.18000 0.00000
v 0.09424 0.25350 0.03903
v 0.10200 0.22800 0.00000
v 0.10200 0.25350 0.00000
v 0.10200 0.28500 0.00000
v 0.09424 0.28500 0.03903
v 0.07212 0.04500 0.07212
v 0.07212 0.07200 0.07212
v 0.07212 0.09900 0.07212
v 0.07212 0.19577 0.07212
v 0.07212 0.25350 0.07212
v 0.07212 0.28500 0.07212
v 0.03903 0.04500 0.09424
v 0.03903 0.06180 0.09424
v 0.03903 0.09900 0.09424
v 0.03903 0.22392 0.09424
v 0.03903 0.25350 0.09424
v 0.03903 0.28500 0.09424
v 0.00000 0.04500 0.10200
v 0.00000 0.07200 0.10200
v 0.00000 0.09900 0.10200
v 0.00000 0.23841 0.10200
v 0.00000 0.25350 0.10200
v 0.00000 0.28500 0.10200
v -0.03903 0.04500 0.09424
v -0.03894 0.08220 0.09401
v -0.03877 0.09900 0.09360
v -0.03890 0.14145 0.09391
v -0.03903 0.25350 0.09424
v -0.03903 0.28500 0.09424
v -0.07212 0.04500 0.07212
v -0.07036 0.07200 0.07036
v -0.05620 0.09900 0.05620
v -0.07212 0.25350 0.07212
v -0.07212 0.28500 0.07212
v -0.09424 0.04500 0.03903
v -0.09419 0.06180 0.03902
v -0.09126 0.09900 0.03780
v -0.09424 0.25350 0.03903
v -0.09424 0.28500 0.03903
v -0.10200 0.04500 0.00000
v -0.10200 0.07200 0.00000
v -0.10200 0.09900 0.00000
v -0.10200 0.25350 0.00000
v -0.10200 0.28500 0.00000
v -0.09424 0.04500 -0.03903
v -0.09424 0.08220 -0.03903
v -0.09424 0.09900 -0.03903
v -0.09424 0.25350 -0.03903
v -0.09424 0.28500 -0.03903
v -0.07212 0.04500 -0.07212
v -0.07212 0.07200 -0.07212
v -0.07212 0.09900 -0.07212
v -0.07212 0.25350 -0.07212
v -0.07212 0.28500 -0.07212
v -0.03903 0.04500 -0.09424
v -0.03903 0.06180 -0.09424
v -0.03903 0.09900 -0.09424
v -0.03903 0.25350 -0.09424
v -0.03903 0.28500 -0.09424
v 0.00000 0.04500 -0.10200
v 0.00000 0.07200 -0.10200
v 0.00000 0.09900 -0.10200
v 0.00000 0.25350 -0.10200
v 0.00000 0.28500 -0.10200
v 0.03903 0.04500 -0.09424
v 0.03903 0.08220 -0.09424
v 0.03903 0.09900 -0.09424
v 0.03903 0.25350 -0.09424
v 0.03903 0.28500 -0.09424
v 0.07212 0.04500 -0.07212
v 0.07212 0.07200 -0.07212
v 0.07212 0.09900 -0.07212
v 0.07212 0.25350 -0.07212
v 0.07212 0.28500 -0.07212
v 0.09424 0.04500 -0.03903
v 0.09424 0.06180 -0.03903
v 0.09423 0.09900 -0.03903
v 0.09411 0.11132 -0.03898
v 0.09310 0.18000 -0.03856
v 0.09424 0.22800 -0.03903
v 0.09424 0.25350 -0.03903
v 0.09424 0.28500 -0.03903
v 0.09450 0.30600 0.00000
v 0.08731 0.30600 0.03616
v 0.06682 0.30600 0.06682
v 0.03616 0.30600 0.08731
v 0.00000 0.30600 0.09450
v -0.03616 0.30600 0.08731
v -0.06682 0.30600 0.06682
v -0.08731 0.30600 0.03616
v -0.09450 0.30600 0.00000
v -0.08731 0.30600 -0.03616
v -0.06682 0.30600 -0.06682
v -0.03616 0.30600 -0.08731
v 0.00000 0.30600 -0.09450
v 0.03616 0.30600 -0.08731
v 0.06682 0.30600 -0.06682
v 0.08731 0.30600 -0.03616
v 0.08700 0.32100 0.00000
v 0.08038 0.32100 0.03329
v 0.09150 0.33000 0.00000
v 0.08453 0.33000 0.03502
v 0.08160 0.33540 0.00000
v 0.07539 0.33540 0.03123
v 0.07500 0.32940 0.00000
v 0.06929 0.32940 0.02870
v 0.00000 0.32940 0.00000
v 0.06152 0.32100 0.06152
v 0.06470 0.33000 0.06470
v 0.05770 0.33540 0.05770
v 0.05303 0.32940 0.05303
v 0.03329 0.32100 0.08038
v 0.03502 0.33000 0.08453
v 0.03123 0.33540 0.07539
v 0.02870 0.32940 0.06929
v 0.00000 0.32100 0.08700
v 0.00000 0.33000 0.09150
v 0.00000 0.33540 0.08160
v 0.00000 0.32940 0.07500
v -0.03329 0.32100 0.08038
v -0.03502 0.33000 0.08453
v -0.03123 0.33540 0.07539
v -0.02870 0.32940 0.06929
v -0.06152 0.32100 0.06152
v -0.06470 0.33000 0.06470
v -0.05770 0.33540 0.05770
v -0.05303 0.32940 0.05303
v -0.08038 0.32100 0.03329
v -0.08453 0.33000 0.03502
v -0.07539 0.33540 0.03123
v -0.06929 0.32940 0.02870
v -0.08700 0.32100 0.00000
v -0.09150 0.33000 0.00000
v -0.08160 0.33540 0.00000
v -0.07500 0.32940 0.00000
v -0.08038 0.32100 -0.03329
v -0.08453 0.33000 -0.03502
v -0.07539 0.33540 -0.03123
v -0.06929 0.32940 -0.02870
v -0.06152 0.32100 -0.06152
v -0.06470 0.33000 -0.06470
v -0.05770 0.33540 -0.05770
v -0.05303 0.32940 -0.05303
v -0.03329 0.32100 -0.08038
v -0.03502 0.33000 -0.08453
v -0.03123 0.33540 -0.07539
v -0.02870 0.32940 -0.06929
v 0.00000 0.32100 -0.08700
v 0.00000 0.33000 -0.09150
v 0.00000 0.33540 -0.08160
v 0.00000 0.32940 -0.07500
v 0.03329 0.32100 -0.08038
v 0.03502 0.33000 -0.08453
v 0.03123 0.33540 -0.07539
v 0.02870 0.32940 -0.06929
v 0.06152 0.32100 -0.06152
v 0.06470 0.33000 -0.06470
v 0.05770 0.33540 -0.05770
v 0.05303 0.32940 -0.05303
v 0.08038 0.32100 -0.03329
v 0.08453 0.33000 -0.03502
v 0.07539 0.33540 -0.03123
v 0.06929 0.32940 -0.02870
v 0.05250 0.32940 -0.01440
v 0.05250 0.33360 -0.01440
v 0.06096 0.33360 -0.01165
v 0.06096 0.32940 -0.01165
v 0.06620 0.33360 -0.00445
v 0.06620 0.32940 -0.00445
v 0.06620 0.33360 0.00445
v 0.06620 0.32940 0.00445
v 0.06096 0.33360 0.01165
v 0.06096 0.32940 0.01165
v 0.05250 0.33360 0.01440
v 0.05250 0.32940 0.01440
v 0.01650 0.33360 0.01440
v 0.01650 0.32940 0.01440
v 0.00804 0.33360 0.01165
v 0.00804 0.32940 0.01165
v 0.00280 0.33360 0.00445
v 0.00280 0.32940 0.00445
v 0.00280 0.33360 -0.00445
v 0.00280 0.32940 -0.00445
v 0.00804 0.33360 -0.01165
v 0.00804 0.32940 -0.01165
v 0.01650 0.33360 -0.01440
v 0.01650 0.32940 -0.01440
vn 0.00000 -1.00000 0.00000
vn -0.23543 -0.97183 -0.01124
vn -0.21321 -0.97183 -0.10048
vn -0.28212 -0.95920 0.01871
vn -0.26780 -0.95920 -0.09068
vn 0.57305 -0.81864 0.03800
vn 0.72473 -0.68897 0.00911
vn 0.66608 -0.68897 0.28576
vn 0.51489 -0.81864 0.25440
vn -0.15853 -0.97183 -0.17442
vn -0.21271 -0.95920 -0.18626
vn 0.50603 -0.68897 0.51890
vn 0.37834 -0.81864 0.43207
vn -0.07971 -0.97183 -0.22181
vn -0.12524 -0.95920 -0.25348
vn 0.26893 -0.68897 0.67305
vn 0.18419 -0.81864 0.54397
vn 0.01124 -0.97183 -0.23543
vn -0.01871 -0.95920 -0.28212
vn -0.00911 -0.68897 0.72473
vn -0.03800 -0.81864 0.57305
vn 0.10048 -0.97183 -0.21321
vn 0.09068 -0.95920 -0.26780
vn -0.28576 -0.68897 0.66608
vn -0.25440 -0.81864 0.51489
vn 0.17442 -0.97183 -0.15853
vn 0.18626 -0.95920 -0.21271
vn -0.51890 -0.68897 0.50603
vn -0.43207 -0.81864 0.37834
vn 0.22181 -0.97183 -0.07971
vn 0.25348 -0.95920 -0.12524
vn -0.67305 -0.68897 0.26893
vn -0.54397 -0.81864 0.18419
vn 0.23543 -0.97183 0.01124
vn 0.28212 -0.95920 -0.01871
vn -0.72473 -0.68897 -0.00911
vn -0.57305 -0.81864 -0.03800
vn 0.21321 -0.97183 0.10048
vn 0.26780 -0.95920 0.09068
vn -0.66608 -0.68897 -0.28576
vn -0.51489 -0.81864 -0.25440
vn 0.15853 -0.97183 0.17442
vn 0.21271 -0.95920 0.18626
vn -0.50603 -0.68897 -0.51890
vn -0.37834 -0.81864 -0.43207
vn 0.07971 -0.97183 0.22181
vn 0.12524 -0.95920 0.25348
vn -0.26893 -0.68897 -0.67305
vn -0.18419 -0.81864 -0.54397
vn -0.01124 -0.97183 0.23543
vn 0.01871 -0.95920 0.28212
vn 0.00911 -0.68897 -0.72473
vn 0.03800 -0.81864 -0.57305
vn -0.10048 -0.97183 0.21321
vn -0.09068 -0.95920 0.26780
vn 0.28576 -0.68897 -0.66608
vn 0.25440 -0.81864 -0.51489
vn -0.17442 -0.97183 0.15853
vn -0.18626 -0.95920 0.21271
vn 0.51890 -0.68897 -0.50603
vn 0.43207 -0.81864 -0.37834
vn -0.22181 -0.97183 0.07971
vn -0.25348 -0.95920 0.12524
vn 0.67305 -0.68897 -0.26893
vn 0.54397 -0.81864 -0.18419
vn 0.96102 -0.27642 0.00507
vn 0.88593 -0.27642 0.37245
vn 0.67596 -0.27642 0.68313
vn 0.36308 -0.27642 0.88981
vn -0.00507 -0.27642 0.96102
vn -0.37245 -0.27642 0.88593
vn -0.68313 -0.27642 0.67596
vn -0.88981 -0.27642 0.36308
vn -0.96102 -0.27642 -0.00507
vn -0.88593 -0.27642 -0.37245
vn -0.67596 -0.27642 -0.68313
vn -0.36308 -0.27642 -0.88981
vn 0.00507 -0.27642 -0.96102
vn 0.37245 -0.27642 -0.88593
vn 0.68313 -0.27642 -0.67596
vn 0.88981 -0.27642 -0.36308
vn 1.00000 0.00000 0.00000
vn 0.92388 0.00000 0.38268
vn 1.00000 0.00092 -0.00039
vn 0.92389 0.00010 0.38265
vn 0.99269 0.11549 -0.03496
vn 0.92871 0.01075 0.37065
vn 0.92006 0.24970 -0.30190
vn 0.86105 0.32449 -0.39154
vn 0.84239 0.21193 -0.49545
vn 0.95493 0.00397 0.29679
vn 0.98011 -0.09687 0.17322
vn 0.93696 -0.20082 0.28598
vn 0.95465 -0.07174 0.28895
vn 0.94025 0.20208 -0.27405
vn 0.99789 -0.05315 0.03735
vn 0.94768 0.15939 -0.27658
vn 0.98695 -0.13976 0.07991
vn 0.92413 -0.07713 0.37421
vn 0.98529 0.17086 -0.00189
vn 0.91102 0.17086 0.37531
vn 0.70711 0.00000 0.70711
vn 0.70714 0.00005 0.70708
vn 0.89620 0.00918 0.44355
vn 0.72178 0.00518 0.69210
vn 0.71321 -0.00409 0.70094
vn 0.69804 0.17086 0.69537
vn 0.38268 0.00000 0.92388
vn 0.37880 0.17086 0.90957
vn -0.00102 0.00111 1.00000
vn -0.00377 0.00434 0.99998
vn -0.00711 -0.00131 0.99997
vn -0.00165 -0.00053 1.00000
vn 0.00000 0.00000 1.00000
vn 0.00189 0.17086 0.98529
vn -0.39134 0.01761 0.92008
vn -0.30407 0.00983 0.95260
vn -0.20603 0.00595 0.97853
vn -0.29586 -0.00352 0.95522
vn -0.38286 -0.00105 0.92380
vn -0.37531 0.17086 0.91102
vn -0.70234 0.03124 0.71116
vn -0.49428 0.11964 0.86103
vn -0.65638 0.25294 0.71076
vn -0.74887 0.22070 0.62489
vn -0.90637 0.00671 0.42243
vn -0.80208 0.05489 0.59469
vn -0.67437 0.42692 0.60247
vn -0.78646 -0.05148 0.61550
vn -0.81110 -0.05887 0.58193
vn -0.52288 -0.02896 0.85192
vn -0.75252 -0.04858 0.65677
vn -0.69537 0.17086 0.69804
vn -0.92376 0.00090 0.38296
vn -0.91245 0.04483 0.40672
vn -0.50909 0.40854 0.75758
vn -0.58517 0.22859 0.77803
vn -0.83331 0.12976 0.53736
vn -0.89077 -0.03133 0.45337
vn -0.77146 0.05237 0.63412
vn -0.72778 -0.05410 0.68367
vn -0.90957 0.17086 0.37880
vn -1.00000 0.00000 0.00000
vn -1.00000 0.00045 0.00048
vn -0.94086 0.03728 0.33675
vn -0.99954 0.01446 0.02680
vn -0.93801 -0.03305 0.34502
vn -0.99990 -0.00349 0.01334
vn -0.98529 0.17086 0.00189
vn -0.92388 0.00000 -0.38268
vn -0.91102 0.17086 -0.37531
vn -0.70711 0.00000 -0.70711
vn -0.69804 0.17086 -0.69537
vn -0.38268 0.00000 -0.92388
vn -0.37880 0.17086 -0.90957
vn 0.00000 0.00000 -1.00000
vn -0.00189 0.17086 -0.98529
vn 0.38268 0.00000 -0.92388
vn 0.37531 0.17086 -0.91102
vn 0.70711 0.00000 -0.70711
vn 0.70713 0.00002 -0.70709
vn 0.72977 0.00380 -0.68368
vn 0.74256 -0.00319 -0.66977
vn 0.69537 0.17086 -0.69804
vn 0.92388 0.00000 -0.38268
vn 0.92394 0.00048 -0.38253
vn 0.89968 0.11044 -0.42236
vn 0.83103 0.01305 -0.55608
vn 0.88298 -0.00876 -0.46933
vn 0.93721 -0.01023 -0.34861
vn 0.93836 0.00000 -0.34566
vn 0.90957 0.17086 -0.37880
vn 0.95038 0.09757 -0.29539
vn 0.97516 0.17519 -0.13554
vn 0.99415 0.00396 0.10792
vn 0.92634 -0.04865 0.37352
vn 0.93175 -0.11736 0.34362
vn 0.99016 -0.11825 0.07482
vn 0.96416 -0.06332 -0.25766
vn 0.91974 0.39253 -0.00152
vn 0.85031 0.39253 0.35056
vn 0.65143 0.39253 0.64928
vn 0.35337 0.39253 0.84914
vn 0.00152 0.39253 0.91974
vn -0.35056 0.39253 0.85031
vn -0.64928 0.39253 0.65143
vn -0.84914 0.39253 0.35337
vn -0.91974 0.39253 0.00152
vn -0.85031 0.39253 -0.35056
vn -0.65143 0.39253 -0.64928
vn -0.35337 0.39253 -0.84914
vn -0.00152 0.39253 -0.91974
vn 0.35056 0.39253 -0.85031
vn 0.64928 0.39253 -0.65143
vn 0.84914 0.39253 -0.35337
vn 0.89286 0.44643 -0.05920
vn 0.84755 0.44643 0.28699
vn 0.89286 -0.44643 0.05920
vn 0.89286 -0.44643 -0.05920
vn 0.84755 -0.44643 0.28699
vn 0.80224 -0.44643 0.39638
vn 0.47861 0.87745 0.03173
vn 0.47861 0.87745 -0.03173
vn 0.45432 0.87745 0.15384
vn 0.43004 0.87745 0.21247
vn -0.67200 0.73921 -0.04456
vn -0.67200 0.73921 0.04456
vn -0.63790 0.73921 -0.21600
vn -0.60380 0.73921 -0.29833
vn 0.00000 1.00000 0.00000
vn 0.67321 0.44643 0.58949
vn 0.67321 -0.44643 0.58948
vn 0.58948 -0.44643 0.67321
vn 0.36087 0.87745 0.31599
vn 0.31599 0.87745 0.36087
vn -0.50668 0.73921 -0.44367
vn -0.44367 0.73921 -0.50668
vn 0.39638 0.44643 0.80224
vn 0.39638 -0.44643 0.80224
vn 0.28699 -0.44643 0.84755
vn 0.21247 0.87745 0.43003
vn 0.15384 0.87745 0.45432
vn -0.29833 0.73921 -0.60380
vn -0.21600 0.73921 -0.63790
vn 0.05920 0.44643 0.89286
vn 0.05920 -0.44643 0.89286
vn -0.05920 -0.44643 0.89286
vn 0.03173 0.87745 0.47861
vn -0.03173 0.87745 0.47861
vn -0.04456 0.73921 -0.67200
vn 0.04456 0.73921 -0.67200
vn -0.28699 0.44643 0.84755
vn -0.28699 -0.44643 0.84755
vn -0.39638 -0.44643 0.80224
vn -0.15384 0.87745 0.45432
vn -0.21247 0.87745 0.43004
vn 0.21600 0.73921 -0.63790
vn 0.29833 0.73921 -0.60380
vn -0.58949 0.44643 0.67321
vn -0.58948 -0.44643 0.67321
vn -0.67321 -0.44643 0.58948
vn -0.31599 0.87745 0.36087
vn -0.36087 0.87745 0.31599
vn 0.44367 0.73921 -0.50668
vn 0.50668 0.73921 -0.44367
vn -0.80224 0.44643 0.39638
vn -0.80224 -0.44643 0.39638
vn -0.84755 -0.44643 0.28699
vn -0.43003 0.87745 0.21247
vn -0.45432 0.87745 0.15384
vn 0.60380 0.73921 -0.29833
vn 0.63790 0.73921 -0.21600
vn -0.89286 0.44643 0.05920
vn -0.89286 -0.44643 0.05920
vn -0.89286 -0.44643 -0.05920
vn -0.47861 0.87745 0.03173
vn -0.47861 0.87745 -0.03173
vn 0.67200 0.73921 -0.04456
vn 0.67200 0.73921 0.04456
vn -0.84755 0.44643 -0.28699
vn -0.84755 -0.44643 -0.28699
vn -0.80224 -0.44643 -0.39638
vn -0.45432 0.87745 -0.15384
vn -0.43004 0.87745 -0.21247
vn 0.63790 0.73921 0.21600
vn 0.60380 0.73921 0.29833
vn -0.67321 0.44643 -0.58949
vn -0.67321 -0.44643 -0.58948
vn -0.58948 -0.44643 -0.67321
vn -0.36087 0.87745 -0.31599
vn -0.31599 0.87745 -0.36087
vn 0.50668 0.73921 0.44367
vn 0.44367 0.73921 0.50668
vn -0.39638 0.44643 -0.80224
vn -0.39638 -0.44643 -0.80224
vn -0.28699 -0.44643 -0.84755
vn -0.21247 0.87745 -0.43003
vn -0.15384 0.87745 -0.45432
vn 0.29833 0.73921 0.60380
vn 0.21600 0.73921 0.63790
vn -0.05920 0.44643 -0.89286
vn -0.05920 -0.44643 -0.89286
vn 0.05920 -0.44643 -0.89286
vn -0.03173 0.87745 -0.47861
vn 0.03173 0.87745 -0.47861
vn 0.04456 0.73921 0.67200
vn -0.04456 0.73921 0.67200
vn 0.28699 0.44643 -0.84755
vn 0.28699 -0.44643 -0.84755
vn 0.39638 -0.44643 -0.80224
vn 0.15384 0.87745 -0.45432
vn 0.21247 0.87745 -0.43004
vn -0.21600 0.73921 0.63790
vn -0.29833 0.73921 0.60380
vn 0.58949 0.44643 -0.67321
vn 0.58948 -0.44643 -0.67321
vn 0.67321 -0.44643 -0.58948
vn 0.31599 0.87745 -0.36087
vn 0.36087 0.87745 -0.31599
vn -0.44367 0.73921 0.50668
vn -0.50668 0.73921 0.44367
vn 0.80224 0.44643 -0.39638
vn 0.80224 -0.44643 -0.39638
vn 0.84755 -0.44643 -0.28699
vn 0.43003 0.87745 -0.21247
vn 0.45432 0.87745 -0.15384
vn -0.60380 0.73921 0.29833
vn -0.63790 0.73921 0.21600
vn 0.20829 0.00000 -0.97807
vn 0.10414 0.00000 -0.99456
vn 0.49726 0.00000 -0.86760
vn 0.67148 0.00000 -0.74102
vn 0.91225 0.00000 -0.40963
vn 0.97880 0.00000 -0.20481
vn 0.97880 0.00000 0.20481
vn 0.91225 0.00000 0.40963
vn 0.67148 0.00000 0.74102
vn 0.49726 0.00000 0.86760
vn 0.20829 0.00000 0.97807
vn 0.10414 0.00000 0.99456
vn -0.10414 0.00000 0.99456
vn -0.20829 0.00000 0.97807
vn -0.49726 0.00000 0.86760
vn -0.67148 0.00000 0.74102
vn -0.91225 0.00000 0.40963
vn -0.97880 0.00000 0.20481
vn -0.97880 0.00000 -0.20481
vn -0.91225 0.00000 -0.40963
vn -0.67148 0.00000 -0.74102
vn -0.49726 0.00000 -0.86760
vn -0.20829 0.00000 -0.97807
vn -0.10414 0.00000 -0.99456
usemtl aluminium
f 157//180 173//196 174//197
f 157//180 174//197 158//181
f 173//198 175//199 176//200
f 173//198 176//200 174//201
f 175//202 177//203 178//204
f 175//202 178//204 176//205
f 177//206 179//207 180//208
f 177//206 180//208 178//209
f 179//210 181//210 180//210
f 158//181 174//197 182//211
f 158//181 182//211 159//182
f 174//201 176//200 183//212
f 174//201 183//212 182//213
f 176//205 178//204 184//214
f 176//205 184//214 183//215
f 178//209 180//208 185//216
f 178//209 185//216 184//217
f 180//210 181//210 185//210
f 159//182 182//211 186//218
f 159//182 186//218 160//183
f 182//213 183//212 187//219
f 182//213 187//219 186//220
f 183//215 184//214 188//221
f 183//215 188//221 187//222
f 184//217 185//216 189//223
f 184//217 189//223 188//224
f 185//210 181//210 189//210
f 160//183 186//218 190//225
f 160//183 190//225 161//184
f 186//220 187//219 191//226
f 186//220 191//226 190//227
f 187//222 188//221 192//228
f 187//222 192//228 191//229
f 188//224 189//223 193//230
f 188//224 193//230 192//231
f 189//210 181//210 193//210
f 161//184 190//225 194//232
f 161//184 194//232 162//185
f 190//227 191//226 195//233
f 190//227 195//233 194//234
f 191//229 192//228 196//235
f 191//229 196//235 195//236
f 192//231 193//230 197//237
f 192//231 197//237 196//238
f 193//210 181//210 197//210
f 162//185 194//232 198//239
f 162//185 198//239 163//186
f 194//234 195//233 199//240
f 194//234 199//240 198//241
f 195//236 196//235 200//242
f 195//236 200//242 199//243
f 196//238 197//237 201//244
f 196//238 201//244 200//245
f 197//210 181//210 201//210
f 163//186 198//239 202//246
f 163//186 202//246 164//187
f 198//241 199//240 203//247
f 198//241 203//247 202//248
f 199//243 200//242 204//249
f 199//243 204//249 203//250
f 200//245 201//244 205//251
f 200//245 205//251 204//252
f 201//210 181//210 205//210
f 164//187 202//246 206//253
f 164//187 206//253 165//188
f 202//248 203//247 207//254
f 202//248 207//254 206//255
f 203//250 204//249 208//256
f 203//250 208//256 207//257
f 204//252 205//251 209//258
f 204//252 209//258 208//259
f 205//210 181//210 209//210
f 165//188 206//253 210//260
f 165//188 210//260 166//189
f 206//255 207//254 211//261
f 206//255 211//261 210//262
f 207//257 208//256 212//263
f 207//257 212//263 211//264
f 208//259 209//258 213//265
f 208//259 213//265 212//266
f 209//210 181//210 213//210
f 166//189 210//260 214//267
f 166//189 214//267 167//190
f 210//262 211//261 215//268
f 210//262 215//268 214//269
f 211//264 212//263 216//270
f 211//264 216//270 215//271
f 212//266 213//265 217//272
f 212//266 217//272 216//273
f 213//210 181//210 217//210
f 167//190 214//267 218//274
f 167//190 218//274 168//191
f 214//269 215//268 219//275
f 214//269 219//275 218//276
f 215//271 216//270 220//277
f 215//271 220//277 219//278
f 216//273 217//272 221//279
f 216//273 221//279 220//280
f 217//210 181//210 221//210
f 168//191 218//274 222//281
f 168//191 222//281 169//192
f 218//276 219//275 223//282
f 218//276 223//282 222//283
f 219//278 220//277 224//284
f 219//278 224//284 223//285
f 220//280 221//279 225//286
f 220//280 225//286 224//287
f 221//210 181//210 225//210
f 169//192 222//281 226//288
f 169//192 226//288 170//193
f 222//283 223//282 227//289
f 222//283 227//289 226//290
f 223//285 224//284 228//291
f 223//285 228//291 227//292
f 224//287 225//286 229//293
f 224//287 229//293 228//294
f 225//210 181//210 229//210
f 170//193 226//288 230//295
f 170//193 230//295 171//194
f 226//290 227//289 231//296
f 226//290 231//296 230//297
f 227//292 228//291 232//298
f 227//292 232//298 231//299
f 228//294 229//293 233//300
f 228//294 233//300 232//301
f 229//210 181//210 233//210
f 171//194 230//295 234//302
f 171//194 234//302 172//195
f 230//297 231//296 235//303
f 230//297 235//303 234//304
f 231//299 232//298 236//305
f 231//299 236//305 235//306
f 232//301 233//300 237//307
f 232//301 237//307 236//308
f 233//210 181//210 237//210
f 172//195 234//302 173//196
f 172//195 173//196 157//180
f 234//304 235//303 175//199
f 234//304 175//199 173//198
f 235//306 236//305 177//203
f 235//306 177//203 175//202
f 236//308 237//307 179//207
f 236//308 179//207 177//206
f 237//210 181//210 179//210
usemtl aluminium_shade
f 1//1 2//2 3//3
f 2//2 4//4 5//5
f 2//2 5//5 3//3
f 4//6 6//7 7//8
f 4//6 7//8 5//9
f 1//1 3//3 8//10
f 3//3 5//5 9//11
f 3//3 9//11 8//10
f 5//9 7//8 10//12
f 5//9 10//12 9//13
f 1//1 8//10 11//14
f 8//10 9//11 12//15
f 8//10 12//15 11//14
f 9//13 10//12 13//16
f 9//13 13//16 12//17
f 1//1 11//14 14//18
f 11//14 12//15 15//19
f 11//14 15//19 14//18
f 12//17 13//16 16//20
f 12//17 16//20 15//21
f 1//1 14//18 17//22
f 14//18 15//19 18//23
f 14//18 18//23 17//22
f 15//21 16//20 19//24
f 15//21 19//24 18//25
f 1//1 17//22 20//26
f 17//22 18//23 21//27
f 17//22 21//27 20//26
f 18//25 19//24 22//28
f 18//25 22//28 21//29
f 1//1 20//26 23//30
f 20//26 21//27 24//31
f 20//26 24//31 23//30
f 21//29 22//28 25//32
f 21//29 25//32 24//33
f 1//1 23//30 26//34
f 23//30 24//31 27//35
f 23//30 27//35 26//34
f 24//33 25//32 28//36
f 24//33 28//36 27//37
f 1//1 26//34 29//38
f 26//34 27//35 30//39
f 26//34 30//39 29//38
f 27//37 28//36 31//40
f 27//37 31//40 30//41
f 1//1 29//38 32//42
f 29//38 30//39 33//43
f 29//38 33//43 32//42
f 30//41 31//40 34//44
f 30//41 34//44 33//45
f 1//1 32//42 35//46
f 32//42 33//43 36//47
f 32//42 36//47 35//46
f 33//45 34//44 37//48
f 33//45 37//48 36//49
f 1//1 35//46 38//50
f 35//46 36//47 39//51
f 35//46 39//51 38//50
f 36//49 37//48 40//52
f 36//49 40//52 39//53
f 1//1 38//50 41//54
f 38//50 39//51 42//55
f 38//50 42//55 41//54
f 39//53 40//52 43//56
f 39//53 43//56 42//57
f 1//1 41//54 44//58
f 41//54 42//55 45//59
f 41//54 45//59 44//58
f 42//57 43//56 46//60
f 42//57 46//60 45//61
f 1//1 44//58 47//62
f 44//58 45//59 48//63
f 44//58 48//63 47//62
f 45//61 46//60 49//64
f 45//61 49//64 48//65
f 1//1 47//62 2//2
f 47//62 48//63 4//4
f 47//62 4//4 2//2
f 48//65 49//64 6//7
f 48//65 6//7 4//6
f 238//309 239//310 240//311
f 238//309 240//311 241//312
f 241//312 240//311 242//313
f 241//312 242//313 243//314
f 243//314 242//313 244//315
f 243//314 244//315 245//316
f 245//316 244//315 246//317
f 245//316 246//317 247//318
f 247//318 246//317 248//319
f 247//318 248//319 249//320
f 249//320 248//319 250//321
f 249//320 250//321 251//322
f 251//322 250//321 252//323
f 251//322 252//323 253//324
f 253//324 252//323 254//325
f 253//324 254//325 255//326
f 255//326 254//325 256//327
f 255//326 256//327 257//328
f 257//328 256//327 258//329
f 257//328 258//329 259//330
f 259//330 258//329 260//331
f 259//330 260//331 261//332
f 261//332 260//331 239//310
f 261//332 239//310 238//309
f 260//210 240//210 239//210
f 261//1 238//1 241//1
f 240//210 244//210 242//210
f 241//1 243//1 245//1
f 244//210 248//210 246//210
f 245//1 247//1 249//1
f 248//210 252//210 250//210
f 249//1 251//1 253//1
f 252//210 256//210 254//210
f 253//1 255//1 257//1
f 256//210 260//210 258//210
f 257//1 259//1 261//1
f 260//210 244//210 240//210
f 261//1 241//1 245//1
f 244//210 252//210 248//210
f 245//1 249//1 253//1
f 252//210 260//210 256//210
f 253//1 257//1 261//1
f 260//210 252//210 244//210
f 261//1 245//1 253//1
usemtl body_deep
f 6//7 50//66 51//67
f 6//7 51//67 7//8
f 7//8 51//67 52//68
f 7//8 52//68 10//12
f 10//12 52//68 53//69
f 10//12 53//69 13//16
f 13//16 53//69 54//70
f 13//16 54//70 16//20
f 16//20 54//70 55//71
f 16//20 55//71 19//24
f 19//24 55//71 56//72
f 19//24 56//72 22//28
f 22//28 56//72 57//73
f 22//28 57//73 25//32
f 25//32 57//73 58//74
f 25//32 58//74 28//36
f 28//36 58//74 59//75
f 28//36 59//75 31//40
f 31//40 59//75 60//76
f 31//40 60//76 34//44
f 34//44 60//76 61//77
f 34//44 61//77 37//48
f 37//48 61//77 62//78
f 37//48 62//78 40//52
f 40//52 62//78 63//79
f 40//52 63//79 43//56
f 43//56 63//79 64//80
f 43//56 64//80 46//60
f 46//60 64//80 65//81
f 46//60 65//81 49//64
f 49//64 65//81 50//66
f 49//64 50//66 6//7
f 77//82 78//100 79//101
f 77//82 79//101 75//94
f 75//99 79//101 85//107
f 75//99 85//107 84//106
f 84//106 85//107 91//109
f 84//106 91//109 90//108
f 90//108 91//109 97//115
f 90//108 97//115 96//114
f 96//114 97//115 103//121
f 96//114 103//121 102//120
f 102//120 103//121 108//133
f 102//120 108//133 107//132
f 107//132 108//133 113//142
f 107//132 113//142 112//139
f 112//147 113//142 118//149
f 112//147 118//149 117//148
f 117//148 118//149 123//151
f 117//148 123//151 122//150
f 122//150 123//151 128//153
f 122//150 128//153 127//152
f 127//152 128//153 133//155
f 127//152 133//155 132//154
f 132//154 133//155 138//157
f 132//154 138//157 137//156
f 137//156 138//157 143//159
f 137//156 143//159 142//158
f 142//158 143//159 148//164
f 142//158 148//164 147//163
f 147//163 148//164 156//172
f 147//163 156//172 155//171
f 155//171 156//172 78//100
f 155//171 78//100 77//82
f 78//100 157//180 158//181
f 78//100 158//181 79//101
f 79//101 158//181 159//182
f 79//101 159//182 85//107
f 85//107 159//182 160//183
f 85//107 160//183 91//109
f 91//109 160//183 161//184
f 91//109 161//184 97//115
f 97//115 161//184 162//185
f 97//115 162//185 103//121
f 103//121 162//185 163//186
f 103//121 163//186 108//133
f 108//133 163//186 164//187
f 108//133 164//187 113//142
f 113//142 164//187 165//188
f 113//142 165//188 118//149
f 118//149 165//188 166//189
f 118//149 166//189 123//151
f 123//151 166//189 167//190
f 123//151 167//190 128//153
f 128//153 167//190 168//191
f 128//153 168//191 133//155
f 133//155 168//191 169//192
f 133//155 169//192 138//157
f 138//157 169//192 170//193
f 138//157 170//193 143//159
f 143//159 170//193 171//194
f 143//159 171//194 148//164
f 148//164 171//194 172//195
f 148//164 172//195 156//172
f 156//172 172//195 157//180
f 156//172 157//180 78//100
usemtl body
f 72//92 74//93 75//94
f 72//95 75//96 73//97
f 76//98 77//82 75//94
f 73//104 75//99 84//106
f 73//104 84//106 83//105
f 83//105 84//106 90//108
f 83//105 90//108 89//108
f 89//108 90//108 96//114
f 89//108 96//114 95//113
f 95//113 96//114 102//120
f 95//113 102//120 101//119
f 101//131 102//120 107//132
f 101//129 107//132 106//130
f 106//130 107//132 112//139
f 106//140 112//141 111//137
f 111//145 112//147 117//148
f 111//145 117//148 116//146
f 116//146 117//148 122//150
f 116//146 122//150 121//150
f 121//150 122//150 127//152
f 121//150 127//152 126//152
f 126//152 127//152 132//154
f 126//152 132//154 131//154
f 131//154 132//154 137//156
f 131//154 137//156 136//156
f 136//156 137//156 142//158
f 136//156 142//158 141//158
f 141//158 142//158 147//163
f 141//158 147//163 146//162
f 146//162 147//163 153//169
f 146//162 153//169 152//168
f 147//163 155//171 154//170
f 152//176 153//178 74//93
f 152//176 74//93 72//177
f 154//170 155//171 77//82
f 154//170 77//82 76//98
usemtl body_bright
f 50//66 66//82 67//83
f 50//66 67//83 51//67
f 68//84 70//86 71//87
f 68//84 71//87 69//85
f 51//67 67//83 80//102
f 51//67 80//102 52//68
f 69//85 71//87 82//103
f 69//85 82//103 81//102
f 52//68 80//102 86//108
f 52//68 86//108 53//69
f 81//102 82//103 88//108
f 81//102 88//108 87//108
f 53//69 86//108 92//110
f 53//69 92//110 54//70
f 87//108 88//108 94//112
f 87//108 94//112 93//111
f 54//70 92//110 98//116
f 54//70 98//116 55//71
f 93//111 94//112 100//118
f 93//111 100//118 99//117
f 55//71 98//116 104//122
f 55//71 104//122 56//72
f 99//125 100//126 106//127
f 99//125 106//128 105//124
f 56//72 104//122 109//134
f 56//72 109//134 57//73
f 105//124 106//136 111//137
f 105//124 111//138 110//135
f 57//73 109//134 114//143
f 57//73 114//143 58//74
f 110//135 111//145 116//146
f 110//135 116//146 115//144
f 58//74 114//143 119//150
f 58//74 119//150 59//75
f 115//144 116//146 121//150
f 115//144 121//150 120//150
f 59//75 119//150 124//152
f 59//75 124//152 60//76
f 120//150 121//150 126//152
f 120//150 126//152 125//152
f 60//76 124//152 129//154
f 60//76 129//154 61//77
f 125//152 126//152 131//154
f 125//152 131//154 130//154
f 61//77 129//154 134//156
f 61//77 134//156 62//78
f 130//154 131//154 136//156
f 130//154 136//156 135//156
f 62//78 134//156 139//158
f 62//78 139//158 63//79
f 135//156 136//156 141//158
f 135//156 141//158 140//158
f 63//79 139//158 144//160
f 63//79 144//160 64//80
f 140//158 141//158 146//162
f 140//158 146//162 145//161
f 64//80 144//160 149//165
f 64//80 149//165 65//81
f 145//161 146//162 151//167
f 145//161 151//167 150//166
f 65//81 149//165 66//82
f 65//81 66//82 50//66
f 150//166 151//173 70//174
f 150//166 70//174 68//84
usemtl wave
f 66//82 68//84 69//85
f 66//82 69//85 67//83
f 67//83 69//85 81//102
f 67//83 81//102 80//102
f 80//102 81//102 87//108
f 80//102 87//108 86//108
f 86//108 87//108 93//111
f 86//108 93//111 92//110
f 92//110 93//111 99//117
f 92//110 99//117 98//116
f 98//116 99//123 105//124
f 98//116 105//124 104//122
f 104//122 105//124 110//135
f 104//122 110//135 109//134
f 109//134 110//135 115//144
f 109//134 115//144 114//143
f 114//143 115//144 120//150
f 114//143 120//150 119//150
f 119//150 120//150 125//152
f 119//150 125//152 124//152
f 124//152 125//152 130//154
f 124//152 130//154 129//154
f 129//154 130//154 135//156
f 129//154 135//156 134//156
f 134//156 135//156 140//158
f 134//156 140//158 139//158
f 139//158 140//158 145//161
f 139//158 145//161 144//160
f 144//160 145//161 150//166
f 144//160 150//166 149//165
f 149//165 150//166 68//84
f 149//165 68//84 66//82
usemtl sail
f 70//88 72//89 73//90
f 70//86 73//91 71//87
f 74//93 76//98 75//99
f 71//87 73//104 83//105
f 71//87 83//105 82//103
f 82//103 83//105 89//108
f 82//103 89//108 88//108
f 88//108 89//108 95//113
f 88//108 95//113 94//112
f 94//112 95//113 101//119
f 94//112 101//119 100//118
f 100//126 101//129 106//130
f 146//162 152//168 151//167
f 147//163 154//170 153//169
f 151//175 152//176 72//177
f 151//167 72//89 70//174
f 153//179 154//170 76//98
f 153//178 76//98 74//93
