# Generated by tools/models/generate_all.gd - DO NOT EDIT BY HAND.
# Change the generator and re-run:
#   godot --headless -s tools/models/generate_all.gd
mtllib proof_cylinder.mtl
o ProofCylinder
v 0.00000 0.00000 0.00000
v 0.50000 0.00000 0.00000
v 0.43301 0.00000 0.25000
v 0.50000 1.00000 0.00000
v 0.43301 1.00000 0.25000
v 0.00000 1.00000 0.00000
v 0.25000 0.00000 0.43301
v 0.25000 1.00000 0.43301
v 0.00000 0.00000 0.50000
v 0.00000 1.00000 0.50000
v -0.25000 0.00000 0.43301
v -0.25000 1.00000 0.43301
v -0.43301 0.00000 0.25000
v -0.43301 1.00000 0.25000
v -0.50000 0.00000 0.00000
v -0.50000 1.00000 0.00000
v -0.43301 0.00000 -0.25000
v -0.43301 1.00000 -0.25000
v -0.25000 0.00000 -0.43301
v -0.25000 1.00000 -0.43301
v 0.00000 0.00000 -0.50000
v 0.00000 1.00000 -0.50000
v 0.25000 0.00000 -0.43301
v 0.25000 1.00000 -0.43301
v 0.43301 0.00000 -0.25000
v 0.43301 1.00000 -0.25000
vn 0.00000 -1.00000 0.00000
vn 1.00000 0.00000 0.00000
vn 0.86603 0.00000 0.50000
vn 0.00000 1.00000 0.00000
vn 0.50000 0.00000 0.86603
vn 0.00000 0.00000 1.00000
vn -0.50000 0.00000 0.86603
vn -0.86603 0.00000 0.50000
vn -1.00000 0.00000 0.00000
vn -0.86603 0.00000 -0.50000
vn -0.50000 0.00000 -0.86603
vn 0.00000 0.00000 -1.00000
vn 0.50000 0.00000 -0.86603
vn 0.86603 0.00000 -0.50000
usemtl defense
f 1//1 2//1 3//1
f 2//2 4//2 5//3
f 2//2 5//3 3//3
f 4//4 6//4 5//4
f 1//1 3//1 7//1
f 3//3 5//3 8//5
f 3//3 8//5 7//5
f 5//4 6//4 8//4
f 1//1 7//1 9//1
f 7//5 8//5 10//6
f 7//5 10//6 9//6
f 8//4 6//4 10//4
f 1//1 9//1 11//1
f 9//6 10//6 12//7
f 9//6 12//7 11//7
f 10//4 6//4 12//4
f 1//1 11//1 13//1
f 11//7 12//7 14//8
f 11//7 14//8 13//8
f 12//4 6//4 14//4
f 1//1 13//1 15//1
f 13//8 14//8 16//9
f 13//8 16//9 15//9
f 14//4 6//4 16//4
f 1//1 15//1 17//1
f 15//9 16//9 18//10
f 15//9 18//10 17//10
f 16//4 6//4 18//4
f 1//1 17//1 19//1
f 17//10 18//10 20//11
f 17//10 20//11 19//11
f 18//4 6//4 20//4
f 1//1 19//1 21//1
f 19//11 20//11 22//12
f 19//11 22//12 21//12
f 20//4 6//4 22//4
f 1//1 21//1 23//1
f 21//12 22//12 24//13
f 21//12 24//13 23//13
f 22//4 6//4 24//4
f 1//1 23//1 25//1
f 23//13 24//13 26//14
f 23//13 26//14 25//14
f 24//4 6//4 26//4
f 1//1 25//1 2//1
f 25//14 26//14 4//2
f 25//14 4//2 2//2
f 26//4 6//4 4//4
