# Generated by tools/models/generate_all.gd - DO NOT EDIT BY HAND.
# Change the generator and re-run:
#   godot --headless -s tools/models/generate_all.gd
mtllib tsinelas_sike.mtl
o Tsinelas
v 0.03375 -0.04027 -0.19458
v 0.03375 -0.02107 -0.19458
v 0.07881 -0.02107 -0.10729
v 0.07881 -0.04027 -0.10729
v 0.06473 -0.02107 -0.01154
v 0.06473 -0.04027 -0.01154
v 0.07317 -0.02107 0.11095
v 0.07317 -0.04027 0.11095
v 0.03657 -0.02107 0.15404
v 0.03657 -0.04027 0.15404
v -0.00004 -0.02107 0.16164
v -0.00004 -0.04027 0.16164
v -0.03665 -0.02107 0.15404
v -0.03665 -0.04027 0.15404
v -0.07326 -0.02107 0.11095
v -0.07326 -0.04027 0.11095
v -0.06481 -0.02107 -0.01154
v -0.06481 -0.04027 -0.01154
v -0.07889 -0.02107 -0.10729
v -0.07889 -0.04027 -0.10729
v -0.03383 -0.02107 -0.19458
v -0.03383 -0.04027 -0.19458
v -0.00004 -0.02107 -0.21289
v -0.00004 -0.04027 -0.21289
v 0.03836 -0.02107 -0.21762
v 0.03836 0.00773 -0.21762
v 0.08956 0.00773 -0.11842
v 0.08956 -0.02107 -0.11842
v 0.07356 0.00773 -0.00962
v 0.07356 -0.02107 -0.00962
v 0.08316 0.00773 0.12958
v 0.08316 -0.02107 0.12958
v 0.04156 0.00773 0.17854
v 0.04156 -0.02107 0.17854
v -0.00004 0.00773 0.18718
v -0.00004 -0.02107 0.18718
v -0.04164 0.00773 0.17854
v -0.04164 -0.02107 0.17854
v -0.08324 0.00773 0.12958
v -0.08324 -0.02107 0.12958
v -0.07364 0.00773 -0.00962
v -0.07364 -0.02107 -0.00962
v -0.08964 0.00773 -0.11842
v -0.08964 -0.02107 -0.11842
v -0.03844 0.00773 -0.21762
v -0.03844 -0.02107 -0.21762
v -0.00004 0.00773 -0.23842
v -0.00004 -0.02107 -0.23842
v 0.03644 0.00773 -0.20802
v 0.03644 0.01893 -0.20802
v 0.08508 0.01893 -0.11378
v 0.08508 0.00773 -0.11378
v 0.06988 0.01893 -0.01042
v 0.06988 0.00773 -0.01042
v 0.07900 0.01893 0.12182
v 0.07900 0.00773 0.12182
v 0.03948 0.01893 0.16833
v 0.03948 0.00773 0.16833
v -0.00004 0.01893 0.17654
v -0.00004 0.00773 0.17654
v -0.03956 0.01893 0.16833
v -0.03956 0.00773 0.16833
v -0.07908 0.01893 0.12182
v -0.07908 0.00773 0.12182
v -0.06996 0.01893 -0.01042
v -0.06996 0.00773 -0.01042
v -0.08516 0.01893 -0.11378
v -0.08516 0.00773 -0.11378
v -0.03652 0.01893 -0.20802
v -0.03652 0.00773 -0.20802
v -0.00004 0.01893 -0.22778
v -0.00004 0.00773 -0.22778
v 0.07817 0.01509 0.12026
v 0.07817 0.04613 0.12026
v 0.03906 0.04613 0.16629
v 0.03906 0.01509 0.16629
v -0.00004 0.04613 0.17441
v -0.00004 0.01509 0.17441
v -0.03915 0.04613 0.16629
v -0.03915 0.01509 0.16629
v -0.07825 0.04613 0.12026
v -0.07825 0.01509 0.12026
v 0.09083 0.01983 0.02078
v 0.06649 0.05375 0.02078
v 0.06649 0.05375 0.11998
v 0.09083 0.01983 0.11998
v 0.05000 0.03956 0.11998
v 0.07229 0.00844 0.11998
v 0.05000 0.03956 0.02078
v 0.07229 0.00844 0.02078
v 0.04115 0.07726 0.02078
v 0.04115 0.07726 0.11998
v 0.02871 0.05941 0.11998
v 0.02871 0.05941 0.02078
v 0.01408 0.08977 0.02078
v 0.01408 0.08977 0.11998
v 0.00915 0.06858 0.11998
v 0.00915 0.06858 0.02078
v -0.01416 0.08977 0.02078
v -0.01416 0.08977 0.11998
v -0.00923 0.06858 0.11998
v -0.00923 0.06858 0.02078
v -0.04124 0.07726 0.02078
v -0.04124 0.07726 0.11998
v -0.02879 0.05941 0.11998
v -0.02879 0.05941 0.02078
v -0.06658 0.05375 0.02078
v -0.06658 0.05375 0.11998
v -0.05008 0.03956 0.11998
v -0.05008 0.03956 0.02078
v -0.09091 0.01983 0.02078
v -0.09091 0.01983 0.11998
v -0.07237 0.00844 0.11998
v -0.07237 0.00844 0.02078
vt 0.55293 0.23534
vt 0.62351 0.37208
vt 0.60145 0.52206
vt 0.61469 0.71393
vt 0.55734 0.78142
vt 0.50000 0.79333
vt 0.44266 0.78142
vt 0.38531 0.71393
vt 0.39855 0.52206
vt 0.37649 0.37208
vt 0.44707 0.23534
vt 0.50000 0.20667
vt 0.50000 0.09259
vt 0.67154 0.32233
vt 0.57352 0.13241
vt 0.64091 0.53063
vt 0.57964 0.89087
vt 0.65929 0.79713
vt 0.42036 0.89087
vt 0.50000 0.90741
vt 0.35909 0.53063
vt 0.34071 0.79713
vt 0.42648 0.13241
vt 0.32846 0.32233
vt 0.56015 0.19925
vt 0.64035 0.35464
vt 0.61529 0.52506
vt 0.63033 0.74311
vt 0.56516 0.81980
vt 0.50000 0.83333
vt 0.43484 0.81980
vt 0.36967 0.74311
vt 0.38471 0.52506
vt 0.35965 0.35464
vt 0.43985 0.19925
vt 0.50000 0.16667
vt 0.50000 0.03704
vt 0.69493 0.29811
vt 0.58354 0.08229
vt 0.66012 0.53481
vt 0.59050 0.94417
vt 0.68101 0.83765
vt 0.40950 0.94417
vt 0.50000 0.96296
vt 0.33988 0.53481
vt 0.31899 0.83765
vt 0.41646 0.08229
vt 0.30507 0.29811
vt 0.55714 0.21429
vt 0.63333 0.36190
vt 0.60952 0.52381
vt 0.62381 0.73095
vt 0.56190 0.80381
vt 0.50000 0.81667
vt 0.43810 0.80381
vt 0.37619 0.73095
vt 0.39048 0.52381
vt 0.36667 0.36190
vt 0.44286 0.21429
vt 0.50000 0.18333
vt 0.50000 0.06019
vt 0.68519 0.30820
vt 0.57937 0.10317
vt 0.65212 0.53307
vt 0.58598 0.92196
vt 0.67196 0.82077
vt 0.41402 0.92196
vt 0.50000 0.93981
vt 0.34788 0.53307
vt 0.32804 0.82077
vt 0.42063 0.10317
vt 0.31481 0.30820
vt 0.62251 0.72852
vt 0.56125 0.80061
vt 0.50000 0.81333
vt 0.43875 0.80061
vt 0.37749 0.72852
vt 0.32985 0.81739
vt 0.58507 0.91752
vt 0.67015 0.81739
vt 0.41493 0.91752
vt 0.50000 0.93519
vt 0.63847 0.70886
vt 0.59891 0.70886
vt 0.55934 0.70886
vt 0.51978 0.70886
vt 0.48022 0.70886
vt 0.44066 0.70886
vt 0.40109 0.70886
vt 0.36153 0.70886
vt 0.00000 0.00000
vn 0.78192 0.00000 -0.62337
vn 0.63885 0.00000 -0.76933
vn 0.96322 0.00000 -0.26871
vn 0.99829 0.00000 -0.05837
vn 0.99723 0.00000 0.07444
vn 1.00000 0.00000 0.00264
vn 0.99763 0.00000 -0.06880
vn 0.76206 0.00000 0.64750
vn 0.60489 0.00000 0.79631
vn 0.40926 0.00000 0.91242
vn 0.06907 0.00000 0.99761
vn -0.06907 0.00000 0.99761
vn -0.40926 0.00000 0.91242
vn -0.60489 0.00000 0.79631
vn -0.76206 0.00000 0.64750
vn -0.99763 0.00000 -0.06880
vn -1.00000 0.00000 0.00264
vn -0.99723 0.00000 0.07444
vn -0.99829 0.00000 -0.05837
vn -0.96322 0.00000 -0.26871
vn -0.78192 0.00000 -0.62337
vn -0.63885 0.00000 -0.76933
vn -0.47628 0.00000 -0.87929
vn 0.47628 0.00000 -0.87929
vn 0.00000 1.00000 0.00000
vn 0.00000 -1.00000 0.00000
vn 0.00000 0.00000 -1.00000
vn 0.81253 0.58292 0.00000
vn 0.72753 0.68607 0.00000
vn 0.77185 0.63580 0.00000
vn 0.00000 0.00000 1.00000
vn -0.81297 -0.58231 0.00000
vn -0.72885 -0.68468 0.00000
vn -0.77270 -0.63477 0.00000
vn 0.51206 0.85895 0.00000
vn 0.59990 0.80008 0.00000
vn -0.51589 -0.85666 0.00000
vn -0.60266 -0.79800 0.00000
vn 0.14281 0.98975 0.00000
vn 0.28563 0.95834 0.00000
vn -0.14457 -0.98950 0.00000
vn -0.28913 -0.95729 0.00000
vn -0.28563 0.95834 0.00000
vn -0.14281 0.98975 0.00000
vn 0.28913 -0.95729 0.00000
vn 0.14457 -0.98950 0.00000
vn -0.59990 0.80008 0.00000
vn -0.51206 0.85895 0.00000
vn 0.60266 -0.79800 0.00000
vn 0.51589 -0.85666 0.00000
vn -0.77185 0.63580 0.00000
vn -0.72753 0.68607 0.00000
vn 0.77270 -0.63477 0.00000
vn 0.72885 -0.68468 0.00000
vn -0.81253 0.58292 0.00000
vn 0.81297 -0.58231 0.00000
vn -0.52352 0.85201 0.00000
usemtl skin
f 1/1/1 2/1/2 3/2/3
f 1/1/1 3/2/3 4/2/4
f 4/2/4 3/2/3 5/3/5
f 4/2/4 5/3/5 6/3/6
f 6/3/6 5/3/5 7/4/7
f 6/3/6 7/4/7 8/4/7
f 8/4/8 7/4/8 9/5/9
f 8/4/8 9/5/9 10/5/10
f 10/5/10 9/5/9 11/6/11
f 10/5/10 11/6/11 12/6/12
f 12/6/12 11/6/11 13/7/13
f 12/6/12 13/7/13 14/7/14
f 14/7/14 13/7/13 15/8/15
f 14/7/14 15/8/15 16/8/15
f 16/8/16 15/8/16 17/9/17
f 16/8/16 17/9/17 18/9/18
f 18/9/18 17/9/17 19/10/19
f 18/9/18 19/10/19 20/10/20
f 20/10/20 19/10/19 21/11/21
f 20/10/20 21/11/21 22/11/22
f 22/11/22 21/11/21 23/12/23
f 22/11/22 23/12/23 24/12/23
f 24/12/24 23/12/24 2/1/2
f 24/12/24 2/1/2 1/1/1
f 23/13/25 3/14/25 2/15/25
f 24/13/26 1/15/26 4/14/26
f 5/16/25 9/17/25 7/18/25
f 6/16/26 8/18/26 10/17/26
f 9/17/25 13/19/25 11/20/25
f 10/17/26 12/20/26 14/19/26
f 13/19/25 17/21/25 15/22/25
f 14/19/26 16/22/26 18/21/26
f 17/21/25 21/23/25 19/24/25
f 18/21/26 20/24/26 22/23/26
f 21/23/25 3/14/25 23/13/25
f 22/23/26 24/13/26 4/14/26
f 3/14/25 9/17/25 5/16/25
f 4/14/26 6/16/26 10/17/26
f 9/17/25 17/21/25 13/19/25
f 10/17/26 14/19/26 18/21/26
f 17/21/25 3/14/25 21/23/25
f 18/21/26 22/23/26 4/14/26
f 3/14/25 17/21/25 9/17/25
f 4/14/26 10/17/26 18/21/26
f 25/25/1 26/25/2 27/26/3
f 25/25/1 27/26/3 28/26/4
f 28/26/4 27/26/3 29/27/5
f 28/26/4 29/27/5 30/27/6
f 30/27/6 29/27/5 31/28/7
f 30/27/6 31/28/7 32/28/7
f 32/28/8 31/28/8 33/29/9
f 32/28/8 33/29/9 34/29/10
f 34/29/10 33/29/9 35/30/11
f 34/29/10 35/30/11 36/30/12
f 36/30/12 35/30/11 37/31/13
f 36/30/12 37/31/13 38/31/14
f 38/31/14 37/31/13 39/32/15
f 38/31/14 39/32/15 40/32/15
f 40/32/16 39/32/16 41/33/17
f 40/32/16 41/33/17 42/33/18
f 42/33/18 41/33/17 43/34/19
f 42/33/18 43/34/19 44/34/20
f 44/34/20 43/34/19 45/35/21
f 44/34/20 45/35/21 46/35/22
f 46/35/22 45/35/21 47/36/23
f 46/35/22 47/36/23 48/36/23
f 48/36/24 47/36/24 26/25/2
f 48/36/24 26/25/2 25/25/1
f 47/37/25 27/38/25 26/39/25
f 48/37/26 25/39/26 28/38/26
f 29/40/25 33/41/25 31/42/25
f 30/40/26 32/42/26 34/41/26
f 33/41/25 37/43/25 35/44/25
f 34/41/26 36/44/26 38/43/26
f 37/43/25 41/45/25 39/46/25
f 38/43/26 40/46/26 42/45/26
f 41/45/25 45/47/25 43/48/25
f 42/45/26 44/48/26 46/47/26
f 45/47/25 27/38/25 47/37/25
f 46/47/26 48/37/26 28/38/26
f 27/38/25 33/41/25 29/40/25
f 28/38/26 30/40/26 34/41/26
f 33/41/25 41/45/25 37/43/25
f 34/41/26 38/43/26 42/45/26
f 41/45/25 27/38/25 45/47/25
f 42/45/26 46/47/26 28/38/26
f 27/38/25 41/45/25 33/41/25
f 28/38/26 34/41/26 42/45/26
f 49/49/1 50/49/2 51/50/3
f 49/49/1 51/50/3 52/50/4
f 52/50/4 51/50/3 53/51/5
f 52/50/4 53/51/5 54/51/6
f 54/51/6 53/51/5 55/52/7
f 54/51/6 55/52/7 56/52/7
f 56/52/8 55/52/8 57/53/9
f 56/52/8 57/53/9 58/53/10
f 58/53/10 57/53/9 59/54/11
f 58/53/10 59/54/11 60/54/12
f 60/54/12 59/54/11 61/55/13
f 60/54/12 61/55/13 62/55/14
f 62/55/14 61/55/13 63/56/15
f 62/55/14 63/56/15 64/56/15
f 64/56/16 63/56/16 65/57/17
f 64/56/16 65/57/17 66/57/18
f 66/57/18 65/57/17 67/58/19
f 66/57/18 67/58/19 68/58/20
f 68/58/20 67/58/19 69/59/21
f 68/58/20 69/59/21 70/59/22
f 70/59/22 69/59/21 71/60/23
f 70/59/22 71/60/23 72/60/23
f 72/60/24 71/60/24 50/49/2
f 72/60/24 50/49/2 49/49/1
f 71/61/25 51/62/25 50/63/25
f 72/61/26 49/63/26 52/62/26
f 53/64/25 57/65/25 55/66/25
f 54/64/26 56/66/26 58/65/26
f 57/65/25 61/67/25 59/68/25
f 58/65/26 60/68/26 62/67/26
f 61/67/25 65/69/25 63/70/25
f 62/67/26 64/70/26 66/69/26
f 65/69/25 69/71/25 67/72/25
f 66/69/26 68/72/26 70/71/26
f 69/71/25 51/62/25 71/61/25
f 70/71/26 72/61/26 52/62/26
f 51/62/25 57/65/25 53/64/25
f 52/62/26 54/64/26 58/65/26
f 57/65/25 65/69/25 61/67/25
f 58/65/26 62/67/26 66/69/26
f 65/69/25 51/62/25 69/71/25
f 66/69/26 70/71/26 52/62/26
f 51/62/25 65/69/25 57/65/25
f 52/62/26 58/65/26 66/69/26
f 73/73/8 74/73/8 75/74/9
f 73/73/8 75/74/9 76/74/10
f 76/74/10 75/74/9 77/75/11
f 76/74/10 77/75/11 78/75/12
f 78/75/12 77/75/11 79/76/13
f 78/75/12 79/76/13 80/76/14
f 80/76/14 79/76/13 81/77/15
f 80/76/14 81/77/15 82/77/15
f 82/77/27 81/77/27 74/73/27
f 82/77/27 74/73/27 73/73/27
f 81/78/25 75/79/25 74/80/25
f 82/78/26 73/80/26 76/79/26
f 75/79/25 79/81/25 77/82/25
f 76/79/26 78/82/26 80/81/26
f 79/81/25 75/79/25 81/78/25
f 80/81/26 82/78/26 76/79/26
f 83/83/28 84/84/29 85/84/30
f 83/83/28 85/84/30 86/83/28
f 86/83/31 85/84/31 87/84/31
f 86/83/31 87/84/31 88/83/31
f 88/83/32 87/84/33 89/84/34
f 88/83/32 89/84/34 90/83/32
f 90/83/27 89/84/27 84/84/27
f 90/83/27 84/84/27 83/83/27
f 84/84/29 91/85/35 92/85/36
f 84/84/29 92/85/36 85/84/30
f 85/84/31 92/85/31 93/85/31
f 85/84/31 93/85/31 87/84/31
f 87/84/33 93/85/37 94/85/38
f 87/84/33 94/85/38 89/84/34
f 89/84/27 94/85/27 91/85/27
f 89/84/27 91/85/27 84/84/27
f 91/85/35 95/86/39 96/86/40
f 91/85/35 96/86/40 92/85/36
f 92/85/31 96/86/31 97/86/31
f 92/85/31 97/86/31 93/85/31
f 93/85/37 97/86/41 98/86/42
f 93/85/37 98/86/42 94/85/38
f 94/85/27 98/86/27 95/86/27
f 94/85/27 95/86/27 91/85/27
f 95/86/39 99/87/43 100/87/44
f 95/86/39 100/87/44 96/86/40
f 96/86/31 100/87/31 101/87/31
f 96/86/31 101/87/31 97/86/31
f 97/86/41 101/87/45 102/87/46
f 97/86/41 102/87/46 98/86/42
f 98/86/27 102/87/27 99/87/27
f 98/86/27 99/87/27 95/86/27
f 99/87/43 103/88/47 104/88/48
f 99/87/43 104/88/48 100/87/44
f 100/87/31 104/88/31 105/88/31
f 100/87/31 105/88/31 101/87/31
f 101/87/45 105/88/49 106/88/50
f 101/87/45 106/88/50 102/87/46
f 102/87/27 106/88/27 103/88/27
f 102/87/27 103/88/27 99/87/27
f 103/88/47 107/89/51 108/89/52
f 103/88/47 108/89/52 104/88/48
f 104/88/31 108/89/31 109/89/31
f 104/88/31 109/89/31 105/88/31
f 105/88/49 109/89/53 110/89/54
f 105/88/49 110/89/54 106/88/50
f 106/88/27 110/89/27 107/89/27
f 106/88/27 107/89/27 103/88/27
f 107/89/51 111/90/55 112/90/55
f 107/89/51 112/90/55 108/89/52
f 108/89/31 112/90/31 113/90/31
f 108/89/31 113/90/31 109/89/31
f 109/89/53 113/90/56 114/90/56
f 109/89/53 114/90/56 110/89/54
f 110/89/27 114/90/27 111/90/27
f 110/89/27 111/90/27 107/89/27
f 90/83/57 88/83/57 86/83/57
f 90/83/57 86/83/57 83/83/57
