# Generated by tools/models/generate_all.gd - DO NOT EDIT BY HAND.
# Change the generator and re-run:
#   godot --headless -s tools/models/generate_all.gd
mtllib tsinelas.mtl
o Tsinelas
v 0.10000 0.00000 -0.62000
v 0.10000 0.10000 -0.62000
v 0.26000 0.10000 -0.30000
v 0.26000 0.00000 -0.30000
v 0.18000 0.10000 0.05000
v 0.18000 0.00000 0.05000
v 0.22000 0.10000 0.50000
v 0.22000 0.00000 0.50000
v 0.10000 0.10000 0.65000
v 0.10000 0.00000 0.65000
v 0.00000 0.10000 0.67500
v 0.00000 0.00000 0.67500
v -0.10000 0.10000 0.65000
v -0.10000 0.00000 0.65000
v -0.22000 0.10000 0.50000
v -0.22000 0.00000 0.50000
v -0.18000 0.10000 0.05000
v -0.18000 0.00000 0.05000
v -0.26000 0.10000 -0.30000
v -0.26000 0.00000 -0.30000
v -0.10000 0.10000 -0.62000
v -0.10000 0.00000 -0.62000
v 0.00000 0.10000 -0.67500
v 0.00000 0.00000 -0.67500
v 0.04500 0.10000 -0.55000
v 0.04500 0.16500 -0.55000
v 0.03182 0.16500 -0.51818
v 0.03182 0.10000 -0.51818
v 0.00000 0.16500 -0.50500
v 0.00000 0.10000 -0.50500
v -0.03182 0.16500 -0.51818
v -0.03182 0.10000 -0.51818
v -0.04500 0.16500 -0.55000
v -0.04500 0.10000 -0.55000
v -0.03182 0.16500 -0.58182
v -0.03182 0.10000 -0.58182
v 0.00000 0.16500 -0.59500
v 0.00000 0.10000 -0.59500
v 0.03182 0.16500 -0.58182
v 0.03182 0.10000 -0.58182
v -0.02746 0.10000 -0.53792
v 0.19254 0.10000 -0.03792
v 0.24746 0.10000 -0.06208
v 0.02746 0.10000 -0.56208
v -0.02746 0.10000 -0.56208
v -0.24746 0.10000 -0.06208
v -0.19254 0.10000 -0.03792
v 0.02746 0.10000 -0.53792
vn 0.78860 0.00000 -0.61491
vn 0.64534 0.00000 -0.76390
vn 0.97172 0.00000 -0.23614
vn 1.00000 0.00000 -0.00055
vn 0.99273 0.00000 0.12035
vn 0.99988 0.00000 0.01542
vn 0.99607 0.00000 -0.08854
vn 0.78087 0.00000 0.62470
vn 0.63078 0.00000 0.77596
vn 0.44258 0.00000 0.89673
vn 0.08305 0.00000 0.99655
vn -0.08305 0.00000 0.99655
vn -0.44258 0.00000 0.89673
vn -0.63078 0.00000 0.77596
vn -0.78087 0.00000 0.62470
vn -0.99607 0.00000 -0.08854
vn -0.99988 0.00000 0.01542
vn -0.99273 0.00000 0.12035
vn -1.00000 0.00000 -0.00055
vn -0.97172 0.00000 -0.23614
vn -0.78860 0.00000 -0.61491
vn -0.64534 0.00000 -0.76390
vn -0.48192 0.00000 -0.87622
vn 0.48192 0.00000 -0.87622
vn 0.00000 1.00000 0.00000
vn 0.00000 -1.00000 0.00000
vn 0.92388 0.00000 0.38268
vn 0.38268 0.00000 0.92388
vn -0.38268 0.00000 0.92388
vn -0.92388 0.00000 0.38268
vn -0.92388 0.00000 -0.38268
vn -0.38268 0.00000 -0.92388
vn 0.38268 0.00000 -0.92388
vn 0.92388 0.00000 -0.38268
usemtl defense
f 1//1 2//2 3//3
f 1//1 3//3 4//4
f 4//4 3//3 5//5
f 4//4 5//5 6//6
f 6//6 5//5 7//7
f 6//6 7//7 8//7
f 8//8 7//8 9//9
f 8//8 9//9 10//10
f 10//10 9//9 11//11
f 10//10 11//11 12//12
f 12//12 11//11 13//13
f 12//12 13//13 14//14
f 14//14 13//13 15//15
f 14//14 15//15 16//15
f 16//16 15//16 17//17
f 16//16 17//17 18//18
f 18//18 17//17 19//19
f 18//18 19//19 20//20
f 20//20 19//19 21//21
f 20//20 21//21 22//22
f 22//22 21//21 23//23
f 22//22 23//23 24//23
f 24//24 23//24 2//2
f 24//24 2//2 1//1
f 23//25 3//25 2//25
f 24//26 1//26 4//26
f 5//25 9//25 7//25
f 6//26 8//26 10//26
f 9//25 13//25 11//25
f 10//26 12//26 14//26
f 13//25 17//25 15//25
f 14//26 16//26 18//26
f 17//25 21//25 19//25
f 18//26 20//26 22//26
f 21//25 3//25 23//25
f 22//26 24//26 4//26
f 5//25 13//25 9//25
f 6//26 10//26 14//26
f 13//25 21//25 17//25
f 14//26 18//26 22//26
f 21//25 5//25 3//25
f 22//26 4//26 6//26
f 5//25 21//25 13//25
f 6//26 14//26 22//26
usemtl impact
f 41//25 42//25 43//25
f 41//25 43//25 44//25
f 45//25 46//25 47//25
f 45//25 47//25 48//25
usemtl highlight
f 25//27 26//27 27//27
f 25//27 27//27 28//27
f 28//28 27//28 29//28
f 28//28 29//28 30//28
f 30//29 29//29 31//29
f 30//29 31//29 32//29
f 32//30 31//30 33//30
f 32//30 33//30 34//30
f 34//31 33//31 35//31
f 34//31 35//31 36//31
f 36//32 35//32 37//32
f 36//32 37//32 38//32
f 38//33 37//33 39//33
f 38//33 39//33 40//33
f 40//34 39//34 26//34
f 40//34 26//34 25//34
f 39//25 27//25 26//25
f 40//26 25//26 28//26
f 27//25 31//25 29//25
f 28//26 30//26 32//26
f 31//25 35//25 33//25
f 32//26 34//26 36//26
f 35//25 39//25 37//25
f 36//26 38//26 40//26
f 39//25 31//25 27//25
f 40//26 28//26 32//26
f 31//25 39//25 35//25
f 32//26 36//26 40//26
