# Generated by tools/models/generate_all.gd - DO NOT EDIT BY HAND.
# Change the generator and re-run:
#   godot --headless -s tools/models/generate_all.gd
mtllib tsinelas_tsinelas.mtl
o Tsinelas
v 0.02811 -0.03788 -0.17305
v 0.02811 -0.02668 -0.17305
v 0.07316 -0.02668 -0.08294
v 0.07316 -0.03788 -0.08294
v 0.05064 -0.02668 0.01562
v 0.05064 -0.03788 0.01562
v 0.06190 -0.02668 0.14234
v 0.06190 -0.03788 0.14234
v 0.02811 -0.02668 0.18458
v 0.02811 -0.03788 0.18458
v -0.00005 -0.02668 0.19162
v -0.00005 -0.03788 0.19162
v -0.02821 -0.02668 0.18458
v -0.02821 -0.03788 0.18458
v -0.06200 -0.02668 0.14234
v -0.06200 -0.03788 0.14234
v -0.05074 -0.02668 0.01562
v -0.05074 -0.03788 0.01562
v -0.07327 -0.02668 -0.08294
v -0.07327 -0.03788 -0.08294
v -0.02821 -0.02668 -0.17305
v -0.02821 -0.03788 -0.17305
v -0.00005 -0.02668 -0.18854
v -0.00005 -0.03788 -0.18854
v 0.03195 -0.02668 -0.19686
v 0.03195 0.00052 -0.19686
v 0.08315 0.00052 -0.09446
v 0.08315 -0.02668 -0.09446
v 0.05755 0.00052 0.01754
v 0.05755 -0.02668 0.01754
v 0.07035 0.00052 0.16154
v 0.07035 -0.02668 0.16154
v 0.03195 0.00052 0.20954
v 0.03195 -0.02668 0.20954
v -0.00005 0.00052 0.21754
v -0.00005 -0.02668 0.21754
v -0.03205 0.00052 0.20954
v -0.03205 -0.02668 0.20954
v -0.07045 0.00052 0.16154
v -0.07045 -0.02668 0.16154
v -0.05765 0.00052 0.01754
v -0.05765 -0.02668 0.01754
v -0.08325 0.00052 -0.09446
v -0.08325 -0.02668 -0.09446
v -0.03205 0.00052 -0.19686
v -0.03205 -0.02668 -0.19686
v -0.00005 0.00052 -0.21446
v -0.00005 -0.02668 -0.21446
v 0.03003 0.00052 -0.18495
v 0.03003 0.01492 -0.18495
v 0.07816 0.01492 -0.08870
v 0.07816 0.00052 -0.08870
v 0.05409 0.01492 0.01658
v 0.05409 0.00052 0.01658
v 0.06612 0.01492 0.15194
v 0.06612 0.00052 0.15194
v 0.03003 0.01492 0.19706
v 0.03003 0.00052 0.19706
v -0.00005 0.01492 0.20458
v -0.00005 0.00052 0.20458
v -0.03013 0.01492 0.19706
v -0.03013 0.00052 0.19706
v -0.06623 0.01492 0.15194
v -0.06623 0.00052 0.15194
v -0.05420 0.01492 0.01658
v -0.05420 0.00052 0.01658
v -0.07826 0.01492 -0.08870
v -0.07826 0.00052 -0.08870
v -0.03013 0.01492 -0.18495
v -0.03013 0.00052 -0.18495
v -0.00005 0.01492 -0.20150
v -0.00005 0.00052 -0.20150
v 0.01595 0.01492 -0.17446
v 0.01595 0.04852 -0.17446
v 0.01126 0.04852 -0.16314
v 0.01126 0.01492 -0.16314
v -0.00005 0.04852 -0.15846
v -0.00005 0.01492 -0.15846
v -0.01137 0.04852 -0.16314
v -0.01137 0.01492 -0.16314
v -0.01605 0.04852 -0.17446
v -0.01605 0.01492 -0.17446
v -0.01137 0.04852 -0.18577
v -0.01137 0.01492 -0.18577
v -0.00005 0.04852 -0.19046
v -0.00005 0.01492 -0.19046
v 0.01126 0.04852 -0.18577
v 0.01126 0.01492 -0.18577
v 0.07381 0.01283 0.08544
v 0.07174 0.05408 0.05264
v 0.03354 0.05408 0.05652
v 0.03545 0.01283 0.08715
v 0.03238 0.04388 0.04510
v 0.03488 0.00421 0.07445
v 0.07058 0.04388 0.04122
v 0.07324 0.00421 0.07273
v 0.06765 0.08585 0.01869
v 0.02971 0.08585 0.02458
v 0.02824 0.07382 0.01513
v 0.06619 0.07382 0.00925
v 0.06148 0.10800 -0.01653
v 0.02387 0.10800 -0.00879
v 0.02252 0.09418 -0.01534
v 0.06013 0.09418 -0.02309
v 0.05320 0.12029 -0.05298
v 0.01599 0.12029 -0.04353
v 0.01526 0.10521 -0.04637
v 0.05248 0.10521 -0.05582
v 0.04286 0.12246 -0.09036
v 0.00608 0.12246 -0.07934
v 0.00641 0.10715 -0.07824
v 0.04319 0.10715 -0.08927
v 0.03059 0.11457 -0.12829
v -0.00573 0.11457 -0.11582
v -0.00419 0.09996 -0.11134
v 0.03213 0.09996 -0.12380
v 0.01653 0.09683 -0.16659
v -0.01931 0.09683 -0.15281
v -0.01663 0.08341 -0.14584
v 0.01921 0.08341 -0.15963
v -0.03556 0.01283 0.08715
v -0.03365 0.05408 0.05652
v -0.07185 0.05408 0.05264
v -0.07392 0.01283 0.08544
v -0.07069 0.04388 0.04122
v -0.07335 0.00421 0.07273
v -0.03249 0.04388 0.04510
v -0.03499 0.00421 0.07445
v -0.02981 0.08585 0.02458
v -0.06776 0.08585 0.01869
v -0.06629 0.07382 0.00925
v -0.02835 0.07382 0.01513
v -0.02398 0.10800 -0.00879
v -0.06159 0.10800 -0.01653
v -0.06024 0.09418 -0.02309
v -0.02263 0.09418 -0.01534
v -0.01609 0.12029 -0.04353
v -0.05331 0.12029 -0.05298
v -0.05259 0.10521 -0.05582
v -0.01537 0.10521 -0.04637
v -0.00618 0.12246 -0.07934
v -0.04296 0.12246 -0.09036
v -0.04329 0.10715 -0.08927
v -0.00651 0.10715 -0.07824
v 0.00562 0.11457 -0.11582
v -0.03070 0.11457 -0.12829
v -0.03224 0.09996 -0.12380
v 0.00408 0.09996 -0.11134
v 0.01921 0.09683 -0.15281
v -0.01663 0.09683 -0.16659
v -0.01931 0.08341 -0.15963
v 0.01653 0.08341 -0.14584
vt 0.54346 0.23057
vt 0.61299 0.36963
vt 0.57822 0.52173
vt 0.59560 0.71728
vt 0.54346 0.78247
vt 0.50000 0.79333
vt 0.45654 0.78247
vt 0.40440 0.71728
vt 0.42178 0.52173
vt 0.38701 0.36963
vt 0.45654 0.23057
vt 0.50000 0.20667
vt 0.50000 0.09259
vt 0.65693 0.31893
vt 0.56036 0.12579
vt 0.60864 0.53018
vt 0.56036 0.89232
vt 0.63278 0.80178
vt 0.43964 0.89232
vt 0.50000 0.90741
vt 0.39136 0.53018
vt 0.36722 0.80178
vt 0.43964 0.12579
vt 0.34307 0.31893
vt 0.54938 0.19383
vt 0.62840 0.35185
vt 0.58889 0.52469
vt 0.60864 0.74691
vt 0.54938 0.82099
vt 0.50000 0.83333
vt 0.45062 0.82099
vt 0.39136 0.74691
vt 0.41111 0.52469
vt 0.37160 0.35185
vt 0.45062 0.19383
vt 0.50000 0.16667
vt 0.50000 0.03704
vt 0.67833 0.29424
vt 0.56859 0.07476
vt 0.62346 0.53429
vt 0.56859 0.94582
vt 0.65089 0.84294
vt 0.43141 0.94582
vt 0.50000 0.96296
vt 0.37654 0.53429
vt 0.34911 0.84294
vt 0.43141 0.07476
vt 0.32167 0.29424
vt 0.54642 0.21220
vt 0.62069 0.36074
vt 0.58356 0.52321
vt 0.60212 0.73210
vt 0.54642 0.80173
vt 0.50000 0.81333
vt 0.45358 0.80173
vt 0.39788 0.73210
vt 0.41644 0.52321
vt 0.37931 0.36074
vt 0.45358 0.21220
vt 0.50000 0.18667
vt 0.50000 0.06481
vt 0.66763 0.30658
vt 0.56447 0.10027
vt 0.61605 0.53224
vt 0.56447 0.91907
vt 0.64184 0.82236
vt 0.43553 0.91907
vt 0.50000 0.93519
vt 0.38395 0.53224
vt 0.35816 0.82236
vt 0.43553 0.10027
vt 0.33237 0.30658
vt 0.52469 0.22840
vt 0.51746 0.24585
vt 0.50000 0.25309
vt 0.48254 0.24585
vt 0.47531 0.22840
vt 0.48254 0.21094
vt 0.50000 0.20370
vt 0.51746 0.21094
vt 0.52425 0.09852
vt 0.52425 0.14702
vt 0.53429 0.12277
vt 0.47575 0.14702
vt 0.50000 0.15706
vt 0.47575 0.09852
vt 0.46571 0.12277
vt 0.50000 0.08848
vt 0.61660 0.66804
vt 0.61170 0.60144
vt 0.60288 0.53294
vt 0.59014 0.46253
vt 0.57349 0.39022
vt 0.55291 0.31600
vt 0.52841 0.23989
vt 0.50000 0.16187
vt 0.38340 0.66804
vt 0.38830 0.60144
vt 0.39712 0.53294
vt 0.40986 0.46253
vt 0.42651 0.39022
vt 0.44709 0.31600
vt 0.47159 0.23989
vt 0.00000 0.00000
vn 0.78860 0.00000 -0.61491
vn 0.64534 0.00000 -0.76390
vn 0.97172 0.00000 -0.23614
vn 1.00000 0.00000 -0.00055
vn 0.99273 0.00000 0.12035
vn 0.99988 0.00000 0.01542
vn 0.99607 0.00000 -0.08854
vn 0.78087 0.00000 0.62470
vn 0.63078 0.00000 0.77596
vn 0.44258 0.00000 0.89673
vn 0.08305 0.00000 0.99655
vn -0.08305 0.00000 0.99655
vn -0.44258 0.00000 0.89673
vn -0.63078 0.00000 0.77596
vn -0.78087 0.00000 0.62470
vn -0.99607 0.00000 -0.08854
vn -0.99988 0.00000 0.01542
vn -0.99273 0.00000 0.12035
vn -1.00000 0.00000 -0.00055
vn -0.97172 0.00000 -0.23614
vn -0.78860 0.00000 -0.61491
vn -0.64534 0.00000 -0.76390
vn -0.48192 0.00000 -0.87622
vn 0.48192 0.00000 -0.87622
vn 0.00000 1.00000 0.00000
vn 0.00000 -1.00000 0.00000
vn 0.92388 0.00000 0.38268
vn 0.38268 0.00000 0.92388
vn -0.38268 0.00000 0.92388
vn -0.92388 0.00000 0.38268
vn -0.92388 0.00000 -0.38268
vn -0.38268 0.00000 -0.92388
vn 0.38268 0.00000 -0.92388
vn 0.92388 0.00000 -0.38268
vn 0.05748 0.61006 0.79027
vn 0.08499 0.69048 0.71834
vn 0.06211 0.64524 0.76145
vn 0.03589 0.59687 0.80154
vn -0.99741 -0.00125 0.07191
vn -0.99363 0.00454 0.11261
vn -0.99616 -0.00723 0.08728
vn -0.99811 -0.01991 0.05819
vn -0.05806 -0.60990 -0.79035
vn -0.08619 -0.68220 -0.72607
vn -0.06181 -0.65294 -0.75488
vn -0.03499 -0.62313 -0.78134
vn 0.99736 0.00077 -0.07259
vn 0.99326 -0.00185 -0.11589
vn 0.99636 0.00394 -0.08511
vn 0.99865 0.00945 -0.05112
vn 0.09859 0.80948 0.57881
vn 0.08679 0.76332 0.64017
vn -0.98671 0.00333 0.16246
vn -0.98984 -0.00675 0.14201
vn -0.10030 -0.80307 -0.58738
vn -0.08622 -0.76850 -0.63401
vn 0.98613 -0.00144 -0.16595
vn 0.99015 0.00423 -0.13996
vn 0.08348 0.92054 0.38161
vn 0.08588 0.88287 0.46169
vn -0.97794 0.00153 0.20887
vn -0.98129 -0.00550 0.19246
vn -0.08536 -0.91703 -0.38957
vn -0.08539 -0.88502 -0.45765
vn 0.97728 -0.00058 -0.21195
vn 0.98156 0.00403 -0.19109
vn 0.03608 0.98967 0.13873
vn 0.05278 0.97222 0.22804
vn -0.96762 -0.00041 0.25243
vn -0.97119 -0.00357 0.23827
vn -0.03735 -0.98893 -0.14361
vn -0.05284 -0.97237 -0.22737
vn 0.96712 0.00069 -0.25434
vn 0.97124 0.00301 -0.23809
vn -0.03524 0.99346 -0.10858
vn -0.00921 0.99957 -0.02782
vn -0.95600 -0.00189 0.29336
vn -0.96012 -0.00151 0.27958
vn 0.03521 -0.99352 0.10810
vn 0.00850 -0.99964 0.02559
vn 0.95588 0.00211 -0.29374
vn 0.95984 0.00133 -0.28055
vn -0.11379 0.94175 -0.31647
vn -0.08525 0.96276 -0.25655
vn -0.94349 -0.00257 0.33139
vn -0.94843 0.00012 0.31698
vn 0.11487 -0.94071 0.31916
vn 0.08410 -0.96383 0.25290
vn 0.94377 0.00321 -0.33058
vn 0.94788 -0.00042 -0.31862
vn -0.14312 0.91709 -0.37210
vn -0.13821 0.91451 -0.38022
vn -0.93759 -0.00671 0.34768
vn -0.93948 -0.00115 0.34259
vn 0.14767 -0.91147 0.38395
vn 0.13855 -0.91434 0.38051
vn 0.93920 0.00933 -0.34325
vn 0.93942 0.00163 -0.34277
vn -0.02509 0.82791 -0.56030
vn -0.05805 0.61005 0.79023
vn -0.08615 0.68250 0.72579
vn -0.06181 0.65295 0.75488
vn -0.03499 0.62299 0.78145
vn -0.99741 0.00131 -0.07192
vn -0.99364 -0.00462 -0.11251
vn -0.99615 0.00738 -0.08738
vn -0.99808 0.02043 -0.05854
vn 0.05748 -0.60990 -0.79039
vn 0.08498 -0.69048 -0.71834
vn 0.06214 -0.64475 -0.76187
vn 0.03592 -0.59593 -0.80223
vn 0.99736 -0.00073 0.07264
vn 0.99323 0.00165 0.11613
vn 0.99638 -0.00373 0.08497
vn 0.99868 -0.00869 0.05061
vn -0.10019 0.80350 0.58682
vn -0.08620 0.76856 0.63395
vn -0.98672 -0.00336 -0.16241
vn -0.98983 0.00684 -0.14207
vn 0.09859 -0.80943 -0.57889
vn 0.08687 -0.76278 -0.64080
vn 0.98610 0.00131 0.16617
vn 0.99016 -0.00409 0.13985
vn -0.08521 0.91733 0.38889
vn -0.08535 0.88512 0.45746
vn -0.97794 -0.00154 -0.20886
vn -0.98129 0.00553 -0.19248
vn 0.08348 -0.92053 -0.38164
vn 0.08599 -0.88250 -0.46238
vn 0.97724 0.00052 0.21212
vn 0.98157 -0.00396 0.19104
vn -0.03728 0.98897 0.14333
vn -0.05279 0.97241 0.22722
vn -0.96761 0.00041 -0.25244
vn -0.97119 0.00357 -0.23828
vn 0.03601 -0.98971 -0.13847
vn 0.05282 -0.97216 -0.22828
vn 0.96709 -0.00071 0.25443
vn 0.97124 -0.00299 0.23809
vn 0.03510 0.99356 -0.10778
vn 0.00847 0.99964 -0.02546
vn -0.95600 0.00190 -0.29335
vn -0.96012 0.00150 -0.27959
vn -0.03536 -0.99341 0.10900
vn -0.00933 -0.99956 0.02821
vn 0.95587 -0.00210 0.29377
vn 0.95983 -0.00133 0.28058
vn 0.11468 0.94091 -0.31864
vn 0.08400 0.96391 -0.25261
vn -0.94351 0.00260 -0.33135
vn -0.94842 -0.00012 -0.31701
vn -0.11389 -0.94164 0.31676
vn -0.08544 -0.96259 0.25713
vn 0.94377 -0.00320 0.33060
vn 0.94788 0.00043 0.31864
vn 0.14736 0.91186 -0.38314
vn 0.13841 0.91451 -0.38014
vn -0.93765 0.00680 -0.34752
vn -0.93949 0.00117 -0.34258
vn -0.14311 -0.91710 0.37209
vn -0.13834 -0.91434 0.38059
vn 0.93918 -0.00930 0.34330
vn 0.93941 -0.00162 0.34280
vn 0.02509 0.82791 -0.56030
usemtl skin
f 1/1/1 2/1/2 3/2/3
f 1/1/1 3/2/3 4/2/4
f 4/2/4 3/2/3 5/3/5
f 4/2/4 5/3/5 6/3/6
f 6/3/6 5/3/5 7/4/7
f 6/3/6 7/4/7 8/4/7
f 8/4/8 7/4/8 9/5/9
f 8/4/8 9/5/9 10/5/10
f 10/5/10 9/5/9 11/6/11
f 10/5/10 11/6/11 12/6/12
f 12/6/12 11/6/11 13/7/13
f 12/6/12 13/7/13 14/7/14
f 14/7/14 13/7/13 15/8/15
f 14/7/14 15/8/15 16/8/15
f 16/8/16 15/8/16 17/9/17
f 16/8/16 17/9/17 18/9/18
f 18/9/18 17/9/17 19/10/19
f 18/9/18 19/10/19 20/10/20
f 20/10/20 19/10/19 21/11/21
f 20/10/20 21/11/21 22/11/22
f 22/11/22 21/11/21 23/12/23
f 22/11/22 23/12/23 24/12/23
f 24/12/24 23/12/24 2/1/2
f 24/12/24 2/1/2 1/1/1
f 23/13/25 3/14/25 2/15/25
f 24/13/26 1/15/26 4/14/26
f 5/16/25 9/17/25 7/18/25
f 6/16/26 8/18/26 10/17/26
f 9/17/25 13/19/25 11/20/25
f 10/17/26 12/20/26 14/19/26
f 13/19/25 17/21/25 15/22/25
f 14/19/26 16/22/26 18/21/26
f 17/21/25 21/23/25 19/24/25
f 18/21/26 20/24/26 22/23/26
f 21/23/25 3/14/25 23/13/25
f 22/23/26 24/13/26 4/14/26
f 5/16/25 13/19/25 9/17/25
f 6/16/26 10/17/26 14/19/26
f 13/19/25 21/23/25 17/21/25
f 14/19/26 18/21/26 22/23/26
f 21/23/25 5/16/25 3/14/25
f 22/23/26 4/14/26 6/16/26
f 5/16/25 21/23/25 13/19/25
f 6/16/26 14/19/26 22/23/26
f 25/25/1 26/25/2 27/26/3
f 25/25/1 27/26/3 28/26/4
f 28/26/4 27/26/3 29/27/5
f 28/26/4 29/27/5 30/27/6
f 30/27/6 29/27/5 31/28/7
f 30/27/6 31/28/7 32/28/7
f 32/28/8 31/28/8 33/29/9
f 32/28/8 33/29/9 34/29/10
f 34/29/10 33/29/9 35/30/11
f 34/29/10 35/30/11 36/30/12
f 36/30/12 35/30/11 37/31/13
f 36/30/12 37/31/13 38/31/14
f 38/31/14 37/31/13 39/32/15
f 38/31/14 39/32/15 40/32/15
f 40/32/16 39/32/16 41/33/17
f 40/32/16 41/33/17 42/33/18
f 42/33/18 41/33/17 43/34/19
f 42/33/18 43/34/19 44/34/20
f 44/34/20 43/34/19 45/35/21
f 44/34/20 45/35/21 46/35/22
f 46/35/22 45/35/21 47/36/23
f 46/35/22 47/36/23 48/36/23
f 48/36/24 47/36/24 26/25/2
f 48/36/24 26/25/2 25/25/1
f 47/37/25 27/38/25 26/39/25
f 48/37/26 25/39/26 28/38/26
f 29/40/25 33/41/25 31/42/25
f 30/40/26 32/42/26 34/41/26
f 33/41/25 37/43/25 35/44/25
f 34/41/26 36/44/26 38/43/26
f 37/43/25 41/45/25 39/46/25
f 38/43/26 40/46/26 42/45/26
f 41/45/25 45/47/25 43/48/25
f 42/45/26 44/48/26 46/47/26
f 45/47/25 27/38/25 47/37/25
f 46/47/26 48/37/26 28/38/26
f 29/40/25 37/43/25 33/41/25
f 30/40/26 34/41/26 38/43/26
f 37/43/25 45/47/25 41/45/25
f 38/43/26 42/45/26 46/47/26
f 45/47/25 29/40/25 27/38/25
f 46/47/26 28/38/26 30/40/26
f 29/40/25 45/47/25 37/43/25
f 30/40/26 38/43/26 46/47/26
f 49/49/1 50/49/2 51/50/3
f 49/49/1 51/50/3 52/50/4
f 52/50/4 51/50/3 53/51/5
f 52/50/4 53/51/5 54/51/6
f 54/51/6 53/51/5 55/52/7
f 54/51/6 55/52/7 56/52/7
f 56/52/8 55/52/8 57/53/9
f 56/52/8 57/53/9 58/53/10
f 58/53/10 57/53/9 59/54/11
f 58/53/10 59/54/11 60/54/12
f 60/54/12 59/54/11 61/55/13
f 60/54/12 61/55/13 62/55/14
f 62/55/14 61/55/13 63/56/15
f 62/55/14 63/56/15 64/56/15
f 64/56/16 63/56/16 65/57/17
f 64/56/16 65/57/17 66/57/18
f 66/57/18 65/57/17 67/58/19
f 66/57/18 67/58/19 68/58/20
f 68/58/20 67/58/19 69/59/21
f 68/58/20 69/59/21 70/59/22
f 70/59/22 69/59/21 71/60/23
f 70/59/22 71/60/23 72/60/23
f 72/60/24 71/60/24 50/49/2
f 72/60/24 50/49/2 49/49/1
f 71/61/25 51/62/25 50/63/25
f 72/61/26 49/63/26 52/62/26
f 53/64/25 57/65/25 55/66/25
f 54/64/26 56/66/26 58/65/26
f 57/65/25 61/67/25 59/68/25
f 58/65/26 60/68/26 62/67/26
f 61/67/25 65/69/25 63/70/25
f 62/67/26 64/70/26 66/69/26
f 65/69/25 69/71/25 67/72/25
f 66/69/26 68/72/26 70/71/26
f 69/71/25 51/62/25 71/61/25
f 70/71/26 72/61/26 52/62/26
f 53/64/25 61/67/25 57/65/25
f 54/64/26 58/65/26 62/67/26
f 61/67/25 69/71/25 65/69/25
f 62/67/26 66/69/26 70/71/26
f 69/71/25 53/64/25 51/62/25
f 70/71/26 52/62/26 54/64/26
f 53/64/25 69/71/25 61/67/25
f 54/64/26 62/67/26 70/71/26
f 73/73/27 74/73/27 75/74/27
f 73/73/27 75/74/27 76/74/27
f 76/74/28 75/74/28 77/75/28
f 76/74/28 77/75/28 78/75/28
f 78/75/29 77/75/29 79/76/29
f 78/75/29 79/76/29 80/76/29
f 80/76/30 79/76/30 81/77/30
f 80/76/30 81/77/30 82/77/30
f 82/77/31 81/77/31 83/78/31
f 82/77/31 83/78/31 84/78/31
f 84/78/32 83/78/32 85/79/32
f 84/78/32 85/79/32 86/79/32
f 86/79/33 85/79/33 87/80/33
f 86/79/33 87/80/33 88/80/33
f 88/80/34 87/80/34 74/73/34
f 88/80/34 74/73/34 73/73/34
f 87/81/25 75/82/25 74/83/25
f 88/81/26 73/83/26 76/82/26
f 75/82/25 79/84/25 77/85/25
f 76/82/26 78/85/26 80/84/26
f 79/84/25 83/86/25 81/87/25
f 80/84/26 82/87/26 84/86/26
f 83/86/25 87/81/25 85/88/25
f 84/86/26 86/88/26 88/81/26
f 87/81/25 79/84/25 75/82/25
f 88/81/26 76/82/26 80/84/26
f 79/84/25 87/81/25 83/86/25
f 80/84/26 84/86/26 88/81/26
f 89/89/35 90/90/36 91/90/37
f 89/89/35 91/90/37 92/89/38
f 92/89/39 91/90/40 93/90/41
f 92/89/39 93/90/41 94/89/42
f 94/89/43 93/90/44 95/90/45
f 94/89/43 95/90/45 96/89/46
f 96/89/47 95/90/48 90/90/49
f 96/89/47 90/90/49 89/89/50
f 90/90/36 97/91/51 98/91/52
f 90/90/36 98/91/52 91/90/37
f 91/90/40 98/91/53 99/91/54
f 91/90/40 99/91/54 93/90/41
f 93/90/44 99/91/55 100/91/56
f 93/90/44 100/91/56 95/90/45
f 95/90/48 100/91/57 97/91/58
f 95/90/48 97/91/58 90/90/49
f 97/91/51 101/92/59 102/92/60
f 97/91/51 102/92/60 98/91/52
f 98/91/53 102/92/61 103/92/62
f 98/91/53 103/92/62 99/91/54
f 99/91/55 103/92/63 104/92/64
f 99/91/55 104/92/64 100/91/56
f 100/91/57 104/92/65 101/92/66
f 100/91/57 101/92/66 97/91/58
f 101/92/59 105/93/67 106/93/68
f 101/92/59 106/93/68 102/92/60
f 102/92/61 106/93/69 107/93/70
f 102/92/61 107/93/70 103/92/62
f 103/92/63 107/93/71 108/93/72
f 103/92/63 108/93/72 104/92/64
f 104/92/65 108/93/73 105/93/74
f 104/92/65 105/93/74 101/92/66
f 105/93/67 109/94/75 110/94/76
f 105/93/67 110/94/76 106/93/68
f 106/93/69 110/94/77 111/94/78
f 106/93/69 111/94/78 107/93/70
f 107/93/71 111/94/79 112/94/80
f 107/93/71 112/94/80 108/93/72
f 108/93/73 112/94/81 109/94/82
f 108/93/73 109/94/82 105/93/74
f 109/94/75 113/95/83 114/95/84
f 109/94/75 114/95/84 110/94/76
f 110/94/77 114/95/85 115/95/86
f 110/94/77 115/95/86 111/94/78
f 111/94/79 115/95/87 116/95/88
f 111/94/79 116/95/88 112/94/80
f 112/94/81 116/95/89 113/95/90
f 112/94/81 113/95/90 109/94/82
f 113/95/83 117/96/91 118/96/92
f 113/95/83 118/96/92 114/95/84
f 114/95/85 118/96/93 119/96/94
f 114/95/85 119/96/94 115/95/86
f 115/95/87 119/96/95 120/96/96
f 115/95/87 120/96/96 116/95/88
f 116/95/89 120/96/97 117/96/98
f 116/95/89 117/96/98 113/95/90
f 96/89/99 94/89/99 92/89/99
f 96/89/99 92/89/99 89/89/99
f 121/97/100 122/98/101 123/98/102
f 121/97/100 123/98/102 124/97/103
f 124/97/104 123/98/105 125/98/106
f 124/97/104 125/98/106 126/97/107
f 126/97/108 125/98/109 127/98/110
f 126/97/108 127/98/110 128/97/111
f 128/97/112 127/98/113 122/98/114
f 128/97/112 122/98/114 121/97/115
f 122/98/101 129/99/116 130/99/117
f 122/98/101 130/99/117 123/98/102
f 123/98/105 130/99/118 131/99/119
f 123/98/105 131/99/119 125/98/106
f 125/98/109 131/99/120 132/99/121
f 125/98/109 132/99/121 127/98/110
f 127/98/113 132/99/122 129/99/123
f 127/98/113 129/99/123 122/98/114
f 129/99/116 133/100/124 134/100/125
f 129/99/116 134/100/125 130/99/117
f 130/99/118 134/100/126 135/100/127
f 130/99/118 135/100/127 131/99/119
f 131/99/120 135/100/128 136/100/129
f 131/99/120 136/100/129 132/99/121
f 132/99/122 136/100/130 133/100/131
f 132/99/122 133/100/131 129/99/123
f 133/100/124 137/101/132 138/101/133
f 133/100/124 138/101/133 134/100/125
f 134/100/126 138/101/134 139/101/135
f 134/100/126 139/101/135 135/100/127
f 135/100/128 139/101/136 140/101/137
f 135/100/128 140/101/137 136/100/129
f 136/100/130 140/101/138 137/101/139
f 136/100/130 137/101/139 133/100/131
f 137/101/132 141/102/140 142/102/141
f 137/101/132 142/102/141 138/101/133
f 138/101/134 142/102/142 143/102/143
f 138/101/134 143/102/143 139/101/135
f 139/101/136 143/102/144 144/102/145
f 139/101/136 144/102/145 140/101/137
f 140/101/138 144/102/146 141/102/147
f 140/101/138 141/102/147 137/101/139
f 141/102/140 145/103/148 146/103/149
f 141/102/140 146/103/149 142/102/141
f 142/102/142 146/103/150 147/103/151
f 142/102/142 147/103/151 143/102/143
f 143/102/144 147/103/152 148/103/153
f 143/102/144 148/103/153 144/102/145
f 144/102/146 148/103/154 145/103/155
f 144/102/146 145/103/155 141/102/147
f 145/103/148 149/96/156 150/96/157
f 145/103/148 150/96/157 146/103/149
f 146/103/150 150/96/158 151/96/159
f 146/103/150 151/96/159 147/103/151
f 147/103/152 151/96/160 152/96/161
f 147/103/152 152/96/161 148/103/153
f 148/103/154 152/96/162 149/96/163
f 148/103/154 149/96/163 145/103/155
f 128/97/164 126/97/164 124/97/164
f 128/97/164 124/97/164 121/97/164
