# Generated by tools/models/generate_all.gd - DO NOT EDIT BY HAND.
# Change the generator and re-run:
#   godot --headless -s tools/models/generate_all.gd
mtllib tsinelas_crocs.mtl
o Tsinelas
v 0.04040 -0.05215 -0.14396
v 0.04040 -0.03775 -0.14396
v 0.08648 -0.03775 -0.04892
v 0.08648 -0.05215 -0.04892
v 0.07208 -0.03775 0.04900
v 0.07208 -0.05215 0.04900
v 0.07784 -0.03775 0.16996
v 0.07784 -0.05215 0.16996
v 0.04040 -0.03775 0.21460
v 0.04040 -0.05215 0.21460
v 0.00008 -0.03775 0.22180
v 0.00008 -0.05215 0.22180
v -0.04024 -0.03775 0.21460
v -0.04024 -0.05215 0.21460
v -0.07768 -0.03775 0.16996
v -0.07768 -0.05215 0.16996
v -0.07192 -0.03775 0.04900
v -0.07192 -0.05215 0.04900
v -0.08632 -0.03775 -0.04892
v -0.08632 -0.05215 -0.04892
v -0.04024 -0.03775 -0.14396
v -0.04024 -0.05215 -0.14396
v 0.00008 -0.03775 -0.15836
v 0.00008 -0.05215 -0.15836
v 0.04488 -0.03775 -0.16348
v 0.04488 -0.00735 -0.16348
v 0.09608 -0.00735 -0.05788
v 0.09608 -0.03775 -0.05788
v 0.08008 -0.00735 0.05092
v 0.08008 -0.03775 0.05092
v 0.08648 -0.00735 0.18532
v 0.08648 -0.03775 0.18532
v 0.04488 -0.00735 0.23492
v 0.04488 -0.03775 0.23492
v 0.00008 -0.00735 0.24292
v 0.00008 -0.03775 0.24292
v -0.04472 -0.00735 0.23492
v -0.04472 -0.03775 0.23492
v -0.08632 -0.00735 0.18532
v -0.08632 -0.03775 0.18532
v -0.07992 -0.00735 0.05092
v -0.07992 -0.03775 0.05092
v -0.09592 -0.00735 -0.05788
v -0.09592 -0.03775 -0.05788
v -0.04472 -0.00735 -0.16348
v -0.04472 -0.03775 -0.16348
v 0.00008 -0.00735 -0.17948
v 0.00008 -0.03775 -0.17948
v 0.03208 -0.00735 -0.16828
v 0.03208 0.01025 -0.16828
v 0.07048 0.01025 -0.11868
v 0.07048 -0.00735 -0.11868
v 0.09288 0.01025 -0.05468
v 0.09288 -0.00735 -0.05468
v 0.09288 0.01025 0.02532
v 0.09288 -0.00735 0.02532
v 0.08328 0.01025 0.03812
v 0.08328 -0.00735 0.03812
v -0.08312 0.01025 0.03812
v -0.08312 -0.00735 0.03812
v -0.09272 0.01025 0.02532
v -0.09272 -0.00735 0.02532
v -0.09272 0.01025 -0.05468
v -0.09272 -0.00735 -0.05468
v -0.07032 0.01025 -0.11868
v -0.07032 -0.00735 -0.11868
v -0.03192 0.01025 -0.16828
v -0.03192 -0.00735 -0.16828
v 0.00008 0.01025 -0.17948
v 0.03112 0.01025 -0.16228
v 0.03112 0.02945 -0.16228
v 0.06837 0.02945 -0.11416
v 0.06837 0.01025 -0.11416
v 0.09010 0.02945 -0.05208
v 0.09010 0.01025 -0.05208
v 0.09010 0.02945 0.02552
v 0.09010 0.01025 0.02552
v 0.08079 0.02945 0.03172
v 0.08079 0.01025 0.03172
v -0.08062 0.02945 0.03172
v -0.08062 0.01025 0.03172
v -0.08993 0.02945 0.02552
v -0.08993 0.01025 0.02552
v -0.08993 0.02945 -0.05208
v -0.08993 0.01025 -0.05208
v -0.06820 0.02945 -0.11416
v -0.06820 0.01025 -0.11416
v -0.03096 0.02945 -0.16228
v -0.03096 0.01025 -0.16228
v 0.00008 0.02945 -0.17314
v 0.00008 0.01025 -0.17314
v 0.02984 0.02945 -0.15428
v 0.02984 0.04705 -0.15428
v 0.06556 0.04705 -0.10815
v 0.06556 0.02945 -0.10815
v 0.08639 0.04705 -0.04863
v 0.08639 0.02945 -0.04863
v 0.08639 0.04705 0.02577
v 0.08639 0.02945 0.02577
v 0.07746 0.04705 0.02577
v 0.07746 0.02945 0.02577
v -0.07729 0.04705 0.02577
v -0.07729 0.02945 0.02577
v -0.08622 0.04705 0.02577
v -0.08622 0.02945 0.02577
v -0.08622 0.04705 -0.04863
v -0.08622 0.02945 -0.04863
v -0.06539 0.04705 -0.10815
v -0.06539 0.02945 -0.10815
v -0.02968 0.04705 -0.15428
v -0.02968 0.02945 -0.15428
v 0.00008 0.04705 -0.16469
v 0.00008 0.02945 -0.16469
v 0.02792 0.04705 -0.14228
v 0.02792 0.06241 -0.14228
v 0.06133 0.06241 -0.09912
v 0.06133 0.04705 -0.09912
v 0.08082 0.06241 -0.04344
v 0.08082 0.04705 -0.04344
v 0.08082 0.06241 0.02059
v 0.08082 0.04705 0.02059
v 0.07247 0.06241 0.02059
v 0.07247 0.04705 0.02059
v -0.07230 0.06241 0.02059
v -0.07230 0.04705 0.02059
v -0.08065 0.06241 0.02059
v -0.08065 0.04705 0.02059
v -0.08065 0.06241 -0.04344
v -0.08065 0.04705 -0.04344
v -0.06116 0.06241 -0.09912
v -0.06116 0.04705 -0.09912
v -0.02776 0.06241 -0.14228
v -0.02776 0.04705 -0.14228
v 0.00008 0.06241 -0.15202
v 0.00008 0.04705 -0.15202
v 0.02504 0.06241 -0.12428
v 0.02504 0.07457 -0.12428
v 0.05500 0.07457 -0.08559
v 0.05500 0.06241 -0.08559
v 0.07247 0.07457 -0.03567
v 0.07247 0.06241 -0.03567
v 0.07247 0.07457 0.01675
v 0.07247 0.06241 0.01675
v 0.06498 0.07457 0.01675
v 0.06498 0.06241 0.01675
v -0.06481 0.07457 0.01675
v -0.06481 0.06241 0.01675
v -0.07230 0.07457 0.01675
v -0.07230 0.06241 0.01675
v -0.07230 0.07457 -0.03567
v -0.07230 0.06241 -0.03567
v -0.05483 0.07457 -0.08559
v -0.05483 0.06241 -0.08559
v -0.02488 0.07457 -0.12428
v -0.02488 0.06241 -0.12428
v 0.00008 0.07457 -0.13301
v 0.00008 0.06241 -0.13301
v 0.02056 0.07457 -0.09628
v 0.02056 0.08321 -0.09628
v 0.04514 0.08321 -0.06453
v 0.04514 0.07457 -0.06453
v 0.05948 0.08321 -0.02357
v 0.05948 0.07457 -0.02357
v 0.05948 0.08321 0.01534
v 0.05948 0.07457 0.01534
v 0.05333 0.08321 0.01534
v 0.05333 0.07457 0.01534
v -0.05316 0.08321 0.01534
v -0.05316 0.07457 0.01534
v -0.05931 0.08321 0.01534
v -0.05931 0.07457 0.01534
v -0.05931 0.08321 -0.02357
v -0.05931 0.07457 -0.02357
v -0.04497 0.08321 -0.06453
v -0.04497 0.07457 -0.06453
v -0.02040 0.08321 -0.09628
v -0.02040 0.07457 -0.09628
v 0.00008 0.08321 -0.10344
v 0.00008 0.07457 -0.10344
v 0.01416 0.08321 -0.05628
v 0.01416 0.08801 -0.05628
v 0.03106 0.08801 -0.03445
v 0.03106 0.08321 -0.03445
v 0.04092 0.08801 -0.00629
v 0.04092 0.08321 -0.00629
v 0.04092 0.08801 0.01764
v 0.04092 0.08321 0.01764
v 0.03669 0.08801 0.01764
v 0.03669 0.08321 0.01764
v -0.03652 0.08801 0.01764
v -0.03652 0.08321 0.01764
v -0.04075 0.08801 0.01764
v -0.04075 0.08321 0.01764
v -0.04075 0.08801 -0.00629
v -0.04075 0.08321 -0.00629
v -0.03089 0.08801 -0.03445
v -0.03089 0.08321 -0.03445
v -0.01400 0.08801 -0.05628
v -0.01400 0.08321 -0.05628
v 0.00008 0.08801 -0.06120
v 0.00008 0.08321 -0.06120
v 0.08062 -0.00916 0.07278
v 0.05854 0.01919 0.07721
v 0.06877 0.01919 0.14363
v 0.09479 -0.00916 0.13847
v 0.05820 0.00816 0.14526
v 0.08275 -0.01834 0.14107
v 0.04797 0.00816 0.07884
v 0.06858 -0.01834 0.07538
v 0.03583 0.03859 0.08029
v 0.04201 0.03859 0.14721
v 0.03428 0.02533 0.14792
v 0.02810 0.02533 0.08101
v 0.01218 0.04864 0.08191
v 0.01425 0.04864 0.14908
v 0.01130 0.03357 0.14917
v 0.00923 0.03357 0.08201
v -0.01201 0.04864 0.08191
v -0.01408 0.04864 0.14908
v -0.01113 0.03357 0.14917
v -0.00906 0.03357 0.08201
v -0.03566 0.03859 0.08029
v -0.04184 0.03859 0.14721
v -0.03411 0.02533 0.14792
v -0.02793 0.02533 0.08101
v -0.05837 0.01919 0.07721
v -0.06860 0.01919 0.14363
v -0.05804 0.00816 0.14526
v -0.04780 0.00816 0.07884
v -0.08045 -0.00916 0.07278
v -0.09462 -0.00916 0.13847
v -0.08258 -0.01834 0.14107
v -0.06841 -0.01834 0.07538
vt 0.56364 0.22273
vt 0.63636 0.37273
vt 0.61364 0.52727
vt 0.62273 0.71818
vt 0.56364 0.78864
vt 0.50000 0.80000
vt 0.43636 0.78864
vt 0.37727 0.71818
vt 0.38636 0.52727
vt 0.36364 0.37273
vt 0.43636 0.22273
vt 0.50000 0.20000
vt 0.50000 0.08333
vt 0.68939 0.32323
vt 0.58838 0.11490
vt 0.65783 0.53788
vt 0.58838 0.90088
vt 0.67045 0.80303
vt 0.41162 0.90088
vt 0.50000 0.91667
vt 0.34217 0.53788
vt 0.32955 0.80303
vt 0.41162 0.11490
vt 0.31061 0.32323
vt 0.57071 0.19192
vt 0.65152 0.35859
vt 0.62626 0.53030
vt 0.63636 0.74242
vt 0.57071 0.82071
vt 0.50000 0.83333
vt 0.42929 0.82071
vt 0.36364 0.74242
vt 0.37374 0.53030
vt 0.34848 0.35859
vt 0.42929 0.19192
vt 0.50000 0.16667
vt 0.50000 0.03704
vt 0.71044 0.30359
vt 0.59820 0.07211
vt 0.67536 0.54209
vt 0.59820 0.94543
vt 0.68939 0.83670
vt 0.40180 0.94543
vt 0.50000 0.96296
vt 0.32464 0.54209
vt 0.31061 0.83670
vt 0.40180 0.07211
vt 0.28956 0.30359
vt 0.55051 0.18434
vt 0.61111 0.26263
vt 0.64646 0.36364
vt 0.64646 0.48990
vt 0.63131 0.51010
vt 0.36869 0.51010
vt 0.35354 0.48990
vt 0.35354 0.36364
vt 0.38889 0.26263
vt 0.44949 0.18434
vt 0.65432 0.17031
vt 0.57015 0.06159
vt 0.70342 0.48597
vt 0.70342 0.31061
vt 0.31762 0.51403
vt 0.68238 0.51403
vt 0.29658 0.31061
vt 0.29658 0.48597
vt 0.42985 0.06159
vt 0.34568 0.17031
vt 0.54899 0.19381
vt 0.60778 0.26975
vt 0.64207 0.36773
vt 0.64207 0.49020
vt 0.62737 0.50000
vt 0.37263 0.50000
vt 0.35793 0.49020
vt 0.35793 0.36773
vt 0.39222 0.26975
vt 0.45101 0.19381
vt 0.50000 0.17667
vt 0.50000 0.05093
vt 0.64969 0.18020
vt 0.56804 0.07474
vt 0.69732 0.48639
vt 0.69732 0.31629
vt 0.32309 0.50000
vt 0.67691 0.50000
vt 0.30268 0.31629
vt 0.30268 0.48639
vt 0.43196 0.07474
vt 0.35031 0.18020
vt 0.54697 0.20644
vt 0.60333 0.27924
vt 0.63621 0.37318
vt 0.63621 0.49061
vt 0.62212 0.49061
vt 0.37788 0.49061
vt 0.36379 0.49061
vt 0.36379 0.37318
vt 0.39667 0.27924
vt 0.45303 0.20644
vt 0.50000 0.19000
vt 0.50000 0.06944
vt 0.64352 0.19339
vt 0.56524 0.09228
vt 0.68918 0.48695
vt 0.68918 0.32386
vt 0.33039 0.48695
vt 0.31082 0.32386
vt 0.31082 0.48695
vt 0.43476 0.09228
vt 0.35648 0.19339
vt 0.66961 0.48695
vt 0.54394 0.22538
vt 0.59667 0.29348
vt 0.62742 0.38136
vt 0.62742 0.48242
vt 0.61424 0.48242
vt 0.38576 0.48242
vt 0.37258 0.48242
vt 0.37258 0.38136
vt 0.40333 0.29348
vt 0.45606 0.22538
vt 0.50000 0.21000
vt 0.50000 0.09722
vt 0.63426 0.21317
vt 0.56103 0.11858
vt 0.67698 0.47559
vt 0.67698 0.33523
vt 0.34133 0.47559
vt 0.32302 0.33523
vt 0.32302 0.47559
vt 0.43897 0.11858
vt 0.36574 0.21317
vt 0.65867 0.47559
vt 0.53939 0.25379
vt 0.58667 0.31485
vt 0.61424 0.39364
vt 0.61424 0.47636
vt 0.60242 0.47636
vt 0.39758 0.47636
vt 0.38576 0.47636
vt 0.38576 0.39364
vt 0.41333 0.31485
vt 0.46061 0.25379
vt 0.50000 0.24000
vt 0.50000 0.13889
vt 0.62037 0.24285
vt 0.55471 0.15804
vt 0.65867 0.46717
vt 0.65867 0.35227
vt 0.35774 0.46717
vt 0.34133 0.35227
vt 0.34133 0.46717
vt 0.44529 0.15804
vt 0.37963 0.24285
vt 0.64226 0.46717
vt 0.53232 0.29798
vt 0.57111 0.34808
vt 0.59374 0.41273
vt 0.59374 0.47414
vt 0.58404 0.47414
vt 0.41596 0.47414
vt 0.40626 0.47414
vt 0.40626 0.41273
vt 0.42889 0.34808
vt 0.46768 0.29798
vt 0.50000 0.28667
vt 0.50000 0.20370
vt 0.59877 0.28900
vt 0.54489 0.21942
vt 0.63019 0.46409
vt 0.63019 0.37879
vt 0.38328 0.46409
vt 0.36981 0.37879
vt 0.36981 0.46409
vt 0.45511 0.21942
vt 0.40123 0.28900
vt 0.61672 0.46409
vt 0.52222 0.36111
vt 0.54889 0.39556
vt 0.56444 0.44000
vt 0.56444 0.47778
vt 0.55778 0.47778
vt 0.44222 0.47778
vt 0.43556 0.47778
vt 0.43556 0.44000
vt 0.45111 0.39556
vt 0.47778 0.36111
vt 0.50000 0.35333
vt 0.50000 0.29630
vt 0.56790 0.35494
vt 0.53086 0.30710
vt 0.58951 0.46914
vt 0.58951 0.41667
vt 0.41975 0.46914
vt 0.41049 0.41667
vt 0.41049 0.46914
vt 0.46914 0.30710
vt 0.43210 0.35494
vt 0.58025 0.46914
vt 0.63952 0.66484
vt 0.59966 0.66484
vt 0.55979 0.66484
vt 0.51993 0.66484
vt 0.48007 0.66484
vt 0.44021 0.66484
vt 0.40034 0.66484
vt 0.36048 0.66484
vt 0.00000 0.00000
vn 0.89981 0.00000 -0.43627
vn 0.96766 0.00000 -0.25226
vn 0.99873 0.00000 -0.05041
vn 0.99668 0.00000 0.08148
vn 0.99986 0.00000 0.01686
vn 0.99887 0.00000 -0.04757
vn 0.76619 0.00000 0.64261
vn 0.60134 0.00000 0.79900
vn 0.39349 0.00000 0.91933
vn 0.05942 0.00000 0.99823
vn -0.05942 0.00000 0.99823
vn -0.39349 0.00000 0.91933
vn -0.60134 0.00000 0.79900
vn -0.76619 0.00000 0.64261
vn -0.99887 0.00000 -0.04757
vn -0.99986 0.00000 0.01686
vn -0.99668 0.00000 0.08148
vn -0.99873 0.00000 -0.05041
vn -0.96766 0.00000 -0.25226
vn -0.89981 0.00000 -0.43627
vn -0.33634 0.00000 -0.94174
vn -0.11821 0.00000 -0.99299
vn 0.11821 0.00000 -0.99299
vn 0.33634 0.00000 -0.94174
vn 0.00000 1.00000 0.00000
vn 0.00000 -1.00000 0.00000
vn -0.00106 0.00000 -1.00000
vn 0.66136 0.00000 -0.75007
vn 0.50210 0.00000 -0.86481
vn 0.85156 0.00000 -0.52426
vn 0.90320 0.00000 -0.42923
vn 0.97481 0.00000 -0.22303
vn 0.99376 0.00000 -0.11152
vn 0.97780 0.00000 0.20953
vn 0.90796 0.00000 0.41906
vn 0.80000 0.00000 0.60000
vn 0.00000 0.00000 1.00000
vn -0.80000 0.00000 0.60000
vn -0.90796 0.00000 0.41906
vn -0.97780 0.00000 0.20953
vn -0.99376 0.00000 -0.11152
vn -0.97481 0.00000 -0.22303
vn -0.90320 0.00000 -0.42923
vn -0.85156 0.00000 -0.52426
vn -0.66136 0.00000 -0.75007
vn -0.50210 0.00000 -0.86481
vn -0.11588 0.00000 -0.99326
vn 1.00000 0.00000 0.00000
vn 0.55470 0.00000 0.83205
vn 0.38443 0.00000 0.92316
vn 0.19221 0.00000 0.98135
vn -0.19221 0.00000 0.98135
vn -0.38443 0.00000 0.92316
vn -0.55470 0.00000 0.83205
vn -1.00000 0.00000 0.00000
vn 0.11588 0.00000 -0.99326
vn 0.66136 0.00000 -0.75006
vn -0.66136 0.00000 -0.75006
vn 0.74485 0.65307 -0.13677
vn 0.66954 0.73732 -0.08984
vn 0.69311 0.71051 -0.12155
vn 0.71389 0.68312 -0.15398
vn 0.18319 0.00179 0.98308
vn 0.14050 -0.00441 0.99007
vn 0.16477 0.00919 0.98629
vn 0.19328 0.02397 0.98085
vn -0.74502 -0.65251 0.13847
vn -0.64994 -0.75485 0.08821
vn -0.71327 -0.68953 0.12571
vn -0.76791 -0.61878 0.16563
vn -0.18199 -0.00064 -0.98330
vn -0.13461 0.00091 -0.99090
vn -0.16885 -0.00363 -0.98564
vn -0.20559 -0.00719 -0.97861
vn 0.46325 0.88555 -0.03470
vn 0.52581 0.84844 -0.06059
vn 0.08219 -0.00175 0.99661
vn 0.10313 0.00849 0.99463
vn -0.44080 -0.89697 0.03378
vn -0.54462 -0.83626 0.06369
vn -0.07575 -0.00024 -0.99713
vn -0.10623 -0.00476 -0.99433
vn 0.13254 0.99117 -0.00408
vn 0.24688 0.96893 -0.01467
vn 0.02167 0.00179 0.99976
vn 0.04198 0.00588 0.99910
vn -0.11373 -0.99351 0.00350
vn -0.24894 -0.96839 0.01598
vn -0.01704 -0.00270 -0.99985
vn -0.04143 -0.00439 -0.99913
vn -0.24680 0.96894 -0.01572
vn -0.11481 0.99338 -0.00354
vn -0.04153 0.00456 0.99913
vn -0.01762 0.00258 0.99984
vn 0.24901 -0.96839 0.01468
vn 0.13566 -0.99075 0.00418
vn 0.04214 -0.00586 -0.99909
vn 0.02186 -0.00175 -0.99976
vn -0.54076 0.83880 -0.06321
vn -0.43989 0.89742 -0.03363
vn -0.10592 0.00518 0.99436
vn -0.07662 -0.00005 0.99706
vn 0.52606 -0.84829 0.06057
vn 0.46722 -0.88345 0.03488
vn 0.10324 -0.00834 -0.99462
vn 0.08229 0.00173 -0.99661
vn -0.71118 0.69175 -0.12534
vn -0.64955 0.75519 -0.08809
vn -0.16837 0.00429 0.98571
vn -0.13539 -0.00138 0.99079
vn 0.69274 -0.71089 0.12147
vn 0.67127 -0.73573 0.08999
vn 0.16502 -0.00884 -0.98625
vn 0.14041 0.00435 -0.99008
vn -0.76545 0.62196 -0.16510
vn -0.74454 0.65309 -0.13832
vn -0.20411 0.00922 0.97891
vn -0.18217 0.00075 0.98327
vn 0.71273 -0.68438 0.15373
vn 0.74531 -0.65253 0.13681
vn 0.19412 -0.02283 -0.98071
vn 0.18327 -0.00156 -0.98306
vn -0.58417 0.80180 0.12600
usemtl skin
f 1/1/1 2/1/1 3/2/2
f 1/1/1 3/2/2 4/2/3
f 4/2/3 3/2/2 5/3/4
f 4/2/3 5/3/4 6/3/5
f 6/3/5 5/3/4 7/4/6
f 6/3/5 7/4/6 8/4/6
f 8/4/7 7/4/7 9/5/8
f 8/4/7 9/5/8 10/5/9
f 10/5/9 9/5/8 11/6/10
f 10/5/9 11/6/10 12/6/11
f 12/6/11 11/6/10 13/7/12
f 12/6/11 13/7/12 14/7/13
f 14/7/13 13/7/12 15/8/14
f 14/7/13 15/8/14 16/8/14
f 16/8/15 15/8/15 17/9/16
f 16/8/15 17/9/16 18/9/17
f 18/9/17 17/9/16 19/10/18
f 18/9/17 19/10/18 20/10/19
f 20/10/19 19/10/18 21/11/20
f 20/10/19 21/11/20 22/11/20
f 22/11/21 21/11/21 23/12/22
f 22/11/21 23/12/22 24/12/23
f 24/12/23 23/12/22 2/1/24
f 24/12/23 2/1/24 1/1/24
f 23/13/25 3/14/25 2/15/25
f 24/13/26 1/15/26 4/14/26
f 5/16/25 9/17/25 7/18/25
f 6/16/26 8/18/26 10/17/26
f 9/17/25 13/19/25 11/20/25
f 10/17/26 12/20/26 14/19/26
f 13/19/25 17/21/25 15/22/25
f 14/19/26 16/22/26 18/21/26
f 17/21/25 21/23/25 19/24/25
f 18/21/26 20/24/26 22/23/26
f 21/23/25 3/14/25 23/13/25
f 22/23/26 24/13/26 4/14/26
f 3/14/25 9/17/25 5/16/25
f 4/14/26 6/16/26 10/17/26
f 9/17/25 17/21/25 13/19/25
f 10/17/26 14/19/26 18/21/26
f 17/21/25 3/14/25 21/23/25
f 18/21/26 22/23/26 4/14/26
f 3/14/25 17/21/25 9/17/25
f 4/14/26 10/17/26 18/21/26
f 25/25/1 26/25/1 27/26/2
f 25/25/1 27/26/2 28/26/3
f 28/26/3 27/26/2 29/27/4
f 28/26/3 29/27/4 30/27/5
f 30/27/5 29/27/4 31/28/6
f 30/27/5 31/28/6 32/28/6
f 32/28/7 31/28/7 33/29/8
f 32/28/7 33/29/8 34/29/9
f 34/29/9 33/29/8 35/30/10
f 34/29/9 35/30/10 36/30/11
f 36/30/11 35/30/10 37/31/12
f 36/30/11 37/31/12 38/31/13
f 38/31/13 37/31/12 39/32/14
f 38/31/13 39/32/14 40/32/14
f 40/32/15 39/32/15 41/33/16
f 40/32/15 41/33/16 42/33/17
f 42/33/17 41/33/16 43/34/18
f 42/33/17 43/34/18 44/34/19
f 44/34/19 43/34/18 45/35/20
f 44/34/19 45/35/20 46/35/20
f 46/35/21 45/35/21 47/36/27
f 46/35/21 47/36/27 48/36/23
f 48/36/23 47/36/27 26/25/24
f 48/36/23 26/25/24 25/25/24
f 47/37/25 27/38/25 26/39/25
f 48/37/26 25/39/26 28/38/26
f 29/40/25 33/41/25 31/42/25
f 30/40/26 32/42/26 34/41/26
f 33/41/25 37/43/25 35/44/25
f 34/41/26 36/44/26 38/43/26
f 37/43/25 41/45/25 39/46/25
f 38/43/26 40/46/26 42/45/26
f 41/45/25 45/47/25 43/48/25
f 42/45/26 44/48/26 46/47/26
f 45/47/25 27/38/25 47/37/25
f 46/47/26 48/37/26 28/38/26
f 27/38/25 33/41/25 29/40/25
f 28/38/26 30/40/26 34/41/26
f 33/41/25 41/45/25 37/43/25
f 34/41/26 38/43/26 42/45/26
f 41/45/25 27/38/25 45/47/25
f 42/45/26 46/47/26 28/38/26
f 27/38/25 41/45/25 33/41/25
f 28/38/26 34/41/26 42/45/26
f 49/49/28 50/49/29 51/50/30
f 49/49/28 51/50/30 52/50/31
f 52/50/31 51/50/30 53/51/32
f 52/50/31 53/51/32 54/51/33
f 54/51/33 53/51/32 55/52/34
f 54/51/33 55/52/34 56/52/35
f 56/52/35 55/52/34 57/53/36
f 56/52/35 57/53/36 58/53/36
f 58/53/37 57/53/37 59/54/37
f 58/53/37 59/54/37 60/54/37
f 60/54/38 59/54/38 61/55/39
f 60/54/38 61/55/39 62/55/40
f 62/55/40 61/55/39 63/56/41
f 62/55/40 63/56/41 64/56/42
f 64/56/42 63/56/41 65/57/43
f 64/56/42 65/57/43 66/57/44
f 66/57/44 65/57/43 67/58/45
f 66/57/44 67/58/45 68/58/46
f 68/58/46 67/58/45 69/36/47
f 68/58/46 69/36/47 47/36/27
f 47/36/27 69/36/47 50/49/29
f 47/36/27 50/49/29 49/49/28
f 69/37/25 51/59/25 50/60/25
f 47/37/26 49/60/26 52/59/26
f 51/59/25 55/61/25 53/62/25
f 52/59/26 54/62/26 56/61/26
f 55/61/25 59/63/25 57/64/25
f 56/61/26 58/64/26 60/63/26
f 59/63/25 63/65/25 61/66/25
f 60/63/26 62/66/26 64/65/26
f 63/65/25 67/67/25 65/68/25
f 64/65/26 66/68/26 68/67/26
f 67/67/25 51/59/25 69/37/25
f 68/67/26 47/37/26 52/59/26
f 51/59/25 59/63/25 55/61/25
f 52/59/26 56/61/26 60/63/26
f 59/63/25 67/67/25 63/65/25
f 60/63/26 64/65/26 68/67/26
f 67/67/25 59/63/25 51/59/25
f 68/67/26 52/59/26 60/63/26
f 70/69/28 71/69/29 72/70/30
f 70/69/28 72/70/30 73/70/31
f 73/70/31 72/70/30 74/71/32
f 73/70/31 74/71/32 75/71/33
f 75/71/33 74/71/32 76/72/48
f 75/71/33 76/72/48 77/72/48
f 77/72/49 76/72/49 78/73/50
f 77/72/49 78/73/50 79/73/51
f 79/73/51 78/73/50 80/74/52
f 79/73/51 80/74/52 81/74/53
f 81/74/53 80/74/52 82/75/54
f 81/74/53 82/75/54 83/75/54
f 83/75/55 82/75/55 84/76/41
f 83/75/55 84/76/41 85/76/42
f 85/76/42 84/76/41 86/77/43
f 85/76/42 86/77/43 87/77/44
f 87/77/44 86/77/43 88/78/45
f 87/77/44 88/78/45 89/78/46
f 89/78/46 88/78/45 90/79/47
f 89/78/46 90/79/47 91/79/56
f 91/79/56 90/79/47 71/69/29
f 91/79/56 71/69/29 70/69/28
f 90/80/25 72/81/25 71/82/25
f 91/80/26 70/82/26 73/81/26
f 72/81/25 76/83/25 74/84/25
f 73/81/26 75/84/26 77/83/26
f 76/83/25 80/85/25 78/86/25
f 77/83/26 79/86/26 81/85/26
f 80/85/25 84/87/25 82/88/25
f 81/85/26 83/88/26 85/87/26
f 84/87/25 88/89/25 86/90/25
f 85/87/26 87/90/26 89/89/26
f 88/89/25 72/81/25 90/80/25
f 89/89/26 91/80/26 73/81/26
f 72/81/25 80/85/25 76/83/25
f 73/81/26 77/83/26 81/85/26
f 80/85/25 88/89/25 84/87/25
f 81/85/26 85/87/26 89/89/26
f 88/89/25 80/85/25 72/81/25
f 89/89/26 73/81/26 81/85/26
f 92/91/28 93/91/29 94/92/30
f 92/91/28 94/92/30 95/92/31
f 95/92/31 94/92/30 96/93/32
f 95/92/31 96/93/32 97/93/33
f 97/93/33 96/93/32 98/94/48
f 97/93/33 98/94/48 99/94/48
f 99/94/37 98/94/37 100/95/37
f 99/94/37 100/95/37 101/95/37
f 101/95/37 100/95/37 102/96/37
f 101/95/37 102/96/37 103/96/37
f 103/96/37 102/96/37 104/97/37
f 103/96/37 104/97/37 105/97/37
f 105/97/55 104/97/55 106/98/41
f 105/97/55 106/98/41 107/98/42
f 107/98/42 106/98/41 108/99/43
f 107/98/42 108/99/43 109/99/44
f 109/99/44 108/99/43 110/100/45
f 109/99/44 110/100/45 111/100/46
f 111/100/46 110/100/45 112/101/47
f 111/100/46 112/101/47 113/101/56
f 113/101/56 112/101/47 93/91/29
f 113/101/56 93/91/29 92/91/28
f 112/102/25 94/103/25 93/104/25
f 113/102/26 92/104/26 95/103/26
f 94/103/25 98/105/25 96/106/25
f 95/103/26 97/106/26 99/105/26
f 102/107/25 106/108/25 104/109/25
f 103/107/26 105/109/26 107/108/26
f 106/108/25 110/110/25 108/111/25
f 107/108/26 109/111/26 111/110/26
f 110/110/25 94/103/25 112/102/25
f 111/110/26 113/102/26 95/103/26
f 94/103/25 100/112/25 98/105/25
f 95/103/26 99/105/26 101/112/26
f 100/112/25 106/108/25 102/107/25
f 101/112/26 103/107/26 107/108/26
f 106/108/25 94/103/25 110/110/25
f 107/108/26 111/110/26 95/103/26
f 94/103/25 106/108/25 100/112/25
f 95/103/26 101/112/26 107/108/26
f 114/113/57 115/113/29 116/114/30
f 114/113/57 116/114/30 117/114/31
f 117/114/31 116/114/30 118/115/32
f 117/114/31 118/115/32 119/115/33
f 119/115/33 118/115/32 120/116/48
f 119/115/33 120/116/48 121/116/48
f 121/116/37 120/116/37 122/117/37
f 121/116/37 122/117/37 123/117/37
f 123/117/37 122/117/37 124/118/37
f 123/117/37 124/118/37 125/118/37
f 125/118/37 124/118/37 126/119/37
f 125/118/37 126/119/37 127/119/37
f 127/119/55 126/119/55 128/120/41
f 127/119/55 128/120/41 129/120/42
f 129/120/42 128/120/41 130/121/43
f 129/120/42 130/121/43 131/121/44
f 131/121/44 130/121/43 132/122/58
f 131/121/44 132/122/58 133/122/46
f 133/122/46 132/122/58 134/123/47
f 133/122/46 134/123/47 135/123/56
f 135/123/56 134/123/47 115/113/29
f 135/123/56 115/113/29 114/113/57
f 134/124/25 116/125/25 115/126/25
f 135/124/26 114/126/26 117/125/26
f 116/125/25 120/127/25 118/128/25
f 117/125/26 119/128/26 121/127/26
f 124/129/25 128/130/25 126/131/25
f 125/129/26 127/131/26 129/130/26
f 128/130/25 132/132/25 130/133/25
f 129/130/26 131/133/26 133/132/26
f 132/132/25 116/125/25 134/124/25
f 133/132/26 135/124/26 117/125/26
f 116/125/25 122/134/25 120/127/25
f 117/125/26 121/127/26 123/134/26
f 122/134/25 128/130/25 124/129/25
f 123/134/26 125/129/26 129/130/26
f 128/130/25 116/125/25 132/132/25
f 129/130/26 133/132/26 117/125/26
f 116/125/25 128/130/25 122/134/25
f 117/125/26 123/134/26 129/130/26
f 136/135/57 137/135/29 138/136/30
f 136/135/57 138/136/30 139/136/31
f 139/136/31 138/136/30 140/137/32
f 139/136/31 140/137/32 141/137/33
f 141/137/33 140/137/32 142/138/48
f 141/137/33 142/138/48 143/138/48
f 143/138/37 142/138/37 144/139/37
f 143/138/37 144/139/37 145/139/37
f 145/139/37 144/139/37 146/140/37
f 145/139/37 146/140/37 147/140/37
f 147/140/37 146/140/37 148/141/37
f 147/140/37 148/141/37 149/141/37
f 149/141/55 148/141/55 150/142/41
f 149/141/55 150/142/41 151/142/42
f 151/142/42 150/142/41 152/143/43
f 151/142/42 152/143/43 153/143/44
f 153/143/44 152/143/43 154/144/58
f 153/143/44 154/144/58 155/144/46
f 155/144/46 154/144/58 156/145/47
f 155/144/46 156/145/47 157/145/56
f 157/145/56 156/145/47 137/135/29
f 157/145/56 137/135/29 136/135/57
f 156/146/25 138/147/25 137/148/25
f 157/146/26 136/148/26 139/147/26
f 138/147/25 142/149/25 140/150/25
f 139/147/26 141/150/26 143/149/26
f 146/151/25 150/152/25 148/153/25
f 147/151/26 149/153/26 151/152/26
f 150/152/25 154/154/25 152/155/25
f 151/152/26 153/155/26 155/154/26
f 154/154/25 138/147/25 156/146/25
f 155/154/26 157/146/26 139/147/26
f 138/147/25 144/156/25 142/149/25
f 139/147/26 143/149/26 145/156/26
f 144/156/25 150/152/25 146/151/25
f 145/156/26 147/151/26 151/152/26
f 150/152/25 138/147/25 154/154/25
f 151/152/26 155/154/26 139/147/26
f 138/147/25 150/152/25 144/156/25
f 139/147/26 145/156/26 151/152/26
f 158/157/57 159/157/29 160/158/30
f 158/157/57 160/158/30 161/158/31
f 161/158/31 160/158/30 162/159/32
f 161/158/31 162/159/32 163/159/33
f 163/159/33 162/159/32 164/160/48
f 163/159/33 164/160/48 165/160/48
f 165/160/37 164/160/37 166/161/37
f 165/160/37 166/161/37 167/161/37
f 167/161/37 166/161/37 168/162/37
f 167/161/37 168/162/37 169/162/37
f 169/162/37 168/162/37 170/163/37
f 169/162/37 170/163/37 171/163/37
f 171/163/55 170/163/55 172/164/41
f 171/163/55 172/164/41 173/164/42
f 173/164/42 172/164/41 174/165/43
f 173/164/42 174/165/43 175/165/44
f 175/165/44 174/165/43 176/166/58
f 175/165/44 176/166/58 177/166/46
f 177/166/46 176/166/58 178/167/47
f 177/166/46 178/167/47 179/167/56
f 179/167/56 178/167/47 159/157/29
f 179/167/56 159/157/29 158/157/57
f 178/168/25 160/169/25 159/170/25
f 179/168/26 158/170/26 161/169/26
f 160/169/25 164/171/25 162/172/25
f 161/169/26 163/172/26 165/171/26
f 168/173/25 172/174/25 170/175/25
f 169/173/26 171/175/26 173/174/26
f 172/174/25 176/176/25 174/177/25
f 173/174/26 175/177/26 177/176/26
f 176/176/25 160/169/25 178/168/25
f 177/176/26 179/168/26 161/169/26
f 160/169/25 166/178/25 164/171/25
f 161/169/26 165/171/26 167/178/26
f 166/178/25 172/174/25 168/173/25
f 167/178/26 169/173/26 173/174/26
f 172/174/25 160/169/25 176/176/25
f 173/174/26 177/176/26 161/169/26
f 160/169/25 172/174/25 166/178/25
f 161/169/26 167/178/26 173/174/26
f 180/179/57 181/179/29 182/180/30
f 180/179/57 182/180/30 183/180/31
f 183/180/31 182/180/30 184/181/32
f 183/180/31 184/181/32 185/181/33
f 185/181/33 184/181/32 186/182/48
f 185/181/33 186/182/48 187/182/48
f 187/182/37 186/182/37 188/183/37
f 187/182/37 188/183/37 189/183/37
f 189/183/37 188/183/37 190/184/37
f 189/183/37 190/184/37 191/184/37
f 191/184/37 190/184/37 192/185/37
f 191/184/37 192/185/37 193/185/37
f 193/185/55 192/185/55 194/186/41
f 193/185/55 194/186/41 195/186/42
f 195/186/42 194/186/41 196/187/43
f 195/186/42 196/187/43 197/187/44
f 197/187/44 196/187/43 198/188/58
f 197/187/44 198/188/58 199/188/46
f 199/188/46 198/188/58 200/189/47
f 199/188/46 200/189/47 201/189/56
f 201/189/56 200/189/47 181/179/29
f 201/189/56 181/179/29 180/179/57
f 200/190/25 182/191/25 181/192/25
f 201/190/26 180/192/26 183/191/26
f 182/191/25 186/193/25 184/194/25
f 183/191/26 185/194/26 187/193/26
f 190/195/25 194/196/25 192/197/25
f 191/195/26 193/197/26 195/196/26
f 194/196/25 198/198/25 196/199/25
f 195/196/26 197/199/26 199/198/26
f 198/198/25 182/191/25 200/190/25
f 199/198/26 201/190/26 183/191/26
f 182/191/25 188/200/25 186/193/25
f 183/191/26 187/193/26 189/200/26
f 188/200/25 194/196/25 190/195/25
f 189/200/26 191/195/26 195/196/26
f 194/196/25 182/191/25 198/198/25
f 195/196/26 199/198/26 183/191/26
f 182/191/25 194/196/25 188/200/25
f 183/191/26 189/200/26 195/196/26
f 202/201/59 203/202/60 204/202/61
f 202/201/59 204/202/61 205/201/62
f 205/201/63 204/202/64 206/202/65
f 205/201/63 206/202/65 207/201/66
f 207/201/67 206/202/68 208/202/69
f 207/201/67 208/202/69 209/201/70
f 209/201/71 208/202/72 203/202/73
f 209/201/71 203/202/73 202/201/74
f 203/202/60 210/203/75 211/203/76
f 203/202/60 211/203/76 204/202/61
f 204/202/64 211/203/77 212/203/78
f 204/202/64 212/203/78 206/202/65
f 206/202/68 212/203/79 213/203/80
f 206/202/68 213/203/80 208/202/69
f 208/202/72 213/203/81 210/203/82
f 208/202/72 210/203/82 203/202/73
f 210/203/75 214/204/83 215/204/84
f 210/203/75 215/204/84 211/203/76
f 211/203/77 215/204/85 216/204/86
f 211/203/77 216/204/86 212/203/78
f 212/203/79 216/204/87 217/204/88
f 212/203/79 217/204/88 213/203/80
f 213/203/81 217/204/89 214/204/90
f 213/203/81 214/204/90 210/203/82
f 214/204/83 218/205/91 219/205/92
f 214/204/83 219/205/92 215/204/84
f 215/204/85 219/205/93 220/205/94
f 215/204/85 220/205/94 216/204/86
f 216/204/87 220/205/95 221/205/96
f 216/204/87 221/205/96 217/204/88
f 217/204/89 221/205/97 218/205/98
f 217/204/89 218/205/98 214/204/90
f 218/205/91 222/206/99 223/206/100
f 218/205/91 223/206/100 219/205/92
f 219/205/93 223/206/101 224/206/102
f 219/205/93 224/206/102 220/205/94
f 220/205/95 224/206/103 225/206/104
f 220/205/95 225/206/104 221/205/96
f 221/205/97 225/206/105 222/206/106
f 221/205/97 222/206/106 218/205/98
f 222/206/99 226/207/107 227/207/108
f 222/206/99 227/207/108 223/206/100
f 223/206/101 227/207/109 228/207/110
f 223/206/101 228/207/110 224/206/102
f 224/206/103 228/207/111 229/207/112
f 224/206/103 229/207/112 225/206/104
f 225/206/105 229/207/113 226/207/114
f 225/206/105 226/207/114 222/206/106
f 226/207/107 230/208/115 231/208/116
f 226/207/107 231/208/116 227/207/108
f 227/207/109 231/208/117 232/208/118
f 227/207/109 232/208/118 228/207/110
f 228/207/111 232/208/119 233/208/120
f 228/207/111 233/208/120 229/207/112
f 229/207/113 233/208/121 230/208/122
f 229/207/113 230/208/122 226/207/114
f 209/201/123 207/201/123 205/201/123
f 209/201/123 205/201/123 202/201/123
