# Generated by tools/models/generate_all.gd - DO NOT EDIT BY HAND.
# Change the generator and re-run:
#   godot --headless -s tools/models/generate_all.gd
mtllib tsinelas_bakya.mtl
o Tsinelas
v 0.04162 -0.02555 -0.21085
v 0.04162 0.02245 -0.21085
v 0.08002 0.02245 -0.11325
v 0.08002 -0.02555 -0.11325
v 0.07042 0.02245 -0.00125
v 0.07042 -0.02555 -0.00125
v 0.07682 0.02245 0.14275
v 0.07682 -0.02555 0.14275
v 0.04162 0.02245 0.19075
v 0.04162 -0.02555 0.19075
v 0.00002 0.02245 0.20035
v 0.00002 -0.02555 0.20035
v -0.04158 0.02245 0.19075
v -0.04158 -0.02555 0.19075
v -0.07678 0.02245 0.14275
v -0.07678 -0.02555 0.14275
v -0.07038 0.02245 -0.00125
v -0.07038 -0.02555 -0.00125
v -0.07998 0.02245 -0.11325
v -0.07998 -0.02555 -0.11325
v -0.04158 0.02245 -0.21085
v -0.04158 -0.02555 -0.21085
v 0.00002 0.02245 -0.22845
v 0.00002 -0.02555 -0.22845
v 0.06607 -0.05915 0.12080
v 0.06607 -0.02491 0.12080
v 0.03579 -0.02491 0.16208
v 0.03579 -0.05915 0.16208
v 0.00002 -0.02491 0.17033
v 0.00002 -0.05915 0.17033
v -0.03576 -0.02491 0.16208
v -0.03576 -0.05915 0.16208
v -0.06603 -0.02491 0.12080
v -0.06603 -0.05915 0.12080
v 0.03579 -0.04091 -0.18330
v 0.03579 -0.02491 -0.18330
v 0.06882 -0.02491 -0.09936
v 0.06882 -0.04091 -0.09936
v -0.06878 -0.02491 -0.09936
v -0.06878 -0.04091 -0.09936
v -0.03576 -0.02491 -0.18330
v -0.03576 -0.04091 -0.18330
v 0.00002 -0.02491 -0.19844
v 0.00002 -0.04091 -0.19844
v 0.08232 0.02199 0.03331
v 0.06006 0.05323 0.03331
v 0.06006 0.05323 0.11971
v 0.08232 0.02199 0.11971
v 0.04741 0.04242 0.11971
v 0.06812 0.01332 0.11971
v 0.04741 0.04242 0.03331
v 0.06812 0.01332 0.03331
v 0.03703 0.07475 0.03331
v 0.03703 0.07475 0.11971
v 0.02747 0.06113 0.11971
v 0.02747 0.06113 0.03331
v 0.01266 0.08610 0.03331
v 0.01266 0.08610 0.11971
v 0.00887 0.06989 0.11971
v 0.00887 0.06989 0.03331
v -0.01262 0.08610 0.03331
v -0.01262 0.08610 0.11971
v -0.00883 0.06989 0.11971
v -0.00883 0.06989 0.03331
v -0.03699 0.07475 0.03331
v -0.03699 0.07475 0.11971
v -0.02743 0.06113 0.11971
v -0.02743 0.06113 0.03331
v -0.06002 0.05323 0.03331
v -0.06002 0.05323 0.11971
v -0.04737 0.04242 0.11971
v -0.04737 0.04242 0.03331
v -0.08228 0.02199 0.03331
v -0.08228 0.02199 0.11971
v -0.06808 0.01332 0.11971
v -0.06808 0.01332 0.03331
vt 0.56468 0.19403
vt 0.62438 0.34577
vt 0.60945 0.51990
vt 0.61940 0.74378
vt 0.56468 0.81841
vt 0.50000 0.83333
vt 0.43532 0.81841
vt 0.38060 0.74378
vt 0.39055 0.51990
vt 0.37562 0.34577
vt 0.43532 0.19403
vt 0.50000 0.16667
vt 0.50000 0.03704
vt 0.67275 0.28579
vt 0.58983 0.07504
vt 0.65202 0.52764
vt 0.58983 0.94223
vt 0.66584 0.83858
vt 0.41017 0.94223
vt 0.50000 0.96296
vt 0.34798 0.52764
vt 0.33416 0.83858
vt 0.41017 0.07504
vt 0.32725 0.28579
vt 0.60269 0.70965
vt 0.55562 0.77383
vt 0.50000 0.78667
vt 0.44438 0.77383
vt 0.39731 0.70965
vt 0.35738 0.79118
vt 0.57725 0.88032
vt 0.64262 0.79118
vt 0.42275 0.88032
vt 0.50000 0.89815
vt 0.55562 0.23687
vt 0.60697 0.36736
vt 0.39303 0.36736
vt 0.44438 0.23687
vt 0.50000 0.21333
vt 0.50000 0.10185
vt 0.64856 0.31578
vt 0.57725 0.13454
vt 0.42275 0.13454
vt 0.35144 0.31578
vt 0.62666 0.69555
vt 0.59047 0.69555
vt 0.55428 0.69555
vt 0.51809 0.69555
vt 0.48191 0.69555
vt 0.44572 0.69555
vt 0.40953 0.69555
vt 0.37334 0.69555
vt 0.00000 0.00000
vn 0.93057 0.00000 -0.36612
vn 0.97532 0.00000 -0.22078
vn 0.99778 0.00000 -0.06667
vn 0.99911 0.00000 0.04221
vn 1.00000 0.00000 -0.00114
vn 0.98432 0.00000 0.17639
vn 0.91672 0.00000 0.39954
vn 0.80640 0.00000 0.59136
vn 0.22486 0.00000 0.97439
vn 0.07670 0.00000 0.99705
vn -0.07670 0.00000 0.99705
vn -0.22486 0.00000 0.97439
vn -0.80640 0.00000 0.59136
vn -0.91672 0.00000 0.39954
vn -0.98432 0.00000 0.17639
vn -1.00000 0.00000 -0.00114
vn -0.99911 0.00000 0.04221
vn -0.99778 0.00000 -0.06667
vn -0.97532 0.00000 -0.22078
vn -0.93057 0.00000 -0.36612
vn -0.38964 0.00000 -0.92097
vn 0.38964 0.00000 -0.92097
vn 0.00000 1.00000 0.00000
vn 0.00000 -1.00000 0.00000
vn 0.80641 0.00000 0.59136
vn -0.80641 0.00000 0.59136
vn 0.00000 0.00000 -1.00000
vn 0.00000 0.00000 1.00000
vn 0.81439 0.58032 0.00000
vn 0.72986 0.68360 0.00000
vn 0.77394 0.63325 0.00000
vn -0.81475 -0.57981 0.00000
vn -0.73095 -0.68244 0.00000
vn -0.77464 -0.63240 0.00000
vn 0.51469 0.85737 0.00000
vn 0.60252 0.79811 0.00000
vn -0.51789 -0.85545 0.00000
vn -0.60482 -0.79636 0.00000
vn 0.14374 0.98962 0.00000
vn 0.28747 0.95779 0.00000
vn -0.14520 -0.98940 0.00000
vn -0.29041 -0.95690 0.00000
vn -0.28747 0.95779 0.00000
vn -0.14374 0.98962 0.00000
vn 0.29041 -0.95690 0.00000
vn 0.14520 -0.98940 0.00000
vn -0.60252 0.79811 0.00000
vn -0.51469 0.85737 0.00000
vn 0.60482 -0.79636 0.00000
vn 0.51789 -0.85545 0.00000
vn -0.77394 0.63325 0.00000
vn -0.72986 0.68360 0.00000
vn 0.77464 -0.63240 0.00000
vn 0.73095 -0.68244 0.00000
vn -0.81439 0.58032 0.00000
vn 0.81475 -0.57981 0.00000
vn -0.52100 0.85356 0.00000
usemtl skin
f 1/1/1 2/1/1 3/2/2
f 1/1/1 3/2/2 4/2/3
f 4/2/3 3/2/2 5/3/4
f 4/2/3 5/3/4 6/3/5
f 6/3/5 5/3/4 7/4/6
f 6/3/5 7/4/6 8/4/7
f 8/4/7 7/4/6 9/5/8
f 8/4/7 9/5/8 10/5/8
f 10/5/9 9/5/9 11/6/10
f 10/5/9 11/6/10 12/6/11
f 12/6/11 11/6/10 13/7/12
f 12/6/11 13/7/12 14/7/12
f 14/7/13 13/7/13 15/8/14
f 14/7/13 15/8/14 16/8/15
f 16/8/15 15/8/14 17/9/16
f 16/8/15 17/9/16 18/9/17
f 18/9/17 17/9/16 19/10/18
f 18/9/17 19/10/18 20/10/19
f 20/10/19 19/10/18 21/11/20
f 20/10/19 21/11/20 22/11/20
f 22/11/21 21/11/21 23/12/21
f 22/11/21 23/12/21 24/12/21
f 24/12/22 23/12/22 2/1/22
f 24/12/22 2/1/22 1/1/22
f 23/13/23 3/14/23 2/15/23
f 24/13/24 1/15/24 4/14/24
f 5/16/23 9/17/23 7/18/23
f 6/16/24 8/18/24 10/17/24
f 9/17/23 13/19/23 11/20/23
f 10/17/24 12/20/24 14/19/24
f 13/19/23 17/21/23 15/22/23
f 14/19/24 16/22/24 18/21/24
f 17/21/23 21/23/23 19/24/23
f 18/21/24 20/24/24 22/23/24
f 21/23/23 3/14/23 23/13/23
f 22/23/24 24/13/24 4/14/24
f 3/14/23 9/17/23 5/16/23
f 4/14/24 6/16/24 10/17/24
f 9/17/23 17/21/23 13/19/23
f 10/17/24 14/19/24 18/21/24
f 17/21/23 3/14/23 21/23/23
f 18/21/24 22/23/24 4/14/24
f 3/14/23 17/21/23 9/17/23
f 4/14/24 10/17/24 18/21/24
f 25/25/25 26/25/25 27/26/25
f 25/25/25 27/26/25 28/26/25
f 28/26/9 27/26/9 29/27/10
f 28/26/9 29/27/10 30/27/11
f 30/27/11 29/27/10 31/28/12
f 30/27/11 31/28/12 32/28/12
f 32/28/26 31/28/26 33/29/26
f 32/28/26 33/29/26 34/29/26
f 34/29/27 33/29/27 26/25/27
f 34/29/27 26/25/27 25/25/27
f 33/30/23 27/31/23 26/32/23
f 34/30/24 25/32/24 28/31/24
f 27/31/23 31/33/23 29/34/23
f 28/31/24 30/34/24 32/33/24
f 31/33/23 27/31/23 33/30/23
f 32/33/24 34/30/24 28/31/24
f 35/35/1 36/35/1 37/36/1
f 35/35/1 37/36/1 38/36/1
f 38/36/28 37/36/28 39/37/28
f 38/36/28 39/37/28 40/37/28
f 40/37/20 39/37/20 41/38/20
f 40/37/20 41/38/20 42/38/20
f 42/38/21 41/38/21 43/39/21
f 42/38/21 43/39/21 44/39/21
f 44/39/22 43/39/22 36/35/22
f 44/39/22 36/35/22 35/35/22
f 43/40/23 37/41/23 36/42/23
f 44/40/24 35/42/24 38/41/24
f 37/41/23 41/43/23 39/44/23
f 38/41/24 40/44/24 42/43/24
f 41/43/23 37/41/23 43/40/23
f 42/43/24 44/40/24 38/41/24
f 45/45/29 46/46/30 47/46/31
f 45/45/29 47/46/31 48/45/29
f 48/45/28 47/46/28 49/46/28
f 48/45/28 49/46/28 50/45/28
f 50/45/32 49/46/33 51/46/34
f 50/45/32 51/46/34 52/45/32
f 52/45/27 51/46/27 46/46/27
f 52/45/27 46/46/27 45/45/27
f 46/46/30 53/47/35 54/47/36
f 46/46/30 54/47/36 47/46/31
f 47/46/28 54/47/28 55/47/28
f 47/46/28 55/47/28 49/46/28
f 49/46/33 55/47/37 56/47/38
f 49/46/33 56/47/38 51/46/34
f 51/46/27 56/47/27 53/47/27
f 51/46/27 53/47/27 46/46/27
f 53/47/35 57/48/39 58/48/40
f 53/47/35 58/48/40 54/47/36
f 54/47/28 58/48/28 59/48/28
f 54/47/28 59/48/28 55/47/28
f 55/47/37 59/48/41 60/48/42
f 55/47/37 60/48/42 56/47/38
f 56/47/27 60/48/27 57/48/27
f 56/47/27 57/48/27 53/47/27
f 57/48/39 61/49/43 62/49/44
f 57/48/39 62/49/44 58/48/40
f 58/48/28 62/49/28 63/49/28
f 58/48/28 63/49/28 59/48/28
f 59/48/41 63/49/45 64/49/46
f 59/48/41 64/49/46 60/48/42
f 60/48/27 64/49/27 61/49/27
f 60/48/27 61/49/27 57/48/27
f 61/49/43 65/50/47 66/50/48
f 61/49/43 66/50/48 62/49/44
f 62/49/28 66/50/28 67/50/28
f 62/49/28 67/50/28 63/49/28
f 63/49/45 67/50/49 68/50/50
f 63/49/45 68/50/50 64/49/46
f 64/49/27 68/50/27 65/50/27
f 64/49/27 65/50/27 61/49/27
f 65/50/47 69/51/51 70/51/52
f 65/50/47 70/51/52 66/50/48
f 66/50/28 70/51/28 71/51/28
f 66/50/28 71/51/28 67/50/28
f 67/50/49 71/51/53 72/51/54
f 67/50/49 72/51/54 68/50/50
f 68/50/27 72/51/27 69/51/27
f 68/50/27 69/51/27 65/50/27
f 69/51/51 73/52/55 74/52/55
f 69/51/51 74/52/55 70/51/52
f 70/51/28 74/52/28 75/52/28
f 70/51/28 75/52/28 71/51/28
f 71/51/53 75/52/56 76/52/56
f 71/51/53 76/52/56 72/51/54
f 72/51/27 76/52/27 73/52/27
f 72/51/27 73/52/27 69/51/27
f 52/45/57 50/45/57 48/45/57
f 52/45/57 48/45/57 45/45/57
